<?xml version="1.0" encoding="UTF-8"?><svg xmlns="http://www.w3.org/2000/svg" viewBox="0 0 442.68 772.8"><defs><style>.d{fill:#ee7178;}.e,.f{fill:#fff;}.g{fill:#352e3b;opacity:.05;}.h{fill:#fbab20;}.i{opacity:.6;}.f,.j{opacity:.3;}.k{fill:#fe652b;}.l{opacity:.2;}.m{fill:#e04c28;}.n{fill:#db9f6b;}.o{fill:#ff4376;}.p{fill:#f4cda5;}.q{fill:#e6b88f;}.j,.r{fill:#f3dcc7;}.s{fill:#fc611f;}.t{fill:#f2e9d3;}.u{fill:#63b2d0;}.v{fill:#d9ea9b;}.w{fill:#5db5a4;}</style></defs><g id="a"/><g id="b"><g id="c"><g><g><path class="k" d="M93.06,772.8H373.24v-116.5H93.06v116.5Z"/><path class="n" d="M9.86,475.17c5.11,18.35,24.12,29.09,42.48,23.98l69.64-19.38c18.35-5.11,29.09-24.13,23.98-42.48h0c-5.11-18.36-24.13-29.09-42.48-23.99l-69.64,19.38c-18.35,5.11-29.1,24.13-23.98,42.48h0Z"/><path class="n" d="M9.86,372.24c5.11,18.35,24.12,29.09,42.48,23.98l69.64-19.38c18.35-5.11,29.09-24.12,23.98-42.48h0c-5.11-18.35-24.13-29.09-42.48-23.98l-68.01,18.96c-18.35,5.1-30.73,24.54-25.61,42.89h0Z"/><path class="n" d="M5.57,278.8c5.31,19.08,24.96,30.28,43.88,25.01l71.81-19.98c18.92-5.27,29.96-25.01,24.65-44.09h0c-5.31-19.08-24.96-30.28-43.89-25.02l-71.8,19.98c-18.93,5.27-29.97,25.01-24.65,44.09h0Z"/><path class="q" d="M.64,169.65c-3.63,18.7,8.58,36.8,27.28,40.44l87.07,16.94c18.7,3.63,36.81-8.58,40.45-27.28h0c3.63-18.7-8.58-36.81-27.28-40.45l-87.08-16.93c-18.7-3.63-36.81,8.58-40.45,27.28H.64Z"/><path class="d" d="M368.16,499.66c0,15.59-11.29,28.24-25.21,28.24H95.11c-13.92,0-25.2-12.65-25.2-28.24V28.24c0-15.6,11.29-28.24,25.2-28.24h247.84c13.93,0,25.21,12.64,25.21,28.24V499.66Z"/><path class="q" d="M442.68,344.25l-10.17-35.27-13.86-70.9c-1.77-17.58-6.1-28.64-8.29-36.61-2.81-10.25-5.51-9.18-8.19-11.15-5.55-4.08-10.23-1.95-10.23-1.95-22.3,.24-39.19,30.6-34.89,83.21,0,0,3.79,15.15,8.13,42.3,2.01,12.53,3.09,50.11,3.09,50.11,0,8.85,.33,86.65,.33,124.85,0,46.36-15.53,39.58-97.48,39.58H98.1s-6.85,15.33,18.29,29.58v57.46h223.09l-3.7-54.52c9.44,2.77,53.69-94.43,106.91-216.69Z"/><path class="q" d="M23.47,493.65l51.5,42.83c14.41,10.37,34.1,7.65,43.97-6.06h0c9.88-13.73,6.19-33.25-8.21-43.63l-68.32-55.76c-8.81,1.68-18.94,2.27-28.81,15.99,0,0-14.59,30.07,9.87,46.62Z"/><rect class="g" x="120.29" y="628.63" width="229.91" height="27.59"/><path class="m" d="M87.83,615.1H378.47c5.1,0,9.24,4.14,9.24,9.24v70.04c0,5.1-4.14,9.24-9.24,9.24H87.83c-5.1,0-9.24-4.14-9.24-9.24v-70.04c0-5.1,4.14-9.24,9.24-9.24Z"/><path class="r" d="M103.29,493.42s-17.86-8.38-27.63,1.68c-9.78,10.06-3.2,24.18-3.2,24.18,0,0,21.21,24.76,36.32,7.26,15.9-18.42-5.49-33.12-5.49-33.12Z"/><rect class="e" x="97.17" y="604.31" width="269.76" height="10.94"/><path class="f" d="M256.4,22.11c0,2.26-1.9,4.09-4.25,4.09h-68.15c-2.34,0-4.25-1.83-4.25-4.09h0c0-2.26,1.91-4.09,4.25-4.09h68.15c2.35,0,4.25,1.83,4.25,4.09h0Z"/><rect class="v" x="93.99" y="42.38" width="250.07" height="401"/><rect class="l" x="93.06" y="41.01" width="2.94" height="401.74"/><path class="f" d="M219.5,504.12c-12.51,0-22.68-10.18-22.68-22.69s10.17-22.68,22.68-22.68,22.69,10.17,22.69,22.68-10.18,22.69-22.69,22.69Zm0-41.69c-10.48,0-19.01,8.53-19.01,19.01s8.52,19.01,19.01,19.01,19.01-8.53,19.01-19.01-8.54-19.01-19.01-19.01Z"/><polygon class="n" points="63.37 217.03 69.98 218.35 69.98 147.86 63.57 146.88 63.37 217.03"/><path class="n" d="M368.18,321.54v59.68s15.53-11.45,0-59.68Z"/><path class="j" d="M22.99,454.13l47.64,40.13s12.98-10.88,24.75-6.95c12.57,4.19,31.13,15.86,20.38,32.91-3.84,4.87-4.16,6.11-4.16,6.11l5.46,4.1s16.84-20.85-3.95-43.26c-6.8-7.33-27.35-22.46-31.04-25.09-20.39-14.54-38.47-26.37-38.47-26.37,0,0-18.07,8.83-20.6,18.42Z"/><path class="q" d="M27.33,298.13l18.74,21.58c18.82,13.54,42.67,12.59,53.26-2.13h0c10.59-14.72,3.91-37.63-14.9-51.18l-37.89-36.21c-10.11,1.83-24.93,1.16-35.52,15.88,0,0-20.89,32.57,16.31,52.05Z"/><path class="j" d="M20.99,246.23l34.13,41.72s13.31-11.21,21.8-10.43c13.21,1.2,28.29,20.52,15.01,35.69-4.56,4.21-5.06,5.39-5.06,5.39l4.74,4.9s19.89-17.97,2.84-43.35c-5.58-8.31-13.12-13.69-16.35-16.86-17.88-17.54-33.9-32.04-33.9-32.04,0,0-19.22,5.91-23.22,14.98Z"/><path class="q" d="M27.67,397.42l18.13,21.27c18.35,13.21,41.97,11.78,52.75-3.19h0c10.77-14.98,4.62-37.83-13.73-51.04l-41.04-37.46c-9.85,.63-20.44,3.56-31.21,18.53,0,0-15.96,30.67,15.1,51.89Z"/><path class="j" d="M20.18,344.33l34.13,41.71s13.28-10.42,21.81-10.42,28.28,20.51,15,35.68c-4.55,4.22-5.06,5.39-5.06,5.39l4.75,4.9s20.64-21.82,2.84-43.35c-6.38-7.72-13.12-13.68-16.36-16.86-17.88-17.54-33.9-32.04-33.9-32.04,0,0-19.22,5.9-23.22,14.98Z"/><path class="t" d="M392.56,188.93s12.26-2.2,15.7,5.48c3.21,7.17,6.64,23,7.87,46.31-12.29,2.89-21.03-1.01-23.57-51.79Z"/><path class="r" d="M86.8,383.86s-17.56-8.23-27.17,1.65c-9.61,9.87-3.15,23.74-3.15,23.74,0,0,15.51,23.49,30.36,6.32,15.65-18.08-.05-31.7-.05-31.7Z"/><path class="r" d="M87.18,284.2s-17.86-8.38-27.63,1.68c-9.78,10.06-3.21,24.19-3.21,24.19,0,0,18.34,21.65,33.45,4.15,15.91-18.42-2.61-30.01-2.61-30.01Z"/></g><g><rect class="p" x="115.95" y="71.9" width="96.42" height="104.04"/><rect class="w" x="224.09" y="71.9" width="96.42" height="104.04"/><rect class="o" x="115.95" y="189.59" width="96.42" height="104.04"/><rect class="u" x="224.09" y="189.59" width="96.42" height="104.04"/><rect class="s" x="115.95" y="305.08" width="96.42" height="104.04"/><rect class="h" x="224.09" y="305.08" width="96.42" height="104.04"/><g><path class="e" d="M251.13,343.13c0-.69,.55-1.23,1.22-1.23h40.14c.67,0,1.22,.55,1.22,1.23v6.88c0,.68-.55,1.24-1.22,1.24h-40.14c-.67,0-1.22-.55-1.22-1.24v-6.88Z"/><path class="e" d="M253.49,372.1c0,.8,.64,1.45,1.42,1.45h35.53c.79,0,1.42-.64,1.42-1.45v-22.08h-38.38v22.08Z"/><rect class="h" x="270.44" y="342.06" width="4.46" height="31.28"/><rect class="h" x="253.12" y="352.3" width="40.78" height="4.45"/><path class="e" d="M266.71,332.32c2.24,0,4.07,1.84,4.07,4.11v4.11h-4.07c-2.25,0-4.07-1.85-4.07-4.11s1.82-4.11,4.07-4.11h0Zm0-1.4c-3.02,0-5.47,2.47-5.47,5.51s2.45,5.5,5.47,5.5h5.46v-5.5c0-3.04-2.44-5.51-5.46-5.51h0Z"/><path class="e" d="M277.76,332.32c2.25,0,4.07,1.84,4.07,4.11s-1.82,4.11-4.07,4.11h-4.07v-4.11c0-2.26,1.82-4.11,4.07-4.11h0Zm0-1.4c-3.02,0-5.47,2.47-5.47,5.51v5.5h5.47c3.02,0,5.46-2.46,5.46-5.5s-2.44-5.51-5.46-5.51h0Z"/><rect class="h" x="253.53" y="351.32" width="38.26" height="1.77"/></g><path class="e" d="M263.09,134.6h-2.25s-.37-11.08-1.5-15.58c-1.13-4.51-2.34-8.08,1.42-11.09,4.13,1.13,8.34,5.65,10.78,10.15,2.43,4.5,5.37,9.38,11.11,9.82,7.04,1.18,11.24,1.63,10.86,4.26-.37,2.63-2.2,2.35-2.2,2.35,0,0-10.38,1.4-13.01,.65-2.63-.75-8.26-8.82-10.7-9.76-2.44-.93-4.69,2.06-4.51,9.2Z"/><g><rect class="e" x="158.06" y="116.36" width="11.26" height="17.78"/><polygon class="e" points="159.6 113.9 167.77 113.9 167.77 98.11 159.6 102.28 159.6 113.9"/></g><g><path class="e" d="M164.39,250.75c-13.3,0-19.01-22.62-19.24-23.58l3.11-.76c.05,.21,5.33,21.15,16.13,21.15s14.04-20.6,14.07-20.81l3.16,.49c-.14,.96-3.82,23.52-17.24,23.52Z"/><path class="e" d="M160.11,249.74c0-2.35,1.91-4.27,4.27-4.27s4.27,1.92,4.27,4.27-1.91,4.27-4.27,4.27-4.27-1.91-4.27-4.27Z"/></g><path class="e" d="M196.06,351.23h-1.1c-17.38-6.15-24.92-.96-27.4,1.59l.04-.12c-.22-.08-4.84-1.6-7.58,.53-2.01-2.33-9.42-8.51-27.81-2h-1.96v2.27h2.37c1.09,4.02,5.12,11.92,19.87,11.52,9.13,.11,8.91-9.3,8.91-9.3,.96-1.3,3.62-.86,4.91-.5-.52,2.85-.87,9.91,8.43,9.8,14.76,.39,18.78-7.52,19.87-11.54h1.47v-2.27Z"/><polygon class="e" points="271.96 256.37 255.99 236.61 262.7 228.34 282.3 228.34 288.88 236.89 271.96 256.37"/><rect class="e" x="147.04" y="159.7" width="34.25" height="5.91"/><rect class="e" x="255.16" y="159.7" width="34.26" height="5.91"/><rect class="e" x="147.04" y="276.65" width="34.25" height="5.9"/><rect class="e" x="255.16" y="276.65" width="34.26" height="5.9"/><rect class="e" x="147.04" y="387.69" width="34.25" height="5.91"/><rect class="e" x="255.16" y="387.69" width="34.26" height="5.91"/></g><g class="i"><rect class="m" x="110.89" y="703.8" width="14" height="69"/><rect class="m" x="142.89" y="703.8" width="14" height="69"/><rect class="m" x="175.89" y="703.8" width="13" height="69"/><rect class="m" x="207.89" y="703.8" width="13" height="69"/><rect class="m" x="239.89" y="703.8" width="14" height="69"/><rect class="m" x="271.89" y="703.8" width="14" height="69"/><rect class="m" x="304.89" y="703.8" width="13" height="69"/><rect class="m" x="336.89" y="703.8" width="13" height="69"/></g></g></g></g></svg>