<svg xmlns="http://www.w3.org/2000/svg" xmlns:xlink="http://www.w3.org/1999/xlink" viewBox="0 0 500 400"><defs><style>.cls-1,.cls-13,.cls-22,.cls-24,.cls-25,.cls-28,.cls-32,.cls-33,.cls-36,.cls-6,.cls-8{fill:none;}.cls-2{isolation:isolate;}.cls-12,.cls-3{fill:#ffdee1;}.cls-15,.cls-17,.cls-4{fill:#ff796d;}.cls-19,.cls-4{opacity:0.55;}.cls-10,.cls-14,.cls-5{fill:#fff;}.cls-5,.cls-6{stroke:#ff796d;stroke-width:2px;}.cls-13,.cls-14,.cls-22,.cls-24,.cls-25,.cls-32,.cls-33,.cls-5,.cls-6,.cls-8{stroke-miterlimit:10;}.cls-7{fill:#ffeef0;}.cls-8{stroke:#277ef1;}.cls-13,.cls-14,.cls-8{stroke-width:1.5px;}.cls-9{fill:#277ef1;}.cls-11,.cls-34{fill:#e0ebfc;}.cls-11{opacity:0.75;}.cls-12{mix-blend-mode:multiply;opacity:0.65;}.cls-13,.cls-14{stroke:#ff928d;}.cls-15{opacity:0.35;}.cls-16{fill:#b5dae5;}.cls-18{fill:#ffbea1;}.cls-20{fill:#ef9d7d;}.cls-21{fill:#24b3c6;}.cls-22{stroke:#1b5889;}.cls-23,.cls-35{fill:#19202d;}.cls-24,.cls-36{stroke:#fff;}.cls-24,.cls-25,.cls-28,.cls-33{stroke-width:0.75px;}.cls-25{stroke:#050d75;}.cls-26{fill:#ffd273;}.cls-27{fill:#68d7ec;}.cls-28{stroke:#19202d;}.cls-28,.cls-36{stroke-linejoin:round;}.cls-29{clip-path:url(#clip-path);}.cls-30{fill:url(#linear-gradient);}.cls-31{fill:url(#linear-gradient-2);}.cls-32{stroke:#9ce8f2;stroke-width:0.5px;}.cls-33{stroke:#ef977f;}.cls-35{mix-blend-mode:screen;}.cls-36{stroke-linecap:round;stroke-width:3.5px;}</style><clipPath id="clip-path"><circle class="cls-1" cx="350.36" cy="171.77" r="30.73" transform="translate(39.4 407.48) rotate(-63.28)"/></clipPath><linearGradient id="linear-gradient" x1="346.49" y1="206.16" x2="346.49" y2="130.22" gradientUnits="userSpaceOnUse"><stop offset="0" stop-color="#fff" stop-opacity="0.2"/><stop offset="0.27" stop-color="#fff" stop-opacity="0.21"/><stop offset="0.4" stop-color="#fff" stop-opacity="0.24"/><stop offset="0.5" stop-color="#fff" stop-opacity="0.29"/><stop offset="0.59" stop-color="#fff" stop-opacity="0.36"/><stop offset="0.66" stop-color="#fff" stop-opacity="0.46"/><stop offset="0.73" stop-color="#fff" stop-opacity="0.57"/><stop offset="0.79" stop-color="#fff" stop-opacity="0.7"/></linearGradient><linearGradient id="linear-gradient-2" x1="368.99" y1="206.16" x2="368.99" y2="130.22" xlink:href="#linear-gradient"/></defs><g class="cls-2"><g id="Layer_1" data-name="Layer 1"><path class="cls-3" d="M299.89,287.55H210.4s3.71,57-14,57H313.9C296.18,344.56,299.89,287.55,299.89,287.55Z"/><path class="cls-4" d="M209.38,321.82l90.23-18.28c-.17-9,.28-16,.28-16H210.4S211.59,305.93,209.38,321.82Z"/><rect class="cls-3" x="75.56" y="69.06" width="359.16" height="235.68" rx="18.42"/><rect class="cls-5" x="85.65" y="77.41" width="338.99" height="218.98" rx="14.75"/><line class="cls-6" x1="85.65" y1="105.03" x2="424.64" y2="105.03"/><path class="cls-7" d="M383.93,96.43H150.39a5.8,5.8,0,0,1-5.8-5.8h0a5.8,5.8,0,0,1,5.8-5.79H383.93a5.79,5.79,0,0,1,5.79,5.79h0A5.8,5.8,0,0,1,383.93,96.43Z"/><path class="cls-8" d="M102.28,90.92a3.09,3.09,0,1,1-3.09-3.09A3.09,3.09,0,0,1,102.28,90.92Z"/><path class="cls-8" d="M116.71,90.92a3.09,3.09,0,1,1-3.09-3.09A3.09,3.09,0,0,1,116.71,90.92Z"/><path class="cls-8" d="M131.14,90.92a3.09,3.09,0,1,1-3.09-3.09A3.09,3.09,0,0,1,131.14,90.92Z"/><path class="cls-8" d="M349.76,184.37H160.53a13,13,0,0,1-13-13h0a13,13,0,0,1,13-13H349.76a13,13,0,0,1,13,13h0A13,13,0,0,1,349.76,184.37Z"/><path class="cls-9" d="M349.76,158.41H328v26h21.78a13,13,0,0,0,13-13h0A13,13,0,0,0,349.76,158.41Z"/><path class="cls-10" d="M353.55,177.66l-4.29-4.3a6.75,6.75,0,1,0-5.41,2.71,6.63,6.63,0,0,0,3.11-.77l4.47,4.48a1.51,1.51,0,0,0,1.06.43,1.49,1.49,0,0,0,1.06-.43,1.52,1.52,0,0,0,.44-1.06A1.5,1.5,0,0,0,353.55,177.66Zm-4.86-8.34a4.84,4.84,0,1,1-4.84-4.84A4.85,4.85,0,0,1,348.69,169.32Z"/><path class="cls-11" d="M215,177H160.85a5.59,5.59,0,0,1-5.59-5.59h0a5.58,5.58,0,0,1,5.59-5.58H215a5.58,5.58,0,0,1,5.59,5.58h0A5.59,5.59,0,0,1,215,177Z"/><rect class="cls-3" x="180.41" y="342.93" width="149.48" height="8.32"/><rect class="cls-11" x="186.86" y="200.54" width="49.13" height="12.49" rx="6.24"/><line class="cls-8" x1="193.57" y1="208.34" x2="229.27" y2="208.34"/><rect class="cls-11" x="245.89" y="200.54" width="77.54" height="12.49" rx="6.24"/><line class="cls-8" x1="259.5" y1="208.34" x2="309.82" y2="208.34"/><line class="cls-8" x1="358.24" y1="115.49" x2="371.96" y2="115.49"/><line class="cls-8" x1="378.6" y1="115.49" x2="392.31" y2="115.49"/><rect class="cls-11" x="397.25" y="111.77" width="1.85" height="1.85"/><rect class="cls-11" x="399.83" y="111.77" width="1.85" height="1.85"/><rect class="cls-11" x="402.4" y="111.77" width="1.85" height="1.85"/><rect class="cls-11" x="397.25" y="114.57" width="1.85" height="1.85"/><rect class="cls-11" x="399.83" y="114.57" width="1.85" height="1.85"/><rect class="cls-11" x="402.4" y="114.57" width="1.85" height="1.85"/><rect class="cls-11" x="397.25" y="117.36" width="1.85" height="1.85"/><rect class="cls-11" x="399.83" y="117.36" width="1.85" height="1.85"/><rect class="cls-11" x="402.4" y="117.36" width="1.85" height="1.85"/><circle class="cls-11" cx="411.87" cy="115.49" r="4.68"/><path class="cls-12" d="M169.48,126.24H75.56v35.37h93.92a3.81,3.81,0,0,0,3.79-3.82V130.06A3.81,3.81,0,0,0,169.48,126.24Z"/><circle class="cls-9" cx="415.28" cy="84.84" r="1.22"/><circle class="cls-9" cx="415.28" cy="90.63" r="1.22"/><circle class="cls-9" cx="415.28" cy="96.43" r="1.22"/><line class="cls-13" x1="309.82" y1="343.38" x2="233.33" y2="343.38"/><line class="cls-13" x1="224.75" y1="343.38" x2="199.78" y2="343.38"/><rect class="cls-12" x="240.84" y="228.86" width="172.39" height="53.79" rx="7.15"/><rect class="cls-14" x="233.6" y="224.03" width="172.39" height="53.79" rx="7.15"/><path class="cls-7" d="M394.56,248.62H293.66a3.1,3.1,0,0,1-3.1-3.1h0a3.1,3.1,0,0,1,3.1-3.1h100.9a3.1,3.1,0,0,1,3.1,3.1h0A3.1,3.1,0,0,1,394.56,248.62Z"/><path class="cls-7" d="M394.56,259.43H293.66a3.1,3.1,0,0,1-3.1-3.1h0a3.1,3.1,0,0,1,3.1-3.1h100.9a3.1,3.1,0,0,1,3.1,3.1h0A3.1,3.1,0,0,1,394.56,259.43Z"/><path class="cls-7" d="M394.56,237.81H293.66a3.1,3.1,0,0,1-3.1-3.1h0a3.1,3.1,0,0,1,3.1-3.1h100.9a3.1,3.1,0,0,1,3.1,3.1h0A3.1,3.1,0,0,1,394.56,237.81Z"/><rect class="cls-7" x="290.56" y="264.04" width="28.54" height="6.2" rx="3.1"/><rect class="cls-15" x="240.11" y="231.61" width="38.64" height="38.64" rx="5.37"/><polygon class="cls-10" points="255.13 239.34 244.46 259.88 265.79 259.88 255.13 239.34"/><polygon class="cls-10" points="266.51 246.09 263.94 251.03 268.54 259.88 273.67 259.88 266.51 246.09"/><path class="cls-10" d="M272.21,242.24A2.23,2.23,0,1,1,270,240,2.22,2.22,0,0,1,272.21,242.24Z"/><rect class="cls-12" x="278.95" y="70.78" width="125.89" height="51.66" rx="6.86"/><rect class="cls-14" x="270.37" y="65.33" width="125.89" height="51.66" rx="6.86"/><path class="cls-7" d="M384.47,89H327.24a3,3,0,0,1-3-3h0a3,3,0,0,1,3-3h57.23a3,3,0,0,1,3,3h0A3,3,0,0,1,384.47,89Z"/><path class="cls-7" d="M384.47,99.33H327.24a3,3,0,0,1-3-3h0a3,3,0,0,1,3-3h57.23a3,3,0,0,1,3,3h0A3,3,0,0,1,384.47,99.33Z"/><path class="cls-7" d="M384.47,78.56H327.24a3,3,0,0,1-3-3h0a3,3,0,0,1,3-3h57.23a3,3,0,0,1,3,3h0A3,3,0,0,1,384.47,78.56Z"/><path class="cls-7" d="M348.69,109.71H327.24a3,3,0,0,1-3-3h0a3,3,0,0,1,3-3h21.45a3,3,0,0,1,3,3h0A3,3,0,0,1,348.69,109.71Z"/><path class="cls-7" d="M314.22,90.08a17.52,17.52,0,0,0-2.39-7.85l-3.4,1.6A13.63,13.63,0,0,0,306.07,81l2.23-3a17.66,17.66,0,0,0-7.24-3.86l-1.27,3.54a13.81,13.81,0,0,0-3.69-.36l-.57-3.72a17.72,17.72,0,0,0-4.07.74,17.34,17.34,0,0,0-3.78,1.66l1.6,3.4a13.89,13.89,0,0,0-2.86,2.36l-3-2.24a17.82,17.82,0,0,0-3.86,7.25L283.07,88a13.81,13.81,0,0,0-.36,3.69l-3.72.57a18.28,18.28,0,0,0,.74,4.07,17.34,17.34,0,0,0,1.66,3.78l3.4-1.6a14.16,14.16,0,0,0,2.36,2.86l-2.23,3a17.72,17.72,0,0,0,7.24,3.86l1.27-3.54a14.23,14.23,0,0,0,3.69.36l.57,3.71a17.52,17.52,0,0,0,7.85-2.39l-1.6-3.4a13.89,13.89,0,0,0,2.86-2.36l3,2.23a17.75,17.75,0,0,0,3.86-7.25l-3.54-1.27a14.15,14.15,0,0,0,.36-3.69Zm-15.13,9.21a8.5,8.5,0,1,1,5.65-10.61A8.51,8.51,0,0,1,299.09,99.29Z"/><rect class="cls-14" x="52.79" y="118.27" width="118.53" height="35.11" rx="4.66"/><path class="cls-7" d="M163.86,134.32H92a2,2,0,0,1-2-2h0a2,2,0,0,1,2-2h71.87a2,2,0,0,1,2,2h0A2,2,0,0,1,163.86,134.32Z"/><path class="cls-7" d="M163.86,141.38H92a2,2,0,0,1-2-2h0a2,2,0,0,1,2-2h71.87a2,2,0,0,1,2,2h0A2,2,0,0,1,163.86,141.38Z"/><path class="cls-7" d="M163.86,127.27H92a2,2,0,0,1-2-2h0a2,2,0,0,1,2-2h71.87a2,2,0,0,1,2,2h0A2,2,0,0,1,163.86,127.27Z"/><path class="cls-7" d="M139.54,148.44H92a2,2,0,0,1-2-2h0a2,2,0,0,1,2-2h47.55a2,2,0,0,1,2,2h0A2,2,0,0,1,139.54,148.44Z"/><rect class="cls-4" x="60.93" y="124.56" width="22.53" height="22.53" rx="3.13"/><path class="cls-10" d="M68.41,130.22v11.22a1.16,1.16,0,0,0,1.84.93l7.67-5.61a1.15,1.15,0,0,0,0-1.87l-7.67-5.61A1.16,1.16,0,0,0,68.41,130.22Z"/><path class="cls-16" d="M66,314.05c-3.39-16.12-6.09-32.62-3.88-49.05a97.89,97.89,0,0,1,17.55-43.73q1.28-1.8,2.64-3.55A90.4,90.4,0,0,1,94.76,204.6c3.41-2.91,9.2,0,7.56,3.74A202.14,202.14,0,0,0,86.59,311.52"/><path class="cls-16" d="M73.16,299.32c-.15-15.11,6.39-30,17-40.82a68.61,68.61,0,0,1,28-17c3.59-1.15,6.47,3,3.95,5.67A206,206,0,0,0,103,270.44c-8,11.47-14.37,24.15-17.6,37.72"/><path class="cls-16" d="M58.16,314.66c-5.36-39.31-15.57-67.15-34.35-97.5a3.63,3.63,0,0,1,4.67-5.24A59.53,59.53,0,0,1,47.87,228.7c7.67,10,21.95,28.11,26.36,71.27"/><path class="cls-16" d="M40.62,304.13c0-9.06-8.3-35.7-30.9-47.69a3.72,3.72,0,0,1,1.92-7c12.62.68,23,6.31,31.21,14.28C54.5,275,61.84,293.2,63.7,309.86"/><path class="cls-10" d="M120.51,244.81a75.55,75.55,0,0,0-38,46.08,73.63,73.63,0,0,0-2.9,17.81c0,.21.32.21.33,0a77.72,77.72,0,0,1,8.29-30.88,76.16,76.16,0,0,1,18.59-23.41A77.28,77.28,0,0,1,120.64,245c.14-.08,0-.3-.13-.22Z"/><path class="cls-10" d="M93.63,213a129.35,129.35,0,0,0-16.28,31.45,122.6,122.6,0,0,0-6.82,33.72,110.09,110.09,0,0,0,.58,19.38c0,.13.22.13.21,0a123.59,123.59,0,0,1,1.44-34.24,128.32,128.32,0,0,1,10.95-33A135.06,135.06,0,0,1,93.8,213.06c.08-.11-.1-.2-.17-.1Z"/><path class="cls-10" d="M33.6,220a104.46,104.46,0,0,1,17.29,25.85,155.9,155.9,0,0,1,10.86,31.53c1.48,6.22,2.67,12.5,3.76,18.8,0,.12.2.07.18-.05a205,205,0,0,0-7.82-33.62,126.28,126.28,0,0,0-13.51-29A92.67,92.67,0,0,0,33.7,219.9c-.06-.07-.17,0-.1.11Z"/><path class="cls-10" d="M15,254.32a59.13,59.13,0,0,1,21,14.39,70,70,0,0,1,14.76,23.43A79.59,79.59,0,0,1,54.8,308a.1.1,0,0,0,.2,0,67.48,67.48,0,0,0-9.49-27.31A66.46,66.46,0,0,0,27.4,260.89,55.34,55.34,0,0,0,15,254.2a.06.06,0,0,0,0,.12Z"/><path class="cls-17" d="M29.38,296v9.07c0,36,17.51,46.19,17.51,46.19H85.43s17.51-10.23,17.51-46.19V296Z"/><path class="cls-18" d="M429.11,207.78s-10.17,12.12-5.52,14.82,9.25,2.26,10.91.73,6.71-5.77,5.75-8.82C438.91,210.23,433.39,205.94,429.11,207.78Z"/><polyline class="cls-18" points="429.47 223.09 428.98 231.66 439.39 229.34 436.11 219.15"/><g class="cls-19"><path class="cls-17" d="M437,222.44a6.25,6.25,0,0,1-2.86-1.19c-.33-.25-.64-.79-.29-1,.18-.12.42-.05.63,0a2.3,2.3,0,0,0,1.67-1,4.92,4.92,0,0,0,1.23-2,1.72,1.72,0,0,0-.84-2,1.93,1.93,0,0,0-2,.64,1.07,1.07,0,0,1-.51.36c-.34,0-.62-.33-.61-.68a2.57,2.57,0,0,1,.32-1,4.13,4.13,0,0,0,.21-2.75c-.12-.47-.29-1.08.1-1.37a1.05,1.05,0,0,1,.92,0,16.22,16.22,0,0,1,3.34,1.38,6,6,0,0,1,2.86,5.94c-.38,2.16-2.4,3.7-4.15,4.78"/></g><path class="cls-17" d="M441,218.12a6.73,6.73,0,0,0-2.93-4.53q-3.21-2-6.58-3.62a5.23,5.23,0,0,1-2.63-2.06,4.42,4.42,0,0,1-.36-1.87,8.36,8.36,0,0,1,.35-3.15,3.52,3.52,0,0,1,2.12-2.22c1.46-.46,3,.37,4.19,1.34a16.21,16.21,0,0,1,5.63,9.57,2.59,2.59,0,0,1,2.81,1.07,3.87,3.87,0,0,1-2.6,5.47"/><path class="cls-20" d="M404.85,246.14l-25.34-7s-5.08-8.5-6.25-8.3,1.87,4.24.31,4.5c-.86.15-3.71.06-4.26-.39s-2-4.18-2.41-4.11c-.64.11-.07,5.22,1.07,6.37a37.44,37.44,0,0,0,7,4.7c2.79,1.39,30,20.63,35.31,19.75"/><polyline class="cls-10" points="394.68 243.12 391.35 242.42 390.21 252.56 399.33 255.97"/><path class="cls-21" d="M446.71,236.32s-3-9.26-12.52-7.75-27,16.69-27,16.69L394,243,392.8,260.1s10.64,6,17.3,6c13.69,0,32.63-24.86,32.63-24.86"/><path class="cls-22" d="M427.68,257.2c9.26-6.88,11.5-13.15,15.05-13.15"/><path class="cls-23" d="M455.26,308.17s10.08-1.79,13.55-2.35c6.74-1.09,13.7-1.17,11-3.89-3.55-3.56-20.13-11.27-20.13-11.27l-8.54,6.81Z"/><path class="cls-18" d="M405.57,339.51l3.93,16.54c-5.13,7.48-6.32-.31-6.32-.31l-9.53-17.8"/><path class="cls-23" d="M410.38,359.13l-.88-3.08c-4.33,2.66-6.32-.31-6.32-.31l-8.44,2.52c-2.45.85-2.8,3.57-1.09,3.57h14.7A2.12,2.12,0,0,0,410.38,359.13Z"/><path class="cls-18" d="M464.39,343.12h16.85c5.66,4.48-1.68,5.91-1.68,5.91l-16.64,4.48"/><path class="cls-23" d="M484.38,343.2l-3.14-.08a4.6,4.6,0,0,1-1.68,5.91s1.48,5.44,1.48,6.05-1.54,1.95-.9,2.84,4.19.43,4.66-.79c1.29-3.28,2.1-12,2.1-12C486.9,343.79,485.83,343.35,484.38,343.2Z"/><path class="cls-9" d="M433.35,286.83s-26.25,52.3-18,64.28c4.71,6.86,12.91,7.69,24.06,7.69H469L473.19,343l-37-1.84s26.83-24.93,28.26-35.7c1.85-13.83-4.84-25.82-4.84-25.82"/><path class="cls-9" d="M421.13,286.42s-1.73,2.92-3.48,2.92H390.22c-10.6,0-18.52,6.1-14.91,22.65s11.61,38.66,11.61,38.66h22l-8-34.1h29.7c12.18,0,19-9.69,13.32-27.21"/><path class="cls-24" d="M453.33,298.63a30.46,30.46,0,0,1-2.74,15.62c-3.37,7.32-14,20.12-18.65,26.71a1.81,1.81,0,0,0,1.41,2.84l39.13,1.94"/><path class="cls-24" d="M406.17,350.65l-9.64-35.89a1.44,1.44,0,0,1,1.39-1.82h23.92"/><line class="cls-25" x1="420.47" y1="316.55" x2="427.82" y2="298.63"/><path class="cls-26" d="M425.94,244.17s-3.16,30-5.35,43.09c5.07,9.22,42,8.38,43.64,6.76s-6-39.51-12.25-48.61S425.94,233.57,425.94,244.17Z"/><path class="cls-27" d="M437.26,228.67s16.21-.9,23.4,26.5c7.33,27.86,19.12,46.76,19.12,46.76s-4.47-1.57-12.23-.72c-12.88,1.4-28.89,8.12-28.89,8.12A190.55,190.55,0,0,1,428.47,281c-7.78-29.17-2.58-46.66-2.58-46.66Z"/><path class="cls-28" d="M431.75,286.69s3.17-18.78,2.28-19.59-5-.53-5-1.24,6.14-1.83,5-2.82-6.7-24.7-3.53-28.59"/><g class="cls-29"><path class="cls-30" d="M358.62,130.22s-43,75.41-43.27,75.94h19l43.27-75.94Z"/><path class="cls-31" d="M387.62,130.22s-43,75.41-43.26,75.94h6l43.26-75.94Z"/></g><rect class="cls-17" x="361.7" y="202.96" width="6.68" height="27.22" transform="translate(-49.29 124.47) rotate(-18.15)"/><path class="cls-23" d="M339.8,139.57a33.89,33.89,0,1,0,42.76,21.64A33.89,33.89,0,0,0,339.8,139.57Zm19.61,59.82A29.07,29.07,0,1,1,378,162.72,29.06,29.06,0,0,1,359.41,199.39Z"/><path class="cls-23" d="M377.48,254.5h0a5,5,0,0,1-6.26-3.16L359.61,216l9.42-3.09,11.61,35.39A4.94,4.94,0,0,1,377.48,254.5Z"/><path class="cls-32" d="M437.8,253.59c3,2.44,4.39,6.36,5.56,10.08,4.14,13.18,7.75,26.41,14.87,39.24"/><path class="cls-18" d="M401.89,252.19,378.19,242s-5.09-8.5-6.26-8.3,1.88,4.24.32,4.5c-.87.15-3.72.06-4.27-.39s-2-4.18-2.4-4.12c-.65.11-.08,5.23,1.07,6.38a37.28,37.28,0,0,0,7,4.7c2.8,1.39,28.43,23.88,33.69,23"/><polyline class="cls-10" points="398.34 249.87 391.13 247.05 387.13 257.61 396.97 264.47"/><path class="cls-27" d="M443.88,231.66s-3-4.47-12.51-2.66c-5.48,1-27,22.91-27,22.91l-10.63-3.86L388,266.38s13.09,8.24,19.75,8.24c13.69,0,32.63-24.87,32.63-24.87"/><path class="cls-28" d="M425.33,265.71c9.26-6.89,11.49-13.16,15-13.16"/><polygon class="cls-23" points="438.24 289.34 448.69 290.32 448.69 291.98 439.3 291.95 438.24 289.34"/><path class="cls-18" d="M427.5,211.27s-5.56,2.41-5.56,3.35,2.95,2,2.95,2"/><path class="cls-23" d="M429.5,212.36a.47.47,0,0,0-.49-.21c-.43.11-.72.94-.64,1.33s.38.52.63.4a.68.68,0,0,0,.26-.27,1.67,1.67,0,0,0,.37-.88A.62.62,0,0,0,429.5,212.36Z"/><path class="cls-23" d="M428.92,210.1a9.9,9.9,0,0,1,.87.56,5.74,5.74,0,0,1,.78.62,3.71,3.71,0,0,1,.61.75c.1.15.18.3.27.45a1.71,1.71,0,0,0,.13.23.87.87,0,0,0,.23.2.23.23,0,0,0,.34-.14.73.73,0,0,0,0-.33,1.11,1.11,0,0,0-.12-.3,3.07,3.07,0,0,0-.27-.46,5.71,5.71,0,0,0-.76-.87,4,4,0,0,0-.93-.66,3.41,3.41,0,0,0-1.09-.31c-.13,0-.18.2-.07.26Z"/><path class="cls-33" d="M422.6,218.67A6.58,6.58,0,0,0,427,219"/><path class="cls-34" d="M407.84,178.84a12.62,12.62,0,0,1,12.61-12.62h40.17a12.62,12.62,0,1,1,0,25.23H420.45a12.43,12.43,0,0,1-3.52-.51l-4.75,3.27,1.37-4.82A12.58,12.58,0,0,1,407.84,178.84Z"/><path class="cls-10" d="M442.51,180.07a2,2,0,1,0,2-2A2,2,0,0,0,442.51,180.07Z"/><path class="cls-10" d="M433.72,180.07a2,2,0,1,0,2-2A2,2,0,0,0,433.72,180.07Z"/><path class="cls-10" d="M451.29,180.07a2.05,2.05,0,1,0,2-2A2,2,0,0,0,451.29,180.07Z"/><path class="cls-10" d="M460.08,180.07a2,2,0,1,0,2.05-2A2,2,0,0,0,460.08,180.07Z"/><path class="cls-10" d="M424.93,180.07a2.05,2.05,0,1,0,2.05-2A2,2,0,0,0,424.93,180.07Z"/><path class="cls-10" d="M416.15,180.07a2,2,0,1,0,2.05-2A2,2,0,0,0,416.15,180.07Z"/><path class="cls-18" d="M154.71,211.27h11.36s4.49-2.85,6.53-3c2.78-.23,8.05,0,7.77,1.05s-8.16,2.48-7.92,3.4,4.29.44,4.29,1.22c0,1.65-10.89,1.72-10.89,1.72l-16.18,2"/><path class="cls-26" d="M104.29,168.42s16.8,3.81,23,14.17l14.63,24.61L165,211.27v5.22s-21.1,5.44-27.43,5.44c-11.6,0-26-30-26-30"/><line class="cls-25" x1="162.88" y1="217.03" x2="162.88" y2="210.9"/><path class="cls-23" d="M127.29,354.38a7.42,7.42,0,0,0-1.67,4.79,14.82,14.82,0,0,0,.41,3.57H127l.21-1.76a14.73,14.73,0,0,1,5.08,1.74c1.26.72,7.34.24,8.24-.31a1.24,1.24,0,0,0,.27-2c-.38-.38-7.15-2.82-7.15-2.82"/><path class="cls-18" d="M115.85,285.26c-8.53,26.1,11.44,69.12,11.44,69.12l3.94,1.52s2.92-45.22,2.92-66.79c0-18.19,2.85-47.46-15.87-56.17"/><path class="cls-18" d="M130.79,354.38a22.67,22.67,0,0,0,5.89,4.35c1.11.56-.32,1.45-1.5,1.55-3.69.32-8.63-4.81-8.63-4.81l1.23-2.43"/><path class="cls-23" d="M79.93,359.46c-2.67,2.67-6.59,9.16-4.11,9.67S85,363.32,85,363.32l0,.53,1,0s.83-3.48-.65-5"/><path class="cls-18" d="M77.06,267.71s.75,22.69.33,26.74,2.54,64.21,2.54,65c-.17,1.16-3.34,5.63-1.74,5.63s7.29-5.2,7.06-6.18c.33-.87,10.23-34.26,12.36-47.26,2.49-15.15-.56-24.94-.56-24.94l8.34-49"/><path class="cls-9" d="M118.57,227.15s12.16,4.46,15.2,23.73c2.41,15.23,1.44,39,1.44,39s-4.79,5.48-22.82,8.55c-24.31,4.14-35-1.74-35-1.74s-4.45-30.31-1.26-49.67c3.27-19.79,19-26.61,19-26.61"/><path class="cls-25" d="M80.36,297.89s-8.82-57.09,9-71.4"/><path class="cls-26" d="M120.53,182.59a9.88,9.88,0,0,0,.77,4.47c1.82,3.2,4.21,5.62,4.21,12.71,0,4.37-3.82,8.64-3.82,10s-3,16.72-3,16.72H103.64c-12.62,0-16.82-4.56-16.82-4.56l-9.58-34.68L98.5,169.36l7-.74Z"/><line class="cls-25" x1="112.49" y1="184.01" x2="118.64" y2="184.01"/><path class="cls-25" d="M120.53,182.59a9.88,9.88,0,0,0,.77,4.47c1.82,3.2,4.21,7,4.21,12.71,0,4.37-3.82,8.64-3.82,10s-3.12,17.38-3.12,17.38"/><path class="cls-23" d="M126.77,201.05,121,226.9h36.83l5.86-26.21a.76.76,0,0,0-.64-1H128.31A1.71,1.71,0,0,0,126.77,201.05Z"/><path class="cls-23" d="M131.15,226.9H102.57l.15-1.44a1.9,1.9,0,0,1,1.84-1.67h26.92Z"/><path class="cls-35" d="M145.43,213.29a3.84,3.84,0,0,1-3.35,3.06c-1.46,0-2.33-1.37-1.94-3.06a3.82,3.82,0,0,1,3.34-3.07C144.94,210.22,145.81,211.59,145.43,213.29Z"/><path class="cls-18" d="M92.37,230.34H122a85.73,85.73,0,0,0,8.94.45c3.95-.07,6.31-3.21,6.31-3.89s-2.3,0-5.56,0c-2,0-3.41.29-3.57-.15-.37-1,3.42-1.69,2.68-2.43-.28-.28-2-.23-3.11,0a22.33,22.33,0,0,0-5.82,2.33l-24.73-5.73"/><path class="cls-26" d="M100.73,168.42S77.3,170.73,73,187.91c-4.76,19.08,7.34,40.68,13.55,42.43,2.59.73,32.08.74,32.08.74L120,226,95.1,220.44l-2.72-33.19"/><line class="cls-25" x1="117.36" y1="225.4" x2="116.57" y2="231.08"/><polyline class="cls-25" points="119.99 225.99 95.1 220.44 92.38 187.25"/><path class="cls-23" d="M97.8,146.1a11.83,11.83,0,0,0-6.25,4.24c-1.67,2.16-2.63,4.8-3.93,7.21a32.2,32.2,0,0,1-2.38,3.54c-.63.85-2.06,1.78-1.73,3s2.19,1.8,3.27,1.93c1.4.18,2.83,0,4.22.19a17.66,17.66,0,0,1,3.46,1.11,17.52,17.52,0,0,0,7.89,1.34c1.66-.18,3.06-1,4.65-1.41s3.51,0,5.2-.07a2.7,2.7,0,0,0,1.83-.49,2.43,2.43,0,0,0,.6-1.61,11.32,11.32,0,0,0-1.57-6.84c-1.15-1.92-2.86-3.46-4-5.37-1.32-2.19-2.2-4.39-4.31-6C102.87,145.46,100,145.53,97.8,146.1Z"/><path class="cls-18" d="M106.52,163.89l-.67,6a3,3,0,0,1-2.56,2.29c-4.7.35-4.79-2.84-4.79-2.84l3.59-7.58"/><path class="cls-18" d="M102.41,163.41s7,3.15,10.36-.45c2-2.06-3-12.33-5.16-13.78s-6.38.11-7.27,2.53-3.26,8.82,2.07,11.7"/><path class="cls-23" d="M110.7,155.11a.52.52,0,1,1-.52-.53A.52.52,0,0,1,110.7,155.11Z"/><path class="cls-23" d="M104.94,157.2a.52.52,0,1,0,.52-.52A.52.52,0,0,0,104.94,157.2Z"/><path class="cls-23" d="M106.22,155a1.91,1.91,0,0,0-1-.23,2.34,2.34,0,0,0-1,.28,2.31,2.31,0,0,0-.71.61,1.52,1.52,0,0,0-.32.86.13.13,0,0,0,.23.07c.15-.21.26-.44.43-.64a2.14,2.14,0,0,1,.58-.5,2.33,2.33,0,0,1,1.7-.19c.15,0,.26-.19.11-.26Z"/><path class="cls-23" d="M110.93,153.23a1.28,1.28,0,0,0-.87-.45,1.83,1.83,0,0,0-1,.15,1.91,1.91,0,0,0-.72.63,1.13,1.13,0,0,0-.2.43.66.66,0,0,0,.06.48.1.1,0,0,0,.17,0l.06-.07c0-.07,0,0,0,0a.46.46,0,0,0,.11-.16,3.84,3.84,0,0,1,.18-.35,1.39,1.39,0,0,1,.52-.5,1.29,1.29,0,0,1,.72-.15,2.14,2.14,0,0,1,.78.2.13.13,0,0,0,.15-.2Z"/><path class="cls-33" d="M108.29,155.78s2,2.15,1.81,2.64c-.35.81-1.57.81-1.57.81"/><path class="cls-10" d="M108.69,161.05l2.68-.92s.48,1.58-.4,1.89A1.7,1.7,0,0,1,108.69,161.05Z"/><path class="cls-33" d="M106.43,164.69a8.25,8.25,0,0,1-4.07-1.21"/><path class="cls-23" d="M100.07,160.51c2.92-2.1,4.06-6.29,4.63-9.84q3,.75,6,1.73c.2-1,0-4.67-4.58-6.12a6.19,6.19,0,0,0-6.34,2.19,11,11,0,0,0-2.25,9.81"/><path class="cls-18" d="M100.82,160.27c-1.59-1.59-2.75-.66-3,0a2.4,2.4,0,0,0,.34,2,3,3,0,0,0,2,1.59,1.61,1.61,0,0,0,1.86-1.44"/><path class="cls-10" d="M99.64,167s1.39,4.29,3.65,5.24a22.28,22.28,0,0,0-3.15,3.68,11.59,11.59,0,0,1-3-7.19Z"/><path class="cls-10" d="M106,168.42s-1,3.07-2.72,3.78a40.18,40.18,0,0,1,2.84,3.26s1.29-1.1.93-4.31A9.14,9.14,0,0,0,106,168.42Z"/><path class="cls-34" d="M69.23,155.19a12.62,12.62,0,0,0-12.62-12.62H34.77a12.62,12.62,0,0,0,0,25.24H56.61a12.45,12.45,0,0,0,3.53-.51l4.75,3.27-1.37-4.82A12.61,12.61,0,0,0,69.23,155.19Z"/><path class="cls-10" d="M34.56,156.42a2,2,0,1,1-2.05-2A2.05,2.05,0,0,1,34.56,156.42Z"/><path class="cls-10" d="M43.35,156.42a2.05,2.05,0,1,1-2.05-2A2.05,2.05,0,0,1,43.35,156.42Z"/><path class="cls-10" d="M52.13,156.42a2,2,0,1,1-2-2A2,2,0,0,1,52.13,156.42Z"/><path class="cls-10" d="M60.92,156.42a2,2,0,1,1-2.05-2A2.05,2.05,0,0,1,60.92,156.42Z"/><path class="cls-7" d="M62,210.15A4.13,4.13,0,1,1,57.89,206,4.12,4.12,0,0,1,62,210.15Z"/><path class="cls-7" d="M495.06,131.12a5.39,5.39,0,1,1-5.39-5.39A5.39,5.39,0,0,1,495.06,131.12Z"/><path class="cls-7" d="M216.76,35a4.13,4.13,0,1,1-4.13-4.13A4.13,4.13,0,0,1,216.76,35Z"/><circle class="cls-6" cx="54.63" cy="207.63" r="2.58"/><path class="cls-6" d="M190.93,45.81a2.59,2.59,0,1,1-2.59-2.58A2.59,2.59,0,0,1,190.93,45.81Z"/><circle class="cls-6" cx="39.42" cy="116.41" r="2.58"/><path class="cls-6" d="M454.72,145.2a2.59,2.59,0,1,1-2.59-2.58A2.58,2.58,0,0,1,454.72,145.2Z"/><circle class="cls-6" cx="468.12" cy="234.71" r="2.58"/><circle class="cls-7" cx="43.34" cy="77.41" r="15.52"/><path class="cls-10" d="M51.3,83.63,47,79.36a6.72,6.72,0,1,0-2.28,1.94l4.44,4.44a1.49,1.49,0,0,0,1.05.44,1.52,1.52,0,0,0,1.06-.44,1.51,1.51,0,0,0,0-2.11Zm-4.83-8.28a4.82,4.82,0,1,1-4.82-4.81A4.82,4.82,0,0,1,46.47,75.35Z"/><path class="cls-6" d="M378,45l-1.6,6.45c-.13.55.54,1,1.15.86l6.14-1.9A.63.63,0,0,0,384,49.3l-4.54-4.55A.86.86,0,0,0,378,45Z"/><path class="cls-6" d="M158.57,322.46l-6.46,1.61a.85.85,0,0,0-.21,1.42l4.55,4.53a.62.62,0,0,0,1.08-.26l1.89-6.15C159.61,323,159.11,322.33,158.57,322.46Z"/><path class="cls-6" d="M5,194.9l2.83,6c.24.51,1.07.47,1.43-.06l3.57-5.35a.62.62,0,0,0-.47-1L6,193.84C5.32,193.77,4.76,194.39,5,194.9Z"/><path class="cls-6" d="M488.42,209.58l5.71-3.41a.85.85,0,0,0-.21-1.42l-5.68-3a.62.62,0,0,0-.95.56l0,6.43C487.27,209.38,487.94,209.87,488.42,209.58Z"/><circle class="cls-7" cx="182.66" cy="243.11" r="17.54"/><rect class="cls-10" x="171.63" y="237.31" width="15.95" height="12.39" rx="1.88"/><path class="cls-10" d="M193.9,248.51l-4.62-2.19v-5.63l4.62-2.2a.45.45,0,0,1,.64.41v9.21A.45.45,0,0,1,193.9,248.51Z"/><circle class="cls-7" cx="471.94" cy="104.57" r="17.54" transform="translate(262.68 540.31) rotate(-76.84)"/><polyline class="cls-36" points="462.22 103.8 469.49 111.77 481.65 97.65"/></g></g></svg>