<svg xmlns="http://www.w3.org/2000/svg" xmlns:xlink="http://www.w3.org/1999/xlink" viewBox="0 0 500 400"><defs><style>.cls-1{fill:none;}.cls-2{isolation:isolate;}.cls-3{fill:#77b9e0;}.cls-12,.cls-18,.cls-4,.cls-65,.cls-75{mix-blend-mode:multiply;}.cls-18,.cls-5{fill:#e6e6e6;}.cls-6{fill:#b5aa95;}.cls-7{fill:#898170;}.cls-8{fill:#e3d6ba;}.cls-9{fill:#f0ede9;}.cls-10{fill:#ded9d3;}.cls-11{fill:#dccfb4;}.cls-12,.cls-26{fill:#dcdcdc;}.cls-13{fill:#b35d24;}.cls-14{fill:#df752d;}.cls-15{fill:#ffa161;}.cls-16{fill:#aba18d;}.cls-17{fill:#d1c4ab;}.cls-19{fill:#4a7bb0;}.cls-20{fill:#fff;}.cls-21{fill:#c7c7c7;}.cls-22{fill:#f7f7f7;}.cls-23{clip-path:url(#clip-path);}.cls-24,.cls-33,.cls-47{mix-blend-mode:screen;}.cls-24,.cls-32{opacity:0.5;}.cls-25{fill:#70476f;}.cls-27,.cls-75{fill:#d9d9d9;}.cls-28{fill:#8f8f8f;}.cls-29{fill:#dedede;}.cls-30{fill:#696969;}.cls-31{fill:#c5c5c5;}.cls-33{fill:#80577d;}.cls-34{fill:#5f8cba;}.cls-35{fill:#556167;}.cls-36{fill:#a2b8c3;}.cls-37{fill:#8fa2ac;}.cls-38{fill:#495157;}.cls-39{fill:#5d6970;}.cls-40{fill:#546066;}.cls-41{fill:#4e5a5e;}.cls-42{fill:#71828a;}.cls-43{fill:#606e75;}.cls-44{fill:#80929b;}.cls-45{fill:#90a4ae;}.cls-46{opacity:0.3;}.cls-47{fill:#7a3478;}.cls-48{fill:#9e9a29;}.cls-49{fill:#ebe32f;}.cls-50{fill:#bababa;}.cls-51{fill:#b8b8b8;}.cls-52{fill:#c9c9c9;}.cls-53{fill:#dbdbdb;}.cls-54{fill:#fdfdfd;}.cls-55{fill:#ededed;}.cls-56{fill:#ff563d;}.cls-57{fill:#f7f1eb;}.cls-58{fill:#5c5c5c;}.cls-59{fill:#e8b98d;}.cls-60{fill:#bf9874;}.cls-61{fill:#f2d0ba;}.cls-62{fill:#cc4327;}.cls-63{fill:#ff9780;}.cls-64{fill:#ff5730;}.cls-65,.cls-79{fill:#ccc;}.cls-66{fill:#f0f0f0;}.cls-67{fill:#454545;}.cls-68{fill:#e8bb46;}.cls-69{clip-path:url(#clip-path-3);}.cls-70{clip-path:url(#clip-path-5);}.cls-71{clip-path:url(#clip-path-6);}.cls-72{fill:#303030;}.cls-73{fill:#d4d4d4;}.cls-74{fill:#ba9471;}.cls-76{fill:#4d4d4d;}.cls-77{fill:#d4c6ae;}.cls-78{fill:#a19783;}.cls-80{fill:#c9751b;}.cls-81{fill:#ffbe7b;}.cls-82{fill:#ff931f;}</style><clipPath id="clip-path"><polygon class="cls-1" points="411.07 332.98 410.92 308.74 432.75 296.14 432.89 320.38 411.07 332.98 411.07 332.98"/></clipPath><clipPath id="clip-path-3"><polygon class="cls-1" points="151.78 162.43 151.64 138.19 173.46 125.59 173.6 149.83 151.78 162.43 151.78 162.43"/></clipPath><clipPath id="clip-path-5"><polygon class="cls-1" points="120.61 39.27 55.05 77.37 121.03 115.47 186.59 77.37 120.61 39.27"/></clipPath><clipPath id="clip-path-6"><path class="cls-1" d="M120.56,31.17l80,46.2-79.49,46.19-80-46.19Zm.47,84.3,65.56-38.1-66-38.1L55.05,77.37l66,38.1Z"/></clipPath></defs><g class="cls-2"><g id="Layer_1" data-name="Layer 1"><rect class="cls-3" width="500" height="400"/><g class="cls-4"><path class="cls-5" d="M288.22,309.12c-1.27.84-2.59,3.33-1.25,5.07.81,1.06,3,1.58,4.91,2.37,2.1.86,4,2,5.37,2.42s4.12.32,6.46.88c1.73.41,3.65,1.45,4.84,1.45,1.79,0,5.2-1.41,8.18-2.22,3.38-.92,5.83-1.4,5.83-1.4l2.2-8.7s-11.32,3.52-15.23,3.82a49.54,49.54,0,0,1-9.55-.93C296.85,311.29,290.87,307.37,288.22,309.12Z"/><path class="cls-5" d="M275.56,296.39c-3,1.37-3.68,4.27-2.74,6.24.87,1.81,7,2.39,9.14,3.16,1.87.68,5.55,2.17,7.37,3,3.55,1.54,10.51,4.58,14.28,5.46,2.18.51,7,0,10.93.35a23,23,0,0,1,6.69,1.75l6.43-8.32s-26.21-6.42-34.77-8.61C288.7,298.31,279.51,294.61,275.56,296.39Z"/><path class="cls-5" d="M281.75,279.17c-2.07-.14-5.27,1.27-5.4,3.16-.31,4.36,2.56,4.48,5,6.37,2.28,1.75,4.34,4.2,5.72,5.27,4,3.07,12.14,8.93,16.6,11.21,2.3,1.17,7.94,2.15,12.22,3.62a34,34,0,0,1,7.2,3.45l10.31-11.15s-23.55-8.74-27-8.38a60,60,0,0,0-12.27-6.37C291.39,283.82,283.58,279.29,281.75,279.17Z"/><path class="cls-5" d="M312.48,263.68c-2.84.8-2.62,3.32-2.26,5.4.64,3.7,8.9,8.63,12.62,9.42a16.77,16.77,0,0,0,6.39,3.94c1.86,2.84,10.89,7.81,11.56,7.13,0,0,3.11-10.84,1.12-13.62-1.74-.9-3.84-1-7.55-3-3-1.64-6-4-7.74-4.68-2.09-.8-6.1.21-8-.44C316.82,267.25,314.36,264.86,312.48,263.68Z"/><path class="cls-5" d="M341.91,276,319.46,317.7l25.41,2.71L362,335.64l16.36-15.15s-7-20.58-16.28-25.6c-1.39-1.45-3.47-4.94-4.87-6.38C353.76,285,341.91,276,341.91,276Z"/><path class="cls-5" d="M309.84,265.14a3.34,3.34,0,0,0-3.81.73c-1.67,2.33-.46,3.93-.59,6.3-.12,2.15-.81,3.89-.48,5.09.89,3.19,3.75,8.56,4,11.7.13,1.44,5.06,3.43,10,6.18,6.41,3.54,13.21,7.78,13.21,7.78l4.95-16.83c-5.87,1.43-14.7-5.82-18-5.67a44.79,44.79,0,0,0-4.86-6.33C314,271.16,312.12,266.11,309.84,265.14Z"/><polygon class="cls-5" points="270.12 245.87 272.43 244.54 316.33 270.09 314.02 271.43 270.12 245.87"/></g><g class="cls-4"><g class="cls-2"><polygon class="cls-5" points="182.69 162.85 155.38 183.11 108.97 156.31 134.69 136.39 182.69 162.85"/></g><path class="cls-5" d="M181.2,192.26c-1.66-1.29-5.85-3.07-7.52-4.36a85.26,85.26,0,0,1-6.79-7.15l-27-7.34s13.89,19.42,26.23,22.86c2,.51,3.79,2.13,6.31,4.15,3.89,3.1,13.53,6,15.78-1.2C188.84,197.05,183,193.66,181.2,192.26Z"/><path class="cls-5" d="M188,153.81l11.49,16.91L185,190c-11.84-.27-22.08-3-30.4-7.4,0,0-10.09-22.59-1.45-24.9a58.06,58.06,0,0,1,6.86-1.79C166.83,155.16,188,153.81,188,153.81Z"/><path class="cls-5" d="M231.34,186.32c.87,2.14-.48,4.4-3.4,5-2.6.5-8-2-12.36-4.22-2.93-1.52-6.86-3.45-9.62-5.14a74.35,74.35,0,0,0-12-6l5.68-9.42c-.18.34,6,3.1,12.81,7.22,2.48,1.5,4.82,3.31,7.35,4.77C225.79,182,230.07,183.21,231.34,186.32Z"/><polygon class="cls-5" points="181.7 194.85 184.01 193.51 227.91 219.07 225.6 220.4 181.7 194.85"/><path class="cls-5" d="M224.26,195.34c1,1.89-.43,4.49-3.15,4.92-1.68.26-4.85-.81-10-4.11-2.58-1.66-7.38-4.23-9.92-5.77-4.7-2.84-10.81-7.59-11.91-8.9l6-6.24A131.1,131.1,0,0,0,206,183.05c1.14.73,3.55,2.57,4.64,3.44a39.29,39.29,0,0,0,3.8,2.31c2.62,1.6,3.14,2.31,5.23,3.45S223.27,193.47,224.26,195.34Z"/><path class="cls-5" d="M211,198.73a2.82,2.82,0,0,1-2.53,3.8c-1.31.08-6.1-2.13-9.83-5.08-1.87-1.48-4.51-3.3-6-4.69-3-1.81-5.67-2.94-6.63-4l3.1-7.3c-.16.23,4.06,2,8.57,5.54,1.64,1.3,3.83,3.53,5.51,4.8,1.91,1.43,3.16,2.83,4.7,3.88S210.4,197.21,211,198.73Z"/><path class="cls-5" d="M197.1,186.53c-1.66,0-3.47-1.79-4-4.9-.35-2.27,3.64-6.47,4.21-8.07a5.78,5.78,0,0,1-.08-2.08,14.16,14.16,0,0,0-4.32-2.95c-3.53-1.24-8.1-2.54-9-3.95l3.88-10.75c1-.42,17.12,7.09,19.53,11.92.42.83.1,9.59-1.37,12.7-.63,1.31-2.91,3-4.77,4.76C199.59,184.78,198.4,186.51,197.1,186.53Z"/><path class="cls-5" d="M184.69,198.4c-1.54-.63-2.5-3-1.75-6.05.56-2.23,5.87-4.55,7-5.81a5.76,5.76,0,0,1,.73-1.95,14.44,14.44,0,0,0-2.83-4.39c-2.78-2.51-6.48-5.49-6.74-7.13l7.75-8.39c1.08,0,13,13.17,13.36,18.56.06.93-3.63,8.88-6.2,11.17-1.08,1-3.84,1.63-6.23,2.54C187.66,197.75,185.9,198.89,184.69,198.4Z"/></g><g class="cls-4"><polygon class="cls-5" points="294.52 330.69 379.85 281.1 465.7 330.67 380.38 380.26 294.52 330.69"/><path class="cls-5" d="M356.05,383.11c7.57,0,14.7-1.72,20.09-4.85.59-.35,1.18-.72,1.79-1.15l2.21-1.53-41.59-24-.82.39c-.72.35-1.36.69-2,1-5.66,3.29-8.77,7.76-8.77,12.59s3.17,9.36,8.9,12.67c5.41,3.13,12.57,4.85,20.13,4.85Z"/><path class="cls-5" d="M314.07,337.67l59.35,34.27c-16.29,9.46-42.77,9.46-59.16,0S297.78,347.13,314.07,337.67Z"/></g><g class="cls-2"><path class="cls-6" d="M380.35,376.12l1.83-1.07,57.61-33.47q2.58-1.51,5.18-3l14.87-8.65c0-2.19,0-4.37,0-6.56l-57.61,33.47-1.83,1.07-20.05,11.65v.57C380.36,372.12,380.36,374.12,380.35,376.12Z"/><polygon class="cls-7" points="380.37 369.55 380.35 376.12 300.34 329.92 300.36 323.36 380.37 369.55"/><polygon class="cls-8" points="459.86 323.36 380.37 369.55 300.36 323.36 379.85 277.16 459.86 323.36"/></g><g class="cls-2"><polygon class="cls-9" points="454.26 250.54 454.05 322.18 380.24 365.07 380.44 293.44 454.26 250.54"/><polygon class="cls-10" points="380.44 293.44 380.24 365.07 305.94 322.18 306.15 250.54 380.44 293.44"/><polygon class="cls-11" points="454.26 250.54 380.44 293.44 306.15 250.54 379.96 207.65 454.26 250.54"/><polygon class="cls-12" points="327.76 238.08 364.76 259.44 382.46 249.16 345.46 227.8 327.76 238.08"/></g><g class="cls-2"><polygon class="cls-13" points="445.88 247.92 445.86 254.49 379.88 216.39 379.9 209.83 445.88 247.92"/><polygon class="cls-14" points="379.9 209.83 379.88 216.39 314.32 254.49 314.34 247.92 379.9 209.83"/><polygon class="cls-12" points="335.21 242.35 354.32 231.25 354.32 224.69 335.21 235.79 335.21 242.35"/><polygon class="cls-13" points="380.37 294.12 380.35 300.69 300.34 254.49 300.36 247.92 380.37 294.12"/><polygon class="cls-14" points="459.86 247.92 459.84 254.49 380.35 300.69 380.37 294.12 459.86 247.92"/><path class="cls-15" d="M379.85,201.73l80,46.19-79.49,46.2-80-46.2Zm.47,84.29,65.56-38.1-66-38.09-65.56,38.09,66,38.1Z"/><polygon class="cls-12" points="328.2 231.74 335.22 235.79 353.6 225.11 346.58 221.06 328.2 231.74"/></g><g class="cls-2"><path class="cls-16" d="M376,372.31c-10.9,6.33-28.63,6.33-39.6,0-5.52-3.19-8.28-7.37-8.26-11.55v3.38c0,4.18,2.74,8.36,8.26,11.55,11,6.33,28.7,6.33,39.6,0,.61-.36,1.18-.73,1.73-1.1v-3.38C377.13,371.59,376.56,372,376,372.31Z"/><path class="cls-17" d="M377.67,371.21c-.54.38-1.11.74-1.72,1.1-10.9,6.33-28.63,6.33-39.6,0s-11-16.6-.13-22.94c.61-.35,1.25-.68,1.9-1Z"/><path class="cls-18" d="M373.24,368.65l-35.12-20.28c-.65.32-1.29.65-1.9,1-10.9,6.34-10.84,16.61.13,22.94a33.62,33.62,0,0,0,8.4,3.32C355.09,375.51,365.34,373.18,373.24,368.65Z"/></g><g class="cls-2"><path class="cls-16" d="M340.6,365.35c-4.54-2.62-6.81-6.06-6.8-9.5v3.38c0,3.44,2.25,6.87,6.79,9.5,9,5.2,23.59,5.2,32.61,0v-3.38C364.19,370.55,349.61,370.55,340.6,365.35Z"/><path class="cls-8" d="M373.2,365.31c-9,5.24-23.59,5.24-32.6,0s-9.07-13.65-.11-18.86Z"/></g><polygon class="cls-19" points="411.07 332.98 410.92 308.74 432.75 296.14 432.89 320.38 411.07 332.98 411.07 332.98"/><g class="cls-2"><polygon class="cls-20" points="432.89 320.38 431.19 319.39 409.37 331.99 411.07 332.98 432.89 320.38"/><polygon class="cls-21" points="432.75 296.14 431.04 295.15 431.19 319.39 432.89 320.38 432.75 296.14"/><polygon class="cls-21" points="407.8 306.95 406.1 305.96 406.26 337.37 407.97 338.36 407.8 306.95"/><polygon class="cls-20" points="435.86 290.76 434.15 289.77 406.1 305.96 407.8 306.95 435.86 290.76"/><path class="cls-22" d="M435.86,290.76,407.8,307l.17,31.41,28-16.19ZM411.07,333l-.15-24.24,21.83-12.6.14,24.24L411.07,333Z"/></g><g class="cls-23"><g class="cls-2"><polygon class="cls-21" points="410.26 332.28 409.22 331.68 409.23 334.07 410.26 334.67 410.26 332.28"/><polygon class="cls-21" points="410.22 318.85 409.19 318.25 409.19 320.64 410.23 321.24 410.22 318.85"/><polygon class="cls-21" points="410.18 319.33 409.15 318.73 409.15 321.12 410.19 321.72 410.18 319.33"/><polygon class="cls-20" points="422.09 297.81 421.06 297.2 418.98 298.41 420.01 299.01 422.09 297.81"/></g></g><g class="cls-24"><g class="cls-23"><rect class="cls-25" x="410.84" y="278.17" width="8.98" height="61.89" transform="translate(343.19 -203.57) rotate(45.33)"/><rect class="cls-25" x="421.52" y="284.61" width="2.41" height="64.3" transform="translate(356.33 -207.29) rotate(45.93)"/></g></g><g class="cls-2"><polygon class="cls-26" points="308.39 292.01 309.43 291.4 347.15 313.19 346.11 313.79 308.39 292.01"/><path class="cls-27" d="M308.39,292l37.72,21.78-.06,22.5L308.32,314.5ZM345,334.47l.06-20.08-35.63-20.57-.06,20.08L345,334.47Z"/><polygon class="cls-19" points="345 334.47 345.06 314.39 309.43 293.82 309.38 313.9 345 334.47 345 334.47"/><path class="cls-20" d="M328,300.22a.24.24,0,0,1,.12.14l5.38,14.42a.25.25,0,0,1,0,.08c0,.06,0,.1-.07.1l-.06,0a.26.26,0,0,1-.12-.15L328,300.69l-5.32,8s-.07,0-.12,0l-.06-.06a.25.25,0,0,1-.07-.17.14.14,0,0,1,0-.07l5.44-8.17S327.91,300.19,328,300.22Z"/><g class="cls-2"><polygon class="cls-20" points="335.38 315.9 335.65 315.75 335.63 322.42 335.36 322.58 335.38 315.9"/><polygon class="cls-28" points="319.74 306.87 320.01 306.72 335.65 315.75 335.38 315.9 319.74 306.87"/><polygon class="cls-29" points="335.38 315.9 335.36 322.58 319.72 313.55 319.74 306.87 335.38 315.9"/></g><path class="cls-30" d="M325,311.72a2.06,2.06,0,0,1,1,1.74c0,.76-.41,1-1,.65a2.05,2.05,0,0,1-.95-1.74C324,311.67,324.36,311.37,325,311.72Zm0,2c.31.18.49-.06.49-.52a1.27,1.27,0,0,0-.49-1.06c-.31-.18-.5.06-.5.51a1.23,1.23,0,0,0,.5,1.07Z"/><path class="cls-30" d="M327.47,313.38a1.21,1.21,0,0,1,.22.66c0,.23-.07.39-.19.45a1.25,1.25,0,0,1-.82-.24v.84l-.46-.27v-2.3a4.32,4.32,0,0,1,.62.31A1.77,1.77,0,0,1,327.47,313.38Zm-.64.57c.25.14.4.08.4-.16a.65.65,0,0,0-.36-.55l-.19-.09v.69a1,1,0,0,0,.15.11Z"/><polygon class="cls-30" points="329.24 314.23 329.23 314.66 328.44 314.2 328.44 314.69 329.19 315.12 329.19 315.55 328.44 315.12 328.44 315.67 329.27 316.15 329.27 316.58 327.97 315.84 327.98 313.5 329.24 314.23"/><path class="cls-30" d="M331.27,315.4v2.34l-.48-.28-.44-1.15c-.12-.32-.25-.7-.35-1h0c0,.31,0,.65,0,1v.7l-.43-.24v-2.34l.54.31.42,1.1c.12.32.24.68.33,1h0c0-.33,0-.65,0-1v-.68Z"/><polygon class="cls-31" points="309.43 293.82 310.48 293.22 310.42 313.3 309.38 313.9 309.43 293.82"/><polygon class="cls-26" points="309.38 313.9 310.42 313.3 346.04 333.87 345 334.47 309.38 313.9"/><g class="cls-32"><polygon class="cls-19" points="345 334.47 345.06 314.39 309.43 293.82 309.38 313.9 345 334.47 345 334.47"/><polygon class="cls-33" points="343.74 313.63 309.39 309.34 309.38 313.9 345 334.47 345.06 314.39 343.74 313.63"/></g></g><path class="cls-18" d="M373.42,361.19l-59.35-34.27a35.59,35.59,0,0,0-3.51,2.32l29.9,17.27c-8.93,5.21-8.87,13.63.14,18.84a28,28,0,0,0,7.25,2.82C357.19,367.66,366.28,365.33,373.42,361.19Z"/><polygon class="cls-28" points="351.66 312.12 352.87 311.42 352.77 348.6 351.55 349.31 351.66 312.12"/><polygon class="cls-34" points="365 342.9 365.06 320.23 354.14 313.92 354.08 336.6 365 342.9 365 342.9"/><polygon class="cls-35" points="366.94 356.84 366.5 357.09 366.61 319.91 367.05 319.66 366.94 356.84"/><g class="cls-2"><polygon class="cls-36" points="354.08 336.6 354.77 336.19 365.69 342.5 365 342.9 354.08 336.6"/><polygon class="cls-37" points="354.14 313.92 354.84 313.52 354.77 336.19 354.08 336.6 354.14 313.92"/><polygon class="cls-37" points="366.88 320.15 367.57 319.75 367.46 356.93 366.77 357.33 366.88 320.15"/><polygon class="cls-38" points="352.33 311.75 353.03 311.35 367.57 319.75 366.88 320.15 352.33 311.75"/><path class="cls-39" d="M352.33,311.76l14.55,8.39-.11,37.18-14.54-8.39ZM365,342.9l.06-22.67-10.92-6.31-.06,22.68L365,342.9Z"/></g><g class="cls-2"><polygon class="cls-40" points="354.34 347.58 353.78 347.9 353.8 338.64 354.36 339.71 354.34 347.58"/><polygon class="cls-41" points="363.78 353.03 364.43 354.05 353.78 347.9 354.34 347.58 363.78 353.03"/><polygon class="cls-42" points="363.8 345.16 363.78 353.03 354.34 347.58 354.36 339.71 363.8 345.16"/><polygon class="cls-43" points="354.36 339.71 353.8 338.64 364.45 344.79 363.8 345.16 354.36 339.71"/><polygon class="cls-44" points="364.45 344.79 364.64 344.68 364.62 353.94 364.43 354.05 364.45 344.79"/><polygon class="cls-45" points="353.8 338.64 353.99 338.53 364.64 344.68 364.45 344.79 353.8 338.64"/><polygon class="cls-43" points="363.8 345.16 364.45 344.79 364.43 354.05 363.78 353.03 363.8 345.16"/></g><g class="cls-46"><polygon class="cls-19" points="365 342.9 365.06 320.23 354.14 313.92 354.08 336.6 365 342.9 365 342.9"/><path class="cls-47" d="M354.14,318.76l10.92,6.31,0,12.42-10.88-16ZM365,343.93v-2.16l-10.89-16V328Z"/></g><g class="cls-2"><path class="cls-48" d="M366,343a.36.36,0,0,0-.38,0l-.68.39a.41.41,0,0,1,.38,0,1.18,1.18,0,0,1,.53.92.38.38,0,0,1-.16.35l.69-.4a.38.38,0,0,0,.15-.34A1.18,1.18,0,0,0,366,343Z"/><path class="cls-49" d="M365.29,343.39a1.18,1.18,0,0,1,.53.92c0,.34-.24.48-.53.31a1.16,1.16,0,0,1-.54-.92C364.75,343.36,365,343.22,365.29,343.39Z"/></g><polygon class="cls-50" points="350.67 311.05 351.66 312.12 351.55 349.31 350.56 349.18 350.67 311.05"/><polygon class="cls-28" points="366.64 320.27 366.78 320.85 351.66 312.12 350.67 311.05 366.64 320.27"/><polygon class="cls-51" points="349.37 348.24 348.94 348.24 348.64 347.77 348.64 306.89 349.37 306.89 349.37 348.24"/><polygon class="cls-52" points="368.25 319.36 368.14 359.3 366.53 358.37 366.64 320.27 350.67 311.05 350.56 349.18 348.95 348.25 349.06 308.28 368.25 319.36"/><polygon class="cls-52" points="369.25 318.78 370.46 318.08 370.35 358.75 369.13 359.45 369.25 318.78"/><polygon class="cls-53" points="368.25 319.36 369.25 318.78 369.13 359.45 368.14 359.3 368.25 319.36"/><polygon class="cls-54" points="348.63 306.88 349.85 306.17 370.46 318.08 369.25 318.78 348.63 306.88"/><polygon class="cls-55" points="349.06 308.28 348.63 306.88 369.25 318.78 368.25 319.36 349.06 308.28"/><path class="cls-56" d="M364.21,297.3a88,88,0,0,0-22.29-18.51l-.11.06c12.95,11.26,23.23,27,25,38.18.58,2.09,2.57,1.49,3.16,1.26l1-.48a5.25,5.25,0,0,0,2.53-3.29c-.67-4.85-3.91-10.88-9.3-17.22Z"/><path class="cls-20" d="M341.69,278.88c9.18,12.46,16.48,29.11,17.73,40.5.52,2.15,2.72,1.8,3.38,1.64l1.1-.35c2.31-.91,5.79-2.29-1.8-16.67a89.53,89.53,0,0,0-20.29-25.15l-.12,0Z"/><path class="cls-56" d="M341.56,278.91c5.17,13.21,9.27,30.47,10,42,.44,2.2,2.79,2.1,3.5,2l1.18-.22c2.91-.76,5-1.31.66-14.45a108.14,108.14,0,0,0-15.18-29.34l-.13,0Z"/><path class="cls-20" d="M341.42,278.92c1,13.54,1.83,31,1.94,42.57.37,2.31,3,2.4,3.54,2.4l1.21-.09c4-1,3.93-1.49,2.72-9.8a169,169,0,0,0-9.27-35.09Z"/><path class="cls-56" d="M341.29,278.92c-3.15,13.41-5.68,30.82-6.15,42.34.28,2.34,2.94,2.71,3.47,2.76l1.23,0c4.2-.59,5-.7,1.58-45.14Z"/><path class="cls-20" d="M341.15,278.9c-7.24,12.85-13,29.82-14.06,41.26.17,2.36,2.79,3,3.31,3.13l1.2.16c3.46-.12,3.52-1.56,3.58-3.09.37-9.09,2.64-26.7,6.11-41.44l-.14,0Z"/><path class="cls-56" d="M341,278.87c-11.14,11.86-20,28-21.61,39.34.06,2.37,2.56,3.32,3.06,3.48l1.15.29c3.27.24,3.4-1.19,3.54-2.71.83-9,6-26.24,14-40.37l-.12,0Z"/><path class="cls-20" d="M340.91,278.82c-14.73,10.43-26.47,25.48-28.56,36.58-.05,2.37,2.26,3.6,2.73,3.83s.69.28,1.05.41c3,.6,3.2-.75,3.42-2.31,1.26-8.92,9.22-25.43,21.48-38.46l-.12-.05Z"/><path class="cls-56" d="M340.86,278.79l-.05,0c-17.74,8.69-31.88,22.34-34.38,33.19-.18.74-.48,2,1.9,3.9.22.14.45.27.68.4a3.37,3.37,0,0,0,.32.19c2.58,1.27,3-.8,3.19-1.9,1.66-8.76,12.18-24.26,28.39-35.72l-.05,0Z"/><path class="cls-20" d="M340.73,278.69c-20.19,6.6-36.28,18.59-39.13,29.16a5.37,5.37,0,0,0,1.59,4.27l.77.66c1.75,1,2.3-.09,2.47-.83,2.54-10.9,16.68-24.54,34.38-33.19a.27.27,0,0,1-.08-.07Z"/><path class="cls-56" d="M340.68,278.62c-21.9,4.34-39.34,14.53-42.43,24.78a6.51,6.51,0,0,0,.93,4.37l.49.66c.43.38,1.43,1.26,1.93-.58,2.89-10.6,19-22.59,39.13-29.16a.18.18,0,0,1-.05-.07Z"/><path class="cls-20" d="M340.64,278.54c-22.83,2-41,10.27-44.25,20.19a8.61,8.61,0,0,0,.28,4.41l.27.7a2.9,2.9,0,0,0,.45.58c.45,0,.57-.05.86-1,3.14-10.28,20.58-20.47,42.43-24.78l0-.08Z"/><path class="cls-56" d="M340.64,278.46c-23-.45-41.38,5.93-44.62,15.51a14.78,14.78,0,0,0-.37,4.4c0,.24,0,.47.06.71a1.84,1.84,0,0,0,.22.66c.25-.31.25-.31.46-1a15.27,15.27,0,0,1,4.67-6.78,38.4,38.4,0,0,1,9.72-6.13c5.55-2.63,15.24-6,29.86-7.28v-.08Z"/><path class="cls-20" d="M340.66,278.39c-22-2.79-39.34,1.29-43.28,10.15l-.05.1a26,26,0,0,0-1.26,4.35c-.09.58-.23,1.34-.3,1.92,2.47-10.17,20.92-16.94,44.87-16.45a.19.19,0,0,1,0-.07Z"/><path class="cls-56" d="M340.7,278.31c-18.58-4.55-34.15-3.08-39.65,3.74-.48.68-1.13,1.6-1.58,2.31a27.51,27.51,0,0,0-2.09,4.18c4-8.87,21.38-13,43.28-10.15a.2.2,0,0,1,0-.08Z"/><path class="cls-20" d="M340.77,278.24c-18.46-7.11-29.9-5.56-34.46-1.74a36.75,36.75,0,0,0-3.75,3.68c-.45.56-1.07,1.29-1.51,1.87,5.65-6.93,20.84-8.36,39.65-3.74l.07-.07Z"/><path class="cls-56" d="M340.86,278.18c-8.43-4.9-16.34-7.51-22.33-7.44a12.21,12.21,0,0,0-6,1.38,48.72,48.72,0,0,0-5.78,4l-.48.4c6.2-4.85,19.4-4.19,34.46,1.74l.09-.06Z"/><path class="cls-18" d="M347.81,368.16a28,28,0,0,1-7.21-2.81c-4.54-2.63-6.81-6.06-6.8-9.5v3.38c0,3.44,2.25,6.87,6.79,9.5a28.12,28.12,0,0,0,7.22,2.81Z"/><path class="cls-18" d="M344.55,375.58a33.37,33.37,0,0,1-8.2-3.27c-5.52-3.19-8.28-7.37-8.26-11.55v3.38c0,4.18,2.74,8.36,8.26,11.55a33.6,33.6,0,0,0,8.21,3.27Z"/><g class="cls-4"><polygon class="cls-57" points="454.21 265.18 447.15 269.26 447.16 272.29 454.2 268.22 454.21 265.18"/><polygon class="cls-57" points="454.08 313.86 450.75 315.78 450.77 318.8 454.06 316.9 454.08 313.86"/><polygon class="cls-57" points="450.3 293.38 450.31 296.41 441.59 301.44 441.58 298.42 450.3 293.38"/><polygon class="cls-57" points="427.03 286.57 427.04 289.6 418.33 294.63 418.32 291.61 427.03 286.57"/><polygon class="cls-57" points="429.65 329.43 423.49 332.99 423.5 336.01 429.65 332.46 429.65 329.43"/><polygon class="cls-57" points="410.65 285.07 410.66 288.09 401.95 293.12 401.94 290.1 410.65 285.07"/><polygon class="cls-57" points="406.18 322.83 401.95 325.27 401.96 328.3 406.21 325.85 406.18 322.83"/><polygon class="cls-57" points="380.39 310.62 387.42 306.56 387.4 303.54 380.4 307.58 380.39 310.62"/><polygon class="cls-57" points="380.32 333.99 384.14 331.79 384.13 328.76 380.34 330.95 380.32 333.99"/><polygon class="cls-57" points="394.61 349.73 394.62 352.75 385.91 357.78 385.9 354.76 394.61 349.73"/></g><g class="cls-4"><polygon class="cls-57" points="307.75 262.81 314.82 266.89 314.8 269.91 307.77 265.85 307.75 262.81"/><polygon class="cls-57" points="305.94 316.76 309.27 318.68 309.25 321.7 305.96 319.8 305.94 316.76"/><polygon class="cls-57" points="331 329.43 337.16 332.99 337.15 336.01 331 332.46 331 329.43"/><polygon class="cls-57" points="354.46 322.83 358.7 325.27 358.69 328.3 354.44 325.85 354.46 322.83"/><polygon class="cls-57" points="380.26 310.62 373.23 306.56 373.25 303.54 380.25 307.58 380.26 310.62"/><polygon class="cls-57" points="380.32 333.99 376.51 331.79 376.52 328.76 380.31 330.95 380.32 333.99"/><polygon class="cls-57" points="372.56 345.32 372.56 348.36 376.2 350.46 376.22 347.43 372.56 345.32"/></g><g class="cls-2"><polygon class="cls-58" points="293.03 133.47 292.07 135.98 294.71 135.57 293.03 133.47"/></g><path class="cls-59" d="M288.22,195.6c-1.27.84-2.59,3.32-1.25,5.07.81,1.06,3,1.58,4.91,2.37,2.1.85,4,2,5.37,2.42s4.12.31,6.46.87c1.73.42,3.65,1.46,4.84,1.45,1.79,0,5.2-1.4,8.18-2.22,3.38-.91,5.83-1.4,5.83-1.4l2.2-8.69s-11.32,3.52-15.23,3.81a48.75,48.75,0,0,1-9.55-.92C296.85,197.77,290.87,193.84,288.22,195.6Z"/><path class="cls-60" d="M289.33,195.23l1.34.48L294.2,197l2.35.88,2.63.94c.91.33,1.86.64,2.83.94a12.09,12.09,0,0,0,2.92.62c1,.07,2,.06,3.05.06s2,0,3,0,1.92.06,2.82.15a20.15,20.15,0,0,1,2.52.4,20.36,20.36,0,0,1,3.61,1.15c.42.17.74.33,1,.44l.33.17s-.48-.19-1.35-.44a27.22,27.22,0,0,0-3.65-.8c-.76-.11-1.59-.19-2.47-.23s-1.81,0-2.78,0l-3,.06c-1,0-2.06,0-3.13,0a13,13,0,0,1-3.12-.69c-1-.3-1.93-.67-2.84-1s-1.78-.72-2.6-1.07-1.59-.7-2.3-1c-1.42-.65-2.58-1.22-3.4-1.63Z"/><path class="cls-59" d="M275.56,182.87c-3,1.37-3.68,4.27-2.74,6.24.87,1.81,7,2.38,9.14,3.16,1.87.68,5.55,2.17,7.37,3,3.55,1.54,10.51,4.58,14.28,5.46,2.18.51,7-.05,10.93.35a23,23,0,0,1,6.69,1.75l6.43-8.32s-26.21-6.42-34.77-8.61C288.7,184.79,279.51,181.09,275.56,182.87Z"/><path class="cls-60" d="M287.1,180.45l1.45,1,3.81,2.61,2.56,1.72c.91.61,1.88,1.23,2.88,1.89s2,1.29,3.11,1.94,2.17,1.3,3.29,1.83l.42.18.43.16c.29.11.59.2.89.3.59.19,1.2.36,1.8.52l3.56,1c1.15.31,2.27.64,3.32,1,.52.17,1,.35,1.52.53s.94.37,1.39.56a33.71,33.71,0,0,1,4.13,2.12c.95.59,1.46,1,1.46,1s-.55-.33-1.54-.84a42.46,42.46,0,0,0-4.22-1.83l-1.4-.48c-.49-.16-1-.32-1.52-.46-1.05-.3-2.16-.58-3.32-.87s-2.36-.57-3.58-.9c-.61-.16-1.22-.33-1.84-.52-.31-.09-.61-.19-.92-.3l-.47-.17c-.15-.06-.32-.12-.46-.19-1.18-.58-2.27-1.24-3.35-1.89s-2.1-1.36-3.09-2c-2-1.35-3.79-2.67-5.32-3.83s-2.78-2.15-3.64-2.86l-1-.83Z"/><path class="cls-59" d="M281.75,165.65c-2.07-.14-5.27,1.27-5.4,3.16-.31,4.36,2.56,4.48,5,6.37,2.28,1.75,4.34,4.2,5.72,5.27,4,3.06,12.14,8.93,16.6,11.2,2.3,1.18,7.94,2.15,12.22,3.63a33.47,33.47,0,0,1,7.2,3.45l10.31-11.16s-23.55-8.74-27-8.37a60,60,0,0,0-12.27-6.37C291.39,170.3,283.58,165.77,281.75,165.65Z"/><path class="cls-59" d="M312.48,150.15c-2.84.81-2.62,3.33-2.26,5.4.64,3.7,8.9,8.64,12.62,9.42a16.65,16.65,0,0,0,6.39,3.94c1.86,2.84,10.89,7.82,11.56,7.13,0,0,3.11-10.83,1.12-13.61-1.74-.9-3.84-1-7.55-3-3-1.65-6-4-7.74-4.68-2.09-.8-6.1.21-8-.45C316.82,153.73,314.36,151.34,312.48,150.15Z"/><path class="cls-61" d="M312.51,150.16a4.94,4.94,0,0,0,.27,3.31,18.19,18.19,0,0,0,5.28,2,2.36,2.36,0,0,0,.81-1.12C318.13,154.42,315.19,151.76,312.51,150.16Z"/><g class="cls-2"><polygon class="cls-62" points="314.02 122.54 316.33 121.21 316.06 164.6 313.75 165.93 314.02 122.54"/><polygon class="cls-63" points="270.12 96.99 272.43 95.66 316.33 121.21 314.02 122.54 270.12 96.99"/><polygon class="cls-64" points="314.02 122.54 313.75 165.93 269.85 140.38 270.12 96.99 314.02 122.54"/><path class="cls-20" d="M297.45,131.9c2.84,2.53,4.94,6.21,4.93,9.9,0,2.58-1.05,4-2.6,4.57-1.82.61-4.84-.2-9.79-3.06a64.1,64.1,0,0,1-6.09-3.94L284,111.3a52.44,52.44,0,0,1,7.27,3.6,23.57,23.57,0,0,1,7.34,5.85,11.92,11.92,0,0,1,3,7.33c0,2.54-1.31,4.17-4.12,3.74Zm-5.79,7.58c2.55,1.47,4.81,1.66,4.81-1.35s-2.24-5.32-5-6.94l-1.92-1.11,0,8c.55.41,1.22.79,2.17,1.35Zm-2.12-20.68,0,6.65,1.85,1.07c2.95,1.71,4.54,1.22,4.55-.9s-1.43-4.14-4-5.61a18.51,18.51,0,0,0-2.4-1.21Z"/></g><path class="cls-65" d="M310.08,151.05,310,151c-1.18-.45-3.16-.21-3.93.86a6.15,6.15,0,0,0-.58,1.62l6.82,5.51c.51.63,3.34,3.92,3.63,3.17l-1.64-4.76C313.41,154.68,311.88,151.82,310.08,151.05Z"/><path class="cls-59" d="M341.91,162.43l-22.45,41.74,25.41,2.72L362,222.12,378.37,207s-7-20.57-16.28-25.6c-1.39-1.45-3.47-4.93-4.87-6.37C353.76,171.45,341.91,162.43,341.91,162.43Z"/><path class="cls-60" d="M319.15,166.9c-.18-.28-.38-.55-.57-.82s-.4-.53-.61-.79c-.41-.52-.84-1-1.27-1.53l-2.65-3-.06-.07v-.11c0-.29-.08-.58-.14-.87s-.11-.58-.17-.86-.15-.58-.24-.86-.17-.57-.26-.85-.2-.56-.31-.83-.22-.55-.33-.82-.25-.54-.39-.8-.27-.52-.42-.77-.32-.49-.48-.74-.35-.46-.55-.66a2.81,2.81,0,0,0-.31-.29l-.16-.14-.09-.06L310,152c-.12-.06-.23-.15-.35-.2l-.4-.15a4.08,4.08,0,0,0-.85-.14,3.61,3.61,0,0,0-.87,0,2.56,2.56,0,0,0-1.54.81,2.12,2.12,0,0,1,.64-.66,2.84,2.84,0,0,1,.85-.38,3.9,3.9,0,0,1,1.86-.06,4.28,4.28,0,0,1,.46.13,3.68,3.68,0,0,1,.45.21l.11,0,.1.07.19.14a2.76,2.76,0,0,1,.37.31,8.3,8.3,0,0,1,.64.69c.18.25.38.5.54.76s.32.53.47.8.28.55.42.82.25.56.36.85.23.57.32.86.19.59.28.88.16.59.23.89.13.6.18.91a9.24,9.24,0,0,1,.11.92l-.07-.17c.41.51.85,1,1.26,1.54s.84,1,1.23,1.58.79,1.09,1.15,1.65c.18.28.35.57.52.86S319,166.6,319.15,166.9Z"/><path class="cls-59" d="M309.84,151.62a3.32,3.32,0,0,0-3.81.73c-1.67,2.33-.46,3.92-.59,6.3-.12,2.15-.81,3.89-.48,5.09.89,3.19,3.75,8.55,4,11.7.13,1.43,5.06,3.42,10,6.17,6.41,3.55,13.21,7.78,13.21,7.78l4.95-16.83c-5.87,1.44-14.7-5.82-18-5.66a44.23,44.23,0,0,0-4.86-6.33C314,157.64,312.12,152.59,309.84,151.62Z"/><path class="cls-61" d="M280.11,168.46a6.27,6.27,0,0,0-3.63,2.19c-.48,1.42,3.1,3.48,5.93,5.47,1-.28,1.66-.81,1.53-1.93S281.72,170.17,280.11,168.46Z"/><path class="cls-61" d="M276.81,185.46a14.71,14.71,0,0,0-3.56,4.2c2.27.92,5.4,2,7.19,1.94a6,6,0,0,1,1-3.35A23.62,23.62,0,0,0,276.81,185.46Z"/><path class="cls-61" d="M290.18,198.16a9.93,9.93,0,0,0-3.09,2.68c1.1,1.45,4.22,1.64,5.67,2a9.65,9.65,0,0,0,1.33-2.41A15.87,15.87,0,0,0,290.18,198.16Z"/><path class="cls-61" d="M305.44,157.81a1.46,1.46,0,0,0,.41.76,17.32,17.32,0,0,0,1.82-6.21,3.89,3.89,0,0,0-1.76.09A7,7,0,0,0,305.44,157.81Z"/><path class="cls-60" d="M319,181.61l.6.28c.38.18.92.44,1.56.77s1.39.71,2.17,1.15,1.62.91,2.45,1.39l1.23.74,1.17.73c.77.48,1.47.94,2.06,1.34s1.09.76,1.43,1l.54.39s-.22-.1-.59-.3-.9-.47-1.53-.82L328,187.06l-1.2-.69-1.23-.72-1.23-.73-1.18-.72c-.77-.46-1.48-.9-2.09-1.29l-1.47-.93Z"/><path class="cls-60" d="M307.5,185.77a2.63,2.63,0,0,1,.06.27,7.34,7.34,0,0,1,.08.73c0,.15,0,.31,0,.49a5.17,5.17,0,0,1,0,.54c0,.19,0,.38-.07.58s-.07.4-.12.59a7.5,7.5,0,0,1-.39,1.13,4.48,4.48,0,0,1-.26.49,3.37,3.37,0,0,1-.27.42,2.17,2.17,0,0,1-.27.32,1.53,1.53,0,0,1-.23.22l-.22.17.14-.24c.05-.07.09-.17.15-.27s.11-.23.18-.35c.11-.27.24-.58.35-.93.07-.16.11-.35.17-.53s.11-.36.15-.55.09-.38.13-.56l.12-.55c.06-.36.12-.7.17-1l.12-.71C307.48,185.87,307.5,185.77,307.5,185.77Z"/><path class="cls-60" d="M304.16,195.41a4.46,4.46,0,0,1-.09.66c0,.2-.09.42-.16.65a2.59,2.59,0,0,1-.11.37l-.12.36-.15.37a3.49,3.49,0,0,1-.15.34,6.7,6.7,0,0,1-.3.6,3.52,3.52,0,0,1-.37.56,4.46,4.46,0,0,1,.09-.66c0-.2.09-.42.16-.66a2.92,2.92,0,0,1,.11-.36l.12-.36.15-.37a3.49,3.49,0,0,1,.15-.34,6.7,6.7,0,0,1,.3-.6A4.6,4.6,0,0,1,304.16,195.41Z"/><path class="cls-60" d="M300.75,202.08s-.07.22-.21.54a12.19,12.19,0,0,1-.58,1.11,10.36,10.36,0,0,1-.7,1,5.18,5.18,0,0,1-.38.44,5,5,0,0,1,.21-.54,8.67,8.67,0,0,1,.58-1.12,10.12,10.12,0,0,1,.7-1A3.74,3.74,0,0,1,300.75,202.08Z"/><path class="cls-60" d="M309.83,204.32s0,.23-.13.56a10.87,10.87,0,0,1-.43,1.17,11.38,11.38,0,0,1-.56,1.11,4.63,4.63,0,0,1-.32.48,5.24,5.24,0,0,1,.14-.56,11.43,11.43,0,0,1,.42-1.17c.18-.41.39-.81.56-1.11S309.83,204.32,309.83,204.32Z"/><path class="cls-60" d="M315.54,172.06s-.14.35-.4.85c-.13.25-.28.53-.46.83-.1.15-.18.31-.29.46l-.3.46-.31.46-.32.43c-.21.28-.42.53-.6.74a8.31,8.31,0,0,1-.64.69,7.33,7.33,0,0,1,.39-.85c.13-.25.29-.54.47-.84.09-.14.18-.3.28-.45l.3-.47.32-.45.32-.43c.21-.28.41-.54.6-.75A7.13,7.13,0,0,1,315.54,172.06Z"/><path class="cls-60" d="M314.85,168.55l-.28.13a2.87,2.87,0,0,0-.32.15c-.12,0-.25.13-.4.2s-.62.34-1,.55-.72.44-1.07.69c-.17.13-.35.25-.51.39l-.25.19-.24.2-.43.39c-.12.14-.26.25-.37.37s-.21.23-.29.34-.16.19-.21.27l-.18.25.09-.29a2,2,0,0,1,.13-.33,3.46,3.46,0,0,1,.23-.41,5.31,5.31,0,0,1,.31-.46c.13-.15.26-.31.41-.46s.31-.31.48-.45.35-.28.54-.42.37-.25.56-.36a5.45,5.45,0,0,1,.58-.31,5.38,5.38,0,0,1,.56-.25,4.47,4.47,0,0,1,.52-.17l.45-.12.35-.06Z"/><path class="cls-60" d="M290.3,177.19a4.07,4.07,0,0,1-.17.65c-.07.2-.15.41-.25.64a3.73,3.73,0,0,1-.16.35l-.18.36-.19.34a3.62,3.62,0,0,1-.2.33c-.13.21-.26.41-.38.57a4.45,4.45,0,0,1-.44.51,4.07,4.07,0,0,1,.17-.65c.07-.19.15-.41.25-.64s.1-.23.16-.35l.18-.35.19-.35c.06-.11.13-.22.2-.33s.26-.4.38-.56A4.14,4.14,0,0,1,290.3,177.19Z"/><path class="cls-60" d="M307.06,160.53a3.57,3.57,0,0,1-.18.53,6.58,6.58,0,0,1-.58,1,6.45,6.45,0,0,1-.77.93,3.31,3.31,0,0,1-.42.36,3.18,3.18,0,0,1,.18-.53,6.64,6.64,0,0,1,.58-1.05,6.89,6.89,0,0,1,.76-.92A3.78,3.78,0,0,1,307.06,160.53Z"/><path class="cls-60" d="M327.76,155.62l-.2.16-.16.19c-.06.08-.13.16-.2.27l-.23.32-.26.37c-.19.25-.41.51-.61.79-.4.56-.77,1.14-1.06,1.58s-.49.72-.49.72l-.05,0,.36-.79c.21-.48.52-1.1.85-1.72a7.84,7.84,0,0,1,.52-.9,2.33,2.33,0,0,1,.31-.37,3,3,0,0,1,.34-.3,2,2,0,0,1,.32-.21,1.83,1.83,0,0,1,.29-.11.94.94,0,0,1,.25,0Z"/><path class="cls-60" d="M326.55,155.15l-.16.09-.17.1c-.07,0-.14.09-.22.13l-.26.16-.28.19a4.65,4.65,0,0,0-.6.42,3.71,3.71,0,0,0-.52.53,3.83,3.83,0,0,0-.36.53,2.35,2.35,0,0,0-.11.24,1,1,0,0,0-.08.19l-.06.16h0l0-.18a1.94,1.94,0,0,1,0-.2,1.61,1.61,0,0,1,.09-.26,3.14,3.14,0,0,1,.31-.6,4,4,0,0,1,.49-.61,3.83,3.83,0,0,1,.29-.28l.3-.24a2.5,2.5,0,0,1,.62-.3,1.8,1.8,0,0,1,.27-.07l.21,0h.19Z"/><path class="cls-60" d="M337.17,172.58l-.17,0-.46.11a6.82,6.82,0,0,1-1.44.14,6.61,6.61,0,0,1-.78,0,3.63,3.63,0,0,1-.66-.14,3.88,3.88,0,0,1-.62-.25v0a4.85,4.85,0,0,1,.66,0l.65.06c.24,0,.49.08.75.1a7.49,7.49,0,0,0,1.41,0,4.24,4.24,0,0,0,.47-.05l.17,0Z"/><path class="cls-66" d="M399.49,235.13l-37.13,20.05L338.43,209.4c-.27-5.9,25.16-23.84,34.78-19.44Z"/><path class="cls-67" d="M416.06,255.61c-9.2,15.22-39.95,16.34-58.36-.29l-19.05-38.47c1.07-5.16,30.51-29,39.57-21.55Z"/><path class="cls-68" d="M348.05,224.45a1.76,1.76,0,0,1,.47-.44c.56-.31,1.1,0,1.4.64a3.24,3.24,0,0,1,.2.76,3.64,3.64,0,0,1-.57,2.49,1.53,1.53,0,0,1-.48.44c-.55.31-1.1,0-1.39-.64a2.72,2.72,0,0,1-.21-.76A3.65,3.65,0,0,1,348.05,224.45Z"/><path class="cls-68" d="M345.08,219.31a1.62,1.62,0,0,1,.47-.44c.56-.32,1.1,0,1.4.64a3,3,0,0,1,.2.76,3.61,3.61,0,0,1-.57,2.48,1.53,1.53,0,0,1-.48.44c-.55.32-1.1,0-1.39-.64a2.62,2.62,0,0,1-.21-.76A3.62,3.62,0,0,1,345.08,219.31Z"/><path class="cls-68" d="M351,229.6a1.62,1.62,0,0,1,.47-.44c.56-.32,1.1,0,1.4.64a3.12,3.12,0,0,1,.2.76,3.61,3.61,0,0,1-.57,2.48,1.53,1.53,0,0,1-.48.44c-.55.32-1.1,0-1.39-.64a2.62,2.62,0,0,1-.21-.76A3.62,3.62,0,0,1,351,229.6Z"/><g class="cls-4"><polygon class="cls-5" points="35.23 160.14 120.56 110.55 206.41 160.12 121.09 209.71 35.23 160.14"/><path class="cls-5" d="M96.76,212.56c7.57,0,14.7-1.73,20.09-4.85.6-.35,1.18-.73,1.79-1.15l2.21-1.53L79.26,181l-.82.4c-.72.35-1.36.69-2,1-5.66,3.29-8.77,7.77-8.76,12.6s3.16,9.36,8.89,12.67c5.41,3.13,12.57,4.85,20.14,4.85Z"/><path class="cls-5" d="M54.78,167.12l59.35,34.26c-16.28,9.47-42.77,9.47-59.16,0S38.5,176.58,54.78,167.12Z"/></g><g class="cls-2"><path class="cls-6" d="M121.06,205.56l1.83-1.06L180.5,171l5.18-3,14.87-8.64c0-2.19,0-4.38,0-6.57L143,186.28l-1.83,1.06-20,11.66v.57C121.07,201.57,121.07,203.57,121.06,205.56Z"/><polygon class="cls-7" points="121.08 199 121.06 205.56 41.05 159.37 41.07 152.8 121.08 199"/><polygon class="cls-8" points="200.57 152.8 121.08 199 41.07 152.8 120.56 106.61 200.57 152.8"/></g><g class="cls-2"><polygon class="cls-9" points="194.97 79.99 194.76 151.63 120.95 194.52 121.15 122.88 194.97 79.99"/><polygon class="cls-10" points="121.15 122.88 120.95 194.52 46.66 151.63 46.86 79.99 121.15 122.88"/><polygon class="cls-11" points="194.97 79.99 121.15 122.88 46.86 79.99 120.67 37.09 194.97 79.99"/></g><g class="cls-2"><polygon class="cls-13" points="186.59 77.37 186.57 83.94 120.59 45.84 120.61 39.27 186.59 77.37"/><polygon class="cls-14" points="120.61 39.27 120.59 45.84 55.03 83.94 55.05 77.37 120.61 39.27"/><polygon class="cls-13" points="121.08 123.56 121.06 130.13 41.05 83.94 41.07 77.37 121.08 123.56"/><polygon class="cls-14" points="200.57 77.37 200.55 83.94 121.06 130.13 121.08 123.56 200.57 77.37"/><path class="cls-15" d="M120.56,31.17l80,46.2-79.49,46.19-80-46.19Zm.47,84.3,65.56-38.1-66-38.1L55.05,77.37l66,38.1Z"/></g><g class="cls-2"><path class="cls-16" d="M116.66,201.76c-10.9,6.33-28.63,6.33-39.6,0-5.52-3.19-8.27-7.37-8.26-11.55v3.38c0,4.17,2.75,8.36,8.27,11.55,11,6.33,28.7,6.33,39.59,0,.61-.35,1.18-.72,1.73-1.1v-3.38C117.84,201,117.27,201.4,116.66,201.76Z"/><path class="cls-17" d="M118.38,200.65c-.54.38-1.11.75-1.72,1.11-10.9,6.33-28.63,6.33-39.6,0s-11-16.61-.13-22.94c.61-.35,1.25-.69,1.9-1Z"/><path class="cls-18" d="M114,198.09,78.83,177.82c-.65.31-1.29.65-1.9,1-10.89,6.33-10.84,16.6.13,22.94a33.62,33.62,0,0,0,8.4,3.32C95.8,205,106.05,202.63,114,198.09Z"/></g><g class="cls-2"><path class="cls-16" d="M81.31,194.79c-4.54-2.62-6.81-6.06-6.8-9.49v3.38c0,3.43,2.25,6.87,6.79,9.49,9,5.21,23.59,5.21,32.61,0v-3.38C104.9,200,90.32,200,81.31,194.79Z"/><path class="cls-8" d="M113.91,194.76c-9,5.24-23.59,5.24-32.6,0s-9.07-13.65-.11-18.85Z"/></g><polygon class="cls-19" points="151.78 162.43 151.64 138.19 173.46 125.59 173.6 149.83 151.78 162.43 151.78 162.43"/><g class="cls-2"><polygon class="cls-20" points="173.6 149.83 171.9 148.84 150.08 161.44 151.78 162.43 173.6 149.83"/><polygon class="cls-21" points="173.46 125.59 171.75 124.6 171.9 148.84 173.6 149.83 173.46 125.59"/><polygon class="cls-21" points="148.51 136.4 146.81 135.41 146.97 166.82 148.68 167.81 148.51 136.4"/><polygon class="cls-20" points="176.57 120.2 174.86 119.21 146.81 135.41 148.51 136.4 176.57 120.2"/><path class="cls-22" d="M176.57,120.2l-28.06,16.2.17,31.41,28-16.2Zm-24.79,42.23-.14-24.24,21.82-12.6.14,24.24-21.82,12.6Z"/></g><g class="cls-69"><g class="cls-2"><polygon class="cls-21" points="150.97 161.73 149.94 161.13 149.94 163.52 150.97 164.12 150.97 161.73"/><polygon class="cls-21" points="150.93 148.29 149.9 147.69 149.9 150.09 150.94 150.69 150.93 148.29"/><polygon class="cls-21" points="150.89 148.78 149.86 148.18 149.87 150.57 150.9 151.17 150.89 148.78"/><polygon class="cls-20" points="162.8 127.25 161.77 126.65 159.69 127.85 160.72 128.45 162.8 127.25"/></g></g><g class="cls-24"><g class="cls-69"><rect class="cls-25" x="151.56" y="107.62" width="8.98" height="61.89" transform="translate(144.88 -69.82) rotate(45.33)"/><rect class="cls-25" x="162.23" y="114.06" width="2.41" height="64.3" transform="translate(154.82 -72.91) rotate(45.93)"/></g></g><g class="cls-2"><polygon class="cls-26" points="49.1 121.46 50.14 120.85 87.87 142.63 86.82 143.24 49.1 121.46"/><path class="cls-27" d="M49.1,121.46l37.72,21.78-.06,22.49L49,144Zm36.61,42.46.06-20.08L50.14,123.27l0,20.08,35.62,20.57Z"/><polygon class="cls-19" points="85.71 163.92 85.77 143.84 50.14 123.27 50.09 143.35 85.71 163.92 85.71 163.92"/><path class="cls-20" d="M68.66,129.66a.3.3,0,0,1,.12.15l5.38,14.42a.25.25,0,0,1,0,.08c0,.06,0,.09-.07.1l-.06,0a.31.31,0,0,1-.12-.15l-5.26-14.1-5.32,8s-.07,0-.12,0l-.06,0a.34.34,0,0,1-.07-.18.14.14,0,0,1,0-.06l5.44-8.18A.08.08,0,0,1,68.66,129.66Z"/><g class="cls-2"><polygon class="cls-20" points="76.09 145.35 76.36 145.19 76.34 151.87 76.07 152.02 76.09 145.35"/><polygon class="cls-28" points="60.45 136.32 60.72 136.16 76.36 145.19 76.09 145.35 60.45 136.32"/><polygon class="cls-29" points="76.09 145.35 76.07 152.02 60.43 142.99 60.45 136.32 76.09 145.35"/></g><path class="cls-30" d="M65.67,141.16a2,2,0,0,1,1,1.74c0,.77-.4,1-1,.66a2.07,2.07,0,0,1-.95-1.74C64.68,141.12,65.07,140.82,65.67,141.16Zm0,2c.31.18.49-.05.49-.51a1.26,1.26,0,0,0-.49-1.06c-.31-.18-.49,0-.5.51a1.21,1.21,0,0,0,.5,1.06Z"/><path class="cls-30" d="M68.18,142.82a1.24,1.24,0,0,1,.22.67.48.48,0,0,1-.19.45.77.77,0,0,1-.66-.14l-.16-.1v.83l-.46-.26V142a3.46,3.46,0,0,1,.62.31A1.76,1.76,0,0,1,68.18,142.82Zm-.63.57c.24.14.39.09.39-.15a.64.64,0,0,0-.36-.55.59.59,0,0,0-.19-.09v.69l.16.1Z"/><polygon class="cls-30" points="69.95 143.67 69.94 144.1 69.15 143.65 69.15 144.13 69.9 144.56 69.9 144.99 69.15 144.56 69.15 145.12 69.98 145.6 69.98 146.03 68.69 145.28 68.69 142.95 69.95 143.67"/><path class="cls-30" d="M72,144.85v2.33l-.48-.27-.44-1.16c-.12-.32-.25-.69-.35-1h0c0,.32,0,.65,0,1v.71l-.42-.25v-2.33l.54.31.42,1.1c.12.31.24.67.33,1h0c0-.32,0-.64,0-1v-.68Z"/><polygon class="cls-31" points="50.14 123.27 51.19 122.66 51.13 142.74 50.09 143.35 50.14 123.27"/><polygon class="cls-26" points="50.09 143.35 51.13 142.74 86.75 163.31 85.71 163.92 50.09 143.35"/><g class="cls-32"><polygon class="cls-19" points="85.71 163.92 85.77 143.84 50.14 123.27 50.09 143.35 85.71 163.92 85.71 163.92"/><polygon class="cls-33" points="84.45 143.08 50.1 138.78 50.09 143.35 85.71 163.92 85.77 143.84 84.45 143.08"/></g></g><path class="cls-18" d="M114.13,190.63,54.78,156.37a35.59,35.59,0,0,0-3.51,2.32L81.17,176c-8.93,5.2-8.87,13.63.14,18.83a28,28,0,0,0,7.25,2.83C97.9,197.11,107,194.78,114.13,190.63Z"/><polygon class="cls-28" points="92.37 141.57 93.58 140.86 93.48 178.04 92.26 178.75 92.37 141.57"/><polygon class="cls-34" points="105.71 172.35 105.77 149.67 94.86 143.37 94.79 166.04 105.71 172.35 105.71 172.35"/><polygon class="cls-35" points="107.65 186.29 107.22 186.54 107.32 149.35 107.76 149.11 107.65 186.29"/><g class="cls-2"><polygon class="cls-36" points="94.79 166.04 95.48 165.64 106.4 171.94 105.71 172.35 94.79 166.04"/><polygon class="cls-37" points="94.86 143.37 95.55 142.97 95.48 165.64 94.79 166.04 94.86 143.37"/><polygon class="cls-37" points="107.59 149.6 108.28 149.2 108.17 186.38 107.48 186.78 107.59 149.6"/><polygon class="cls-38" points="93.04 141.2 93.74 140.8 108.28 149.2 107.59 149.6 93.04 141.2"/><path class="cls-39" d="M93,141.2l14.55,8.4-.11,37.18-14.54-8.4Zm12.67,31.15.06-22.68-10.91-6.3L94.79,166l10.92,6.31Z"/></g><g class="cls-2"><polygon class="cls-40" points="95.05 177.03 94.49 177.35 94.51 168.09 95.07 169.16 95.05 177.03"/><polygon class="cls-41" points="104.49 182.48 105.14 183.5 94.49 177.35 95.05 177.03 104.49 182.48"/><polygon class="cls-42" points="104.52 174.61 104.49 182.48 95.05 177.03 95.07 169.16 104.52 174.61"/><polygon class="cls-43" points="95.07 169.16 94.51 168.09 105.17 174.24 104.52 174.61 95.07 169.16"/><polygon class="cls-44" points="105.17 174.24 105.36 174.13 105.33 183.39 105.14 183.5 105.17 174.24"/><polygon class="cls-45" points="94.51 168.09 94.7 167.98 105.36 174.13 105.17 174.24 94.51 168.09"/><polygon class="cls-43" points="104.52 174.61 105.17 174.24 105.14 183.5 104.49 182.48 104.52 174.61"/></g><g class="cls-46"><polygon class="cls-19" points="105.71 172.35 105.77 149.67 94.86 143.37 94.79 166.04 105.71 172.35 105.71 172.35"/><path class="cls-47" d="M94.86,148.21l10.91,6.3,0,12.42L94.85,151Zm10.86,25.17v-2.16l-10.88-16v2.16Z"/></g><g class="cls-2"><path class="cls-48" d="M106.68,172.44a.38.38,0,0,0-.38,0l-.68.39a.36.36,0,0,1,.38,0,1.18,1.18,0,0,1,.53.92.35.35,0,0,1-.16.34l.69-.39a.4.4,0,0,0,.15-.35A1.17,1.17,0,0,0,106.68,172.44Z"/><path class="cls-49" d="M106,172.84a1.18,1.18,0,0,1,.53.92c0,.34-.24.48-.53.31a1.18,1.18,0,0,1-.54-.93C105.46,172.81,105.7,172.67,106,172.84Z"/></g><polygon class="cls-50" points="91.38 140.5 92.37 141.57 92.26 178.75 91.27 178.63 91.38 140.5"/><polygon class="cls-28" points="107.35 149.72 107.49 150.3 92.37 141.57 91.38 140.5 107.35 149.72"/><polygon class="cls-51" points="90.08 177.69 89.65 177.69 89.35 177.22 89.35 136.33 90.08 136.33 90.08 177.69"/><polygon class="cls-52" points="108.96 148.8 108.85 188.74 107.24 187.81 107.35 149.72 91.38 140.5 91.27 178.63 89.66 177.7 89.77 137.72 108.96 148.8"/><polygon class="cls-52" points="109.96 148.23 111.18 147.52 111.06 188.19 109.84 188.9 109.96 148.23"/><polygon class="cls-53" points="108.96 148.8 109.96 148.23 109.84 188.9 108.85 188.74 108.96 148.8"/><polygon class="cls-54" points="89.34 136.33 90.56 135.62 111.18 147.52 109.96 148.23 89.34 136.33"/><polygon class="cls-55" points="89.77 137.72 89.34 136.33 109.96 148.23 108.96 148.8 89.77 137.72"/><path class="cls-56" d="M104.92,126.74a87.75,87.75,0,0,0-22.29-18.5l-.11.05c13,11.27,23.23,27,25,38.19.58,2.08,2.57,1.49,3.16,1.25.34-.15.67-.31,1-.48a5.22,5.22,0,0,0,2.53-3.28c-.67-4.86-3.91-10.89-9.3-17.23Z"/><path class="cls-20" d="M82.4,108.33c9.18,12.46,16.48,29.11,17.73,40.49.52,2.16,2.72,1.81,3.38,1.65l1.1-.35c2.31-.91,5.8-2.29-1.8-16.68a89.82,89.82,0,0,0-20.29-25.15l-.12,0Z"/><path class="cls-56" d="M82.27,108.36c5.17,13.21,9.27,30.46,10,42,.44,2.21,2.79,2.11,3.5,2l1.18-.23c2.91-.75,5-1.3.66-14.44A108,108,0,0,0,82.4,108.33l-.13,0Z"/><path class="cls-20" d="M82.13,108.37c1,13.53,1.83,31,1.94,42.57.37,2.3,3,2.4,3.54,2.4l1.21-.1c4-1,3.93-1.48,2.72-9.79a168.83,168.83,0,0,0-9.27-35.09Z"/><path class="cls-56" d="M82,108.36c-3.15,13.42-5.68,30.83-6.14,42.34.27,2.34,2.93,2.72,3.46,2.77l1.23,0c4.2-.59,5-.69,1.58-45.13Z"/><path class="cls-20" d="M81.86,108.34c-7.24,12.86-13,29.83-14.06,41.27.17,2.36,2.79,3,3.31,3.13l1.2.16c3.46-.13,3.52-1.57,3.58-3.09.37-9.09,2.64-26.71,6.11-41.45l-.14,0Z"/><path class="cls-56" d="M81.74,108.31c-11.14,11.87-20,28.05-21.61,39.35.06,2.37,2.56,3.31,3.06,3.48l1.15.29c3.27.24,3.4-1.19,3.54-2.71.83-9,6-26.25,14-40.38a.53.53,0,0,1-.12,0Z"/><path class="cls-20" d="M81.62,108.27c-14.73,10.43-26.47,25.47-28.56,36.57-.05,2.37,2.26,3.61,2.73,3.83l1.05.42c3,.6,3.2-.75,3.42-2.31,1.26-8.92,9.22-25.43,21.48-38.47l-.12,0Z"/><path class="cls-56" d="M81.57,108.24l0,0c-17.74,8.68-31.88,22.33-34.38,33.19-.18.73-.48,2,1.9,3.9l.68.4.32.19c2.58,1.26,3-.8,3.19-1.91,1.66-8.76,12.18-24.25,28.39-35.71l-.05,0Z"/><path class="cls-20" d="M81.44,108.14c-20.19,6.6-36.28,18.59-39.13,29.15a5.4,5.4,0,0,0,1.59,4.28l.77.65c1.75,1,2.3-.09,2.47-.82,2.55-10.9,16.68-24.55,34.38-33.19l-.08-.07Z"/><path class="cls-56" d="M81.39,108.07c-21.9,4.34-39.34,14.52-42.42,24.77a6.47,6.47,0,0,0,.92,4.37c.16.23.32.45.5.67.42.37,1.42,1.25,1.92-.59,2.9-10.6,19-22.59,39.13-29.15l0-.07Z"/><path class="cls-20" d="M81.36,108c-22.84,2-41,10.27-44.25,20.19a8.75,8.75,0,0,0,.27,4.41l.27.69a3.28,3.28,0,0,0,.45.59c.45,0,.57-.05.87-1,3.13-10.28,20.58-20.46,42.42-24.77a.13.13,0,0,1,0-.08Z"/><path class="cls-56" d="M81.35,107.91c-23-.45-41.38,5.92-44.62,15.5a14.92,14.92,0,0,0-.37,4.41c0,.23,0,.47.06.7a2,2,0,0,0,.22.67c.25-.31.25-.31.47-1a15.11,15.11,0,0,1,4.66-6.78,38.1,38.1,0,0,1,9.72-6.13c5.55-2.63,15.24-6,29.87-7.28a.22.22,0,0,1,0-.08Z"/><path class="cls-20" d="M81.37,107.83C59.42,105,42,109.13,38.09,118l0,.1a24.7,24.7,0,0,0-1.27,4.35c-.09.58-.23,1.34-.29,1.92C39,114.18,57.4,107.42,81.35,107.91a.24.24,0,0,1,0-.08Z"/><path class="cls-56" d="M81.41,107.76c-18.58-4.55-34.15-3.08-39.65,3.73-.48.69-1.13,1.61-1.58,2.32A27.06,27.06,0,0,0,38.09,118c4-8.87,21.38-13,43.28-10.16a.25.25,0,0,1,0-.07Z"/><path class="cls-20" d="M81.48,107.69C63,100.58,51.58,102.13,47,106a36.53,36.53,0,0,0-3.74,3.68c-.46.55-1.08,1.29-1.52,1.86,5.65-6.93,20.84-8.36,39.65-3.73a.23.23,0,0,1,.07-.07Z"/><path class="cls-56" d="M81.57,107.62c-8.43-4.9-16.34-7.5-22.33-7.43a12.21,12.21,0,0,0-6,1.38,47.55,47.55,0,0,0-5.78,4L47,106c6.2-4.86,19.4-4.19,34.46,1.74a.22.22,0,0,1,.09-.07Z"/><path class="cls-18" d="M88.52,197.61a27.71,27.71,0,0,1-7.21-2.82c-4.54-2.62-6.81-6.06-6.8-9.49v3.38c0,3.43,2.25,6.87,6.79,9.49A27.78,27.78,0,0,0,88.52,201Z"/><path class="cls-18" d="M85.26,205a33.93,33.93,0,0,1-8.2-3.27c-5.52-3.19-8.27-7.37-8.26-11.55v3.38c0,4.17,2.75,8.36,8.27,11.55a33.37,33.37,0,0,0,8.2,3.27Z"/><g class="cls-4"><polygon class="cls-57" points="194.93 94.63 187.86 98.71 187.87 101.73 194.91 97.67 194.93 94.63"/><polygon class="cls-57" points="194.79 143.3 191.47 145.22 191.48 148.25 194.78 146.34 194.79 143.3"/><polygon class="cls-57" points="191.01 122.83 191.02 125.86 182.31 130.89 182.29 127.86 191.01 122.83"/><polygon class="cls-57" points="167.74 116.02 167.75 119.05 159.04 124.08 159.03 121.05 167.74 116.02"/><polygon class="cls-57" points="170.36 158.88 164.2 162.44 164.21 165.46 170.36 161.91 170.36 158.88"/><polygon class="cls-57" points="151.36 114.51 151.37 117.54 142.66 122.57 142.65 119.54 151.36 114.51"/><polygon class="cls-57" points="146.9 152.28 142.66 154.72 142.67 157.75 146.92 155.29 146.9 152.28"/><polygon class="cls-57" points="121.1 140.07 128.13 136.01 128.11 132.99 121.11 137.03 121.1 140.07"/><polygon class="cls-57" points="121.03 163.44 124.85 161.23 124.84 158.21 121.05 160.4 121.03 163.44"/><polygon class="cls-57" points="135.32 179.17 135.33 182.2 126.62 187.23 126.61 184.2 135.32 179.17"/></g><g class="cls-4"><polygon class="cls-57" points="48.46 92.26 55.53 96.33 55.52 99.36 48.48 95.3 48.46 92.26"/><polygon class="cls-57" points="46.66 146.21 49.98 148.12 49.97 151.15 46.67 149.25 46.66 146.21"/><polygon class="cls-57" points="71.71 158.88 77.87 162.44 77.86 165.46 71.71 161.91 71.71 158.88"/><polygon class="cls-57" points="95.17 152.28 99.41 154.72 99.4 157.75 95.15 155.29 95.17 152.28"/><polygon class="cls-57" points="120.97 140.07 113.94 136.01 113.96 132.99 120.96 137.03 120.97 140.07"/><polygon class="cls-57" points="121.03 163.44 117.22 161.23 117.23 158.21 121.02 160.4 121.03 163.44"/><polygon class="cls-57" points="113.28 174.77 113.28 177.8 116.92 179.9 116.93 176.88 113.28 174.77"/></g><g class="cls-70"><g class="cls-4"><g class="cls-2"><polygon class="cls-5" points="168.27 94.93 140.96 115.18 94.54 88.38 120.27 68.46 168.27 94.93"/></g><path class="cls-5" d="M166.78,124.34c-1.67-1.29-5.86-3.08-7.52-4.37-2-1.52-6.79-7.15-6.79-7.15l-27-7.34s13.89,19.42,26.23,22.86c2,.52,3.79,2.13,6.31,4.15,3.88,3.11,13.53,5.95,15.78-1.19C174.42,129.12,168.58,125.73,166.78,124.34Z"/><path class="cls-5" d="M173.54,85.89,185,102.79l-14.46,19.27c-11.84-.28-22.08-3-30.4-7.41,0,0-10.1-22.58-1.45-24.9A60.09,60.09,0,0,1,145.57,88C152.41,87.23,173.54,85.89,173.54,85.89Z"/><path class="cls-5" d="M216.92,118.39c.86,2.14-.48,4.4-3.4,5-2.6.49-8-2-12.36-4.23-2.94-1.52-6.87-3.45-9.62-5.14a75.87,75.87,0,0,0-12-6l5.68-9.42c-.18.34,6,3.1,12.81,7.22,2.47,1.5,4.82,3.31,7.34,4.78C211.37,114,215.65,115.28,216.92,118.39Z"/><polygon class="cls-5" points="167.28 126.92 169.59 125.59 213.49 151.14 211.18 152.47 167.28 126.92"/><path class="cls-5" d="M209.84,127.41c1,1.89-.43,4.49-3.16,4.92-1.67.27-4.84-.81-10-4.11-2.58-1.66-7.39-4.23-9.92-5.76-4.7-2.85-10.81-7.6-11.91-8.91l6-6.23c.26.08,4.51,3.84,10.72,7.81,1.14.72,3.55,2.57,4.64,3.43a39.26,39.26,0,0,0,3.79,2.32c2.63,1.6,3.15,2.3,5.24,3.44S208.85,125.54,209.84,127.41Z"/><path class="cls-5" d="M196.6,130.81a2.81,2.81,0,0,1-2.52,3.79c-1.31.08-6.1-2.13-9.83-5.08-1.87-1.48-4.51-3.3-6-4.69-3.05-1.81-5.68-2.94-6.63-4l3.1-7.29c-.16.22,4.06,2,8.56,5.54,1.65,1.29,3.84,3.52,5.52,4.79,1.91,1.43,3.16,2.84,4.69,3.88S196,129.29,196.6,130.81Z"/><path class="cls-5" d="M182.68,118.6c-1.66,0-3.47-1.79-4-4.89-.36-2.27,3.63-6.47,4.21-8.08a5.72,5.72,0,0,1-.09-2.08,14.11,14.11,0,0,0-4.31-3c-3.54-1.23-8.1-2.54-9-3.95l3.88-10.75c1-.42,17.12,7.09,19.53,11.92.41.84.09,9.59-1.38,12.7-.62,1.32-2.91,3-4.76,4.76C185.17,116.85,184,118.58,182.68,118.6Z"/><path class="cls-5" d="M170.27,130.47c-1.54-.63-2.5-3-1.75-6,.55-2.23,5.86-4.55,7-5.8a5.75,5.75,0,0,1,.74-2,14.45,14.45,0,0,0-2.83-4.4c-2.78-2.51-6.49-5.48-6.75-7.12l7.75-8.4c1.08,0,13,13.17,13.37,18.56.06.94-3.64,8.88-6.2,11.17-1.08,1-3.84,1.64-6.23,2.54C173.24,129.83,171.48,131,170.27,130.47Z"/></g></g><g class="cls-71"><g class="cls-4"><g class="cls-2"><polygon class="cls-5" points="174.78 95.86 147.47 116.11 101.06 89.31 126.78 69.39 174.78 95.86"/></g><path class="cls-5" d="M173.29,125.27c-1.66-1.29-5.85-3.08-7.52-4.37a85.26,85.26,0,0,1-6.79-7.15l-27-7.34s13.89,19.42,26.23,22.86c2,.52,3.79,2.13,6.32,4.15,3.88,3.11,13.52,6,15.77-1.19C180.93,130.05,175.09,126.66,173.29,125.27Z"/><path class="cls-5" d="M180.05,86.82l11.49,16.9L177.07,123c-11.83-.28-22.08-3-30.4-7.41,0,0-10.09-22.58-1.45-24.9a60.09,60.09,0,0,1,6.86-1.79C158.92,88.16,180.05,86.82,180.05,86.82Z"/><path class="cls-5" d="M223.43,119.32c.87,2.14-.48,4.4-3.4,5-2.6.49-8-2-12.36-4.23-2.93-1.51-6.86-3.45-9.62-5.14a75.39,75.39,0,0,0-12-6l5.68-9.42c-.18.34,6.05,3.1,12.82,7.22,2.47,1.5,4.81,3.31,7.34,4.78C217.88,115,222.16,116.21,223.43,119.32Z"/><polygon class="cls-5" points="173.79 127.85 176.1 126.52 220 152.07 217.69 153.4 173.79 127.85"/><path class="cls-5" d="M216.35,128.34c1,1.89-.42,4.49-3.15,4.92-1.67.27-4.85-.8-10-4.11-2.58-1.66-7.38-4.23-9.92-5.76-4.7-2.85-10.81-7.6-11.91-8.91l6-6.23c.26.08,4.51,3.84,10.73,7.81,1.13.72,3.54,2.57,4.63,3.43a39.4,39.4,0,0,0,3.8,2.32c2.62,1.6,3.14,2.3,5.24,3.45S215.36,126.47,216.35,128.34Z"/><path class="cls-5" d="M203.12,131.74a2.81,2.81,0,0,1-2.53,3.79c-1.31.08-6.1-2.13-9.83-5.08-1.87-1.48-4.51-3.3-6-4.69-3.05-1.81-5.67-2.94-6.63-4l3.1-7.29c-.16.23,4.07,2,8.57,5.54,1.64,1.29,3.83,3.52,5.52,4.79,1.9,1.43,3.15,2.84,4.69,3.88S202.49,130.22,203.12,131.74Z"/><path class="cls-5" d="M189.19,119.53c-1.66,0-3.47-1.79-4-4.89-.35-2.27,3.64-6.47,4.21-8.08a5.76,5.76,0,0,1-.08-2.08,14.35,14.35,0,0,0-4.32-3c-3.53-1.23-8.1-2.54-9-4l3.88-10.75c1-.42,17.12,7.09,19.53,11.92.42.84.1,9.6-1.37,12.7-.63,1.32-2.91,3-4.76,4.76C191.68,117.78,190.49,119.51,189.19,119.53Z"/><path class="cls-5" d="M176.78,131.4c-1.54-.63-2.5-3-1.75-6.05.56-2.23,5.87-4.55,7-5.8a5.69,5.69,0,0,1,.73-2,14.24,14.24,0,0,0-2.83-4.4c-2.78-2.51-6.48-5.48-6.74-7.12l7.75-8.4c1.08,0,13,13.17,13.36,18.56.06.94-3.63,8.88-6.19,11.17-1.09,1-3.85,1.64-6.24,2.54C179.75,130.76,178,131.89,176.78,131.4Z"/></g></g><path class="cls-72" d="M132.61,90l15.13-29.47c3.66-7.24-18.17-31.91-23.82-27.49L96.83,69.51Z"/><path class="cls-73" d="M133,84.91l14.8-28.21c3.24-6.41-15.06-29.88-20.06-26L101.26,66.79Z"/><path class="cls-59" d="M173.54,18.27,185,35.18,170.56,54.44c-11.84-.28-16.82,2.52-25.14-1.88L134.73,73.82,110.66,56.25s19.4-31.8,28.05-34.12a57.74,57.74,0,0,1,6.86-1.78C152.41,19.61,173.54,18.27,173.54,18.27Z"/><path class="cls-59" d="M216.92,50.78c.86,2.13-.48,4.39-3.4,4.95-2.6.5-8-2-12.36-4.22-2.94-1.52-6.87-3.46-9.62-5.15a75.22,75.22,0,0,0-12-6l5.68-9.43c-.18.35,6,3.11,12.81,7.22,2.47,1.51,4.82,3.31,7.34,4.78C211.37,46.41,215.65,47.66,216.92,50.78Z"/><path class="cls-59" d="M209.21,60.66c.95,1.92-.56,4.47-3.31,4.82-1.67.22-4.81-1-9.85-4.42-2.54-1.74-7.26-4.45-9.74-6.07-4.61-3-9-6.3-10.07-7.64l4.63-7.67c.26.09,4.39,4,10.48,8.14,1.11.76,3.46,2.67,4.53,3.57a40.16,40.16,0,0,0,3.71,2.44c2.58,1.68,3.07,2.4,5.13,3.61S208.28,58.76,209.21,60.66Z"/><path class="cls-59" d="M193.4,68.25a2.81,2.81,0,0,1-3.1,3.34c-1.3-.13-5.68-3.07-8.9-6.57-1.61-1.75-3.93-4-5.19-5.58-2.73-2.27-5.14-3.81-5.92-5l4.22-6.71c-.2.2,3.69,2.62,7.58,6.82,1.42,1.54,3.22,4.09,4.69,5.61,1.65,1.72,2.67,3.3,4,4.58S193,66.65,193.4,68.25Z"/><path class="cls-74" d="M173.43,18.29a1.21,1.21,0,0,1,.5,0l.49.13c.32.09.64.2,1,.31.63.22,1.25.48,1.87.73,1.24.52,2.46,1.08,3.67,1.67s2.4,1.21,3.57,1.87,2.33,1.35,3.46,2.09a29.32,29.32,0,0,1,3.25,2.44A12.7,12.7,0,0,1,192.64,29a6.19,6.19,0,0,1,.6.88l0,.06,0,0v0l0,0,0,.13a1.16,1.16,0,0,1,0,.18l0,.13c0,.19,0,.36,0,.53a34.47,34.47,0,0,1,0,4.07c-.08,1.35-.21,2.7-.42,4q-.15,1-.39,2c-.08.33-.17.67-.28,1-.05.16-.11.33-.18.5a2.44,2.44,0,0,1-.1.24L192,43l0,0h0l0,0,0,.05a1.34,1.34,0,0,1-.13.23l-.16.25a4.71,4.71,0,0,1-.33.42c-.23.28-.47.52-.71.77-.49.48-1,.93-1.5,1.38-1,.89-2,1.75-2.92,2.71-.46.48-.91,1-1.43,1.45a6.62,6.62,0,0,1-.87.66,2.49,2.49,0,0,1-1.15.38h-.42l-.16,0a3.28,3.28,0,0,1-.58-.16,4.56,4.56,0,0,1-1-.57A5.6,5.6,0,0,1,179.24,49a7.55,7.55,0,0,1-.75-2,4.19,4.19,0,0,1-.11-.51l0-.26v0h0v-.23a3.38,3.38,0,0,1,.16-1.14,8.54,8.54,0,0,1,.88-1.91c.35-.59.73-1.15,1.12-1.7l1.16-1.64.56-.82a6.11,6.11,0,0,0,.45-.82v.19a5.35,5.35,0,0,1-.14-1.11,6.77,6.77,0,0,1,.07-1.1l0,.21a1.74,1.74,0,0,0-.18-.22c-.07-.07-.14-.15-.22-.22s-.31-.28-.48-.41c-.33-.26-.68-.51-1-.75-.73-.48-1.48-.91-2.25-1.33h0c-1.54-.57-3.11-1.1-4.65-1.7L172.66,31l-.57-.25a5.77,5.77,0,0,1-.56-.27c-.19-.09-.37-.19-.55-.29s-.36-.22-.53-.33a2.27,2.27,0,0,1-.25-.18,1.16,1.16,0,0,1-.24-.2,1.52,1.52,0,0,1-.22-.22l-.19-.24.2.23a2.29,2.29,0,0,0,.23.21,1.6,1.6,0,0,0,.25.18,2.2,2.2,0,0,0,.25.17c.18.1.36.21.54.29l.56.26c.75.33,1.53.62,2.31.89,1.56.53,3.14,1,4.71,1.51h0A26.1,26.1,0,0,1,181,34.06q.57.36,1.11.75c.18.14.36.28.53.43l.25.24a2.09,2.09,0,0,1,.24.28l.07.09V36a6.69,6.69,0,0,0,0,1,4.94,4.94,0,0,0,.14,1l0,.1,0,.09a5.75,5.75,0,0,1-.49,1l-.55.86-1.14,1.65c-.37.56-.73,1.11-1.05,1.68a8.46,8.46,0,0,0-.78,1.75l-.06.22,0,.22,0,.21v.38h0v0l0,.24c0,.16.07.31.11.47a7.09,7.09,0,0,0,.69,1.76A4.87,4.87,0,0,0,181.14,50a3.59,3.59,0,0,0,.75.44c.14,0,.28.09.39.11l.09,0h.33s0,0,0,0h0a2.54,2.54,0,0,0,1.46-.82c.47-.43.92-.92,1.39-1.41a40.47,40.47,0,0,1,3-2.77c.5-.44,1-.88,1.47-1.34.23-.23.46-.46.66-.7l.29-.36L191,43c0-.06.08-.15.12-.22l0,0s0,0,0,0v0l.05-.11.09-.22a4.72,4.72,0,0,0,.16-.45c.1-.3.19-.62.27-.93.15-.64.28-1.28.38-1.94.21-1.3.36-2.63.46-4a35.14,35.14,0,0,0,.1-4c0-.16,0-.32,0-.47l0-.11a.13.13,0,0,1,0-.06.43.43,0,0,1,0-.05l0-.06s0,0,0,0h0l0,0,0,0a6.22,6.22,0,0,0-.51-.79,12.65,12.65,0,0,0-1.33-1.42,29.87,29.87,0,0,0-3.12-2.46c-1.09-.76-2.22-1.48-3.37-2.16s-2.31-1.35-3.48-2-2.38-1.24-3.59-1.81c-.6-.28-1.22-.55-1.83-.81-.31-.13-.62-.25-.94-.36-.16,0-.32-.11-.48-.15A1,1,0,0,0,173.43,18.29Z"/><path class="cls-59" d="M182.68,51c-1.66,0-3.47-1.79-4-4.89-.36-2.27,3.63-6.47,4.21-8.07a5.79,5.79,0,0,1-.09-2.09,14.3,14.3,0,0,0-4.31-3c-3.54-1.23-8.1-2.54-9-3.94l3.88-10.75c1-.43,17.12,7.08,19.53,11.91.41.84.09,9.6-1.38,12.7-.62,1.32-2.91,3-4.76,4.76C185.17,49.23,184,51,182.68,51Z"/><path class="cls-61" d="M188.4,44.73c-.62,2-2.3,3.56-3.88,4.94.45-2.13.86-4.21.06-4.94,1-.88,2-1.69,2.88-1.7S188.45,43.67,188.4,44.73Z"/><path class="cls-74" d="M139.73,47l.77,1c.46.57,1.07,1.35,1.73,2.06.17.17.34.35.52.51l.51.46c.17.15.32.3.48.42s.3.25.44.36l.4.28.33.19.3.15v.05a2.31,2.31,0,0,1-.35,0,2.56,2.56,0,0,1-.4-.08,3.56,3.56,0,0,1-.5-.19l-.27-.14-.27-.17a5,5,0,0,1-.55-.42,6.52,6.52,0,0,1-.5-.54c-.16-.18-.31-.38-.47-.58a24,24,0,0,1-1.56-2.24c-.39-.62-.64-1-.64-1Z"/><path class="cls-74" d="M186.91,28.17l-.36.16a2.47,2.47,0,0,0-.38.21,1.53,1.53,0,0,0-.22.16,1.92,1.92,0,0,0-.23.19l-.22.22a2.88,2.88,0,0,0-.22.27,1.27,1.27,0,0,0-.21.29,2.53,2.53,0,0,0-.21.32l-.19.34-.17.36a2.59,2.59,0,0,0-.17.38c-.05.13-.11.25-.16.39s-.19.52-.28.78-.17.52-.25.77l-.21.73-.19.66c-.11.41-.22.75-.29,1l-.11.38s0-.14,0-.39.06-.61.12-1,.15-.92.28-1.44c.07-.26.12-.53.22-.8s.17-.55.27-.82.11-.26.17-.4.11-.26.18-.39l.2-.37.23-.36a3.81,3.81,0,0,1,.24-.32,1.87,1.87,0,0,1,.26-.3c.09-.08.17-.18.26-.25l.27-.22a2.71,2.71,0,0,1,.27-.16,1.58,1.58,0,0,1,.26-.13,3.22,3.22,0,0,1,.43-.15Z"/><path class="cls-74" d="M187.66,34.81l-.26.06-.28.09-.36.13-.41.18-.44.22c-.15.08-.3.19-.46.28l-.45.31c-.15.1-.29.22-.44.33l-.41.35-.37.34c-.12.1-.23.21-.33.31l-.5.48-.19.18.12-.24.15-.26a2.7,2.7,0,0,1,.22-.33,4.07,4.07,0,0,1,.28-.38c.11-.12.22-.26.35-.39s.26-.26.4-.39.3-.25.46-.36a5.14,5.14,0,0,1,.49-.32,3.4,3.4,0,0,1,.5-.26,3.9,3.9,0,0,1,.5-.19c.16-.05.32-.08.46-.11a3.35,3.35,0,0,1,.4-.05h.31Z"/><path class="cls-74" d="M177.54,26.16s0,.12,0,.32,0,.49.06.83l0,.55c0,.19.05.39.07.61l.08.65c0,.22.06.44.1.67.06.45.15.89.22,1.31,0,.21.07.41.12.6s.08.37.12.53.09.32.12.45l.11.35.11.29-.19-.25c-.05-.09-.12-.19-.19-.32s-.14-.27-.21-.43-.14-.34-.2-.53-.12-.39-.18-.6-.11-.43-.15-.66-.09-.45-.13-.68-.05-.46-.08-.68,0-.46,0-.67,0-.43,0-.63,0-.39,0-.56,0-.33,0-.48,0-.26.06-.36S177.54,26.16,177.54,26.16Z"/><path class="cls-74" d="M204.68,44.31a2,2,0,0,1-.15.22l-.18.25-.22.32-.26.38-.28.44c-.1.14-.19.3-.29.46s-.19.32-.28.49-.19.33-.27.49l-.25.49-.22.46-.19.42-.14.36-.11.29-.08.25a1.89,1.89,0,0,1,0-.27,3.6,3.6,0,0,1,.09-.7,6.36,6.36,0,0,1,.28-1c.07-.17.14-.35.23-.52a5.12,5.12,0,0,1,.27-.52,7.23,7.23,0,0,1,.63-1,4.94,4.94,0,0,1,.34-.41c.11-.13.23-.24.33-.34s.21-.2.29-.28l.24-.19Z"/><path class="cls-74" d="M195.58,38.87s-.06.1-.18.26a3,3,0,0,0-.21.3c-.08.11-.16.24-.25.38l-.28.47c-.1.17-.19.35-.3.53l-.3.58c-.1.2-.21.39-.3.6-.2.4-.38.81-.56,1.2s-.32.75-.45,1.07l-.16.43-.12.34-.1.3s0-.12,0-.32a6.15,6.15,0,0,1,.13-.83,9.62,9.62,0,0,1,.32-1.14c.08-.2.15-.41.24-.62s.18-.42.28-.63.22-.41.32-.61.24-.39.35-.57.24-.36.36-.51.24-.31.35-.44l.17-.19.16-.16a2.6,2.6,0,0,1,.27-.24Z"/><path class="cls-74" d="M190,48.77l-.12.23-.35.6-.47.85c-.09.15-.17.31-.27.47s-.19.33-.27.49-.19.33-.27.5l-.26.48-.46.85-.45.85s0-.1,0-.27a5.52,5.52,0,0,1,.17-.68,7.22,7.22,0,0,1,.34-.93c.07-.16.14-.33.23-.5s.17-.34.26-.51a9.83,9.83,0,0,1,.6-1,8.1,8.1,0,0,1,.6-.79,6.12,6.12,0,0,1,.48-.5Z"/><path class="cls-74" d="M199.21,55.37l-.11.21-.29.52-.42.72-.23.41-.24.41c-.08.14-.16.28-.23.42l-.23.41c-.14.27-.27.52-.39.73s-.21.4-.28.53l-.11.2,0-.23c0-.14.06-.35.12-.59a7.67,7.67,0,0,1,.27-.81c.06-.14.12-.29.2-.44s.15-.29.23-.44a8.26,8.26,0,0,1,.53-.82c.09-.13.19-.24.28-.35l.26-.3a5.72,5.72,0,0,1,.43-.43Z"/><path class="cls-74" d="M185.76,61.14l-.47.46c-.29.27-.67.62-1,1-.2.17-.38.36-.55.52l-.48.47-.35.32-.14.13a3.83,3.83,0,0,1,.34-.58,5.52,5.52,0,0,1,.41-.54,3.47,3.47,0,0,1,.25-.29l.28-.28a6.62,6.62,0,0,1,.6-.5,4.1,4.1,0,0,1,.56-.39A4.85,4.85,0,0,1,185.76,61.14Z"/><path class="cls-74" d="M181,55.35l-.18.14-.2.15-.26.21-.64.52-.35.3L179,57l-.7.63-.6.57-.59.56.11-.2a4.2,4.2,0,0,1,.33-.49c.15-.2.33-.42.54-.65a8.8,8.8,0,0,1,.69-.67,7.88,7.88,0,0,1,.75-.6,4,4,0,0,1,.37-.25l.34-.21a4.51,4.51,0,0,1,.54-.25Z"/><g class="cls-2"><polygon class="cls-62" points="220.48 67.33 222.79 66 222.52 109.39 220.21 110.72 220.48 67.33"/><polygon class="cls-63" points="176.58 41.78 178.89 40.44 222.79 66 220.48 67.33 176.58 41.78"/><polygon class="cls-64" points="220.48 67.33 220.21 110.72 176.31 85.17 176.58 41.78 220.48 67.33"/><path class="cls-20" d="M203.91,76.69c2.84,2.53,4.94,6.2,4.93,9.9,0,2.58-1.05,4-2.6,4.57-1.82.61-4.84-.21-9.79-3.06a66.17,66.17,0,0,1-6.09-3.94l.08-28.08a53.92,53.92,0,0,1,7.27,3.61,23.69,23.69,0,0,1,7.34,5.85,11.91,11.91,0,0,1,3,7.32c0,2.55-1.31,4.18-4.12,3.74Zm-5.79,7.57c2.55,1.47,4.81,1.67,4.81-1.34s-2.24-5.33-5-7L196,74.86l0,8.06a23.48,23.48,0,0,0,2.17,1.34ZM196,63.58l0,6.66,1.85,1.07c2.95,1.7,4.54,1.22,4.55-.9s-1.43-4.14-4-5.61a20.58,20.58,0,0,0-2.4-1.22Z"/></g><path class="cls-75" d="M178.81,40.49l-2.23,1.29-.07,11.49a3,3,0,0,0,.85,0c5.13-.91,5.6-5.74,5.14-8.32C182.27,43.62,180.56,41.94,178.81,40.49Z"/><path class="cls-74" d="M160,25.37c.84.93,1.7,1.84,2.56,2.76s1.73,1.81,2.62,2.68q.67.66,1.38,1.26l.36.28c.13.09.25.19.38.27l.79.48c1.08.61,2.21,1.16,3.32,1.74.56.28,1.12.57,1.67.88.28.16.56.32.83.49s.54.37.79.56c1,.74,2,1.48,3,2.28a20.25,20.25,0,0,1,2.79,2.62,5.58,5.58,0,0,1,1.07,1.71,2,2,0,0,1,.08.26s0,.08,0,.15l0,.11c0,.16.05.31.06.48l.05.5,0,.49A8.29,8.29,0,0,1,181,49.2,6.05,6.05,0,0,1,178.14,52c-.3.13-.62.24-.93.35l-.49.12-.24.06-.12,0-.06,0h-.09c-.16,0-.31,0-.48,0s-.37,0-.55,0a7.4,7.4,0,0,1-1-.18A16.48,16.48,0,0,1,170.61,51,34.93,34.93,0,0,1,167.32,49c-1-.7-2.08-1.46-3-2.25s-1.92-1.64-2.88-2.42a9.17,9.17,0,0,0-3.07-1.82l.31-.06a5.48,5.48,0,0,1-1.6.66,13.36,13.36,0,0,1-1.63.31,29.93,29.93,0,0,1-3.27.22,41.48,41.48,0,0,1-6.49-.44c-.54-.08-1.07-.17-1.61-.29a6.12,6.12,0,0,1-3-1.37,15.68,15.68,0,0,1-1.22-1.08,27.57,27.57,0,0,1-2.17-2.42c-.67-.84-1.31-1.72-1.9-2.62.64.87,1.32,1.71,2,2.52A28.76,28.76,0,0,0,140,40.27a14.91,14.91,0,0,0,1.24,1,7.68,7.68,0,0,0,1.35.79,7.37,7.37,0,0,0,1.52.4c.52.1,1.05.18,1.58.24,1.06.13,2.13.21,3.2.25s2.14.06,3.21,0a25.73,25.73,0,0,0,3.17-.27,13.14,13.14,0,0,0,1.54-.32,5,5,0,0,0,1.37-.58l.15-.09.16,0a6.84,6.84,0,0,1,1.82.82,16.34,16.34,0,0,1,1.57,1.11c1,.79,1.95,1.61,2.91,2.39s2,1.52,3,2.2A32.21,32.21,0,0,0,171,50.15c.54.28,1.11.54,1.67.77.28.12.57.22.86.32a8.52,8.52,0,0,0,.86.26,6.81,6.81,0,0,0,.86.16l.39,0,.46,0,.83-.2c.28-.1.56-.19.82-.31l.39-.2.19-.1.18-.12.35-.25c.12-.09.22-.2.32-.29a5.09,5.09,0,0,0,.58-.65c.09-.11.16-.24.24-.36l.12-.18c0-.06.06-.13.1-.2l.19-.39.16-.41c0-.14.09-.28.13-.42s.09-.29.11-.43a8.82,8.82,0,0,0,.19-1.78v-.45l0-.44c0-.14,0-.3-.06-.46v-.11l0-.09a1.21,1.21,0,0,0,0-.18,5.11,5.11,0,0,0-.91-1.47,20.75,20.75,0,0,0-2.65-2.56c-1-.8-1.94-1.55-2.94-2.33-.25-.2-.48-.37-.74-.54s-.52-.33-.78-.49c-.53-.32-1.08-.62-1.63-.92-1.1-.6-2.21-1.18-3.29-1.84-.27-.16-.54-.34-.81-.52l-.37-.29-.37-.31c-.47-.43-.92-.88-1.35-1.33-.87-.91-1.71-1.85-2.53-2.8S160.83,26.34,160,25.37Z"/><path class="cls-59" d="M174.34,36.88c-1.67-1.29-5.85-3.07-7.52-4.37C164.87,31,160,25.37,160,25.37L135.76,35.44s4.21,6.17,7.34,7c3.69,1,12.81,1.37,15.32-.33,2,.51,4,2.55,6.48,4.57,3.88,3.11,9,5.78,11.3,5.38,5.09-.91,5.56-5.7,5.1-8.26C180.9,41.59,176.14,38.28,174.34,36.88Z"/><path class="cls-74" d="M170.16,35.61H170l-.33,0h-.51c-.2,0-.41.06-.65.1s-.47.13-.73.22a5.87,5.87,0,0,0-.77.36,7,7,0,0,0-.77.48,6,6,0,0,0-.74.59,7,7,0,0,0-.67.66c-.21.23-.42.46-.6.7s-.34.47-.5.7-.28.46-.39.67-.21.41-.29.59-.14.35-.19.48-.08.24-.1.32l0,.11v-.12a2.38,2.38,0,0,1,0-.34,4.52,4.52,0,0,1,.1-.51,4,4,0,0,1,.19-.66,7.83,7.83,0,0,1,.33-.75,7.2,7.2,0,0,1,.46-.78,8.41,8.41,0,0,1,.59-.78,9.63,9.63,0,0,1,.71-.72,8,8,0,0,1,.8-.61,6.67,6.67,0,0,1,.86-.48,5,5,0,0,1,.87-.31,4.92,4.92,0,0,1,.81-.14,3.89,3.89,0,0,1,.69,0l.28,0,.24,0a1.91,1.91,0,0,1,.33.1Z"/><path class="cls-61" d="M179.82,43.26a21.59,21.59,0,0,0-5.62,7.19c-2.17-.81-3.74-1.94-4.19-4.11a7.13,7.13,0,0,1,4.86-5.29A8.24,8.24,0,0,1,179.82,43.26Z"/><path class="cls-18" d="M127.64,32c-1.09,1.31-2.17,2.7-3.25,4.11L111.47,56.84l23.26,17,9.79-19.46C136.87,51.15,127.33,38.54,127.64,32Z"/><path class="cls-20" d="M133,84.91l14.8-28.21c-8.19,3.2-23.6-19-20.06-26L95.92,74.07C91.87,86.49,118.93,94,133,84.91Z"/><path class="cls-18" d="M123.42,36.58l-19.7,26.85L95.54,75.88c-1,11.31,24.09,17.64,37.42,9l13.28-25.32C137.84,59.23,124.78,45.15,123.42,36.58Z"/><path class="cls-76" d="M132.61,90l15.13-29.47C138.5,64.1,119.93,40.89,123.92,33L90.8,77.73C86.23,91.74,116.78,100.19,132.61,90Z"/><path class="cls-68" d="M133.66,74.69a1.29,1.29,0,0,1,.52-.37c.7-.27,1.26.41,1.25,1.5a3.31,3.31,0,0,1-.76,2.1,1.36,1.36,0,0,1-.51.37c-.7.26-1.26-.41-1.25-1.51A3.2,3.2,0,0,1,133.66,74.69Z"/><path class="cls-68" d="M136.25,69.87a1.36,1.36,0,0,1,.51-.37c.7-.26,1.26.41,1.25,1.51a3.2,3.2,0,0,1-.75,2.09,1.47,1.47,0,0,1-.52.37c-.7.27-1.26-.41-1.25-1.51A3.19,3.19,0,0,1,136.25,69.87Z"/><path class="cls-68" d="M138.66,64.93a1.47,1.47,0,0,1,.52-.37c.7-.26,1.25.41,1.25,1.51a3.26,3.26,0,0,1-.76,2.09,1.36,1.36,0,0,1-.51.37c-.7.26-1.26-.41-1.25-1.51A3.24,3.24,0,0,1,138.66,64.93Z"/><g class="cls-4"><polygon class="cls-27" points="234.3 222.99 234.3 225.66 265.63 243.78 267.94 242.45 234.3 222.99"/></g><g class="cls-4"><path class="cls-5" d="M265,225.67c9.32,5.38,9.37,14.1.11,19.47s-24.3,5.38-33.62,0-9.37-14.1-.11-19.47S255.67,220.29,265,225.67Z"/></g><path class="cls-77" d="M263.52,221.44c8.5,4.91,8.54,12.86.1,17.76s-22.17,4.91-30.66,0-8.55-12.86-.11-17.76S255,216.53,263.52,221.44Z"/><path class="cls-75" d="M258.56,233.62h0l-23.14-13.46a24,24,0,0,0-2.49,1.23l6,3.51,0,0,24.61,14.31,0,0a17.85,17.85,0,0,0,2.1-1.41Z"/><path class="cls-7" d="M269.92,230.39v3.31c0,3.19-2.11,6.38-6.3,8.82-8.44,4.9-22.17,4.9-30.66,0-4.28-2.47-6.42-5.71-6.41-9v-3.31c0,3.23,2.13,6.47,6.41,8.94,8.49,4.91,22.22,4.91,30.66,0C267.81,236.77,269.91,233.58,269.92,230.39Z"/><path class="cls-78" d="M263.15,225.62v3.31c0,2.2-1.45,4.39-4.34,6.07-5.8,3.37-15.24,3.37-21.09,0-2.93-1.7-4.4-3.92-4.39-6.15v-3.31c0,2.22,1.46,4.45,4.39,6.14,5.85,3.38,15.29,3.38,21.09,0C261.7,230,263.14,227.82,263.15,225.62Z"/><path class="cls-8" d="M258.74,219.47c5.85,3.37,5.88,8.84.07,12.21s-15.24,3.38-21.09,0-5.86-8.84-.06-12.21S252.9,216.1,258.74,219.47Z"/><path class="cls-75" d="M239.09,218.75a15.92,15.92,0,0,0-1.43.72c-.32.19-.63.39-.92.59l21,12.2c.37-.18.74-.37,1.09-.58a10.45,10.45,0,0,0,1.18-.77Z"/><path class="cls-30" d="M246.58,225.51c0,1.16,3.39.9,3.33-.34l-.06-149.94h-3.27Z"/><circle class="cls-58" cx="248.54" cy="71.81" r="4.93" transform="translate(137.72 305.58) rotate(-80.75)"/><path class="cls-79" d="M251.27,70.16a1.79,1.79,0,1,1-1.79-1.79A1.8,1.8,0,0,1,251.27,70.16Z"/><g class="cls-2"><polygon class="cls-80" points="262.29 92.14 264.6 90.81 264.32 134.2 262.01 135.53 262.29 92.14"/><polygon class="cls-81" points="228.63 72.57 230.94 71.24 264.6 90.81 262.29 92.14 228.63 72.57"/><polygon class="cls-82" points="262.29 92.14 262.01 135.53 228.36 115.96 228.63 72.57 262.29 92.14"/><path class="cls-20" d="M244.58,90.68A13.39,13.39,0,0,1,251.31,102c0,4.68-3,6.75-7.64,9.22l-1.77.85v.08l9.91,5.72v2.84l-14.08-8.13v-2.1l2.35-1.26c5.65-2.91,8.2-4.72,8.25-8.52A8.36,8.36,0,0,0,244,93.18a5.34,5.34,0,0,0-4.69-.56l-1-3C239.86,89.05,242,89.21,244.58,90.68Z"/></g><path class="cls-75" d="M257.55,235.65c.43-.21.85-.42,1.25-.65a11,11,0,0,0,1.07-.7V231c-.33.23-.68.46-1.06.68s-.83.45-1.26.66Z"/><path class="cls-75" d="M263.56,242.55l.05,0a17.89,17.89,0,0,0,2.1-1.42v-3.31a15.87,15.87,0,0,1-2.09,1.41l-.06,0Z"/></g></g></svg>