<svg xmlns="http://www.w3.org/2000/svg" xmlns:xlink="http://www.w3.org/1999/xlink" viewBox="0 0 500 400"><defs><style>.cls-1{mask:url(#mask);filter:url(#luminosity-noclip-2);}.cls-2,.cls-34,.cls-36,.cls-38,.cls-39,.cls-43,.cls-46,.cls-47,.cls-48,.cls-50,.cls-60,.cls-61,.cls-62,.cls-63,.cls-64,.cls-67,.cls-68,.cls-69,.cls-8{mix-blend-mode:multiply;}.cls-2{fill:url(#linear-gradient);}.cls-3{isolation:isolate;}.cls-4{fill:#fcfbed;}.cls-5{fill:#faf8dc;}.cls-6{fill:#e2cdaf;}.cls-7{fill:#89cebc;}.cls-8{fill:#f4ffd4;}.cls-9{fill:#98bdcb;}.cls-10{fill:#9fd4e0;}.cls-11{fill:#b1dce6;opacity:0.54;}.cls-12{fill:#0d232b;}.cls-13{fill:#45565c;}.cls-14{fill:#f2917e;}.cls-15{fill:#e85f5b;}.cls-16{fill:#ea6f6b;}.cls-17{fill:#184657;}.cls-18{fill:#41b093;}.cls-19{fill:#035e80;}.cls-20{fill:#4a8ba4;}.cls-21{fill:#1d1d1b;}.cls-22{fill:#639bb0;}.cls-23{fill:#f29d7e;}.cls-24{fill:#fcc14a;}.cls-25{fill:#7ac4b2;}.cls-26{fill:#f9d4d3;}.cls-27,.cls-59{fill:#fff;}.cls-28{fill:#b3dfd4;}.cls-29{fill:#f18d79;}.cls-30{fill:#fdd075;}.cls-31{fill:#3a819c;}.cls-32{fill:#38606e;}.cls-33{fill:#e6e5ce;}.cls-34,.cls-36,.cls-46,.cls-48,.cls-63,.cls-64{fill:#cbc7ff;}.cls-34{opacity:0.7;}.cls-35{fill:#297693;}.cls-37{fill:#285362;}.cls-38,.cls-39{fill:#86b2c2;}.cls-38{opacity:0.53;}.cls-40{fill:#fcfae7;}.cls-41{fill:#bce1e9;}.cls-42{fill:#ceeae3;}.cls-43{fill:url(#linear-gradient-2);}.cls-44{fill:#ed6d53;}.cls-45{fill:#bd422a;}.cls-46{opacity:0.58;}.cls-47{fill:#c3b9dd;}.cls-48{opacity:0.74;}.cls-49{fill:#fdd991;}.cls-50{fill:url(#linear-gradient-3);}.cls-51{fill:#fddc98;}.cls-52{fill:#fbfae6;}.cls-53{fill:#1b4e61;}.cls-54{fill:#f4a98d;}.cls-55{fill:#495a60;}.cls-56{fill:#92cedc;}.cls-57{fill:#fcc85e;}.cls-58{fill:#325a69;}.cls-59{opacity:0.33;}.cls-60{opacity:0.61;fill:url(#linear-gradient-4);}.cls-61{opacity:0.43;fill:url(#linear-gradient-5);}.cls-62{opacity:0.73;fill:url(#linear-gradient-6);}.cls-63{opacity:0.39;}.cls-64{opacity:0.32;}.cls-65{mask:url(#mask-2);}.cls-66{opacity:0.16;fill:url(#linear-gradient-7);}.cls-67,.cls-68,.cls-69{opacity:0.72;}.cls-67{fill:url(#linear-gradient-8);}.cls-68{fill:url(#linear-gradient-9);}.cls-69{fill:url(#linear-gradient-10);}.cls-70,.cls-76{fill:#f8c3b8;}.cls-71{fill:#f6b7ab;}.cls-72{fill:#fad8d1;}.cls-73{fill:#f4a696;}.cls-74{fill:#f4a494;}.cls-75{fill:#f3a08f;}.cls-76{opacity:0.5;}.cls-77{filter:url(#luminosity-noclip);}</style><filter id="luminosity-noclip" x="252.2" y="-8392" width="63.26" height="32766" filterUnits="userSpaceOnUse" color-interpolation-filters="sRGB"><feFlood flood-color="#fff" result="bg"/><feBlend in="SourceGraphic" in2="bg"/></filter><mask id="mask" x="252.2" y="-8392" width="63.26" height="32766" maskUnits="userSpaceOnUse"><g class="cls-77"/></mask><linearGradient id="linear-gradient" x1="271.6" y1="204.7" x2="279.24" y2="212.56" gradientUnits="userSpaceOnUse"><stop offset="0" stop-color="#fff"/><stop offset="1"/></linearGradient><linearGradient id="linear-gradient-2" x1="465.59" y1="320.1" x2="464.95" y2="327.31" gradientTransform="matrix(-0.99, -0.16, -0.16, 0.99, 879.95, 11.19)" gradientUnits="userSpaceOnUse"><stop offset="0" stop-color="#f0c3a8"/><stop offset="1" stop-color="#fff"/></linearGradient><linearGradient id="linear-gradient-3" x1="5823.72" y1="1797.33" x2="5823.02" y2="1805.13" gradientTransform="translate(-4721.93 -3402.6) rotate(19.81)" xlink:href="#linear-gradient-2"/><linearGradient id="linear-gradient-4" x1="282.67" y1="237.78" x2="292.4" y2="224.46" gradientTransform="matrix(1, 0, 0, 1, 0, 0)" xlink:href="#linear-gradient-2"/><linearGradient id="linear-gradient-5" x1="245.38" y1="249.35" x2="248" y2="200.26" gradientTransform="matrix(1, 0, 0, 1, 0, 0)" xlink:href="#linear-gradient-2"/><linearGradient id="linear-gradient-6" x1="272.16" y1="249.85" x2="276.04" y2="238.42" gradientTransform="matrix(1, 0, 0, 1, 0, 0)" xlink:href="#linear-gradient-2"/><filter id="luminosity-noclip-2" x="252.2" y="196.93" width="63.26" height="32.86" filterUnits="userSpaceOnUse" color-interpolation-filters="sRGB"><feFlood flood-color="#fff" result="bg"/><feBlend in="SourceGraphic" in2="bg"/></filter><mask id="mask-2" x="252.2" y="196.93" width="63.26" height="32.86" maskUnits="userSpaceOnUse"><g class="cls-1"><path class="cls-2" d="M305.47,196.93c-6.74,1.24-21.9,5.84-33.35,10.34-10.57,4.14-12.91,9.09-17.85,14.59s-.12,8.76,5,7.75,11-7.52,11-7.52a38.83,38.83,0,0,0,19,4c10.67-.56,21.79-6.62,26.16-12.24Z"/></g></mask><linearGradient id="linear-gradient-7" x1="271.6" y1="204.7" x2="279.24" y2="212.56" gradientUnits="userSpaceOnUse"><stop offset="0" stop-color="#fff"/><stop offset="1" stop-color="#f5d0ba"/></linearGradient><linearGradient id="linear-gradient-8" x1="272.24" y1="252.42" x2="278.68" y2="251.67" gradientTransform="matrix(1, 0, 0, 1, 0, 0)" xlink:href="#linear-gradient-2"/><linearGradient id="linear-gradient-9" x1="262.63" y1="250.72" x2="269.07" y2="251.47" gradientTransform="matrix(1, 0, 0, 1, 0, 0)" xlink:href="#linear-gradient-2"/><linearGradient id="linear-gradient-10" x1="253.23" y1="248.96" x2="261.84" y2="248.21" gradientTransform="matrix(1, 0, 0, 1, 0, 0)" xlink:href="#linear-gradient-2"/></defs><g class="cls-3"><g id="Layer_1" data-name="Layer 1"><path class="cls-4" d="M436.49,309.34v16.11a66.42,66.42,0,0,1-66.22,66.23H150.79a66.42,66.42,0,0,1-66.23-66.23V309.34Z"/><path class="cls-5" d="M411.39,307.15a163,163,0,0,0,10.13-56.69c0-92.24-76.71-167-171.33-167s-171.32,74.77-171.32,167A163,163,0,0,0,89,307.15Z"/><polygon class="cls-6" points="410.3 305.19 414.54 305.19 413.68 284.87 411.33 284.87 410.3 305.19"/><path class="cls-7" d="M384,268.66a8.39,8.39,0,0,1,2.6,7.6,17.29,17.29,0,0,0,.07,6c1.84,9.73,12.28,16.37,22.88,14.56A21,21,0,0,0,423,288.69a5,5,0,0,1,4.27-2,10.69,10.69,0,0,0,2.24-.15c5-.91,8.37-5.38,7.53-10h0a.7.7,0,0,1,.62-.79h.08a6.3,6.3,0,0,0,5.35-7.09v0a2.82,2.82,0,0,1,1.32-2.88c5.44-3.49,8.56-9.66,7.41-16a14.89,14.89,0,0,0-5.22-8.82,7.33,7.33,0,0,1-1.86-9.14A18.26,18.26,0,0,0,446.6,220a19,19,0,0,0-11.85-14.09,7.42,7.42,0,0,1-4.61-8.5,12.44,12.44,0,0,0,.1-5c-1.28-7-8.8-11.89-16.45-10.67-8.13,1.3-13.67,8.5-12.32,15.92v.09a1.62,1.62,0,0,1-1.38,1.85h0c-6.29,1.14-10.55,6.77-9.49,12.57a10.16,10.16,0,0,0,.93,2.68,4.07,4.07,0,0,1-1.62,5.19,9.21,9.21,0,0,0-4.23,9.29,8.62,8.62,0,0,0,.39,1.43,5.48,5.48,0,0,1-1.27,5.65,13.08,13.08,0,0,0-3.46,11.26,12.44,12.44,0,0,0,1.6,4.22,4.5,4.5,0,0,1-.21,4.9,9.23,9.23,0,0,0-1.48,6.82A9.12,9.12,0,0,0,384,268.66Z"/><path class="cls-8" d="M393.31,268.46a7.24,7.24,0,0,1,1.85,6.87,14.83,14.83,0,0,0-.35,5.33c1,8.71,10.09,15.2,19.88,14.23a19.59,19.59,0,0,0,12.82-6.41,4.74,4.74,0,0,1,4-1.53,9.38,9.38,0,0,0,2.05,0c4.62-.5,8-4.25,7.55-8.36h0a.63.63,0,0,1,.61-.66h.08c3.28-.36,5.68-3,5.36-5.94v0a2.47,2.47,0,0,1,1.4-2.46c5.2-2.76,8.46-8,7.84-13.67a13,13,0,0,0-4.16-8.11,6.32,6.32,0,0,1-1.07-8.19,15.84,15.84,0,0,0,2.49-10.32A16.71,16.71,0,0,0,443.85,216a6.45,6.45,0,0,1-3.62-7.79,10.71,10.71,0,0,0,.42-4.38c-.69-6.27-7.22-11-14.27-10.41-7.51.66-13.06,6.69-12.33,13.33v.08a1.47,1.47,0,0,1-1.39,1.55h0c-5.83.64-10.09,5.36-9.52,10.54a8.8,8.8,0,0,0,.67,2.43,3.58,3.58,0,0,1-1.83,4.49,8.18,8.18,0,0,0-4.5,7.95,7.56,7.56,0,0,0,.26,1.29A4.78,4.78,0,0,1,396.2,240a11.49,11.49,0,0,0-3.92,9.74,10.82,10.82,0,0,0,1.17,3.83,3.9,3.9,0,0,1-.52,4.31,8,8,0,0,0-1.82,5.94A7.87,7.87,0,0,0,393.31,268.46Z"/><path class="cls-9" d="M48.91,311H463.85a2.36,2.36,0,0,0,2.36-2.36h0a2.36,2.36,0,0,0-2.36-2.35H48.91a2.36,2.36,0,0,0-2.36,2.35h0A2.36,2.36,0,0,0,48.91,311Z"/><path class="cls-7" d="M65.67,289.33A3.2,3.2,0,0,1,67,292.52v0a6.87,6.87,0,0,0,5.49,7.82h.08a.78.78,0,0,1,.63.88h0a9.28,9.28,0,0,0,.47,4.86h51.41A20.27,20.27,0,0,0,125,301a9.68,9.68,0,0,1,2.67-8.39A10.22,10.22,0,0,0,130.5,287a10.75,10.75,0,0,0-1.52-7.53,5.27,5.27,0,0,1-.21-5.4,14.51,14.51,0,0,0,1.64-4.66A15.16,15.16,0,0,0,126.86,257a6.39,6.39,0,0,1-1.3-6.24,10.33,10.33,0,0,0-3.94-11.84,4.65,4.65,0,0,1-1.67-5.71,11.84,11.84,0,0,0,1-3,12.2,12.2,0,0,0-9.74-13.87h0a1.8,1.8,0,0,1-1.42-2.05l0-.1A15.4,15.4,0,0,0,97.1,196.65a14.5,14.5,0,0,0-16.77,17.27,8.32,8.32,0,0,1-4.73,9.38,20.6,20.6,0,0,0-12.16,15.56,21.44,21.44,0,0,0,1.9,13A8.5,8.5,0,0,1,63.43,262a16.65,16.65,0,0,0-5.35,9.73A17.87,17.87,0,0,0,65.67,289.33Z"/><path class="cls-8" d="M62.83,296.18v0a6.12,6.12,0,0,0,5.5,6.56h.08a.69.69,0,0,1,.63.73h0a8.12,8.12,0,0,0,.17,2.61h47.34c0-.11,0-.21,0-.31a17.52,17.52,0,0,0-.36-5.89,8.43,8.43,0,0,1,1.9-7.58,8.94,8.94,0,0,0,2.26-5.1,9.29,9.29,0,0,0-1.87-6.55,4.56,4.56,0,0,1-.54-4.76,12.45,12.45,0,0,0,1.2-4.22,13.12,13.12,0,0,0-4-10.75,5.54,5.54,0,0,1-1.58-5.43,8.47,8.47,0,0,0,.27-1.42,9.19,9.19,0,0,0-4.61-8.78,4.06,4.06,0,0,1-1.88-5,10.55,10.55,0,0,0,.68-2.68,10.86,10.86,0,0,0-9.76-11.63h0a1.59,1.59,0,0,1-1.42-1.72v-.09c.74-7.32-4.94-14-12.65-14.71-7.24-.69-13.93,4.57-14.65,11.49a12.83,12.83,0,0,0,.44,4.84,7.3,7.3,0,0,1-3.72,8.59A18.33,18.33,0,0,0,56.16,249a18.52,18.52,0,0,0,2.56,11.4,7.36,7.36,0,0,1-1.11,9,14.64,14.64,0,0,0-4.26,8.95,15.66,15.66,0,0,0,8,15.08A2.79,2.79,0,0,1,62.83,296.18Z"/><path class="cls-10" d="M445.68,169.86H54.32a24.41,24.41,0,0,1,0-48.82H75.59a61,61,0,0,1,60.55-53.7h22.41a31.1,31.1,0,0,1,27.67-16.76h14.29A62.94,62.94,0,0,1,260,8.32h2.53a62.3,62.3,0,0,1,38.22,12.94,63.38,63.38,0,0,1,22.21,32.36h25.28a55.3,55.3,0,0,1,55.23,55.23V121h42.24a24.41,24.41,0,0,1,0,48.82ZM54.32,121.94a23.51,23.51,0,0,0,0,47H445.68a23.51,23.51,0,0,0,0-47H402.54V108.85a54.39,54.39,0,0,0-54.33-54.33h-26l-.09-.33a62.51,62.51,0,0,0-22-32.22A61.5,61.5,0,0,0,262.5,9.22H260a62,62,0,0,0-58.71,42l-.11.3H186.22a30.2,30.2,0,0,0-27,16.51l-.13.25h-23a60,60,0,0,0-59.7,53.3l0,.4Z"/><path class="cls-11" d="M70.68,114.09c-.7-4.63,5.61-7.51,10.44-6.3,7.56,1.89,7.2-.52,13-1.06s7.38.34,11.52,2.14c3.71,1.61,5.85-.63,9.45,2.43,3.24,2.75,3.29,5.4,3.15,10.76s0,13.55,0,13.55l-5.17,0s-.09-11.53-.86-14.45a12.12,12.12,0,0,0-9.81-1.54c-3.6.91-5.58-2.61-10.63-.27-3.83,1.79-7.2-2.7-12.6-.18C75.42,120.87,71.22,117.69,70.68,114.09Z"/><polygon class="cls-12" points="91.95 196.96 229.34 196.96 183.54 157.47 91.95 157.47 91.95 196.96"/><path class="cls-13" d="M137.86,160.76h45.57v.43H137.86Zm0,4.05h45.57v-.42H137.86Zm0,3.62h45.57V168H137.86Zm0,3.62h45.57v-.42H137.86Zm0,3.62h45.57v-.42H137.86Zm0,3.28h45.57v.42H137.86Zm0,4h45.57v-.42H137.86Zm0,3.62h45.57v-.42H137.86Zm0,3.62h45.57v-.42H137.86Zm0,3.63h45.57v-.43H137.86Z"/><rect class="cls-14" x="91.95" y="157.47" width="45.8" height="125.67"/><rect class="cls-15" x="183.54" y="196.96" width="45.8" height="109.34" transform="translate(412.88 503.25) rotate(180)"/><rect class="cls-16" x="137.74" y="196.96" width="45.8" height="109.34" transform="translate(321.29 503.25) rotate(180)"/><polygon class="cls-15" points="229.34 196.96 183.54 157.47 183.54 196.96 229.34 196.96"/><polygon class="cls-16" points="183.54 196.96 137.75 157.47 137.75 196.96 183.54 196.96"/><path class="cls-17" d="M199.85,270.1H213a0,0,0,0,1,0,0v30a6.2,6.2,0,0,1-6.2,6.2H206a6.2,6.2,0,0,1-6.2-6.2v-30A0,0,0,0,1,199.85,270.1Z" transform="translate(412.88 576.4) rotate(180)"/><rect class="cls-17" x="154.78" y="190.17" width="2.49" height="7.46" transform="translate(312.05 387.8) rotate(180)"/><rect class="cls-17" x="154.66" y="217.72" width="2.49" height="7.46" transform="translate(311.8 442.91) rotate(180)"/><circle class="cls-12" cx="114.85" cy="184.84" r="8.7" transform="translate(-99.88 220.21) rotate(-67.5)"/><path class="cls-18" d="M110.1,182c.5.5,4.07,3.26,4.57,2.76s-2.25-4.07-2.75-4.57A1.28,1.28,0,1,0,110.1,182Z"/><path class="cls-18" d="M119.55,182.35c-.68.18-4.86,1.89-4.67,2.58s4.65.08,5.34-.11a1.28,1.28,0,0,0-.67-2.47Z"/><path class="cls-18" d="M114.75,190.29c.18-.68.79-5.15.1-5.34s-2.4,4-2.58,4.68a1.28,1.28,0,0,0,2.48.66Z"/><path class="cls-19" d="M114.82,190.83a6,6,0,1,1,6-6A6,6,0,0,1,114.82,190.83Zm0-11.57a5.61,5.61,0,1,0,5.61,5.61A5.61,5.61,0,0,0,114.82,179.26Z"/><path class="cls-19" d="M114.82,187.93a3.07,3.07,0,1,1,3.07-3.06A3.07,3.07,0,0,1,114.82,187.93Zm0-5.78a2.72,2.72,0,1,0,2.72,2.72A2.72,2.72,0,0,0,114.82,182.15Z"/><rect class="cls-19" x="114.65" y="184.87" width="0.36" height="8.68"/><rect class="cls-19" x="106.36" y="186.03" width="8.68" height="0.36" transform="translate(-52.13 43.33) rotate(-18)"/><rect class="cls-19" x="112.1" y="177.02" width="0.36" height="8.67" transform="translate(-85.16 100.63) rotate(-36)"/><rect class="cls-19" x="113.04" y="181.18" width="8.68" height="0.36" transform="translate(-98.34 169.72) rotate(-54)"/><rect class="cls-19" x="118.77" y="181.87" width="0.36" height="8.68" transform="translate(-94.9 241.79) rotate(-72)"/><circle class="cls-12" cx="114.85" cy="216.7" r="8.7" transform="translate(-33.23 21.19) rotate(-9.22)"/><path class="cls-18" d="M110.1,213.85c.5.5,4.07,3.25,4.57,2.75s-2.25-4.07-2.75-4.57a1.29,1.29,0,1,0-1.82,1.82Z"/><path class="cls-18" d="M119.55,214.2c-.68.18-4.86,1.9-4.67,2.58s4.65.08,5.34-.1a1.28,1.28,0,0,0-.67-2.48Z"/><path class="cls-18" d="M114.75,222.15c.18-.69.79-5.16.1-5.34s-2.4,4-2.58,4.67a1.28,1.28,0,0,0,2.48.67Z"/><path class="cls-19" d="M114.82,222.68a6,6,0,1,1,6-6A6,6,0,0,1,114.82,222.68Zm0-11.57a5.61,5.61,0,1,0,5.61,5.61A5.61,5.61,0,0,0,114.82,211.11Z"/><path class="cls-19" d="M114.82,219.79a3.07,3.07,0,1,1,3.07-3.07A3.08,3.08,0,0,1,114.82,219.79Zm0-5.78a2.71,2.71,0,1,0,2.72,2.71A2.71,2.71,0,0,0,114.82,214Z"/><rect class="cls-19" x="114.65" y="216.72" width="0.36" height="8.68"/><rect class="cls-19" x="106.36" y="217.88" width="8.68" height="0.36" transform="translate(-61.98 44.89) rotate(-18)"/><rect class="cls-19" x="112.1" y="208.87" width="0.36" height="8.68" transform="translate(-103.88 106.71) rotate(-36)"/><rect class="cls-19" x="113.04" y="213.03" width="8.68" height="0.36" transform="translate(-124.11 182.86) rotate(-54)"/><rect class="cls-19" x="118.77" y="213.72" width="0.36" height="8.68" transform="translate(-125.2 263.81) rotate(-72)"/><rect class="cls-17" x="91.95" y="247.13" width="45.91" height="59.16" transform="translate(229.81 553.42) rotate(180)"/><rect class="cls-12" x="93.55" y="262.57" width="42.73" height="0.65"/><rect class="cls-12" x="93.55" y="301.7" width="42.73" height="0.65"/><rect class="cls-12" x="93.55" y="268.14" width="42.73" height="0.65"/><rect class="cls-12" x="93.55" y="257" width="42.73" height="0.65"/><rect class="cls-12" x="93.55" y="251.42" width="42.73" height="0.65"/><rect class="cls-12" x="93.55" y="273.72" width="42.73" height="0.65"/><rect class="cls-12" x="93.55" y="279.41" width="42.73" height="0.65"/><rect class="cls-12" x="93.55" y="296.13" width="42.73" height="0.65"/><rect class="cls-12" x="93.55" y="290.55" width="42.73" height="0.65"/><rect class="cls-12" x="93.55" y="284.98" width="42.73" height="0.65"/><rect class="cls-20" x="109.24" y="127.37" width="13.39" height="30.14"/><rect class="cls-21" x="121.23" y="127.37" width="0.15" height="2.13"/><rect class="cls-21" x="120.03" y="127.37" width="0.23" height="2.13"/><rect class="cls-21" x="118.84" y="127.37" width="0.3" height="2.13"/><rect class="cls-21" x="117.64" y="127.37" width="0.38" height="2.13"/><rect class="cls-21" x="116.45" y="127.37" width="0.46" height="2.13"/><rect class="cls-21" x="115.26" y="127.37" width="0.53" height="2.13"/><rect class="cls-21" x="114.06" y="127.37" width="0.61" height="2.13"/><rect class="cls-21" x="112.87" y="127.37" width="0.68" height="2.13"/><rect class="cls-21" x="122.34" y="127.37" width="0.23" height="2.13"/><rect class="cls-21" x="112.05" y="127.37" width="0.38" height="2.13"/><rect class="cls-21" x="121.23" y="129.5" width="0.15" height="21.92"/><rect class="cls-21" x="120.03" y="129.5" width="0.23" height="21.92"/><rect class="cls-21" x="118.84" y="129.5" width="0.3" height="21.92"/><rect class="cls-21" x="117.64" y="129.5" width="0.38" height="21.92"/><rect class="cls-21" x="116.45" y="129.5" width="0.46" height="21.92"/><rect class="cls-21" x="115.26" y="129.5" width="0.53" height="21.92"/><rect class="cls-21" x="114.06" y="129.5" width="0.61" height="21.92"/><rect class="cls-21" x="112.87" y="129.5" width="0.68" height="21.92"/><rect class="cls-21" x="122.34" y="129.5" width="0.23" height="21.92"/><rect class="cls-21" x="112.05" y="129.5" width="0.38" height="21.92"/><rect class="cls-21" x="121.23" y="151.42" width="0.15" height="6.09"/><rect class="cls-21" x="120.03" y="151.42" width="0.23" height="6.09"/><rect class="cls-21" x="118.84" y="151.42" width="0.3" height="6.09"/><rect class="cls-21" x="117.64" y="151.42" width="0.38" height="6.09"/><rect class="cls-21" x="116.45" y="151.42" width="0.46" height="6.09"/><rect class="cls-21" x="115.26" y="151.42" width="0.53" height="6.09"/><rect class="cls-21" x="114.06" y="151.42" width="0.61" height="6.09"/><rect class="cls-21" x="112.87" y="151.42" width="0.68" height="6.09"/><rect class="cls-21" x="122.34" y="151.42" width="0.23" height="6.09"/><rect class="cls-21" x="112.05" y="151.42" width="0.38" height="6.09"/><rect class="cls-21" x="109.44" y="127.37" width="0.61" height="2.13"/><rect class="cls-21" x="110.56" y="127.37" width="0.68" height="2.13"/><rect class="cls-21" x="111.67" y="127.37" width="0.38" height="2.13"/><rect class="cls-21" x="109.44" y="129.5" width="0.61" height="21.92"/><rect class="cls-21" x="110.56" y="129.5" width="0.68" height="21.92"/><rect class="cls-21" x="111.67" y="129.5" width="0.38" height="21.92"/><rect class="cls-21" x="109.44" y="151.42" width="0.61" height="6.09"/><rect class="cls-21" x="110.56" y="151.42" width="0.68" height="6.09"/><rect class="cls-21" x="111.67" y="151.42" width="0.38" height="6.09"/><rect class="cls-20" x="138" y="123.2" width="11.7" height="34.32"/><rect class="cls-21" x="147.75" y="123.2" width="0.13" height="17.53"/><rect class="cls-21" x="146.7" y="123.2" width="0.2" height="17.53"/><rect class="cls-21" x="145.66" y="123.2" width="0.27" height="17.53"/><rect class="cls-21" x="144.62" y="123.2" width="0.33" height="17.53"/><rect class="cls-21" x="143.57" y="123.2" width="0.4" height="17.53"/><rect class="cls-21" x="142.53" y="123.2" width="0.47" height="17.53"/><rect class="cls-21" x="141.49" y="123.2" width="0.53" height="17.53"/><rect class="cls-21" x="140.44" y="123.2" width="0.6" height="17.53"/><rect class="cls-21" x="148.72" y="123.2" width="0.2" height="17.53"/><rect class="cls-21" x="149.7" y="123.2" width="0.01" height="17.53"/><rect class="cls-21" x="139.73" y="123.2" width="0.33" height="17.53"/><rect class="cls-21" x="147.75" y="140.73" width="0.13" height="16.78"/><rect class="cls-21" x="146.7" y="140.73" width="0.2" height="16.78"/><rect class="cls-21" x="145.66" y="140.73" width="0.27" height="16.78"/><rect class="cls-21" x="144.62" y="140.73" width="0.33" height="16.78"/><rect class="cls-21" x="143.57" y="140.73" width="0.4" height="16.78"/><rect class="cls-21" x="142.53" y="140.73" width="0.47" height="16.78"/><rect class="cls-21" x="141.49" y="140.73" width="0.53" height="16.78"/><rect class="cls-21" x="140.44" y="140.73" width="0.6" height="16.78"/><rect class="cls-21" x="148.72" y="140.73" width="0.2" height="16.78"/><rect class="cls-21" x="149.7" y="140.73" width="0.01" height="16.78"/><rect class="cls-21" x="139.73" y="140.73" width="0.33" height="16.78"/><rect class="cls-21" x="138.42" y="123.2" width="0.6" height="17.53"/><rect class="cls-21" x="139.4" y="123.2" width="0.33" height="17.53"/><rect class="cls-21" x="138.42" y="140.73" width="0.6" height="16.78"/><rect class="cls-21" x="139.4" y="140.73" width="0.33" height="16.78"/><path class="cls-11" d="M91.22,98.17c0-3.69,5.09-5.53,8.71-4.2,6.6,2.41,6.63-.87,10.86-.81,5.13.07,6,1.57,7.93,1.54,3.83-.06,5.09-2.13,8-2.42,4.38-.44,6.09.51,9.23,2,2.82,1.31,4.87-.59,7.61,1.9,2.46,2.25,2.49,4.41,2.39,8.77s0,18.27,0,18.27l-3.93,0s-.07-16.62-.65-19c-2-1.47-5.15-1.76-7.88-1s-4.85-2.34-8.68-.44c-2.91,1.46-5-2.86-9.09-.8a13.17,13.17,0,0,1-7.38,1.68c-2.53-.27-6.65-2.11-8.34-1.24C95,104.9,91.2,102,91.22,98.17Z"/><path class="cls-22" d="M243.11,73.72l-6.2,21.76-20.33,10a22.64,22.64,0,0,1,26.53-31.71Z"/><path class="cls-23" d="M236.91,95.48h22.62v.16C252.22,95.72,236.91,95.48,236.91,95.48Z"/><path class="cls-5" d="M254.85,81.71,236.91,95.48l6.2-21.76A22.56,22.56,0,0,1,254.85,81.71Z"/><path class="cls-24" d="M259.53,95.48H236.91l17.94-13.77A22.46,22.46,0,0,1,259.53,95.48Z"/><path class="cls-25" d="M259.53,95.64a22.63,22.63,0,0,1-1.22,7.21l-21.4-7.37S252.22,95.72,259.53,95.64Z"/><path class="cls-15" d="M258.31,102.85a22.64,22.64,0,0,1-41.73,2.58l20.33-10Z"/><path class="cls-26" d="M185.26,75.36v4.81a16.48,16.48,0,0,0-11.67,28.11l-3.41,3.4a21.29,21.29,0,0,1,15.08-36.32Z"/><path class="cls-15" d="M206.54,96.65a21.28,21.28,0,0,1-36.36,15l3.41-3.4a16.48,16.48,0,1,0,11.67-28.11V75.36A21.29,21.29,0,0,1,206.54,96.65Z"/><path class="cls-27" d="M201.73,96.65a16.48,16.48,0,1,1-16.47-16.48A16.47,16.47,0,0,1,201.73,96.65Z"/><path class="cls-28" d="M226.69,148.19a12.9,12.9,0,1,1-10.36-20.59V141l8,5.48Z"/><path class="cls-18" d="M229.23,140.5a12.83,12.83,0,0,1-2.54,7.69l-2.34-1.74-8-5.48V127.6A12.89,12.89,0,0,1,229.23,140.5Z"/><path class="cls-27" d="M225.26,140.5a8.93,8.93,0,1,1-8.93-8.93A8.91,8.91,0,0,1,225.26,140.5Z"/><rect class="cls-29" x="272.44" y="107.68" width="40.38" height="7.56"/><rect class="cls-30" x="272.44" y="100.11" width="32.86" height="7.56"/><rect class="cls-18" x="272.44" y="92.55" width="26.52" height="7.56"/><rect class="cls-31" x="272.44" y="84.99" width="18.96" height="7.56"/><rect class="cls-32" x="272.44" y="77.42" width="12.51" height="7.56"/><rect class="cls-33" x="270.28" y="73.72" width="2.16" height="41.52"/><polygon class="cls-18" points="283.19 133.64 277.87 128.32 272.91 128.32 276.49 131.9 251.56 131.9 251.56 135.4 276.49 135.4 272.91 138.97 277.87 138.97 283.19 133.66 283.18 133.65 283.19 133.64"/><polygon class="cls-20" points="251.56 149.01 256.88 143.69 261.83 143.69 258.25 147.26 283.19 147.26 283.19 150.77 258.25 150.77 261.83 154.34 256.88 154.34 251.56 149.02 251.56 149.02 251.56 149.01"/><path class="cls-34" d="M198.46,218.72c-.56,17.48,2,39.71,6.51,39.86s6.51-28.52,6.51-28.52Z"/><polygon class="cls-35" points="303.63 130.06 406.37 130.06 406.37 237.72 442.08 237.72 442.08 306.29 303.63 306.29 303.63 130.06"/><rect class="cls-18" x="382.36" y="227.6" width="59.72" height="10.12"/><rect class="cls-34" x="382.36" y="130.06" width="24.02" height="97.54" transform="translate(788.73 357.66) rotate(180)"/><rect class="cls-34" x="419.85" y="227.6" width="22.23" height="78.69"/><rect class="cls-18" x="322.39" y="266.67" width="71.78" height="5.12"/><rect class="cls-36" x="373.4" y="266.67" width="20.78" height="5.12"/><rect class="cls-17" x="331.81" y="271.79" width="62.36" height="34.5"/><rect class="cls-37" x="334.39" y="273.97" width="57.21" height="32.33"/><path class="cls-38" d="M392.27,159h-1.91v-21.4h1.91Zm0,10.63h-1.91V191h1.91Zm0,32.57h-1.91v21.41h1.91Zm7-49.13h-1.91v21.41h1.91Zm0,30.77h-1.91v21.41h1.91Z"/><path class="cls-39" d="M382.36,147.42H303.63V146.1h78.73Zm0,14.78H303.63v1.31h78.73Zm0,16.09H303.63v1.31h78.73Zm0,16.09H303.63v1.31h78.73Zm0,16.09H303.63v1.32h78.73Zm0,16.09H303.63v1.32h78.73Zm37.49,16.1H303.63V244H419.85Zm0,16.09H303.63v1.31H419.85Z"/><path class="cls-39" d="M433.09,253.14h-4.27v-5.28h4.27Zm0,11.17h-4.27v5.28h4.27Z"/><rect class="cls-18" x="327.1" y="113" width="52.1" height="17.06"/><rect class="cls-36" x="365.32" y="113" width="13.89" height="17.06"/><rect class="cls-19" x="351.4" y="102.39" width="2.69" height="10.61"/><path class="cls-15" d="M362.85,94.62a10.28,10.28,0,1,1-10.28-10.28A10.28,10.28,0,0,1,362.85,94.62ZM352.57,88.7a5.92,5.92,0,1,0,5.92,5.92A5.92,5.92,0,0,0,352.57,88.7Z"/><circle class="cls-40" cx="322.39" cy="82.83" r="7.66"/><path class="cls-34" d="M345,216.17c.56,17.48-2,39.72-6.52,39.87S332,227.52,332,227.52Z"/><path class="cls-41" d="M420.25,110.05a4.1,4.1,0,1,1,0-8.2l.34,0a6.16,6.16,0,0,1,11.63,0,4.36,4.36,0,0,1,.51,0,4.08,4.08,0,0,1,1.81.42,5.29,5.29,0,1,1,4.66,7.78Z"/><path class="cls-42" d="M276.26,54.41a6.46,6.46,0,1,0-2.2-12.52,10,10,0,0,0-19.21-.42,7,7,0,1,0-3.56,12.94Z"/><path class="cls-41" d="M147.78,59.77a3.47,3.47,0,1,0-1.18-6.72,5.36,5.36,0,0,0-10.3-.22,3.66,3.66,0,0,0-1.91-.53,3.74,3.74,0,1,0,0,7.47Z"/><path class="cls-23" d="M370.82,308.55c0,4.84-.29,13.94-.35,17.48-1.07.48-3.56.69-3.42,0,.08-1.12-.51-7.72-.74-14-.28-7.72,0-26.06-.3-26.06-.55,0-3,14-3.22,21.52-.23,8.1-.07,15.08-.16,18.55-1.08.56-3.57.73-3.43,0,.12-1.19-.9-10-1.07-16.3-.27-10.55-.67-24.66,0-28.74,1.06-6.31,2.78-8.59,3.06-10.55l9.63.14c.26,1.52,2.23,3.43,3.43,7.86C375.68,283.62,370.88,302.09,370.82,308.55Z"/><path class="cls-19" d="M362.63,326c0,.11,0,.21,0,.31l-.05,1.93h-.64l-.21-1.64a3.11,3.11,0,0,0-1.42,1,2.48,2.48,0,0,1-2.22.79,8,8,0,0,1-1.11,0c0-.73,1.86-.75,2.21-2.24a.37.37,0,0,0,0-.12C359.71,327,361.69,325.53,362.63,326Z"/><path class="cls-12" d="M361.69,326.44c-.86.17-1.59,1.15-2.09,1.5a5.45,5.45,0,0,1-2.62.34.41.41,0,0,0,0,.11,8,8,0,0,0,1.11,0,2.48,2.48,0,0,0,2.22-.79,3.11,3.11,0,0,1,1.42-1l.21,1.64h.64l.05-1.93v0C362.39,326.32,362.08,326.36,361.69,326.44Z"/><path class="cls-19" d="M370.47,326v.31l-.06,2.1h-.61l-.24-1.69a5.64,5.64,0,0,0-1.38,1.19,2.55,2.55,0,0,1-2.19.87,1.29,1.29,0,0,1-.62-.13c.06-.4,1.31-1,1.66-2.53a.37.37,0,0,0,0-.12C367.26,326.55,369.42,325.64,370.47,326Z"/><path class="cls-12" d="M368.18,327.94a5.64,5.64,0,0,1,1.38-1.19l.24,1.69h.61l.06-2.06a5.77,5.77,0,0,0-1,.2c-.66.21-1.27,1.18-1.93,1.66a2.73,2.73,0,0,1-2.08.28.48.48,0,0,0-.08.16,1.29,1.29,0,0,0,.62.13A2.55,2.55,0,0,0,368.18,327.94Z"/><path class="cls-15" d="M370.82,270.59s2.92,4.91,3.45,7.31c.73,3.35.82,7.86.07,14.82s-.75,8.46-.75,8.46a34.27,34.27,0,0,1-9,.82c-4.34-.3-7.49-.67-7.49-.67s.08-5.39.3-12.5,1.13-12.13,1.95-14.15,1.84-4.24,1.84-4.24a47.14,47.14,0,0,0,5.27.42A38.38,38.38,0,0,0,370.82,270.59Z"/><path class="cls-15" d="M375.92,241.2c-.47-1.18-1.39-.51-2.27-.37s-.9-1.05-2.09-.87a1.49,1.49,0,0,0-1.08,2.51c.48.59.14,1.75-.48,1.2-.89-.78-1.53-1-2.35-.5s-.25,1-1,1.62-1.46.15-1.75,1.37c-.22.9.63,1.83,2.27,2.34s2.66,3.45,5,2.73.49-2.18,1.68-2.4,1.5-.68,1.42-1.72-.16-1.64.52-1.84a1.57,1.57,0,0,0,1-1.77c-.23-.69-1-.45-1.26-.88C375.31,242,376.12,241.71,375.92,241.2Z"/><path class="cls-12" d="M358.71,272.67a8.66,8.66,0,0,1,.13-4.7,23.38,23.38,0,0,1,2.83-5.32l.33,0a33.14,33.14,0,0,1,.63-4.21l-.24.06c-3,.83-5.84,4.53-6.85,8.16s-1.12,7.28,1.12,8.09C358.42,275.36,358.71,272.67,358.71,272.67Z"/><path class="cls-36" d="M358.71,272.67a8.66,8.66,0,0,1,.13-4.7,23.38,23.38,0,0,1,2.83-5.32l.33,0a33.14,33.14,0,0,1,.63-4.21l-.24.06c-3,.83-5.84,4.53-6.85,8.16s-1.12,7.28,1.12,8.09C358.42,275.36,358.71,272.67,358.71,272.67Z"/><path class="cls-23" d="M371.72,262.78a7.45,7.45,0,0,1,1.13-2.1c-1.43-.94-2.6-1.58-2.6-2.39s.82-7,.82-7l-4.43-.78a68.31,68.31,0,0,1-1.14,7.13c-.37.89-.76.39-3.1.81a30.11,30.11,0,0,0-.84,4.31,22.83,22.83,0,0,1,3.76.37c1.83.34,4,.35,5.59,1.72C371.14,264.16,371.46,263.48,371.72,262.78Z"/><path class="cls-43" d="M365.38,257.9a1.78,1.78,0,0,0,.12-.24,68.31,68.31,0,0,0,1.14-7.13l4.43.78s-.81,6.07-.82,7a1,1,0,0,0,.11.43Z"/><path class="cls-44" d="M369.49,250a1.54,1.54,0,1,0,1.77-1.27A1.53,1.53,0,0,0,369.49,250Z"/><path class="cls-45" d="M370.2,250.09a.81.81,0,0,0,.67.93.8.8,0,0,0,.94-.67.81.81,0,0,0-.67-.93A.83.83,0,0,0,370.2,250.09Z"/><path class="cls-46" d="M367.51,254.18a2.75,2.75,0,0,1-1.33-.21c.26-1.79.46-3.44.46-3.44l3.6.64C369.83,252.91,368.73,254.14,367.51,254.18Z"/><path class="cls-23" d="M365.35,249.18c-.54,3.06.36,4.09,1.94,4.35s3.29-1.18,3.75-3.31-.05-4-2.24-4.38C366.42,245.45,365.73,247,365.35,249.18Z"/><path class="cls-47" d="M369.84,248.85a3,3,0,0,0-.86-.28,1.62,1.62,0,0,0-.44,0,1.23,1.23,0,0,0-.43.1h0s0,0,0,0,0,0,0,0a1.37,1.37,0,0,1,.93-.19,2.23,2.23,0,0,1,.46.13,1.51,1.51,0,0,1,.22.11l.2.13s0,0,0,0,0,0-.05,0Z"/><path d="M368.48,249.51a.2.2,0,0,0,.17.24.2.2,0,0,0,.24-.17.21.21,0,0,0-.17-.24A.2.2,0,0,0,368.48,249.51Z"/><path class="cls-47" d="M366.83,248.28l-.22-.1a1.43,1.43,0,0,0-.46-.13,1.58,1.58,0,0,0-.53,0s0,.08-.05.13l.12,0a1.63,1.63,0,0,1,.44,0,2.71,2.71,0,0,1,.86.28h0s0,0,0-.05Z"/><path d="M365.75,249.06a.21.21,0,0,0,.41.07.21.21,0,1,0-.41-.07Z"/><path class="cls-44" d="M365.34,249.56h0a9.6,9.6,0,0,0-.09,1.34.67.67,0,0,0,.14-1.34Z"/><circle class="cls-44" cx="368.84" cy="250.85" r="0.68"/><path class="cls-44" d="M367.44,249l-.87.78a.19.19,0,0,0,.05.31l.58.23Z"/><path class="cls-27" d="M366.11,251c0,.08.21.28.57.33s.7,0,.71-.05-.3-.08-.66-.14S366.12,250.88,366.11,251Z"/><path class="cls-12" d="M372.25,264c.16-.4.33-.87.48-1.27.29-.78-.38-1.43.12-2.06-.74-.49-1.41-.9-1.89-1.29a25.46,25.46,0,0,1-5,2.88,10,10,0,0,1-1.15-4c-.37.06-.95,0-1.95.18h0l-.27.05-.21,0v0a3,3,0,0,0-.66.22,3.89,3.89,0,0,0-.5,1.16,6.09,6.09,0,0,0-.35,1.87h0a3.88,3.88,0,0,0-1.31,3.13,3.1,3.1,0,0,0,1.67,2.27l-.55,3a14,14,0,0,0,4.65.7,26.91,26.91,0,0,0,5.47-.24l1.51-3.64-.42-2.71S372.68,264.17,372.25,264Z"/><path class="cls-15" d="M371.27,251.24c-2.55-.14-1.33-4.16-2.6-4.86a2.31,2.31,0,0,0-2.79.26c-.43-.08.8-1.5.8-1.5l5.66.56Z"/><path class="cls-48" d="M376.84,243.5c-.23-.69-1-.45-1.26-.88-.27-.58.54-.91.34-1.42a1.16,1.16,0,0,0-.42-.57,2.46,2.46,0,0,1-1.52,2.16c-1.21.56-2-.33-2.16.74-.29,1.59-1.31,1.37-1.31,1.37a4,4,0,0,1,2.12,2.19,4.88,4.88,0,0,1-.25,2.43,1.61,1.61,0,0,1,.15.95,1.54,1.54,0,0,1-.36.76h0c2.34-.72.49-2.18,1.68-2.4s1.5-.68,1.42-1.72-.16-1.64.52-1.84A1.57,1.57,0,0,0,376.84,243.5Z"/><path class="cls-49" d="M366.25,277.35h-7.8a.78.78,0,0,1-.73-.52l-3.11-8.93a.38.38,0,0,1,.36-.5h7.93a.54.54,0,0,1,.51.36l3.18,9.12A.35.35,0,0,1,366.25,277.35Z"/><path class="cls-12" d="M376.07,270.85c-.48,3.75-1.36,6.56-3.68,7.07-1.77.39-5.65-.58-7.67-1.14a3.75,3.75,0,0,0,.5-3.08c2.31.48,6.72,1.18,6.72,1.18a30.57,30.57,0,0,0,.57-4.07,23.87,23.87,0,0,0-.56-6l-.3-.14a32.69,32.69,0,0,0,1-4.12l.2.15C375.38,262.62,376.54,267.11,376.07,270.85Z"/><path class="cls-23" d="M364.72,276.78l-1.21-.34c-.69-.19-3.14-.74-3-1.15,0-.17.23-.21.5-.15l.71.12c-.42-.09-1.85-.4-1.78-.77s.54-.16,1-.07l.91.17c-.22,0-.71-.17-1.15-.3s-.84-.32-.76-.52.4-.17.79-.08l.87.22c-.54-.15-1.32-.43-1.21-.68s2.27.31,2.48.37c-.12-.06-.78-.38-.9-.47s-.26-.41,0-.46a6.84,6.84,0,0,1,2.39.85c.22.06.5.12.81.18A3.75,3.75,0,0,1,364.72,276.78Z"/><path class="cls-48" d="M371.3,269.44a10.33,10.33,0,0,1,.43-4.26l.6,1.77Z"/><path class="cls-24" d="M144.11,350.78s-.56,1.61-.28,2.05.83.33,4.22.33,7.11.39,7.28-.22-.94-.78-2.61-1.28a24.65,24.65,0,0,1-3.17-1.22Z"/><path class="cls-17" d="M155.17,352.51c-.63.43-4,.1-7.17.1-3.39,0-3.95.11-4.23-.33a0,0,0,0,0,0,0,1,1,0,0,0,.07.58c.28.45.83.33,4.22.33s7.11.39,7.28-.22A.38.38,0,0,0,155.17,352.51Z"/><path class="cls-23" d="M144.39,349.06a12.13,12.13,0,0,1-.28,1.72,6.67,6.67,0,0,0,2.67.41,8.73,8.73,0,0,0,2.77-.75,1.58,1.58,0,0,1-.93-1.38C148.47,347.92,144.39,349.06,144.39,349.06Z"/><path class="cls-24" d="M130.39,350.78s-.55,1.61-.28,2.05.84.33,4.23.33,7.11.39,7.28-.22-1-.78-2.62-1.28a25.38,25.38,0,0,1-3.17-1.22Z"/><path class="cls-17" d="M141.46,352.51c-.64.43-4.05.1-7.18.1-3.39,0-3.94.11-4.22-.33a0,0,0,0,1,0,0,1.11,1.11,0,0,0,.06.58c.28.45.84.33,4.23.33s7.11.39,7.28-.22A.41.41,0,0,0,141.46,352.51Z"/><path class="cls-23" d="M130.68,349.06a11.26,11.26,0,0,1-.29,1.72,6.74,6.74,0,0,0,2.68.41,8.63,8.63,0,0,0,2.76-.75,1.58,1.58,0,0,1-.92-1.38C134.76,347.92,130.68,349.06,130.68,349.06Z"/><path class="cls-15" d="M141.09,267.77c.35-.63,1.53-.61,1.53-.61l-1,1.38Z"/><path class="cls-19" d="M148.5,298.1c2.43,11.4,2.55,18.1,2.67,30,.1,9.54-2.15,21.32-2.15,21.32a12.87,12.87,0,0,1-5.42-.06s.74-13.81.08-21.91-4.15-29-4.15-29Z"/><path class="cls-19" d="M132.55,290.13c-4.89,8.31-1.8,17.26-1.68,34.11.11,15.89-1.21,24.73-1.21,24.73a9,9,0,0,0,5.85.19,182.07,182.07,0,0,0,3.37-26.94c.68-14.66.34-21.34.34-21.34l9.08-1Z"/><path class="cls-5" d="M134.13,274.51c-3,6.61-3.72,15.29-4.12,20.53a23.94,23.94,0,0,0,12.29,3.39c6.81-.17,6.75-.95,6.75-.95s2.33-14.39,4.72-19.65a13.13,13.13,0,0,0-10-3.17A37.56,37.56,0,0,1,134.13,274.51Z"/><path class="cls-34" d="M132.26,279.29c-.87,5.54-1,16.5-1,16.5s7.51,4.06,16,2.29l-1.34-3.88s-7.08-3.09-7.52-14.16C138.2,274.78,132.26,279.29,132.26,279.29Z"/><path class="cls-5" d="M140.21,269.27c-7.6,3.85-8,5.89-8.68,13.24-.42,4.45-.62,9.88,8.06,12.71C147.1,297.67,147,297,147,297l1.32-4a44.16,44.16,0,0,1-8.94-3.46c-4.23-2.42-1-10.28-1-10.28l14-1.25s-3.89,7.25-.19,13c2.56,4,8.25-3.08,8.25-3.08l-1-3s-1.43.71-3.55,2c-2-9.65.48-11.17-5.33-16.2C146.27,267.06,140.21,269.27,140.21,269.27Z"/><path class="cls-23" d="M147.85,271a1.81,1.81,0,0,1-.26-1.36c.08-1.26,2.66-7.26,2.66-7.26l-5-1.76s-2.39,6-2.91,6.92c-.32.57-1.47,1.21-2.17,1.84C140.46,270.93,144.9,273.08,147.85,271Z"/><path class="cls-50" d="M147.58,269.92a1.1,1.1,0,0,1,0-.31c.13-1.25,2.66-7.26,2.66-7.26l-5-1.76s-2.39,6-2.91,6.92a1.19,1.19,0,0,1-.36.38Z"/><path class="cls-46" d="M147.46,267.7a3.24,3.24,0,0,0,.63.16c.72-2.1,1.44-4.05,1.44-4.05l-3.65-1.14C145.28,265,145.75,267.15,147.46,267.7Z"/><path class="cls-23" d="M144.55,258.2c-.43,2.47-.35,6.81,2.49,7.91,4.76,1.83,5.56-4.08,6.12-7.46Z"/><path class="cls-51" d="M144.25,261.11l1.16-.68,1.4-2.68-2-1.26s-.4,1.61-.5,2.5A15.09,15.09,0,0,0,144.25,261.11Z"/><path class="cls-51" d="M151.32,254.11a3.33,3.33,0,0,0-3.5-1.16,3.86,3.86,0,0,0-3.15,4.26,11.84,11.84,0,0,0,2.24,1.13l-.38,1.62h.55l.61-1.36a9.85,9.85,0,0,0,6.28,0C157,257.57,155.39,252.88,151.32,254.11Z"/><path d="M149.17,260.72a.23.23,0,0,1-.26.2.24.24,0,0,1-.2-.27.23.23,0,0,1,.27-.19A.23.23,0,0,1,149.17,260.72Z"/><path d="M152.59,261.39a.23.23,0,0,1-.26.2.24.24,0,0,1-.2-.27.23.23,0,0,1,.27-.19A.23.23,0,0,1,152.59,261.39Z"/><path class="cls-44" d="M148.65,262.51a1,1,0,1,1-1.93-.31,1,1,0,0,1,1.93.31Z"/><path class="cls-44" d="M151.1,260.72l.65,1.55a.26.26,0,0,1-.26.37l-.9-.06Z"/><path class="cls-44" d="M146.27,261.37a1.65,1.65,0,1,1,.69-3.22Z"/><path class="cls-45" d="M146.43,260.61a.87.87,0,0,1,.36-1.7Z"/><path class="cls-52" d="M140.13,269.35l1-1.58a11.45,11.45,0,0,0,3,2.41c1.39.63,3.19,1.22,3.19,1.22a7.71,7.71,0,0,1-4.49.32A3.88,3.88,0,0,1,140.13,269.35Z"/><path class="cls-52" d="M147.22,271.44l.52-2.62.79.53a2.91,2.91,0,0,1-.71,1.65C147.24,271.5,147.22,271.44,147.22,271.44Z"/><path class="cls-34" d="M152.15,278s-.44,5.41-1.26,9.87a8.9,8.9,0,0,0,.85,2.51,10.59,10.59,0,0,0,.91-4.45C152.62,283.42,152.15,278,152.15,278Z"/><path class="cls-44" d="M151.29,263.59c0,.19-.42.28-.87.21s-.79-.28-.76-.47.36.08.81.15S151.32,263.41,151.29,263.59Z"/><path class="cls-23" d="M159.37,285a14,14,0,0,1,3.07-2c1.46-.48,2.23,1.77,2.16,2.08a.5.5,0,0,1-.29.39l-.72-.18s.25.4,0,.61-.93-.22-.93-.22a8.56,8.56,0,0,1-2.26,2.23,2.88,2.88,0,0,1-.93-1.29A3.83,3.83,0,0,1,159.37,285Z"/><rect class="cls-53" x="162.05" y="281.74" width="0.24" height="5.66" transform="translate(-155.7 205.58) rotate(-46.37)"/><path class="cls-54" d="M160.61,285.54c1.07,0,2.71-.19,2.81.16s-.93.48-1.41.86-.59,1-1.61,1.35a4.24,4.24,0,0,1-.17-1.3A1.85,1.85,0,0,1,160.61,285.54Z"/><path class="cls-55" d="M150.7,295.75l13.79-11a.76.76,0,0,1,.71-.13l3.57,1.12a.55.55,0,0,1,.36.38l0,.15L154.88,297Z"/><path class="cls-12" d="M150.81,296.19l13.84-11.05a.64.64,0,0,1,.62-.12l3.9,1.23L155.4,297.1a1,1,0,0,1-.9.17Z"/><path class="cls-23" d="M148.76,293.06a7.83,7.83,0,0,0,2.08.71c.72.11,1.17-.32,1.72-.43,1.25-.26,1.4-.45,1.4-.15s-1.26,1.11-1.26,1.11a4.53,4.53,0,0,0,2,.67c.92,0,1.53,0,1.05.43a2,2,0,0,1-1.29.29,4.94,4.94,0,0,1,1.26,0c.19.1-.39,1-2.2,1.51-1.33.38-5.9-.34-5.9-.34a7.06,7.06,0,0,0,1.16-2A2.87,2.87,0,0,0,148.76,293.06Z"/><rect class="cls-56" x="325.01" y="328.43" width="81.17" height="4.04" rx="1.9"/><path class="cls-56" d="M179.71,357.62H112.33a2,2,0,0,1-2-2h0a2,2,0,0,1,2-2h67.38a2,2,0,0,1,2,2h0A2,2,0,0,1,179.71,357.62Z"/><rect class="cls-27" x="231.92" y="311.64" width="85.69" height="19.52" transform="translate(-46.63 596.16) rotate(-90)"/><rect class="cls-27" x="253.95" y="310.4" width="88.15" height="19.52" transform="translate(-22.13 618.19) rotate(-90)"/><rect class="cls-27" x="270.27" y="303.46" width="102.04" height="19.52" transform="translate(8.07 634.51) rotate(-90)"/><rect class="cls-27" x="219.83" y="322.8" width="63.35" height="19.52" transform="translate(-81.06 584.07) rotate(-90)"/><rect class="cls-27" x="200.11" y="326.34" width="56.28" height="19.52" transform="translate(-107.85 564.34) rotate(-90)"/><rect class="cls-27" x="184.87" y="334.36" width="40.23" height="19.52" transform="translate(-139.13 549.1) rotate(-90)"/><rect class="cls-27" x="168.45" y="341.21" width="26.54" height="19.52" transform="translate(-169.24 532.69) rotate(-90)"/><rect class="cls-14" x="241.6" y="321.31" width="66.33" height="19.52" transform="translate(-56.3 605.84) rotate(-90)"/><rect class="cls-14" x="263.91" y="320.36" width="68.24" height="19.52" transform="translate(-32.09 628.14) rotate(-90)"/><rect class="cls-14" x="276.62" y="309.81" width="89.34" height="19.52" transform="translate(1.72 640.85) rotate(-90)"/><rect class="cls-14" x="224.52" y="327.49" width="53.97" height="19.52" transform="translate(-85.74 588.76) rotate(-90)"/><rect class="cls-14" x="204.05" y="330.28" width="48.39" height="19.52" transform="translate(-111.8 568.29) rotate(-90)"/><rect class="cls-14" x="189.41" y="338.9" width="31.15" height="19.52" transform="translate(-143.68 553.65) rotate(-90)"/><rect class="cls-14" x="171.45" y="344.2" width="20.55" height="19.52" transform="translate(-172.24 535.69) rotate(-90)"/><rect class="cls-57" x="251.39" y="331.1" width="46.76" height="19.52" transform="translate(-66.09 615.62) rotate(-90)"/><rect class="cls-57" x="270.4" y="326.85" width="55.25" height="19.52" transform="translate(-38.58 634.64) rotate(-90)"/><rect class="cls-57" x="297.79" y="330.98" width="47" height="19.52" transform="translate(-19.45 662.02) rotate(-90)"/><rect class="cls-57" x="235.45" y="338.42" width="32.11" height="19.52" transform="translate(-96.67 599.69) rotate(-90)"/><rect class="cls-57" x="215.28" y="341.52" width="25.92" height="19.52" transform="translate(-123.03 579.52) rotate(-90)"/><rect class="cls-57" x="195.72" y="345.21" width="18.53" height="19.52" transform="translate(-149.99 559.95) rotate(-90)"/><rect class="cls-57" x="173.03" y="345.79" width="17.38" height="19.52" transform="translate(-173.82 537.27) rotate(-90)"/><rect class="cls-58" x="266.14" y="345.85" width="17.26" height="19.52" transform="translate(-80.84 630.38) rotate(-90)"/><rect class="cls-58" x="282.92" y="339.38" width="30.21" height="19.52" transform="translate(-51.11 647.16) rotate(-90)"/><rect class="cls-58" x="304.43" y="337.62" width="33.71" height="19.52" transform="translate(-26.09 668.67) rotate(-90)"/><rect class="cls-58" x="244.49" y="347.46" width="14.04" height="19.52" transform="translate(-105.71 608.72) rotate(-90)"/><rect class="cls-58" x="222.58" y="348.81" width="11.33" height="19.52" transform="translate(-130.33 586.81) rotate(-90)"/><rect class="cls-58" x="198.13" y="347.62" width="13.71" height="19.52" transform="translate(-152.4 562.36) rotate(-90)"/><rect class="cls-58" x="179.05" y="351.81" width="5.35" height="19.52" transform="translate(-179.84 543.29) rotate(-90)"/><rect class="cls-17" x="250.07" y="276.58" width="4.58" height="179.89" transform="translate(-114.17 618.88) rotate(-90)"/><path class="cls-17" d="M181.72,338.3a.58.58,0,0,1-.52-.3.6.6,0,0,1,.21-.83l23.25-13.68,23.24-16a.38.38,0,0,1,.17-.08l23.12-7,23.33-22.24a.67.67,0,0,1,.36-.17l23.3-2.45L321,261.68a.6.6,0,0,1,.84.2.61.61,0,0,1-.2.84l-22.92,13.89a.67.67,0,0,1-.25.08l-23.23,2.45-23.28,22.19a.52.52,0,0,1-.25.14l-23.17,7-23.18,16,0,0L182,338.22A.55.55,0,0,1,181.72,338.3Z"/><ellipse class="cls-27" cx="181.72" cy="337.69" rx="1.61" ry="1.6"/><path class="cls-17" d="M181.72,339.9a2.21,2.21,0,1,1,2.23-2.21A2.22,2.22,0,0,1,181.72,339.9Zm0-3.19a1,1,0,1,0,1,1A1,1,0,0,0,181.72,336.71Z"/><path class="cls-27" d="M226.63,308a1.62,1.62,0,1,1,1.61,1.6A1.61,1.61,0,0,1,226.63,308Z"/><path class="cls-17" d="M228.24,310.17a2.21,2.21,0,1,1,2.23-2.21A2.22,2.22,0,0,1,228.24,310.17Zm0-3.2a1,1,0,1,0,1,1A1,1,0,0,0,228.24,307Z"/><path class="cls-27" d="M273.18,278.55a1.61,1.61,0,1,1,1.61,1.6A1.61,1.61,0,0,1,273.18,278.55Z"/><path class="cls-17" d="M274.79,280.76a2.21,2.21,0,1,1,2.22-2.21A2.21,2.21,0,0,1,274.79,280.76Zm0-3.19a1,1,0,1,0,1,1A1,1,0,0,0,274.79,277.57Z"/><path class="cls-27" d="M320,262.2a1.61,1.61,0,1,1,1.61,1.6A1.61,1.61,0,0,1,320,262.2Z"/><path class="cls-17" d="M321.56,264.41a2.21,2.21,0,1,1,2.22-2.21A2.21,2.21,0,0,1,321.56,264.41Zm0-3.2a1,1,0,1,0,1,1A1,1,0,0,0,321.56,261.21Z"/><path class="cls-27" d="M203.37,324a1.62,1.62,0,0,1,3.23,0,1.62,1.62,0,0,1-3.23,0Z"/><path class="cls-17" d="M205,326.21a2.21,2.21,0,1,1,2.23-2.21A2.22,2.22,0,0,1,205,326.21Zm0-3.19a1,1,0,1,0,1,1A1,1,0,0,0,205,323Z"/><path class="cls-27" d="M249.89,300.89a1.62,1.62,0,0,1,3.23,0,1.62,1.62,0,0,1-3.23,0Z"/><path class="cls-17" d="M251.51,303.1a2.21,2.21,0,1,1,2.22-2.21A2.22,2.22,0,0,1,251.51,303.1Zm0-3.2a1,1,0,1,0,0,2,1,1,0,1,0,0-2Z"/><path class="cls-27" d="M296.42,276.08a1.61,1.61,0,1,1,1.61,1.6A1.6,1.6,0,0,1,296.42,276.08Z"/><path class="cls-17" d="M298,278.29a2.21,2.21,0,1,1,2.22-2.21A2.21,2.21,0,0,1,298,278.29Zm0-3.19a1,1,0,1,0,1,1A1,1,0,0,0,298,275.1Z"/><circle class="cls-59" cx="271.47" cy="222.59" r="61.86"/><path class="cls-23" d="M267.07,221.08s4.49,12.91,11.23,17.85,15.42,4.9,15.42,4.9,18-9.17,22.64-14.11c0,0,3.48-11.34-1.34-19.87S267.07,221.08,267.07,221.08Z"/><path class="cls-60" d="M267.07,221.08s4.49,12.91,11.23,17.85,15.42,4.9,15.42,4.9,18-9.17,22.64-14.11c0,0,3.48-11.34-1.34-19.87S267.07,221.08,267.07,221.08Z"/><path class="cls-23" d="M203.14,198.17s-4.11,7.41-4.46,20.89c-.33,13,3.26,19.83,3.26,19.83s23.06.08,31.44,1.28,18.87,10,31.44,11.15,16.1-.56,16.1-.56,7.28,1.85,10.8-.6c3-2.1,2-6.33,2-6.33s-13-6-17.78-11.52a32.93,32.93,0,0,1-6.51-11.68l14-11.9s-9.32-7.42-19.31-7.64-22.45.22-30.32.34S203.14,198.17,203.14,198.17Z"/><path class="cls-61" d="M203.14,198.17s-4.11,7.41-4.46,20.89c-.33,13,3.26,19.83,3.26,19.83s23.06.08,31.44,1.28,18.87,10,31.44,11.15,16-.56,16-.56,6.85,1.91,10.71-.49c3.31-2.06,2.17-6.44,2.17-6.44s-13-6-17.78-11.52a32.93,32.93,0,0,1-6.51-11.68l14-11.9s-9.32-7.42-19.31-7.64-22.45.22-30.32.34S203.14,198.17,203.14,198.17Z"/><path class="cls-62" d="M291.72,250.16a5.25,5.25,0,0,0,2-6.33s-13-6-17.78-11.52a32.93,32.93,0,0,1-6.51-11.68l.36-.31-.63-.59-8.46,2.47s-1.27,13,5.69,18.64c5.46,4.46,11,8.7,15.8,10.22C284.29,251.4,288.46,252.49,291.72,250.16Z"/><path class="cls-63" d="M280.28,252.46c.18-.56.35-1.13.5-1.7l-.23-.07a6.21,6.21,0,0,0-4.1.6c.24-1.57-1-2.66-2.94-3.14a8,8,0,0,0-5.51,1c1.18-2.54.48-4.8-1.59-5.8s-3.78-1.45-6.57.82c1.09-2.21,1-4-.63-5.34-2.71-2.16-6.91-2-10.47,3a12.82,12.82,0,0,0-2.47,5.39c5.34,2.55,11.22,5.14,17.65,5.75,12.58,1.2,16.06-.64,16.06-.64A1.52,1.52,0,0,0,280.28,252.46Z"/><path class="cls-64" d="M314.4,212.88l-9.08-15.06c-6.66,1.56-21.58,6.89-32.81,11.93-10.35,4.65-12.45,9.71-17.12,15.44s.75,9,5.5,6.72c2.47-1.18,3.38-3.32,5.28-5s6.09.36,7.43,2.42A16.8,16.8,0,0,0,277,233.2c5.5,5.34,16.77,10.63,16.77,10.63s-14.15-7.56-17.59-14c4.34.74,6.43-3.22,12.35-2.92C299.15,227.46,310.3,218.7,314.4,212.88Z"/><path class="cls-23" d="M305.47,196.93c-6.74,1.24-21.9,5.84-33.35,10.34-10.57,4.14-12.91,9.09-17.85,14.59s-.12,8.76,5,7.75,11-7.52,11-7.52a38.83,38.83,0,0,0,19,4c10.67-.56,21.79-6.62,26.16-12.24Z"/><g class="cls-65"><path class="cls-66" d="M305.47,196.93c-6.74,1.24-21.9,5.84-33.35,10.34-10.57,4.14-12.91,9.09-17.85,14.59s-.12,8.76,5,7.75,11-7.52,11-7.52a38.83,38.83,0,0,0,19,4c10.67-.56,21.79-6.62,26.16-12.24Z"/></g><path class="cls-23" d="M270.59,255c2.84,1.2,5.54,2.17,9.43-1.12s2.47-5.92-.23-6.22-5,1.42-6.51,3.3A32,32,0,0,0,270.59,255Z"/><path class="cls-67" d="M270.59,255c2.84,1.2,5.54,2.17,9.43-1.12s2.47-5.92-.23-6.22-5,1.42-6.51,3.3A32,32,0,0,0,270.59,255Z"/><path class="cls-23" d="M272.53,245.86c3.08.42,4.57,2.47,1.8,5.91s-6.06,5.76-9.28,5.24-3.67-1.5-3.67-2.84S267.07,245.11,272.53,245.86Z"/><path class="cls-68" d="M272.53,245.86c3.08.42,4.57,2.47,1.8,5.91s-6.06,5.76-9.28,5.24-3.67-1.5-3.67-2.84S267.07,245.11,272.53,245.86Z"/><path class="cls-23" d="M256.59,255.29c4,.67,5.84-1,8.91-4.94s2.39-7.49-.53-8.54-4.71-1.12-8.68,4.12S251.65,254.46,256.59,255.29Z"/><path class="cls-69" d="M256.59,255.29c4,.67,5.84-1,8.91-4.94s2.39-7.49-.53-8.54-4.71-1.12-8.68,4.12S251.65,254.46,256.59,255.29Z"/><path class="cls-23" d="M247.23,242.11c3-5.27,7.19-5.91,10.11-4,2.65,1.7,1.94,5-1,9.21s-2.88,7.1-8.24,4.94C244.54,250.8,244.61,246.68,247.23,242.11Z"/><path class="cls-70" d="M252.13,238.59l1.8,1.15a11.49,11.49,0,0,0,2.62,1.25c.81.28,1.62.55,1.48.8s-1.88.82-3.9-.75S252.13,238.59,252.13,238.59Z"/><path class="cls-70" d="M260.67,243.09s.17,0,1,.82a5.36,5.36,0,0,0,2.53,1.33c.94.23,2.52.33,2.39.71s-2.06.41-3.61-.32A5.29,5.29,0,0,1,260.67,243.09Z"/><path class="cls-71" d="M252.4,224.88c1.33,1,2.75,1.81,4.92.24a1,1,0,0,0,.2-1.4,10.25,10.25,0,0,0-2.69-2.5c-.18.22-.37.43-.56.64A8.34,8.34,0,0,0,252.4,224.88Z"/><path class="cls-72" d="M252.53,224.51c-.05.12-.09.25-.13.37a3.86,3.86,0,0,0,3.08,1.09A5.84,5.84,0,0,1,252.53,224.51Z"/><path class="cls-73" d="M252.13,238.59a8.71,8.71,0,0,0,2.75,2.08,22.13,22.13,0,0,0,3.15,1.12,3.64,3.64,0,0,1-5.39,1.63C248.88,241.35,252.13,238.59,252.13,238.59Z"/><path class="cls-70" d="M271.22,248.48s.21,0,.77.65a3.32,3.32,0,0,0,1.63,1.05c.6.19,1.55.37,1.55.37l-.22.3a3.63,3.63,0,0,1-2.53-.63A3.67,3.67,0,0,1,271.22,248.48Z"/><path class="cls-74" d="M260.67,243.09a4.79,4.79,0,0,0,2.8,2.3,12.62,12.62,0,0,0,3.09.56s-.84,3.31-4.6,1.85S260.67,243.09,260.67,243.09Z"/><path class="cls-70" d="M278.69,250.78a1.71,1.71,0,0,1,.79.41,6.4,6.4,0,0,0,2.22.79l-.15.28a4.9,4.9,0,0,1-2.07-.53C278.71,251.25,278.69,250.78,278.69,250.78Z"/><path class="cls-73" d="M274.33,251.77a10.54,10.54,0,0,0,.73-1l-.08,0c-3-.45-3.76-2.24-3.76-2.24-1.68,1.62-.84,3.7,1.46,4.54a1.83,1.83,0,0,0,.46.12C273.54,252.71,273.94,252.25,274.33,251.77Z"/><path class="cls-75" d="M281.62,252.16a4.35,4.35,0,0,1-2.93-1.38s-1.18,1.85.62,2.75a2.54,2.54,0,0,0,.84.22A8.74,8.74,0,0,0,281.62,252.16Z"/><path class="cls-70" d="M257.22,223.35a9.61,9.61,0,0,0-2.39-2.13c-.18.22-.37.43-.56.64s-.46.54-.66.8a3.09,3.09,0,0,0,1,.72A2.81,2.81,0,0,0,257.22,223.35Z"/><path class="cls-76" d="M253.59,242.09a2.52,2.52,0,0,0-2.45,0,3.83,3.83,0,0,0,1.5,1.31,4.16,4.16,0,0,0,2.59.6A2.41,2.41,0,0,0,253.59,242.09Z"/><path class="cls-76" d="M260.25,246.57A3.38,3.38,0,0,0,262,247.8a4.37,4.37,0,0,0,2.29.33,2.54,2.54,0,0,0-1.82-1.64A2.81,2.81,0,0,0,260.25,246.57Z"/><path class="cls-76" d="M272.44,251.25a2.8,2.8,0,0,0-1.9,0,3.63,3.63,0,0,0,2.14,1.77,1.83,1.83,0,0,0,.46.12c.26-.28.52-.57.78-.88A2.9,2.9,0,0,0,272.44,251.25Z"/><path class="cls-76" d="M278.42,252.64a1.73,1.73,0,0,0,.89.89,2.54,2.54,0,0,0,.84.22c.25-.22.47-.43.68-.64a2.39,2.39,0,0,0-1.05-.55A2.18,2.18,0,0,0,278.42,252.64Z"/><path class="cls-34" d="M234.33,201.42h-.5a131.18,131.18,0,0,1-13.6-1c-1.33,3.35-3,9.37-3.35,18.57a114.07,114.07,0,0,0,1.1,20.21c5.34.17,10.82.43,14.4.86a.51.51,0,0,0,0-.13c-3.61-14.14-1.61-30.57,2-38.47Z"/><path class="cls-5" d="M233.2,200.62c-2.36-.14-9-.55-13.46-1.08-1.47,3.24-3.52,9.26-4.21,18.7A112.26,112.26,0,0,0,216,240c4.62.13,9.54.33,13.4.65a.72.72,0,0,0,.77-.86c-3-14.27-.39-30.61,3.5-38.36A.55.55,0,0,0,233.2,200.62Z"/><path class="cls-12" d="M215.75,218.23c.65-9.12,2.49-15.15,3.93-18.63a.56.56,0,0,0-.44-.76c-8.06-1-15.88-2.24-15.88-2.24s-4.09,5.4-4.9,22.12c-.79,16.28,2.25,21.56,2.25,21.56s7.56.16,14.64.36a.75.75,0,0,0,.76-.84A121.74,121.74,0,0,1,215.75,218.23Z"/><path class="cls-34" d="M217.21,218.46c.15-9.05,1.86-15.38,3.3-18.87-.55-.05-.26,0-.77-.05-1.47,3.24-3.52,9.26-4.21,18.7A112.26,112.26,0,0,0,216,240c.59,0,3.76.23,4.37.25C220.37,240.16,217.06,227.81,217.21,218.46Z"/><path class="cls-34" d="M314,231.77a18.69,18.69,0,0,0,2.32-2.05s3.48-11.34-1.34-19.87a4.31,4.31,0,0,0-3-1.89l-6.5-11-1.34.27C309.22,203.81,314.49,218.18,314,231.77Z"/><path class="cls-5" d="M304.81,195.86c2.26-.66,8.64-2.54,12.87-4,2.13,2.65,5.42,7.74,8.11,16.28A100.75,100.75,0,0,1,330,228.25c-4.47,1.17-9.22,2.48-12.91,3.64a.69.69,0,0,1-.93-.62c-.09-13.85-6.18-28.31-11.64-34.57A.52.52,0,0,1,304.81,195.86Z"/><path class="cls-12" d="M325.57,208.14c-2.58-8.26-5.67-13.4-7.82-16.27a.53.53,0,0,1,.27-.81c7.64-2.75,15-5.66,15-5.66s10.13,1.71,11.87,19.06c1.58,15.61.07,20.6.07,20.6s-7.34,1.87-14.18,3.65a.74.74,0,0,1-.93-.6A108.58,108.58,0,0,0,325.57,208.14Z"/><path class="cls-34" d="M324.2,208.69c-2.08-8.32-5.1-13.76-7.25-16.65.52-.17.25,0,.73-.22,2.13,2.65,5.42,7.74,8.11,16.28A100.75,100.75,0,0,1,330,228.25c-.57.15-3.62,1.07-4.2,1.23C325.77,229.41,326.35,217.28,324.2,208.69Z"/></g></g></svg>