<?xml version="1.0" encoding="utf-8"?>
<!-- Generator: Adobe Illustrator 26.0.1, SVG Export Plug-In . SVG Version: 6.00 Build 0)  -->
<svg version="1.1" id="Layer_1" xmlns="http://www.w3.org/2000/svg" xmlns:xlink="http://www.w3.org/1999/xlink" x="0px" y="0px"
	 viewBox="0 0 4251.97 1417.32" style="enable-background:new 0 0 4251.97 1417.32;" xml:space="preserve">
<style type="text/css">
	.st0{display:none;}
	.st1{display:inline;}
	.st2{opacity:0.91;}
	.st3{fill:#FFFFFF;}
	.st4{opacity:0.91;fill:#FFFFFF;}
	.st5{opacity:0.39;fill:#FFFFFF;}
</style>
<g class="st0">
	<path class="st1" d="M2763.23,1334.8v-187.93h38.93c27.92,0,40,13.15,40,44.03v99.87c0,30.87-12.08,44.03-40,44.03H2763.23z
		 M2769.14,1329.16h33.02c24.43,0,34.09-11.28,34.09-38.39v-99.87c0-27.12-9.66-38.39-34.09-38.39h-33.02V1329.16z"/>
	<path class="st1" d="M2871.42,1179.36v-25.24h5.91v25.24H2871.42z M2871.42,1334.8v-132.08h5.91v132.08H2871.42z"/>
	<path class="st1" d="M2886.72,1376.41v-5.64c2.95,1.88,6.44,2.95,9.93,2.95c8.59,0,11.81-4.02,11.81-15.84v-155.17h5.91v155.44
		c0,13.96-5.91,20.94-17.45,20.94C2892.89,1379.09,2889.67,1378.29,2886.72,1376.41z M2908.46,1179.36v-25.24h5.91v25.24H2908.46z"
		/>
	<path class="st1" d="M2945.51,1179.36v-25.24h5.91v25.24H2945.51z M2945.51,1334.8v-132.08h5.91v132.08H2945.51z"/>
	<path class="st1" d="M3028.46,1208.08h-30.87v102.82c0,14.77,5.37,21.21,17.45,21.21c5.37,0,9.93-1.07,13.42-2.95v5.64
		c-3.76,1.88-8.32,2.69-13.96,2.69c-15.3,0-22.82-8.86-22.82-26.31v-103.09h-18.52v-5.37h18.52l1.07-41.88h4.83v41.88h30.87V1208.08
		z"/>
	<path class="st1" d="M3113.29,1334.8c-1.07-5.1-1.88-13.96-2.15-26.04c-5.37,18.26-18.52,28.73-36.51,28.73
		c-18.52,0-30.07-11.81-30.07-31.41c0-19.6,9.13-30.34,34.9-41.07c13.69-5.64,22.28-9.93,25.77-12.89
		c3.49-2.95,5.37-7.51,5.37-13.69v-5.1c0-17.45-10.2-27.92-27.65-27.92c-17.99,0-29.8,10.2-29.8,29.27v2.42h-5.64v-2.15
		c0-22.28,14.23-34.9,35.44-34.9c21.21,0,33.56,12.62,33.56,33.83v69c0,15.57,0.8,26.31,2.15,31.95H3113.29z M3110.6,1287.81v-35.44
		c-2.42,4.56-12.08,10.47-29.53,17.45c-22.28,9.4-30.6,19.06-30.6,35.98c0,16.37,9.13,26.31,25.23,26.31
		C3096.91,1332.11,3110.6,1314.93,3110.6,1287.81z"/>
	<path class="st1" d="M3147.11,1334.8v-187.93h5.91v187.93H3147.11z"/>
	<path class="st1" d="M3227.91,1126.2v-25.23h5.91v25.23H3227.91z M3227.91,1334.8v-187.93h5.91v187.93H3227.91z"/>
	<path class="st1" d="M3296.64,1337.48v11.54c11.54,0,17.45,4.3,17.45,12.89c0,9.66-6.71,14.5-19.87,14.5
		c-13.42,0-20.13-4.83-20.13-14.23v-1.34h5.1v1.34c0,6.44,4.83,9.66,14.77,9.66c9.93,0,15.03-3.22,15.03-9.66
		c0-6.17-4.56-9.13-13.69-9.13h-2.95v-15.57c-20.4-1.07-33.02-13.42-33.02-33.83v-4.83h5.64v4.83c0,17.99,11.28,28.46,29.53,28.46
		c17.99,0,29.53-10.2,29.53-28.19c0-9.4-2.95-16.38-9.66-21.48c-6.71-5.37-10.74-7.52-20.67-11.81
		c-10.74-4.56-14.77-6.98-22.28-12.62c-7.52-6.17-10.74-14.23-10.74-25.24c0-20.13,13.69-32.75,33.29-32.75
		c19.6,0,33.29,12.62,33.29,33.83v2.15h-5.37v-2.15c0-17.99-11.55-28.46-27.92-28.46c-15.84,0-27.65,10.47-27.65,27.38
		c0,8.86,2.95,15.84,9.66,21.21c6.71,5.1,10.47,6.98,20.41,11.54c10.74,4.57,15.03,6.71,22.55,12.89s10.74,14.5,10.74,25.5
		C3329.66,1324.33,3317.04,1336.67,3296.64,1337.48z"/>
	<path class="st1" d="M3396.77,1188.75c0-28.99,14.23-44.57,40-44.57c25.77,0,40,15.57,40,44.57v104.16
		c0,28.99-14.23,44.57-40,44.57c-25.77,0-40-15.57-40-44.57V1188.75z M3470.87,1188.48c0-25.77-11.27-38.66-34.09-38.66
		c-22.82,0-34.09,12.88-34.09,38.66v104.7c0,25.77,11.28,38.66,34.09,38.66c22.82,0,34.09-12.88,34.09-38.66V1188.48z"/>
	<path class="st1" d="M3551.94,1201.9v5.91c-2.95-1.34-6.17-2.15-9.93-2.15c-20.14,0-30.07,16.91-30.07,50.47v78.66h-5.91v-132.08
		h4.83l0.27,26.31c4.03-19.33,14.23-28.99,30.6-28.99C3546.04,1200.03,3549.53,1200.56,3551.94,1201.9z"/>
	<path class="st1" d="M3619.06,1208.08h-30.87v102.82c0,14.77,5.37,21.21,17.45,21.21c5.37,0,9.93-1.07,13.42-2.95v5.64
		c-3.76,1.88-8.32,2.69-13.96,2.69c-15.3,0-22.82-8.86-22.82-26.31v-103.09h-18.52v-5.37h18.52l1.07-41.88h4.83v41.88h30.87V1208.08
		z"/>
	<path class="st1" d="M3703.89,1334.8c-1.07-5.1-1.88-13.96-2.15-26.04c-5.37,18.26-18.52,28.73-36.51,28.73
		c-18.52,0-30.07-11.81-30.07-31.41c0-19.6,9.13-30.34,34.9-41.07c13.69-5.64,22.28-9.93,25.77-12.89
		c3.49-2.95,5.37-7.51,5.37-13.69v-5.1c0-17.45-10.2-27.92-27.65-27.92c-17.99,0-29.8,10.2-29.8,29.27v2.42h-5.64v-2.15
		c0-22.28,14.23-34.9,35.44-34.9s33.56,12.62,33.56,33.83v69c0,15.57,0.8,26.31,2.15,31.95H3703.89z M3701.2,1287.81v-35.44
		c-2.42,4.56-12.08,10.47-29.53,17.45c-22.28,9.4-30.6,19.06-30.6,35.98c0,16.37,9.13,26.31,25.23,26.31
		C3687.51,1332.11,3701.2,1314.93,3701.2,1287.81z"/>
	<path class="st1" d="M3802.42,1202.71h4.83v139.33c0,24.7-11.55,37.05-34.9,37.05c-22.55,0-35.17-11.01-35.17-31.14v-1.61h5.64
		v1.61c0,17.18,9.93,25.77,29.53,25.77s29.26-10.47,29.26-31.41v-35.98c-5.64,16.91-18.52,26.85-34.9,26.85
		c-20.14,0-31.14-13.15-31.14-37.85v-57.72c0-24.7,11.01-37.58,31.14-37.58c17.18,0,30.07,10.47,35.44,28.72L3802.42,1202.71z
		 M3801.61,1283.52v-33.83c0-26.85-13.69-44.3-34.09-44.3c-17.45,0-26.31,11.01-26.31,33.29v55.84c0,22.28,8.86,33.29,26.31,33.29
		C3787.92,1327.82,3801.61,1310.37,3801.61,1283.52z M3752.75,1155.73c0.27,11.54,6.17,17.18,17.18,17.18
		c11.01,0,16.64-5.64,17.18-17.18h4.83c-0.27,14.23-8.32,22.28-22.01,22.28c-13.69,0-21.21-8.06-22.01-22.28H3752.75z"/>
	<path class="st1" d="M3838.39,1334.8v-132.08h5.91v132.08H3838.39z"/>
	<path class="st1" d="M3946.04,1237.61v97.19h-5.91v-96.11c0-22.28-8.59-33.29-26.04-33.29c-19.6,0-32.76,17.45-32.76,44.3v85.1
		h-5.91v-132.08h5.1v25.77c5.37-17.99,18.26-28.46,34.63-28.46C3935.84,1200.03,3946.04,1212.65,3946.04,1237.61z"/>
	<path class="st1" d="M3976.11,1334.8v-132.08h5.91v132.08H3976.11z"/>
	<path class="st1" d="M4005.9,1334.8v-5.1l62.28-121.62h-59.6v-5.37h66.04v5.1l-62.55,121.62h62.55v5.37H4005.9z"/>
</g>
<g class="st2">
	<path class="st3" d="M140.84,957.78c-30.99-1.95-54.46-8.78-69.77-20.3c-15.48-11.63-27.37-27.74-35.34-47.88
		c-7.3-18.26-11-37.85-11-58.28c0-29.37,7.78-61.64,23.12-95.92c35.29-66.16,91.31-100.74,171.2-105.68h97.46l30.82-116h88.29
		L358.3,826.2h-90.88l30.47-122.23h-70.87c-30.49,1.01-55.37,9.7-74.31,25.83c-18.6,14.82-31.16,33.52-37.08,55.36
		c-4.14,14.1-6.27,26.91-6.27,37.85c0,21.26,8.38,57.03,64.54,57.75h171.07l-18.91,78.34L140.84,957.78z"/>
	<path class="st3" d="M395.51,959.16l81.83-331.87H569l-80.53,331.87H395.51z M490.2,574.81l15.78-61.09h91.19l-15.78,61.09H490.2z"
		/>
	<path class="st3" d="M446.59,1087.63l19.56-75.29h51.05c8.77,0,17.14-3.14,24.88-9.34c7.29-5.54,12.5-12.51,15.29-20.57l0.17-0.48
		l87.4-355.69h91.27l-85.66,349.95c-8.43,29.03-26.99,55.36-55.05,77.82c-27.87,22.29-56.54,33.6-85.23,33.6H446.59z M657.22,573.77
		l16.29-61.1h91.14l-16.29,61.1H657.22z"/>
	<path class="st3" d="M725.84,959.16l81.83-331.87h91.66L818.8,959.16H725.84z M820.54,574.81l15.78-61.09h91.19l-15.78,61.09
		H820.54z"/>
	<path class="st3" d="M997.47,959.16c-27.49,0-48.5-10.32-64.22-31.55c-11.84-15.79-17.58-32.88-17.58-52.32
		c0-7.28,0.85-14.88,2.52-22.6l83.4-338.98h89.39l-29.43,114.96h82.91l-19.56,80.14h-82.43l-2.04,8.41
		c-20.21,83.34-30.83,127.36-31.57,130.83l-0.25,1.14v3.93c0,6.92,2.07,13.36,6.17,19.16c5.74,7.67,13.82,11.58,23.53,11.58h44.18
		l-18.22,75.29H997.47z"/>
	<path class="st3" d="M1271.74,957.78c-30.99-1.95-54.46-8.78-69.77-20.3c-15.48-11.63-27.37-27.74-35.34-47.88
		c-7.3-18.26-11-37.85-11-58.28c0-29.37,7.78-61.64,23.12-95.92c35.3-66.17,91.3-100.74,171.2-105.68h186.52l-79.51,329.39
		L1271.74,957.78z M1360.18,703.96c-31.37,0.51-57.13,9.2-76.58,25.85c-18.58,14.8-31.14,33.5-37.05,55.34
		c-4.14,14.1-6.27,26.91-6.27,37.85c0,21.26,8.38,57.03,64.54,57.75h81.58l41.52-176.79h-67.65H1360.18z"/>
	<path class="st3" d="M1634.59,959.16c-28.31,0-50.16-10.39-66.8-31.77c-12.64-16.37-18.8-34.21-18.8-54.53
		c0-6.38,0.62-13.16,1.83-20.18l87.78-338.98h91.59l-85.48,335.26v4.15c0,6.92,2.07,13.36,6.17,19.16l0.39,0.52
		c5.78,7.24,13.9,11.06,23.49,11.06h48.2l-19.02,75.29H1634.59z"/>
</g>
<path class="st3" d="M2604.82,1094.86l19.02-75.29h50.99c8.76,0,17.14-3.14,24.88-9.34c7.37-5.89,12.5-12.78,15.25-20.45l0.19-0.52
	l5.98-23.9h-95.47c-27.79,0-49.16-10.35-65.33-31.66c-11.78-15.5-17.5-32.23-17.5-51.17c0-7.43,0.96-15.34,2.84-23.5l54.38-224.51
	h91.28l-53.15,219.44c-0.43,1.7-0.66,3.65-0.66,5.71c0,7.04,2.14,13.45,6.36,19.08c3.86,5.16,11.18,11.32,24.03,11.32h69.95
	l62.02-255.74l0.28-0.84h92.02l-84,350c-8.02,29.07-26.33,55.36-54.35,77.77c-28.08,22.28-56.76,33.6-85.23,33.6H2604.82z"/>
<path class="st3" d="M3032.21,963.28c-30.99-1.95-54.46-8.78-69.77-20.3c-15.48-11.63-27.37-27.74-35.34-47.88
	c-7.3-18.26-11-37.85-11-58.28c0-29.37,7.78-61.64,23.12-95.92c35.3-66.17,91.3-100.74,171.2-105.68h113.91
	c30.75,2.06,50.79,9.34,57.99,21.07c8.23,13.41,12.4,26.15,12.4,37.87c0,6.42-0.92,13.15-2.75,20.04l-29.52,121.32h-196.22
	c-4.59-0.74-6.94-1.92-6.96-3.52c-0.12-7.88-0.17-12.15-0.17-12.83c0-12.34,4.19-25.14,12.46-38.04
	c7.97-12.41,19.26-19.14,34.51-20.56h85.32l12.77-51.09h-85.77c-30.49,1.01-55.37,9.7-74.31,25.83
	c-18.6,14.82-31.16,33.52-37.08,55.36c-3.26,13.02-4.88,24.75-4.88,35.08c0,37.68,22.35,59.18,62.93,60.52l185.49,0.01l-18.91,78.35
	L3032.21,963.28z"/>
<path class="st3" d="M3298.56,964.66l58.03-241.28c14.59-52.01,47.63-81.22,100.88-88.87h96.91l-20.01,78.41h-52.39
	c-9.56,0-18.36,3.32-26.13,9.86c-7.4,6.47-12.28,14.53-14.67,24.1l-53.02,217.77H3298.56z"/>
<path class="st3" d="M3540.68,964.66l81.83-331.87h91.66l-80.53,331.87H3540.68z M3635.38,580.31l15.78-61.09h91.19l-15.78,61.09
	H3635.38z"/>
<path class="st3" d="M4078.49,964.66l54.88-219.57c0.37-1.86,0.55-3.85,0.55-5.92c0-6.94-2.21-13.21-6.57-18.66
	c-5.79-7.23-13.91-11.05-23.48-11.05h-45.94l17.6-74.6h35.03l0.34-0.35h34.52c28.01,0,49.5,10.36,65.68,31.66
	c11.54,15.25,17.15,31.99,17.15,51.17c0,7.51-0.85,15.37-2.54,23.36l-56.33,223.95H4078.49z M3893.23,964.66l54.75-219.01
	c0.49-2.38,0.68-4.39,0.68-6.48c0-6.93-2.21-13.21-6.58-18.66c-5.78-7.22-13.9-11.05-23.48-11.05h-57.83l-61.64,255.2h-91.26
	l80.18-329.79h105.54v-0.35h66.91c39.49,0,65.66,19.8,79.99,60.52l5.08,14.43h-1.89l-0.34,10.65c-0.21,6.61-1.16,13.43-2.82,20.27
	l-56.4,224.27H3893.23z"/>
<path class="st4" d="M2093.05,384.29c-2.38,0.02-4.84,0.06-7.41,0.12l-2.42,0.06l-1.4,1.98c-20.9,29.68-32.71,64.54-35.1,103.6
	c-1.57,25.56,2.54,49.98,12.22,72.56l-0.5,14.92l40.39-193.3L2093.05,384.29z"/>
<path class="st3" d="M2011.25,945.34h-31.43l-97.78,52.69l229.93,24.7l96.51-55.7l-163.3-18.53l8.81-3.56
	c47.07-18.98,79.76-39.64,97.18-61.4c17.43-21.78,31-58.79,40.33-110l10.91-60.82l46.45-268.04c4.91-27.84,17.72-81.64,38.06-159.88
	l1.47-5.66l-40.68-2.49c-115.88-7.11-211.83,15.91-285.17,68.4c-73.18,52.37-113.21,126.46-118.95,220.19
	c-1.48,24.1-31.14,47.23-26.42,72.07l1.54,8.1l122.19-75.22l-1.44-3.29c-13.85-31.6-19.93-62.98-18.08-93.29
	c6.27-102.31,87.61-149.39,241.76-139.94l19.82,1.22l-76.31,439.55c-15.73,87.28-47.58,144.64-94.66,170.47L2011.25,945.34z"/>
<path class="st3" d="M2348.54,693.78l-55.03-51.39c-11.19-10.3-44.95-20.4-55.08-30.04l-6.52-6.2l0.17,131.22l32.08,29.36
	c66.57,61.46,98.52,122.15,94.95,180.37c-2.62,42.75-20.98,77.24-54.56,102.51c-33.46,25.18-75.67,36.4-125.47,33.35
	c-19.01-1.17-36.74-4.01-52.7-8.45l-0.38-0.11l-173.98-18.58l11.53,10.04c34.07,29.66,81.76,47.13,141.75,51.93l3.98,0.32
	l-51.47,80.92l6.04,1.85c47.84,14.7,71.05,39.22,68.99,72.88c-2.57,41.97-38.48,64.7-106.73,67.56l-6.61,0.28l2.3,6.21
	c7.77,20.93,20.14,21.69,24.2,21.94c34.27,2.1,67.61-9.17,99.1-33.5c31.37-24.25,48.2-51.45,50-80.85
	c2.62-42.66-20.76-73.55-71.47-94.43l-2.75-1.13l27.74-40.53l1.25-0.02c74.89-1.1,140.53-20.84,195.09-58.69
	c63.14-43.82,97.37-102.25,101.75-173.67C2450.68,822.25,2417.65,757.26,2348.54,693.78z"/>
<path class="st3" d="M2350.03,283.45c-7.86-0.48-38.72-0.75-46.43-0.8l-3.74-0.02l20.09,11.03c-2.12,8.16-30.43,28.8-30.43,28.8
	l5.28,0.79c31.19,4.7,81.04,14.83,102.86,30.1c27.63,19.33,40.82,42.5,39.2,68.87c-0.72,11.7-27.4,26.3-34.32,44.64l-1.45,3.83
	l3.56,2.04c3.23,1.85,6.44,2.89,9.53,3.08c10.83,0.66,44.12-8.7,53.63-27.83l17.71-34.32l38.52-75.35l-3.88-2.31
	C2467.62,304.84,2410.38,287.15,2350.03,283.45z"/>
<path class="st5" d="M2210.98,206.51l3.02,6.79l113.39-80.44l-1.85-3.82c-16.31-33.81-36.04-61.52-58.62-82.39l-3.58-3.31
	l-94.81,79.85l5.04,4.23C2196.91,146.99,2196.32,173.61,2210.98,206.51z"/>
<path class="st3" d="M2210.98,206.51l3.02,6.79l113.39-80.44l-1.85-3.82c-16.31-33.81-36.04-61.52-58.62-82.39l-3.58-3.31
	l-94.81,79.85l5.04,4.23C2196.91,146.99,2196.32,173.61,2210.98,206.51z"/>
</svg>
