<?xml version="1.0" encoding="utf-8"?>
<!-- Generator: Adobe Illustrator 26.1.0, SVG Export Plug-In . SVG Version: 6.00 Build 0)  -->
<svg version="1.1" id="Layer_1" xmlns="http://www.w3.org/2000/svg" xmlns:xlink="http://www.w3.org/1999/xlink" x="0px" y="0px"
	 viewBox="0 0 4252 1417.3" style="enable-background:new 0 0 4252 1417.3;" xml:space="preserve">
<style type="text/css">
	.st0{display:none;}
	.st1{display:inline;}
	.st2{fill:#173E52;}
	.st3{fill:#173E52;enable-background:new    ;}
</style>
<g class="st0">
	<path class="st1" d="M2763.2,1334.8v-187.9h38.9c27.9,0,40,13.2,40,44v99.9c0,30.9-12.1,44-40,44L2763.2,1334.8L2763.2,1334.8z
		 M2769.1,1329.2h33c24.4,0,34.1-11.3,34.1-38.4v-99.9c0-27.1-9.7-38.4-34.1-38.4h-33V1329.2z"/>
	<path class="st1" d="M2871.4,1179.4v-25.2h5.9v25.2H2871.4z M2871.4,1334.8v-132.1h5.9v132.1H2871.4z"/>
	<path class="st1" d="M2886.7,1376.4v-5.6c2.9,1.9,6.4,2.9,9.9,2.9c8.6,0,11.8-4,11.8-15.8v-155.2h5.9v155.4
		c0,14-5.9,20.9-17.4,20.9C2892.9,1379.1,2889.7,1378.3,2886.7,1376.4z M2908.5,1179.4v-25.2h5.9v25.2H2908.5z"/>
	<path class="st1" d="M2945.5,1179.4v-25.2h5.9v25.2H2945.5z M2945.5,1334.8v-132.1h5.9v132.1H2945.5z"/>
	<path class="st1" d="M3028.5,1208.1h-30.9v102.8c0,14.8,5.4,21.2,17.4,21.2c5.4,0,9.9-1.1,13.4-2.9v5.6c-3.8,1.9-8.3,2.7-14,2.7
		c-15.3,0-22.8-8.9-22.8-26.3v-103.1h-18.5v-5.4h18.5l1.1-41.9h4.8v41.9h30.9L3028.5,1208.1L3028.5,1208.1z"/>
	<path class="st1" d="M3113.3,1334.8c-1.1-5.1-1.9-14-2.1-26c-5.4,18.3-18.5,28.7-36.5,28.7c-18.5,0-30.1-11.8-30.1-31.4
		s9.1-30.3,34.9-41.1c13.7-5.6,22.3-9.9,25.8-12.9c3.5-2.9,5.4-7.5,5.4-13.7v-5.1c0-17.4-10.2-27.9-27.6-27.9
		c-18,0-29.8,10.2-29.8,29.3v2.4h-5.6v-2.2c0-22.3,14.2-34.9,35.4-34.9s33.6,12.6,33.6,33.8v69c0,15.6,0.8,26.3,2.1,31.9
		L3113.3,1334.8L3113.3,1334.8z M3110.6,1287.8v-35.4c-2.4,4.6-12.1,10.5-29.5,17.4c-22.3,9.4-30.6,19.1-30.6,36
		c0,16.4,9.1,26.3,25.2,26.3C3096.9,1332.1,3110.6,1314.9,3110.6,1287.8z"/>
	<path class="st1" d="M3147.1,1334.8v-187.9h5.9v187.9H3147.1z"/>
	<path class="st1" d="M3227.9,1126.2V1101h5.9v25.2H3227.9z M3227.9,1334.8v-187.9h5.9v187.9H3227.9z"/>
	<path class="st1" d="M3296.6,1337.5v11.5c11.5,0,17.4,4.3,17.4,12.9c0,9.7-6.7,14.5-19.9,14.5c-13.4,0-20.1-4.8-20.1-14.2v-1.3h5.1
		v1.3c0,6.4,4.8,9.7,14.8,9.7c9.9,0,15-3.2,15-9.7c0-6.2-4.6-9.1-13.7-9.1h-2.9v-15.6c-20.4-1.1-33-13.4-33-33.8v-4.8h5.6v4.8
		c0,18,11.3,28.5,29.5,28.5c18,0,29.5-10.2,29.5-28.2c0-9.4-2.9-16.4-9.7-21.5c-6.7-5.4-10.7-7.5-20.7-11.8
		c-10.7-4.6-14.8-7-22.3-12.6c-7.5-6.2-10.7-14.2-10.7-25.2c0-20.1,13.7-32.8,33.3-32.8s33.3,12.6,33.3,33.8v2.2h-5.4v-2.2
		c0-18-11.6-28.5-27.9-28.5c-15.8,0-27.6,10.5-27.6,27.4c0,8.9,2.9,15.8,9.7,21.2c6.7,5.1,10.5,7,20.4,11.5
		c10.7,4.6,15,6.7,22.6,12.9s10.7,14.5,10.7,25.5C3329.7,1324.3,3317,1336.7,3296.6,1337.5z"/>
	<path class="st1" d="M3396.8,1188.8c0-29,14.2-44.6,40-44.6s40,15.6,40,44.6v104.2c0,29-14.2,44.6-40,44.6s-40-15.6-40-44.6V1188.8
		z M3470.9,1188.5c0-25.8-11.3-38.7-34.1-38.7s-34.1,12.9-34.1,38.7v104.7c0,25.8,11.3,38.7,34.1,38.7c22.8,0,34.1-12.9,34.1-38.7
		V1188.5z"/>
	<path class="st1" d="M3551.9,1201.9v5.9c-2.9-1.3-6.2-2.2-9.9-2.2c-20.1,0-30.1,16.9-30.1,50.5v78.7h-5.9v-132.1h4.8l0.3,26.3
		c4-19.3,14.2-29,30.6-29C3546,1200,3549.5,1200.6,3551.9,1201.9z"/>
	<path class="st1" d="M3619.1,1208.1h-30.9v102.8c0,14.8,5.4,21.2,17.4,21.2c5.4,0,9.9-1.1,13.4-2.9v5.6c-3.8,1.9-8.3,2.7-14,2.7
		c-15.3,0-22.8-8.9-22.8-26.3v-103.1h-18.5v-5.4h18.5l1.1-41.9h4.8v41.9h30.9L3619.1,1208.1L3619.1,1208.1z"/>
	<path class="st1" d="M3703.9,1334.8c-1.1-5.1-1.9-14-2.1-26c-5.4,18.3-18.5,28.7-36.5,28.7c-18.5,0-30.1-11.8-30.1-31.4
		s9.1-30.3,34.9-41.1c13.7-5.6,22.3-9.9,25.8-12.9c3.5-2.9,5.4-7.5,5.4-13.7v-5.1c0-17.4-10.2-27.9-27.6-27.9
		c-18,0-29.8,10.2-29.8,29.3v2.4h-5.6v-2.2c0-22.3,14.2-34.9,35.4-34.9s33.6,12.6,33.6,33.8v69c0,15.6,0.8,26.3,2.1,31.9
		L3703.9,1334.8L3703.9,1334.8z M3701.2,1287.8v-35.4c-2.4,4.6-12.1,10.5-29.5,17.4c-22.3,9.4-30.6,19.1-30.6,36
		c0,16.4,9.1,26.3,25.2,26.3C3687.5,1332.1,3701.2,1314.9,3701.2,1287.8z"/>
	<path class="st1" d="M3802.4,1202.7h4.8V1342c0,24.7-11.6,37.1-34.9,37.1c-22.6,0-35.2-11-35.2-31.1v-1.6h5.6v1.6
		c0,17.2,9.9,25.8,29.5,25.8s29.3-10.5,29.3-31.4v-36c-5.6,16.9-18.5,26.8-34.9,26.8c-20.1,0-31.1-13.2-31.1-37.8v-57.7
		c0-24.7,11-37.6,31.1-37.6c17.2,0,30.1,10.5,35.4,28.7L3802.4,1202.7z M3801.6,1283.5v-33.8c0-26.8-13.7-44.3-34.1-44.3
		c-17.4,0-26.3,11-26.3,33.3v55.8c0,22.3,8.9,33.3,26.3,33.3C3787.9,1327.8,3801.6,1310.4,3801.6,1283.5z M3752.8,1155.7
		c0.3,11.5,6.2,17.2,17.2,17.2s16.6-5.6,17.2-17.2h4.8c-0.3,14.2-8.3,22.3-22,22.3s-21.2-8.1-22-22.3H3752.8z"/>
	<path class="st1" d="M3838.4,1334.8v-132.1h5.9v132.1H3838.4z"/>
	<path class="st1" d="M3946,1237.6v97.2h-5.9v-96.1c0-22.3-8.6-33.3-26-33.3c-19.6,0-32.8,17.4-32.8,44.3v85.1h-5.9v-132.1h5.1v25.8
		c5.4-18,18.3-28.5,34.6-28.5C3935.8,1200,3946,1212.7,3946,1237.6z"/>
	<path class="st1" d="M3976.1,1334.8v-132.1h5.9v132.1H3976.1z"/>
	<path class="st1" d="M4005.9,1334.8v-5.1l62.3-121.6h-59.6v-5.4h66v5.1l-62.6,121.6h62.6v5.4H4005.9z"/>
</g>
<g>
	<path class="st2" d="M132.8,946.4c-31.1-2-54.6-8.8-69.9-20.3c-15.5-11.7-27.4-27.8-35.4-48c-7.3-18.3-11-37.9-11-58.4
		c0-29.4,7.8-61.8,23.2-96.2c35.4-66.3,91.5-101,171.6-105.9h97.7l30.9-116.3h88.5l-77.5,313.2h-91.1L290.3,692h-71
		c-30.6,1-55.5,9.7-74.5,25.9c-18.6,14.9-31.2,33.6-37.2,55.5c-4.2,14.1-6.3,27-6.3,37.9c0,21.3,8.4,57.2,64.7,57.9h171.5l-19,78.5
		L132.8,946.4z"/>
	<path class="st2" d="M388.1,947.8l82-332.7H562l-80.7,332.7H388.1z M483,562.6l15.8-61.2h91.4l-15.8,61.2H483z"/>
	<path class="st2" d="M439.3,1076.6l19.6-75.5h51.2c8.8,0,17.2-3.2,24.9-9.4c7.3-5.5,12.5-12.5,15.3-20.6l0.2-0.5l87.6-356.5h91.5
		l-85.9,350.8c-8.4,29.1-27.1,55.5-55.2,78c-27.9,22.3-56.7,33.7-85.4,33.7L439.3,1076.6L439.3,1076.6z M650.4,561.5l16.3-61.2h91.4
		l-16.3,61.2H650.4z"/>
	<path class="st2" d="M719.2,947.8l82-332.7h91.9l-80.7,332.7H719.2z M814.2,562.6l15.8-61.2h91.4l-15.8,61.2H814.2z"/>
	<path class="st2" d="M991.5,947.8c-27.6,0-48.6-10.3-64.4-31.6c-11.9-15.8-17.6-33-17.6-52.4c0-7.3,0.9-14.9,2.5-22.7l83.6-339.8
		h89.6l-29.5,115.2h83.1l-19.6,80.3h-82.6l-2,8.4c-20.3,83.5-30.9,127.7-31.7,131.1l-0.2,1.1v3.9c0,6.9,2.1,13.4,6.2,19.2
		c5.8,7.7,13.9,11.6,23.6,11.6h44.3l-18.3,75.5L991.5,947.8L991.5,947.8z"/>
	<path class="st2" d="M1266.4,946.4c-31.1-2-54.6-8.8-69.9-20.3c-15.5-11.7-27.4-27.8-35.4-48c-7.3-18.3-11-37.9-11-58.4
		c0-29.4,7.8-61.8,23.2-96.2c35.4-66.3,91.5-101,171.6-105.9h187l-79.7,330.2L1266.4,946.4z M1355.1,692
		c-31.4,0.5-57.3,9.2-76.8,25.9c-18.6,14.8-31.2,33.6-37.1,55.5c-4.2,14.1-6.3,27-6.3,37.9c0,21.3,8.4,57.2,64.7,57.9h81.8L1423,692
		L1355.1,692L1355.1,692L1355.1,692z"/>
	<path class="st2" d="M1630.2,947.8c-28.4,0-50.3-10.4-67-31.8c-12.7-16.4-18.8-34.3-18.8-54.7c0-6.4,0.6-13.2,1.8-20.2l88-339.8
		h91.8l-85.7,336.1v4.2c0,6.9,2.1,13.4,6.2,19.2l0.4,0.5c5.8,7.3,13.9,11.1,23.5,11.1h48.3l-19.1,75.5L1630.2,947.8L1630.2,947.8z"
		/>
</g>
<path class="st2" d="M2602.7,1083.9l19.1-75.5h51.1c8.8,0,17.2-3.2,24.9-9.4c7.4-5.9,12.5-12.8,15.3-20.5l0.2-0.5l6-24h-95.7
	c-27.9,0-49.3-10.4-65.5-31.7c-11.8-15.5-17.5-32.3-17.5-51.3c0-7.4,1-15.4,2.8-23.6l54.5-225h91.5l-53.3,220
	c-0.4,1.7-0.7,3.7-0.7,5.7c0,7.1,2.1,13.5,6.4,19.1c3.9,5.2,11.2,11.3,24.1,11.3h70.1l62.2-256.4l0.3-0.8h92.2l-84.2,350.8
	c-8,29.1-26.4,55.5-54.5,78c-28.1,22.3-56.9,33.7-85.4,33.7L2602.7,1083.9L2602.7,1083.9z"/>
<path class="st2" d="M3031.1,952c-31.1-2-54.6-8.8-69.9-20.3c-15.5-11.7-27.4-27.8-35.4-48c-7.3-18.3-11-37.9-11-58.4
	c0-29.4,7.8-61.8,23.2-96.2c35.4-66.3,91.5-101,171.6-105.9h114.2c30.8,2.1,50.9,9.4,58.1,21.1c8.3,13.4,12.4,26.2,12.4,38
	c0,6.4-0.9,13.2-2.8,20.1l-29.6,121.6h-196.7c-4.6-0.7-7-1.9-7-3.5c-0.1-7.9-0.2-12.2-0.2-12.9c0-12.4,4.2-25.2,12.5-38.1
	c8-12.4,19.3-19.2,34.6-20.6h85.5l12.8-51.2h-86c-30.6,1-55.5,9.7-74.5,25.9c-18.6,14.9-31.2,33.6-37.2,55.5
	c-3.3,13.1-4.9,24.8-4.9,35.2c0,37.8,22.4,59.3,63.1,60.7l185.9,0l-19,78.5L3031.1,952z"/>
<path class="st2" d="M3298.1,953.3l58.2-241.9c14.6-52.1,47.7-81.4,101.1-89.1h97.1l-20.1,78.6h-52.5c-9.6,0-18.4,3.3-26.2,9.9
	c-7.4,6.5-12.3,14.6-14.7,24.2l-53.1,218.3L3298.1,953.3L3298.1,953.3z"/>
<path class="st2" d="M3540.8,953.3l82-332.7h91.9L3634,953.3H3540.8z M3635.7,568.1l15.8-61.2h91.4l-15.8,61.2H3635.7z"/>
<path class="st2" d="M4079.9,953.3l55-220.1c0.4-1.9,0.5-3.9,0.5-5.9c0-7-2.2-13.2-6.6-18.7c-5.8-7.2-13.9-11.1-23.5-11.1h-46.1
	l17.6-74.8h35.1l0.3-0.3h34.6c28.1,0,49.6,10.4,65.8,31.7c11.6,15.3,17.2,32.1,17.2,51.3c0,7.5-0.9,15.4-2.5,23.4L4171,953.4
	L4079.9,953.3L4079.9,953.3z M3894.2,953.3l54.9-219.5c0.5-2.4,0.7-4.4,0.7-6.5c0-6.9-2.2-13.2-6.6-18.7
	c-5.8-7.2-13.9-11.1-23.5-11.1h-58l-61.8,255.8h-91.5l80.4-330.6h105.8v-0.3h67.1c39.6,0,65.8,19.8,80.2,60.7l5.1,14.5h-1.9
	l-0.3,10.7c-0.2,6.6-1.2,13.5-2.8,20.3l-56.5,224.8L3894.2,953.3L3894.2,953.3z"/>
<path class="st3" d="M2089.7,371.6c-2.4,0-4.8,0.1-7.4,0.1l-2.4,0.1l-1.4,2c-20.9,29.7-32.8,64.7-35.2,103.8
	c-1.6,25.6,2.5,50.1,12.2,72.7l-0.5,15l40.5-193.8L2089.7,371.6z"/>
<path class="st2" d="M2007.7,934h-31.5l-98,52.8l230.5,24.8l96.7-55.8l-163.7-18.6l8.8-3.6c47.2-19,80-39.7,97.4-61.5
	c17.5-21.8,31.1-58.9,40.4-110.3l10.9-61l46.6-268.7c4.9-27.9,17.8-81.8,38.2-160.3l1.5-5.7l-40.8-2.5
	c-116.2-7.1-212.3,15.9-285.8,68.6c-73.4,52.5-113.5,126.8-119.2,220.7c-1.5,24.1-31.2,47.3-26.5,72.2l1.5,8.1l122.5-75.4l-1.4-3.3
	c-13.9-31.7-20-63.1-18.1-93.5c6.3-102.6,87.8-149.7,242.3-140.3l19.9,1.2l-76.5,440.6c-15.8,87.5-47.7,145-94.9,170.9L2007.7,934z"
	/>
<path class="st2" d="M2345.8,681.8l-55.2-51.5c-11.2-10.3-45.1-20.4-55.2-30.1l-6.5-6.2l0.2,131.5l32.2,29.4
	c66.7,61.6,98.8,122.4,95.2,180.8c-2.6,42.9-21,77.4-54.7,102.8c-33.5,25.2-75.9,36.5-125.8,33.4c-19.1-1.2-36.8-4-52.8-8.5
	l-0.4-0.1l-174.4-18.6l11.6,10.1c34.1,29.7,82,47.2,142.1,52.1l4,0.3l-51.6,81.1l6.1,1.9c48,14.7,71.2,39.3,69.2,73.1
	c-2.6,42.1-38.6,64.9-107,67.7l-6.6,0.3l2.3,6.2c7.8,21,20.2,21.7,24.3,22c34.4,2.1,67.8-9.2,99.3-33.6c31.4-24.3,48.3-51.6,50.1-81
	c2.6-42.8-20.8-73.7-71.6-94.7l-2.8-1.1l27.8-40.6l1.2,0c75.1-1.1,140.9-20.9,195.6-58.8c63.3-43.9,97.6-102.5,102-174.1
	C2448.2,810.6,2415.1,745.4,2345.8,681.8z"/>
<path class="st2" d="M2347.3,270.5c-7.9-0.5-38.8-0.8-46.5-0.8l-3.7,0l20.1,11.1c-2.1,8.2-30.5,28.9-30.5,28.9l5.3,0.8
	c31.3,4.7,81.2,14.9,103.1,30.2c27.7,19.4,40.9,42.6,39.3,69c-0.7,11.7-27.5,26.4-34.4,44.8l-1.5,3.8l3.6,2c3.2,1.9,6.5,2.9,9.6,3.1
	c10.9,0.7,44.2-8.7,53.8-27.9l17.7-34.4l38.6-75.5l-3.9-2.3C2465.2,291.9,2407.8,274.2,2347.3,270.5z"/>
<path class="st3" d="M2207.9,193.4l3,6.8l113.7-80.6l-1.9-3.8c-16.4-33.9-36.1-61.7-58.8-82.6l-3.6-3.3l-95,80l5,4.2
	C2193.8,133.7,2193.2,160.4,2207.9,193.4z"/>
<path class="st2" d="M2207.9,193.4l3,6.8l113.7-80.6l-1.9-3.8c-16.4-33.9-36.1-61.7-58.8-82.6l-3.6-3.3l-95,80l5,4.2
	C2193.8,133.7,2193.2,160.4,2207.9,193.4z"/>
</svg>
