<?xml version="1.0" encoding="UTF-8"?><svg xmlns="http://www.w3.org/2000/svg" viewBox="0 0 707.61 1326.55"><defs><style>.e{fill:#173e52;isolation:isolate;opacity:.91;}</style></defs><g id="a"/><g id="b"><g id="c"><g id="d"><path class="e" d="M276.51,340.9c-2.4,0-4.8,.1-7.4,.1l-2.4,.1-1.4,2c-20.9,29.7-32.7,64.5-35.1,103.6-1.6,25.6,2.5,50,12.2,72.6l-.5,14.9,40.4-193.3h-5.8Z"/><path class="e" d="M194.61,901.9h-31.4l-97.8,52.7,229.9,24.7,96.5-55.7-163.3-18.5,8.8-3.6c47.1-19,79.8-39.6,97.2-61.4,17.4-21.8,31-58.8,40.3-110l10.9-60.8,46.4-268c4.9-27.8,17.7-81.6,38.1-159.9l1.5-5.7-40.7-2.5c-115.9-7.1-211.8,15.9-285.2,68.4-73.2,52.4-113.2,126.5-118.9,220.2-1.5,24.1-31.1,47.2-26.4,72.1l1.5,8.1,122.2-75.2-1.4-3.3c-13.8-31.6-19.9-63-18.1-93.3,6.3-102.3,87.6-149.4,241.8-139.9l19.8,1.2-76.3,439.5c-15.7,87.3-47.6,144.6-94.7,170.5l-.7,.4Z"/><path class="e" d="M531.91,650.4l-55-51.4c-11.2-10.3-44.9-20.4-55.1-30l-6.5-6.2,.2,131.2,32.1,29.4c66.6,61.5,98.5,122.2,94.9,180.4-2.6,42.8-21,77.2-54.6,102.5-33.5,25.2-75.7,36.4-125.5,33.3-19-1.2-36.7-4-52.7-8.4l-.4-.1-174-18.6,11.5,10c34.1,29.7,81.8,47.1,141.8,51.9l4,.3-51.5,80.9,6,1.8c47.8,14.7,71.1,39.2,69,72.9-2.6,42-38.5,64.7-106.7,67.6l-6.6,.3,2.3,6.2c7.8,20.9,20.1,21.7,24.2,21.9,34.3,2.1,67.6-9.2,99.1-33.5,31.4-24.2,48.2-51.4,50-80.8,2.6-42.7-20.8-73.6-71.5-94.4l-2.8-1.1,27.7-40.5h1.2c74.9-1.1,140.5-20.8,195.1-58.7,63.1-43.8,97.4-102.2,101.8-173.7,4.2-64.8-28.9-129.7-98-193.2Z"/><path class="e" d="M533.41,240.1c-7.9-.5-38.7-.8-46.4-.8h-3.7l20.1,11c-2.1,8.2-30.4,28.8-30.4,28.8l5.3,.8c31.2,4.7,81,14.8,102.9,30.1,27.6,19.3,40.8,42.5,39.2,68.9-.7,11.7-27.4,26.3-34.3,44.6l-1.4,3.8,3.6,2c3.2,1.9,6.4,2.9,9.5,3.1,10.8,.7,44.1-8.7,53.6-27.8l17.7-34.3,38.5-75.4-3.9-2.3c-52.7-31.2-109.9-48.9-170.3-52.5Z"/><path class="e" d="M394.41,163.1l3,6.8,113.4-80.4-1.9-3.8c-16.3-33.8-36-61.5-58.6-82.4l-3.6-3.3-94.8,79.8,5,4.2c23.4,19.6,22.8,46.2,37.5,79.1Z"/><path class="e" d="M394.41,163.1l3,6.8,113.4-80.4-1.9-3.8c-16.3-33.8-36-61.5-58.6-82.4l-3.6-3.3-94.8,79.8,5,4.2c23.4,19.6,22.8,46.2,37.5,79.1Z"/></g></g></g></svg>