<?xml version="1.0" encoding="utf-8"?>
<!-- Generator: Adobe Illustrator 26.1.0, SVG Export Plug-In . SVG Version: 6.00 Build 0)  -->
<svg version="1.1" id="katman_1" xmlns="http://www.w3.org/2000/svg" xmlns:xlink="http://www.w3.org/1999/xlink" x="0px" y="0px"
	 viewBox="0 0 500 400" style="enable-background:new 0 0 500 400;" xml:space="preserve">
<style type="text/css">
	.st0{fill:#EDBBCE;}
	.st1{fill:#FFFFFF;}
	.st2{opacity:0.49;fill:url(#SVGID_1_);enable-background:new    ;}
	.st3{opacity:0.49;fill:url(#SVGID_00000087414361931994416860000005640158886918485140_);enable-background:new    ;}
	.st4{fill:#A184BA;}
	.st5{fill:#E4C6FE;}
	.st6{fill:#D2C4DE;}
	.st7{fill:#F0E0FE;}
	.st8{fill:url(#SVGID_00000060748254372539028260000014918310018685224372_);}
	.st9{fill:url(#SVGID_00000151536714129828592160000017639526681700020642_);}
	.st10{fill:url(#SVGID_00000150790431457569821770000014189690454118732220_);}
	.st11{fill:#4E4E4E;}
	.st12{fill:url(#SVGID_00000150781221546789673740000001227901855541315222_);}
	.st13{fill:url(#SVGID_00000013176984984512196270000005223500338906708137_);}
	.st14{fill:url(#SVGID_00000008126229182752409250000016835504979679711894_);}
	.st15{fill:url(#SVGID_00000150787062310399689390000007104113360249140103_);}
	.st16{fill:url(#SVGID_00000173879884167659742630000000683529167558245760_);}
	.st17{fill:url(#SVGID_00000104706775742309308930000009315045954827411850_);}
	.st18{fill:none;}
	.st19{fill:url(#SVGID_00000112595129220079984150000013733518087228774556_);}
	.st20{fill:url(#SVGID_00000166649182910408734000000005064566181054808713_);}
	.st21{fill:#ECDAFE;}
	.st22{opacity:0.74;}
	.st23{opacity:0.57;}
	.st24{fill:url(#SVGID_00000075851240367066611620000015564177786395157124_);}
	.st25{fill:url(#SVGID_00000036951900392515520700000012377395347783150246_);}
	.st26{fill:url(#SVGID_00000103957662817135701490000005955032498859169950_);}
	.st27{fill:url(#SVGID_00000026153494299501309700000000473508054514533536_);}
	.st28{fill:url(#SVGID_00000018208425771558005560000010931369426304670895_);}
	.st29{fill:url(#SVGID_00000131358298214937834940000006105003674004554390_);}
	.st30{fill:url(#SVGID_00000089535502216811936390000016194025247690122118_);}
	.st31{fill:url(#SVGID_00000079446300781250582950000000361732283128199068_);}
	.st32{fill:url(#SVGID_00000062180780553864686480000014201625557819145857_);}
	.st33{fill:url(#SVGID_00000139254777890196614660000012339051026370257322_);}
	.st34{fill:url(#SVGID_00000160910294827499741980000005003873410203420840_);}
	.st35{fill:url(#SVGID_00000046338742591193843530000014625111207508477068_);}
	.st36{opacity:0.46;fill:#E4C2FF;enable-background:new    ;}
	.st37{fill:url(#SVGID_00000094605538258222228990000015244144219193712296_);}
	.st38{fill:url(#SVGID_00000180365197689718980000000012230451369606251689_);}
	.st39{fill:#DFBCFE;}
	.st40{fill:url(#SVGID_00000016755149097187702850000008461009504046991261_);}
	.st41{fill:url(#SVGID_00000144310394078260782610000010856947624847077535_);}
	.st42{fill:url(#SVGID_00000109009769629489174040000008086944679119660728_);}
	.st43{opacity:0.43;}
	.st44{fill:url(#SVGID_00000133507231818313877610000014315282366386094481_);}
	.st45{fill:url(#SVGID_00000161599574579964661240000014019815057246107283_);}
	.st46{fill:url(#SVGID_00000136393568918476019670000011510086925012677528_);}
	.st47{fill:url(#SVGID_00000089571073043985253100000016487157665604530342_);}
	.st48{fill:#9A68C4;}
	.st49{opacity:0.46;fill:#FFFFFF;enable-background:new    ;}
	.st50{fill:url(#SVGID_00000102529326315600434270000009325835199239788182_);}
	.st51{fill:url(#SVGID_00000105392088921096564990000016132947829293515165_);}
	.st52{fill:url(#SVGID_00000067210871488563226750000009201104909517331098_);}
	.st53{fill:url(#SVGID_00000121957947766279456850000014827677633250993057_);}
	.st54{fill:url(#SVGID_00000182500773107577412760000009413403937095059895_);}
	.st55{fill:url(#SVGID_00000010287437178576335180000011380070550268762296_);}
	.st56{fill:url(#SVGID_00000012445790337934899030000001585060162396836741_);}
	.st57{fill:url(#SVGID_00000062872799475232197800000012249225145679110806_);}
	.st58{fill:#E2C1FE;}
	.st59{fill:url(#SVGID_00000053506939207372989740000004835967924032126902_);}
	.st60{fill:url(#SVGID_00000165934786860519056170000004563058152795517863_);}
	.st61{fill:url(#SVGID_00000022555188978579250590000000489039547567242431_);}
	.st62{fill:url(#SVGID_00000176742315428231560230000012555373450214230713_);}
	.st63{fill:url(#SVGID_00000045595655600056394010000005252597900267641224_);}
	.st64{fill:url(#SVGID_00000093172371394636002710000005933845630408420782_);}
	.st65{fill:url(#SVGID_00000042015250618975309340000004542135741100144796_);}
	.st66{fill:#E6CBFE;}
	.st67{fill:url(#SVGID_00000034809077859764826350000014084860259903559605_);}
	.st68{opacity:0.46;}
	.st69{fill:url(#SVGID_00000040534957816976151220000012261195085247287456_);}
	.st70{fill:url(#SVGID_00000059990187926322469400000001014514179336394399_);}
	.st71{fill:url(#SVGID_00000165917994512295275010000003021082584551657649_);}
	.st72{fill:url(#SVGID_00000071558589223012844080000002861459129487387795_);}
	.st73{fill:url(#SVGID_00000024693638661801517540000010551283833713102472_);}
	.st74{fill:url(#SVGID_00000087371016390672971780000000511650386363015067_);}
	.st75{fill:url(#SVGID_00000047755519821011633590000009838249518075685265_);}
	.st76{fill:url(#SVGID_00000049924007069341702720000012525428696831426488_);}
	.st77{fill:url(#SVGID_00000178179203294441342250000009376858962140633002_);}
	.st78{fill:url(#SVGID_00000018934240901896230940000000740900169013203639_);}
	.st79{fill:url(#SVGID_00000063622540813666955810000015794962572380285608_);}
	.st80{fill:url(#SVGID_00000022543290994971582590000014060285503946461853_);}
	.st81{fill:url(#SVGID_00000167368711909688947270000012306470542144041633_);}
	.st82{fill:url(#SVGID_00000106125494968405350870000005894611680346982793_);}
	.st83{fill:url(#SVGID_00000018946481047308031090000002459587930352872107_);}
	.st84{fill:url(#SVGID_00000171722197275783329160000008027546928766835888_);}
	.st85{fill:url(#SVGID_00000152954597376905124200000008306100420065359025_);}
	.st86{fill:url(#SVGID_00000054243992296228761350000000122680071366050724_);}
	.st87{fill:url(#SVGID_00000001654301416485609910000014786354501837735074_);}
	.st88{fill:url(#SVGID_00000039126459173620756980000013524719706301827002_);}
	.st89{fill:url(#SVGID_00000166651482160047326140000009289943724992396938_);}
	.st90{fill:url(#SVGID_00000085210326495535796340000001790955615459258012_);}
	.st91{fill:url(#SVGID_00000057115369746641612810000004508141117084966060_);}
	.st92{fill:url(#SVGID_00000101786818503648817430000015289542998111359381_);}
	.st93{fill:url(#SVGID_00000093169400713151758700000005261201404503279760_);}
	.st94{fill:url(#SVGID_00000007426465734139364910000013328616334605298095_);}
	.st95{fill:url(#SVGID_00000178203612025313031160000002661473402114149549_);}
	.st96{fill:url(#SVGID_00000127751401758082528890000011133344894763321018_);}
	.st97{fill:url(#SVGID_00000094598600847495540370000011872976103120532128_);}
	.st98{fill:url(#SVGID_00000171680764332021606110000000119003268811786374_);}
	.st99{fill:url(#SVGID_00000083057667810932237820000007471163540821985177_);}
	.st100{fill:#FABCAF;}
	.st101{fill:url(#SVGID_00000102539692042165435000000009712928145779060155_);}
	.st102{fill:#FBC9BE;}
	.st103{fill:#71207D;}
	.st104{fill:url(#SVGID_00000183953507981340281530000010721666438626611080_);}
	.st105{fill:url(#SVGID_00000070826286531977669110000008302250310349695904_);}
	.st106{fill:url(#SVGID_00000160912463189620145300000000608872369847022256_);}
	.st107{fill:url(#SVGID_00000054951037559637112940000016822721848110016668_);}
</style>
<g>
	<g id="BACKGROUND">
		<rect class="st0" width="500" height="400"/>
	</g>
	<g id="OBJECTS">
		<polygon class="st1" points="247.8,187.9 247.8,187.9 247.8,187.9 		"/>
		
			<linearGradient id="SVGID_1_" gradientUnits="userSpaceOnUse" x1="268.1309" y1="82.3361" x2="357.7154" y2="15.649" gradientTransform="matrix(1 0 0 -1 0 401)">
			<stop  offset="0" style="stop-color:#4A335E"/>
			<stop  offset="1" style="stop-color:#FBC1B4;stop-opacity:0"/>
		</linearGradient>
		<polygon class="st2" points="318.2,393.3 380.1,351.5 329.8,320.5 285,304 233.1,336.8 248.7,354.7 249.2,354.5 		"/>
		
			<linearGradient id="SVGID_00000170982833811828804160000001076629616717439366_" gradientUnits="userSpaceOnUse" x1="206.8059" y1="66.435" x2="240.569" y2="32.1161" gradientTransform="matrix(1 0 0 -1 0 401)">
			<stop  offset="0" style="stop-color:#4A335E"/>
			<stop  offset="1" style="stop-color:#FBC1B4;stop-opacity:0"/>
		</linearGradient>
		
			<polygon style="opacity:0.49;fill:url(#SVGID_00000170982833811828804160000001076629616717439366_);enable-background:new    ;" points="
			203.3,355.6 220.9,367.3 248.7,354.7 233.1,336.8 		"/>
		<polygon class="st4" points="345.5,338.2 294.1,355.6 236,304.2 287.4,286.8 		"/>
		<path class="st5" d="M285.6,294.6c0.3,0.2,0.2,0.5-0.1,0.6l-36,12.2c-0.4,0.1-0.7,0-1-0.2c-0.3-0.2-0.2-0.5,0.1-0.6l36-12.2
			C284.9,294.3,285.3,294.4,285.6,294.6z"/>
		<path class="st5" d="M288.2,297.2c0.3,0.2,0.2,0.5-0.1,0.6l-36,12.2c-0.4,0.1-0.7,0-1-0.2c-0.2-0.1-0.2-0.3-0.1-0.4
			c0-0.1,0.1-0.1,0.2-0.2l36-12.2C287.5,296.9,287.9,297,288.2,297.2z"/>
		<path class="st5" d="M282.9,303c0.1,0.1,0.2,0.3,0.1,0.4c0,0.1-0.1,0.1-0.2,0.1l-28.4,9.6c-0.3,0.1-0.7,0-0.9-0.2l-0.1-0.1
			c-0.1-0.1-0.2-0.3-0.1-0.4c0-0.1,0.1-0.1,0.2-0.1l28.4-9.6C282.2,302.6,282.5,302.7,282.9,303L282.9,303z"/>
		<path class="st5" d="M285.7,306.5c0.2,0.2,0.2,0.4-0.1,0.5l-27.5,9.3c-0.3,0.1-0.6,0-0.9-0.2l-0.1-0.1c-0.2-0.2-0.2-0.4,0.1-0.5
			l27.5-9.3c0.3-0.1,0.6,0,0.9,0.2L285.7,306.5z"/>
		<path class="st5" d="M280.9,311.4c0.2,0.2,0.2,0.4-0.1,0.4l-20.2,6.8c-0.3,0.1-0.6,0-0.8-0.2l-0.2-0.2c-0.2-0.2-0.2-0.4,0.1-0.4
			l20.2-6.8c0.3-0.1,0.6,0,0.8,0.2L280.9,311.4z"/>
		<path class="st5" d="M302.5,309.9c0.3,0.2,0.2,0.5-0.1,0.6l-36,12.2c-0.4,0.1-0.7,0-1-0.2c-0.3-0.2-0.2-0.5,0.1-0.6l36-12.2
			C301.8,309.6,302.2,309.6,302.5,309.9z"/>
		<path class="st5" d="M305.1,312.5c0.2,0.1,0.2,0.3,0.1,0.4c0,0.1-0.1,0.1-0.2,0.2l-36,12.2c-0.4,0.1-0.7,0-1-0.2
			c-0.2-0.1-0.2-0.3-0.1-0.4c0-0.1,0.1-0.1,0.2-0.2l36-12.2C304.4,312.2,304.8,312.3,305.1,312.5z"/>
		<path class="st5" d="M299.8,318.2c0.2,0.2,0.2,0.4-0.1,0.5l-28.4,9.6c-0.3,0.1-0.7,0-0.9-0.2l-0.1-0.1c-0.2-0.2-0.2-0.4,0.1-0.5
			l28.4-9.6C299.1,317.8,299.4,317.9,299.8,318.2L299.8,318.2z"/>
		<path class="st5" d="M302.6,321.8c0.2,0.2,0.2,0.4-0.1,0.5l-27.5,9.3c-0.3,0.1-0.6,0-0.9-0.2l-0.1-0.1c-0.2-0.2-0.2-0.4,0.1-0.5
			l27.5-9.3c0.3-0.1,0.6,0,0.9,0.2L302.6,321.8z"/>
		<path class="st5" d="M297.8,326.7c0.2,0.2,0.2,0.4-0.1,0.4l-20.2,6.8c-0.3,0.1-0.6,0-0.8-0.2l-0.2-0.2c-0.2-0.2-0.2-0.4,0.1-0.5
			l20.2-6.8c0.3-0.1,0.6,0,0.8,0.2L297.8,326.7z"/>
		<path class="st5" d="M318,325.5c0.3,0.2,0.2,0.5-0.1,0.6l-36,12.2c-0.4,0.1-0.7,0-1-0.2c-0.3-0.2-0.2-0.5,0.1-0.6l36-12.2
			C317.3,325.2,317.7,325.3,318,325.5z"/>
		<path class="st5" d="M320.5,328.1c0.1,0.1,0.2,0.3,0.1,0.4c0,0.1-0.1,0.1-0.2,0.1l-36,12.2c-0.3,0.1-0.7,0-1-0.2
			c-0.3-0.2-0.2-0.5,0.1-0.6l36-12.2C319.9,327.8,320.3,327.9,320.5,328.1z"/>
		<path class="st5" d="M315.3,333.8c0.1,0.1,0.2,0.3,0.1,0.4c0,0.1-0.1,0.1-0.2,0.1l-28.4,9.6c-0.3,0.1-0.7,0-0.9-0.2l-0.1-0.1
			c-0.1-0.1-0.2-0.3-0.1-0.4c0-0.1,0.1-0.1,0.2-0.1l28.4-9.6C314.6,333.5,314.9,333.6,315.3,333.8L315.3,333.8z"/>
		<path class="st5" d="M318,337.4c0.2,0.2,0.2,0.4-0.1,0.5l-27.5,9.3c-0.3,0.1-0.6,0-0.9-0.2l-0.1-0.1c-0.2-0.2-0.2-0.4,0.1-0.5
			l27.5-9.3c0.3-0.1,0.6,0,0.9,0.2L318,337.4z"/>
		<path class="st5" d="M313.3,342.3c0.2,0.2,0.2,0.4-0.1,0.4l-20.2,6.8c-0.3,0.1-0.6,0-0.8-0.2l-0.2-0.2c-0.2-0.2-0.2-0.4,0.1-0.4
			l20.2-6.8c0.3-0.1,0.6,0,0.8,0.2L313.3,342.3z"/>
		<polygon class="st6" points="333.7,340.7 289.7,372.4 219,340.3 263.1,308.6 		"/>
		<path class="st1" d="M263.7,316.6c0.3,0.1,0.3,0.4,0.1,0.6l-30.8,22.2c-0.3,0.2-0.7,0.2-1,0.1c-0.3-0.1-0.3-0.4-0.1-0.6l30.8-22.2
			C262.9,316.5,263.3,316.4,263.7,316.6z"/>
		<path class="st1" d="M266.9,318.3c0.3,0.1,0.3,0.4,0.1,0.6l-30.8,22.2c-0.3,0.2-0.7,0.3-1.1,0.1c-0.2-0.1-0.2-0.2-0.2-0.4
			c0-0.1,0.1-0.1,0.2-0.2l30.8-22.2C266.2,318.2,266.5,318.2,266.9,318.3z"/>
		<path class="st1" d="M263.5,325.3c0.2,0,0.3,0.2,0.2,0.3c0,0.1-0.1,0.2-0.2,0.2l-24.4,17.5c-0.3,0.2-0.6,0.2-0.9,0.1l-0.1-0.1
			c-0.3-0.1-0.3-0.4-0.1-0.5l24.4-17.5c0.3-0.2,0.6-0.2,0.9-0.1L263.5,325.3z"/>
		<path class="st1" d="M267.2,327.9c0.2,0,0.2,0.2,0.2,0.4c0,0.1-0.1,0.1-0.1,0.2l-23.6,17c-0.3,0.2-0.6,0.2-0.9,0.1l-0.1-0.1
			c-0.2,0-0.2-0.2-0.2-0.4c0-0.1,0.1-0.1,0.1-0.2l23.6-16.9C266.5,327.8,266.9,327.8,267.2,327.9L267.2,327.9z"/>
		<path class="st1" d="M264.1,334c0.2,0.1,0.3,0.3,0.1,0.5l-17.3,12.4c-0.2,0.1-0.5,0.2-0.8,0.1l-0.3-0.1c-0.2-0.1-0.3-0.3-0.1-0.5
			l17.3-12.4c0.2-0.1,0.5-0.2,0.8-0.1L264.1,334z"/>
		<path class="st1" d="M284.3,326.2c0.3,0.1,0.3,0.4,0.1,0.6L253.5,349c-0.3,0.2-0.7,0.3-1.1,0.1c-0.3-0.1-0.3-0.4,0-0.6l30.8-22.2
			C283.6,326.1,283.9,326.1,284.3,326.2z"/>
		<path class="st1" d="M287.5,328c0.2,0,0.3,0.2,0.2,0.4c0,0.1-0.1,0.2-0.2,0.2l-30.8,22.2c-0.3,0.2-0.7,0.2-1,0.1
			c-0.3-0.1-0.3-0.4-0.1-0.6l30.8-22.2C286.8,327.9,287.2,327.8,287.5,328z"/>
		<path class="st1" d="M284.1,335c0.3,0.1,0.3,0.4,0.1,0.5l-24.4,17.5c-0.3,0.2-0.6,0.2-0.9,0.1l-0.1-0.1c-0.3-0.1-0.3-0.4,0-0.5
			l24.4-17.5C283.4,334.8,283.8,334.8,284.1,335L284.1,335z"/>
		<path class="st1" d="M287.9,337.6c0.1,0.1,0.2,0.2,0.2,0.4c0,0.1-0.1,0.1-0.2,0.2l-23.6,16.9c-0.3,0.2-0.6,0.2-0.9,0.1l-0.1-0.1
			c-0.3-0.1-0.3-0.4-0.1-0.5l23.6-16.9c0.3-0.2,0.6-0.2,0.9-0.1L287.9,337.6z"/>
		<path class="st1" d="M284.8,343.7c0.1,0,0.2,0.2,0.1,0.3c0,0.1-0.1,0.1-0.1,0.1l-17.3,12.4c-0.2,0.1-0.5,0.2-0.8,0.1l-0.3-0.1
			c-0.1,0-0.2-0.2-0.1-0.3c0-0.1,0.1-0.1,0.1-0.1l17.2-12.4c0.2-0.1,0.5-0.2,0.8-0.1L284.8,343.7z"/>
		<path class="st1" d="M303.6,336.6c0.3,0.1,0.3,0.4,0.1,0.6l-30.8,22.2c-0.3,0.2-0.7,0.3-1.1,0.1c-0.3-0.1-0.3-0.4-0.1-0.6
			l30.8-22.2C302.9,336.5,303.3,336.5,303.6,336.6z"/>
		<path class="st1" d="M306.9,338.4c0.3,0.1,0.3,0.4,0,0.6l-30.8,22.2c-0.3,0.2-0.7,0.2-1,0.1c-0.3-0.1-0.3-0.4-0.1-0.6l30.8-22.2
			C306.1,338.3,306.5,338.2,306.9,338.4z"/>
		<path class="st1" d="M303.5,345.4c0.2,0,0.2,0.2,0.2,0.4c0,0.1-0.1,0.1-0.1,0.2l-24.4,17.5c-0.3,0.2-0.6,0.2-0.9,0.1l-0.1-0.1
			c-0.3-0.1-0.3-0.4-0.1-0.5l24.4-17.5c0.3-0.2,0.6-0.2,0.9-0.1L303.5,345.4z"/>
		<path class="st1" d="M307.2,348c0.3,0.1,0.3,0.3,0.1,0.5l-23.6,17c-0.3,0.2-0.6,0.2-0.9,0.1l-0.1-0.1c-0.3-0.1-0.3-0.3,0-0.5
			l23.6-16.9c0.3-0.2,0.6-0.2,0.9-0.1L307.2,348z"/>
		<path class="st1" d="M304.1,354c0.2,0.1,0.3,0.3,0,0.5l-17.3,12.4c-0.2,0.1-0.5,0.2-0.8,0.1l-0.3-0.1c-0.2-0.1-0.3-0.3-0.1-0.5
			l17.4-12.4c0.2-0.2,0.5-0.2,0.8-0.1L304.1,354z"/>
		<polygon class="st1" points="329.8,320.5 282.9,347.8 215.7,309 262.6,281.8 		"/>
		<path class="st7" d="M262.4,289.7c0.3,0.2,0.3,0.4,0,0.6l-32.8,19.1c-0.3,0.2-0.8,0.2-1.1,0c-0.2-0.1-0.3-0.3-0.2-0.4
			c0-0.1,0.1-0.2,0.2-0.2l32.9-19.1C261.7,289.6,262.1,289.6,262.4,289.7z"/>
		<path class="st7" d="M265.4,291.8c0.3,0.2,0.3,0.4,0,0.6l-32.8,19.1c-0.3,0.2-0.7,0.2-1.1,0c-0.3-0.2-0.3-0.4,0-0.6l32.8-19.1
			C264.7,291.7,265.1,291.7,265.4,291.8z"/>
		<path class="st7" d="M261.4,298.5c0.3,0.2,0.3,0.4,0,0.5l-26,15.1c-0.3,0.2-0.6,0.2-0.9,0l-0.1-0.1c-0.1-0.1-0.2-0.2-0.2-0.4
			c0-0.1,0.1-0.1,0.2-0.2l26-15c0.3-0.1,0.6-0.1,0.9,0H261.4z"/>
		<path class="st7" d="M264.9,301.4c0.1,0.1,0.2,0.2,0.2,0.4c0,0.1-0.1,0.1-0.2,0.2l-25.1,14.6c-0.3,0.1-0.6,0.1-0.9,0l-0.1-0.1
			c-0.3-0.2-0.3-0.4,0-0.5l25.1-14.6c0.3-0.1,0.6-0.1,0.9,0L264.9,301.4z"/>
		<path class="st7" d="M261.2,307.2c0.2,0.1,0.2,0.3,0,0.5l-18.4,10.7c-0.2,0.1-0.5,0.1-0.8,0l-0.3-0.1c-0.2-0.1-0.2-0.3,0-0.5
			l18.4-10.7c0.2-0.1,0.5-0.1,0.8,0L261.2,307.2z"/>
		<path class="st7" d="M282,301.4c0.3,0.2,0.3,0.4,0,0.6L249.2,321c-0.3,0.2-0.7,0.2-1.1,0c-0.2-0.1-0.3-0.2-0.2-0.4
			c0-0.1,0.1-0.2,0.2-0.2l32.8-19.1C281.2,301.2,281.7,301.2,282,301.4z"/>
		<path class="st7" d="M285.1,303.4c0.3,0.2,0.3,0.4,0,0.6l-32.8,19.1c-0.3,0.2-0.7,0.2-1,0c-0.3-0.2-0.3-0.4,0-0.6l32.8-19.1
			C284.4,303.3,284.7,303.3,285.1,303.4z"/>
		<path class="st7" d="M281,310.1c0.3,0.2,0.3,0.4,0,0.5L255,325.7c-0.3,0.1-0.6,0.1-0.9,0l-0.1-0.1c-0.3-0.2-0.3-0.4,0-0.5l26-15.1
			c0.3-0.1,0.6-0.1,0.9,0L281,310.1z"/>
		<path class="st7" d="M284.5,313c0.1,0,0.2,0.2,0.2,0.3c0,0.1-0.1,0.2-0.2,0.2l-25.1,14.6c-0.3,0.1-0.6,0.1-0.9,0l-0.1-0.1
			c-0.3-0.2-0.3-0.4,0-0.5l25.1-14.6c0.3-0.1,0.6-0.1,0.9,0L284.5,313z"/>
		<path class="st7" d="M280.8,318.8c0.1,0,0.2,0.2,0.1,0.3c0,0.1-0.1,0.1-0.1,0.1l-18.4,10.7c-0.2,0.1-0.5,0.1-0.8,0l-0.3-0.2
			c-0.1,0-0.2-0.2-0.1-0.3c0-0.1,0.1-0.1,0.1-0.1l18.4-10.7c0.2-0.1,0.5-0.1,0.8,0L280.8,318.8z"/>
		<path class="st7" d="M300.3,313.6c0.3,0.2,0.3,0.4,0,0.6l-32.8,19.1c-0.3,0.2-0.8,0.2-1.1,0c-0.2-0.1-0.3-0.2-0.2-0.4
			c0-0.1,0.1-0.2,0.2-0.2l32.8-19.1C299.5,313.5,299.9,313.4,300.3,313.6z"/>
		<path class="st7" d="M303.3,315.7c0.3,0.2,0.3,0.4,0,0.6l-32.8,19.1c-0.3,0.2-0.7,0.2-1,0c-0.3-0.2-0.3-0.4,0-0.6l32.8-19.1
			C302.6,315.5,303,315.5,303.3,315.7z"/>
		<path class="st7" d="M299.3,322.3c0.2,0.1,0.2,0.2,0.2,0.4c0,0.1-0.1,0.1-0.2,0.2l-26,15.1c-0.3,0.1-0.6,0.1-0.9,0l-0.1-0.1
			c-0.2-0.1-0.2-0.2-0.2-0.4c0-0.1,0.1-0.1,0.2-0.2l26-15.1c0.3-0.1,0.6-0.1,0.9,0L299.3,322.3z"/>
		<path class="st7" d="M302.7,325.2c0.3,0.2,0.3,0.4,0,0.5l-25.1,14.6c-0.3,0.2-0.6,0.2-0.9,0l-0.1-0.1c-0.1,0-0.2-0.2-0.2-0.3
			c0-0.1,0.1-0.2,0.2-0.2l25.1-14.6c0.3-0.1,0.6-0.1,0.9,0L302.7,325.2z"/>
		<path class="st7" d="M299,331c0.1,0,0.2,0.2,0.1,0.3c0,0.1-0.1,0.1-0.1,0.1l-18.4,10.7c-0.2,0.1-0.5,0.1-0.8,0l-0.3-0.2
			c-0.2-0.1-0.2-0.3,0-0.4l18.4-10.7c0.2-0.1,0.5-0.1,0.8,0L299,331z"/>
		<g>
			<path class="st7" d="M303.2,291.9c13.9,8,13.9,21,0.2,29c-13.8,8-36.2,8-50,0c-13.9-8-13.9-21-0.1-29S289.3,283.9,303.2,291.9z"
				/>
		</g>
		<g>
			
				<linearGradient id="SVGID_00000013181082298242565350000004335505699162459826_" gradientUnits="userSpaceOnUse" x1="243.8371" y1="104.4308" x2="312.5658" y2="104.4308" gradientTransform="matrix(1 0 0 -1 0 401)">
				<stop  offset="0" style="stop-color:#EC7BAD"/>
				<stop  offset="1" style="stop-color:#FBC1B4"/>
			</linearGradient>
			<path style="fill:url(#SVGID_00000013181082298242565350000004335505699162459826_);" d="M312.6,301.4c0-5.1-3.4-10.3-10.1-14.2
				c-0.8-0.5-1.7-0.9-2.5-1.3l-0.9-0.4c-0.5-0.2-1-0.5-1.5-0.7l-0.3-0.1l-0.6-0.2c-0.7-0.3-1.4-0.5-2.1-0.7l-0.7-0.2l-0.5-0.1
				c-0.3-0.1-0.6-0.1-0.9-0.2c-0.7-0.2-1.4-0.4-2.2-0.5l-0.6-0.1l-0.9-0.2l-1.8-0.3l-0.7-0.1l-0.8-0.1l-1.7-0.2l-0.8-0.1h-0.8
				l-1.8-0.1c-0.3,0-0.6,0-0.9,0h-0.7c-0.6,0-1.3,0-1.9,0h-0.9h-0.5c-0.8,0-1.6,0.1-2.3,0.2l-0.9,0.1l-0.4,0.1l-0.7,0.1
				c-0.8,0.1-1.6,0.2-2.4,0.3l-0.6,0.1l-0.3,0.1c-0.4,0.1-0.7,0.2-1.1,0.2l-1.9,0.4l-1.4,0.4c-0.6,0.2-1.2,0.3-1.8,0.5l-0.4,0.1
				c-0.7,0.2-1.4,0.5-2.1,0.7l-0.3,0.1c-0.8,0.3-1.5,0.6-2.2,0.9l-0.6,0.3c-0.8,0.4-1.6,0.8-2.3,1.2l-0.4,0.3l-0.4,0.2l-0.6,0.4
				l-0.5,0.4l-0.6,0.4l-0.5,0.4c-0.2,0.1-0.4,0.3-0.5,0.4l-0.5,0.4l-0.5,0.4c-0.1,0.1-0.1,0.1-0.2,0.2l-0.2,0.2
				c-0.3,0.3-0.5,0.5-0.8,0.8l-0.3,0.3c-0.3,0.3-0.6,0.7-0.9,1.1l0,0c-0.1,0.1-0.1,0.2-0.2,0.2c-0.1,0.1-0.3,0.4-0.5,0.7
				s-0.2,0.3-0.2,0.4c-0.1,0.1-0.3,0.4-0.4,0.6l-0.1,0.2c0,0.1-0.1,0.2-0.1,0.3c-0.1,0.2-0.2,0.3-0.3,0.5l-0.2,0.4
				c-0.1,0.2-0.2,0.3-0.2,0.5c0,0.1-0.1,0.2-0.1,0.2c0,0.1-0.1,0.1-0.1,0.2l-0.2,0.5l-0.1,0.5c0,0.2-0.1,0.3-0.1,0.5
				c0,0.1-0.1,0.2-0.1,0.3c0,0.1,0,0.1,0,0.2c0,0.2-0.1,0.3-0.1,0.5c0,0.2,0,0.3,0,0.5v0.5c0,0.1,0,0.2,0,0.3s0,0.2,0,0.3v10.2
				c0-0.2,0-0.4,0-0.6c0-0.2,0-0.3,0-0.5s0-0.3,0.1-0.4c0.1-0.2,0-0.3,0.1-0.5l0.1-0.4c0-0.2,0.1-0.3,0.1-0.5l0.1-0.4l0.2-0.5
				c0-0.2,0.1-0.3,0.2-0.4s0.1-0.3,0.2-0.5s0.1-0.3,0.2-0.4s0.2-0.3,0.3-0.5l0.2-0.4c0.1-0.2,0.3-0.4,0.4-0.6l0.2-0.4
				c0.2-0.2,0.3-0.5,0.5-0.7l0.2-0.3c0.3-0.3,0.6-0.7,0.9-1l0.3-0.3l0.8-0.8l0.4-0.3l0.5-0.4l0.5-0.4l0.5-0.4l0.5-0.4
				c0.2-0.1,0.4-0.3,0.6-0.4l0.5-0.4l0.6-0.4c0.3-0.2,0.5-0.3,0.8-0.5c0.7-0.4,1.5-0.8,2.3-1.2l0.6-0.3c0.7-0.3,1.5-0.7,2.2-0.9
				l0.3-0.1c0.8-0.3,1.6-0.6,2.5-0.8c0.6-0.2,1.2-0.3,1.8-0.5c0.6-0.2,0.9-0.3,1.4-0.4c0.5-0.1,1.3-0.3,1.9-0.4l1.4-0.3l0.6-0.1
				c0.8-0.1,1.6-0.2,2.4-0.3l0.7-0.1c0.5-0.1,0.9-0.1,1.4-0.1c0.8-0.1,1.6-0.1,2.3-0.2h1.5h1.9c0.5,0,1.1,0,1.6,0
				c0.5,0,1.2,0,1.7,0.1c0.6,0.1,1.1,0.1,1.6,0.1c0.5,0,1.2,0.1,1.7,0.2l1.5,0.2c0.6,0.1,1.2,0.2,1.8,0.3l1.4,0.3
				c0.7,0.2,1.4,0.3,2.2,0.5c0.5,0.1,0.9,0.2,1.4,0.4l0.7,0.2c0.7,0.2,1.4,0.5,2.1,0.7l0.6,0.2c0.6,0.2,1.2,0.5,1.8,0.8
				c0.3,0.1,0.6,0.3,0.9,0.4c0.9,0.4,1.7,0.8,2.5,1.3c2.3,1.3,4.4,2.9,6.2,4.9c1,1.1,1.9,2.3,2.5,3.6c0.2,0.3,0.3,0.6,0.4,0.9
				c0.3,0.6,0.5,1.2,0.6,1.9c0.1,0.3,0.1,0.6,0.2,1c0.1,0.6,0.2,1.3,0.2,1.9l0,0L312.6,301.4z"/>
			
				<linearGradient id="SVGID_00000179648507556267194670000004651604837806029969_" gradientUnits="userSpaceOnUse" x1="241.9081" y1="84.2034" x2="314.5565" y2="84.2034" gradientTransform="matrix(1 0 0 -1 0 401)">
				<stop  offset="0" style="stop-color:#EC7BAD"/>
				<stop  offset="1" style="stop-color:#FBC1B4"/>
			</linearGradient>
			<path style="fill:url(#SVGID_00000179648507556267194670000004651604837806029969_);" d="M314.6,301.4c0,0.2,0,0.4,0,0.6v0.5
				l-0.1,0.5c0,0.2,0,0.4-0.1,0.5l-0.1,0.5l-0.1,0.5c0,0.2-0.1,0.3-0.1,0.5c-0.1,0.2-0.1,0.3-0.2,0.5c-0.1,0.2-0.1,0.3-0.2,0.5
				l-0.2,0.5l-0.2,0.5c-0.1,0.2-0.2,0.4-0.3,0.5l-0.2,0.4c-0.1,0.2-0.3,0.4-0.4,0.6l-0.3,0.4c-0.2,0.2-0.3,0.5-0.5,0.7l-0.2,0.3
				c-0.3,0.4-0.6,0.7-0.9,1.1l-0.3,0.3c-0.3,0.3-0.5,0.5-0.8,0.8l-0.4,0.4l-0.5,0.5l-0.5,0.4l-0.6,0.4l-0.5,0.4l-0.6,0.4l-0.6,0.4
				c-0.2,0.1-0.4,0.3-0.7,0.4s-0.5,0.3-0.8,0.5c-0.8,0.5-1.6,0.9-2.4,1.3l-0.7,0.3c-0.8,0.3-1.5,0.7-2.3,1l-0.3,0.1
				c-0.9,0.3-1.7,0.6-2.6,0.9c-0.6,0.2-1.2,0.4-1.9,0.5s-0.9,0.3-1.4,0.4c-0.7,0.2-1.3,0.3-2,0.4c-0.5,0.1-1,0.2-1.5,0.3l-0.6,0.1
				c-0.8,0.1-1.7,0.3-2.5,0.4l-0.7,0.1c-1,0.1-2,0.2-3,0.2h-0.5c-0.7,0-1.3,0-2,0.1c-0.7,0.1-1.3,0-2,0h-1.7l-1.9-0.1l-1.7-0.1
				l-1.8-0.2c-0.5-0.1-1.1-0.1-1.6-0.2s-1.3-0.2-1.9-0.3c-0.6-0.1-1.3-0.3-2-0.4l-0.5-0.1c-0.9-0.2-1.8-0.5-2.7-0.7l-0.8-0.2
				c-0.8-0.2-1.5-0.5-2.2-0.8c-0.2-0.1-0.4-0.1-0.6-0.2c-0.7-0.3-1.3-0.5-1.9-0.8c-0.3-0.1-0.6-0.3-0.9-0.4
				c-0.9-0.4-1.8-0.9-2.7-1.4c-7.1-4.1-10.7-9.6-10.7-15v10.2c0,5.4,3.6,10.9,10.7,15c0.9,0.5,1.7,0.9,2.7,1.4
				c0.3,0.2,0.6,0.3,0.9,0.4c0.5,0.2,1.1,0.5,1.6,0.7l0.3,0.1l0.6,0.2c0.7,0.3,1.5,0.5,2.2,0.8l0.8,0.2l0.5,0.2
				c0.7,0.2,1.5,0.4,2.2,0.6l0.5,0.1c0.4,0.1,0.7,0.2,1.1,0.2c0.4,0.1,0.6,0.1,0.9,0.2l1.9,0.3c0.3,0,0.5,0.1,0.8,0.1
				s0.6,0.1,0.9,0.1c0.6,0.1,1.2,0.1,1.8,0.2l0.9,0.1h0.8c0.6,0,1.2,0.1,1.9,0.1l0.9,0.1c0.2,0,0.5,0,0.7,0h3h1h0.6
				c0.8,0,1.7-0.1,2.5-0.2h0.5l0.7-0.1c0.8-0.1,1.7-0.2,2.5-0.3l0.6-0.1l0.3-0.1c0.4-0.1,0.8-0.2,1.2-0.3c0.7-0.1,1.3-0.3,2-0.4
				l1.4-0.4c0.6-0.2,1.3-0.3,1.9-0.5l0.4-0.1c0.7-0.2,1.5-0.5,2.2-0.8c0.1,0,0.2-0.1,0.3-0.1c0.8-0.3,1.6-0.6,2.3-1l0.7-0.3
				c0.8-0.4,1.7-0.8,2.5-1.3l0.4-0.3c0.1-0.1,0.3-0.2,0.4-0.3l0.7-0.4l0.6-0.4l0.6-0.4l0.5-0.4l0.6-0.4l0.5-0.4l0.5-0.4l0.2-0.2
				l0.2-0.2c0.3-0.3,0.6-0.5,0.8-0.8l0.3-0.3c0.3-0.4,0.6-0.7,0.9-1.1l0,0c0.1-0.1,0.1-0.2,0.2-0.3l0.5-0.7c0.1-0.1,0.2-0.3,0.3-0.4
				c0.1-0.1,0.3-0.4,0.4-0.7l0.1-0.2c0-0.1,0.1-0.2,0.1-0.3c0.1-0.1,0.2-0.4,0.3-0.5s0.2-0.3,0.2-0.5c0.1-0.2,0.2-0.4,0.2-0.6
				l0.1-0.2c0-0.1,0-0.2,0.1-0.2c0.1-0.2,0.1-0.3,0.2-0.5l0.1-0.5c0.1-0.2,0.1-0.4,0.1-0.5c0-0.1,0.1-0.2,0.1-0.3s0-0.1,0-0.2
				c0-0.2,0.1-0.4,0.1-0.5l0.1-0.5c0-0.2,0-0.4,0-0.5v-0.3v-0.5l0,0L314.6,301.4z"/>
			<path class="st1" d="M303.8,286.4c14.2,8.2,14.3,21.6,0.2,29.8c-14.1,8.2-37.2,8.2-51.4,0c-14.2-8.2-14.3-21.5-0.2-29.8
				S289.6,278.2,303.8,286.4z M254,315.4c13.5,7.8,35.3,7.8,48.7,0c13.4-7.8,13.3-20.4-0.2-28.2s-35.3-7.8-48.7,0
				C240.5,295,240.5,307.6,254,315.4"/>
		</g>
		<g>
			
				<linearGradient id="SVGID_00000013180893247103580640000010344019588107359904_" gradientUnits="userSpaceOnUse" x1="219.4466" y1="69.4251" x2="256.9587" y2="69.4251" gradientTransform="matrix(1 0 0 -1 0 401)">
				<stop  offset="0" style="stop-color:#53326C"/>
				<stop  offset="1" style="stop-color:#BA6AB5"/>
			</linearGradient>
			<path style="fill:url(#SVGID_00000013180893247103580640000010344019588107359904_);" d="M257,324.5c0-0.1,0-0.1,0-0.2
				c0-0.1,0-0.1,0-0.2c0-0.1,0-0.1,0-0.2v-0.2l0,0v-0.2v-0.2c0-0.1,0-0.1,0-0.2s0-0.1,0-0.2c0-0.1,0-0.1,0-0.2l0,0l0,0l-0.1-0.2
				l-0.1-0.2l-0.1-0.2c0-0.1-0.1-0.1-0.1-0.2c0,0,0-0.1-0.1-0.1l0,0l0,0c0-0.1,0-0.1-0.1-0.2l-0.1-0.2c0-0.1-0.1-0.2-0.1-0.2
				c0-0.1-0.1-0.2-0.1-0.2l0,0l0,0c-0.1-0.2-0.2-0.3-0.3-0.4c-0.2-0.2-0.4-0.3-0.6-0.5l-0.2-0.2l-0.1-0.2l-0.1-0.2l-0.1-0.2l0,0l0,0
				l-0.1-0.1l-0.2-0.2l-0.2-0.1l-0.2-0.2l-0.1-0.1l0,0l-0.1-0.1l-0.2-0.1l-0.2-0.1l-0.2-0.1l-0.2-0.1l0,0l-0.1-0.1l-0.2-0.1
				l-0.2-0.1l-0.1-0.1l-0.2-0.1l0,0h-0.1h-0.2h-0.2h-0.2h-0.5h-0.2l0,0l-0.2,0.1c-0.1,0-0.2,0.1-0.3,0.1l-31.4,17.9
				c0.2-0.1,0.4-0.2,0.5-0.2l0,0c0.2,0,0.4,0,0.6,0l0,0c0.2,0,0.5,0.1,0.7,0.2l0,0c0.3,0.1,0.5,0.2,0.7,0.3c0.3,0.2,0.5,0.3,0.7,0.5
				l0,0c0.2,0.2,0.5,0.4,0.7,0.6l0,0c0.2,0.2,0.4,0.5,0.6,0.7l0,0c0.2,0.3,0.4,0.5,0.5,0.8l0,0c0.2,0.3,0.3,0.6,0.4,0.9l0,0
				c0.1,0.3,0.2,0.6,0.3,0.9l0,0c0.1,0.3,0.2,0.6,0.2,0.9l0,0c0,0.3,0.1,0.6,0.1,0.9c0,0.3,0,0.5-0.1,0.8l0,0c0,0.2-0.1,0.4-0.2,0.7
				l0,0c-0.1,0.2-0.2,0.3-0.3,0.4l-0.1,0.1c-0.1,0.1-0.3,0.2-0.4,0.3l0,0l31.2-18.1c0.1-0.1,0.3-0.2,0.4-0.3l0.1-0.1l0.1-0.2
				l0.1-0.3l0,0l0,0c0-0.1,0.1-0.1,0.1-0.2c0-0.1,0.1-0.1,0.1-0.2c0-0.1,0-0.1,0-0.2c0,0,0-0.1,0-0.1l0,0c0,0,0-0.1,0-0.1v-0.2
				c0-0.1,0-0.1,0-0.2c0-0.1,0-0.1,0-0.2c0-0.1,0-0.1,0-0.2l0,0L257,324.5z"/>
			<path class="st11" d="M222.1,336.4c2.2,1.4,3.5,3.8,3.7,6.4c0,2.3-1.7,3.3-3.7,2.1c-2.2-1.4-3.6-3.8-3.7-6.4
				C218.4,336.2,220,335.2,222.1,336.4z"/>
		</g>
		<g>
			
				<linearGradient id="SVGID_00000039107744638673231730000009090686236364340660_" gradientUnits="userSpaceOnUse" x1="199.4917" y1="59.0826" x2="243.9788" y2="59.0826" gradientTransform="matrix(1 0 0 -1 0 401)">
				<stop  offset="0" style="stop-color:#EC7BAD"/>
				<stop  offset="1" style="stop-color:#FBC1B4"/>
			</linearGradient>
			<path style="fill:url(#SVGID_00000039107744638673231730000009090686236364340660_);" d="M244,335c0-0.1,0-0.2,0-0.3
				c0,0,0-0.1,0-0.1v-0.1c0,0,0-0.1,0-0.1v-0.3c0-0.1,0-0.2,0-0.3l0,0c0-0.1,0-0.2-0.1-0.3l-0.1-0.3c0,0,0-0.1,0-0.1v-0.1v-0.1
				c0-0.1-0.1-0.2-0.1-0.3c0-0.1,0-0.2-0.1-0.2v-0.1l-0.1-0.3l-0.1-0.3v-0.1l0,0l-0.1-0.2l-0.1-0.3c0-0.1-0.1-0.1-0.1-0.2l0,0l0,0
				l-0.1-0.3l-0.2-0.3l0,0v-0.1l-0.1-0.3c0-0.1-0.1-0.2-0.2-0.3l-0.1-0.2v-0.1l-0.2-0.3l-0.3-0.4v-0.1c-0.1-0.2-0.3-0.4-0.4-0.5l0,0
				l-0.3-0.3l-0.2-0.3l0,0l-0.2-0.3l-0.2-0.3l0,0v-0.1l-0.2-0.2l-0.3-0.3l-0.1-0.1l-0.1-0.1l-0.1-0.1l-0.3-0.2l-0.1-0.1h-0.1
				l-0.1-0.1l-0.3-0.2l-0.2-0.1l0,0l0,0l-0.3-0.2l-0.3-0.2h-0.1l-0.2-0.1l-0.2-0.1l-0.2-0.1l0,0l0,0l-0.2-0.1l-0.3-0.1h-0.1h-0.2
				c-0.1,0-0.2-0.1-0.3-0.1h-0.1h-0.1h-0.3h-0.2h-0.7h-0.3l0,0h-0.1c-0.1,0-0.2,0.1-0.3,0.1l0,0c-0.2,0.1-0.3,0.1-0.5,0.2
				l-34.2,19.8c0.2-0.1,0.3-0.2,0.5-0.2l0.4-0.1h0.1c0.2,0,0.3-0.1,0.5-0.1h0.6c0.2,0,0.3,0,0.5,0.1l0,0c0.2,0,0.4,0.1,0.5,0.1l0,0
				l0.6,0.2l0,0l0.6,0.3c0.2,0.1,0.4,0.2,0.6,0.4l0,0l0.5,0.4l0.1,0.1c0.2,0.1,0.3,0.3,0.5,0.4h0.1l0.5,0.5l0,0
				c0.2,0.2,0.3,0.4,0.5,0.6l0,0c0.2,0.2,0.3,0.4,0.5,0.6l0,0c0.2,0.2,0.3,0.4,0.4,0.6l0.3,0.4l0.2,0.3c0,0,0,0.1,0.1,0.2
				s0.2,0.4,0.3,0.6v0.1c0.1,0.2,0.2,0.5,0.3,0.7l0,0c0.1,0.2,0.2,0.5,0.3,0.7l0,0c0.1,0.2,0.2,0.5,0.2,0.7l0,0
				c0.1,0.2,0.1,0.5,0.2,0.7v0.1c0,0.2,0.1,0.5,0.1,0.7l0,0c0,0.2,0.1,0.5,0.1,0.7v0.1c0,0.2,0,0.5,0,0.7c0,0.2,0,0.4,0,0.7v0.1
				c0,0.2,0,0.4-0.1,0.6v0.1c0,0.2-0.1,0.3-0.1,0.5c0,0,0,0.1,0,0.1c-0.1,0.1-0.1,0.3-0.2,0.4c-0.1,0.1,0,0,0,0
				c-0.1,0.2-0.1,0.3-0.2,0.4c-0.1,0.2-0.3,0.4-0.4,0.5c0,0-0.1,0.1-0.1,0.1c-0.2,0.1-0.3,0.3-0.5,0.4l33.8-20
				c0.2-0.1,0.4-0.2,0.5-0.4l0.1-0.1c0.2-0.2,0.3-0.3,0.4-0.5l0,0c0.1-0.1,0.2-0.3,0.2-0.4l0,0l0,0c0-0.1,0.1-0.2,0.1-0.3l0.1-0.2
				c0,0,0-0.1,0-0.1v-0.1c0-0.1,0.1-0.2,0.1-0.3c0,0,0-0.1,0-0.1v-0.1c0,0,0-0.1,0-0.1c0-0.1,0-0.2,0-0.3s0-0.1,0-0.2V336
				c0-0.1,0-0.2,0-0.3c0-0.1,0-0.2,0-0.3l0,0C243.9,335.3,243.9,335.2,244,335z"/>
			
				<linearGradient id="SVGID_00000142897578526090633320000014677439579295026823_" gradientUnits="userSpaceOnUse" x1="197.7262" y1="49.335" x2="209.8124" y2="49.335" gradientTransform="matrix(1 0 0 -1 0 401)">
				<stop  offset="0" style="stop-color:#EC7BAD"/>
				<stop  offset="1" style="stop-color:#FBC1B4"/>
			</linearGradient>
			<path style="fill:url(#SVGID_00000142897578526090633320000014677439579295026823_);" d="M203.8,344.7c3.6,2.3,5.8,6.2,6,10.4
				c0,3.8-2.7,5.4-6.1,3.5c-3.6-2.3-5.8-6.2-6-10.4C197.7,344.3,200.5,342.8,203.8,344.7z"/>
		</g>
		
			<linearGradient id="SVGID_00000111193837240210185350000000730049250076642945_" gradientUnits="userSpaceOnUse" x1="251.0658" y1="164.3902" x2="270.1597" y2="136.9917" gradientTransform="matrix(1 0 0 -1 0 401)">
			<stop  offset="0" style="stop-color:#4A335E"/>
			<stop  offset="1" style="stop-color:#FBC1B4;stop-opacity:0"/>
		</linearGradient>
		<polygon style="fill:url(#SVGID_00000111193837240210185350000000730049250076642945_);" points="278.9,236.1 297.6,245.9 
			250,275.2 229.8,263.6 		"/>
		<g>
			
				<linearGradient id="SVGID_00000173848382058885219600000010625048765106567043_" gradientUnits="userSpaceOnUse" x1="236.6224" y1="151.8276" x2="279.4638" y2="151.8276" gradientTransform="matrix(1 0 0 -1 0 401)">
				<stop  offset="0" style="stop-color:#53326C"/>
				<stop  offset="1" style="stop-color:#BA6AB5"/>
			</linearGradient>
			<path style="fill:url(#SVGID_00000173848382058885219600000010625048765106567043_);" d="M279.3,233.8
				C279.3,233.8,279.3,233.8,279.3,233.8c-0.1,0.2-0.1,0.4-0.2,0.5l-0.1,0.1c-0.1,0.1-0.2,0.3-0.4,0.4c-0.1,0.1-0.2,0.2-0.3,0.2
				c-0.1,0.1-0.2,0.1-0.3,0.2l-41.4,24.1v5.7l41.4-24.1l0,0l0.2-0.2c0.1-0.1,0.2-0.2,0.3-0.2l0,0l0.3-0.3l0.1-0.1c0,0,0-0.1,0.1-0.1
				c0,0,0.1-0.1,0.1-0.1c0-0.1,0.1-0.2,0.1-0.3l0,0v-0.1c0,0,0-0.1,0-0.2c0-0.1,0-0.2,0-0.3l0,0v-5.7
				C279.3,233.5,279.3,233.6,279.3,233.8z"/>
			
				<linearGradient id="SVGID_00000096047416530806092340000000714452066853036979_" gradientUnits="userSpaceOnUse" x1="196.9632" y1="148.6181" x2="236.6224" y2="148.6181" gradientTransform="matrix(1 0 0 -1 0 401)">
				<stop  offset="0" style="stop-color:#53326C"/>
				<stop  offset="1" style="stop-color:#BA6AB5"/>
			</linearGradient>
			<path style="fill:url(#SVGID_00000096047416530806092340000000714452066853036979_);" d="M235.7,259.7l-0.4,0.1l-0.5,0.1
				l-0.6,0.1h-0.1c-0.3,0-0.5,0-0.8,0h-0.1h-0.8h-0.1c-0.3,0-0.5-0.1-0.8-0.1h-0.1c-0.2-0.1-0.4-0.1-0.7-0.2h-0.1
				c-0.2-0.1-0.5-0.2-0.7-0.3l-31.6-18.2c-0.8-0.4-1.3-1.1-1.4-2v5.7c0.1,0.9,0.6,1.6,1.4,2L230,265c0.2,0.1,0.4,0.2,0.7,0.3l0,0
				h0.1l0.4,0.1h0.2h0.1h0.1l0.5,0.1h0.2h0.1h0.2c0.2,0,0.3,0,0.5,0h0.5h0.5h0.1h0.1l0.4-0.1h0.2l0.5-0.1l0.3-0.1h0.1
				c0.3-0.1,0.6-0.3,0.9-0.4v-5.7C236.3,259.4,236,259.6,235.7,259.7z"/>
			
				<linearGradient id="SVGID_00000134244551041580772060000005840215935724687517_" gradientUnits="userSpaceOnUse" x1="196.9755" y1="164.8076" x2="279.438" y2="164.8076" gradientTransform="matrix(1 0 0 -1 0 401)">
				<stop  offset="0" style="stop-color:#53326C"/>
				<stop  offset="1" style="stop-color:#BA6AB5"/>
			</linearGradient>
			<path style="fill:url(#SVGID_00000134244551041580772060000005840215935724687517_);" d="M278,231.3c1.9,1.1,1.9,2.8,0,3.9
				l-41.4,24.1c-2.1,1.1-4.6,1.1-6.7,0l-31.6-18.2c-1.9-1.1-1.9-2.8,0-3.9l41.4-24.1c2.1-1.1,4.6-1.1,6.7,0L278,231.3z"/>
		</g>
		<g>
			<path class="st18" d="M131.5,282.1l-5.4-3.1c-1.3-0.8-2.2-2.4-2.2-4.7l5.3,3.1C129.4,279.7,130.2,281.4,131.5,282.1z"/>
			
				<linearGradient id="SVGID_00000028295929563002568080000017848560309054616984_" gradientUnits="userSpaceOnUse" x1="123.6936" y1="240.9203" x2="308.0611" y2="240.9203" gradientTransform="matrix(1 0 0 -1 0 401)">
				<stop  offset="0" style="stop-color:#53326C"/>
				<stop  offset="1" style="stop-color:#BA6AB5"/>
			</linearGradient>
			<path style="fill:url(#SVGID_00000028295929563002568080000017848560309054616984_);" d="M302.7,38.3L302.7,38.3
				c-0.1-0.1-0.2-0.1-0.4-0.2h-0.1h-0.1l-0.2-0.1h-0.2h-0.1h-0.1c-0.1,0-0.3,0-0.4,0h-0.6h-0.2h-0.2h-0.2l-0.3,0.1h-0.2l-0.2,0.1
				c-0.2,0.1-0.4,0.1-0.5,0.2l-0.2,0.1h-0.1c-0.3,0.1-0.6,0.3-0.9,0.5L131,135c-0.4,0.2-0.7,0.5-1.1,0.8l-0.2,0.1
				c-0.4,0.3-0.7,0.6-1.1,0.9l-0.1,0.1l-0.2,0.2c-0.2,0.2-0.3,0.3-0.5,0.5l-0.2,0.2l-0.1,0.1l-0.3,0.3l-0.2,0.2l-0.1,0.2
				c-0.1,0.1-0.1,0.2-0.2,0.3l-0.1,0.2l-0.2,0.3l-0.1,0.2c0,0,0,0.1,0,0.1c-0.1,0.2-0.3,0.4-0.4,0.6l0,0l-0.1,0.1
				c-0.1,0.1-0.2,0.3-0.3,0.4c0,0.1-0.1,0.1-0.1,0.2l-0.1,0.2c0,0-0.1,0.1-0.1,0.2c0,0.1-0.2,0.3-0.2,0.5v0.1l0,0
				c-0.1,0.2-0.2,0.4-0.3,0.7c0,0,0,0.1,0,0.1s0,0.2-0.1,0.2s-0.1,0.2-0.1,0.3c0,0.1,0,0.2-0.1,0.3c-0.1,0.1-0.1,0.2-0.1,0.3
				l-0.1,0.2c0,0.1,0,0.2-0.1,0.3l-0.1,0.4v0.1c0,0.1,0,0.2,0,0.3c0,0.2-0.1,0.4-0.1,0.6v0.2c0,0.1,0,0.1,0,0.2
				c0,0.4-0.1,0.9-0.1,1.3l0.4,126.7c0,2.3,0.8,3.9,2.2,4.7l5,3.1c-1.3-0.8-2.2-2.4-2.2-4.7L129,150.7c0-0.4,0-0.9,0.1-1.3v-0.3
				c0-0.2,0.1-0.4,0.1-0.6s0-0.3,0.1-0.4c0.1-0.1,0.1-0.3,0.1-0.4c0-0.1,0.1-0.3,0.1-0.5l0.1-0.3c0.1-0.2,0.1-0.4,0.2-0.6
				c0-0.1,0-0.2,0.1-0.2c0.1-0.3,0.2-0.5,0.3-0.8c0,0,0-0.1,0-0.1c0.1-0.2,0.2-0.5,0.3-0.7l0.1-0.2l0.4-0.7c0,0,0-0.1,0.1-0.1
				c0.1-0.2,0.3-0.5,0.5-0.8l0.1-0.2l0.4-0.5c0.1-0.1,0.1-0.2,0.2-0.3l0.3-0.4l0.3-0.3l0.3-0.3l0.5-0.5l0.3-0.3
				c0.3-0.3,0.7-0.6,1-0.9l0.2-0.1c0.3-0.3,0.7-0.5,1.1-0.8l166.6-96.1c0.3-0.2,0.6-0.3,0.9-0.5l0.3-0.1c0.2-0.1,0.3-0.1,0.5-0.2
				l0.3-0.1l0.3-0.1l0.4-0.1h0.2h0.6c0.2,0,0.4,0,0.5,0.1h0.1l0.4,0.1h0.1c0.2,0.1,0.3,0.1,0.5,0.2L302.7,38.3z"/>
			
				<linearGradient id="SVGID_00000082325893937770742060000010052883454101060488_" gradientUnits="userSpaceOnUse" x1="129.0338" y1="239.2314" x2="310.5677" y2="239.2314" gradientTransform="matrix(1 0 0 -1 0 401)">
				<stop  offset="0" style="stop-color:#53326C"/>
				<stop  offset="1" style="stop-color:#BA6AB5"/>
			</linearGradient>
			<path style="fill:url(#SVGID_00000082325893937770742060000010052883454101060488_);" d="M302.8,41.9c4.1-2.3,7.3-0.5,7.4,4.2
				l0.4,126.7c-0.3,5.1-3,9.9-7.3,12.7l-166.5,96.1c-4.1,2.3-7.4,0.5-7.4-4.2L129,150.7c0.3-5.2,3-9.9,7.3-12.7L302.8,41.9z"/>
		</g>
		<path class="st1" d="M306.4,45.2c0.8-0.4,1.4-0.1,1.4,0.8l0.4,129.4c-0.1,1-0.6,1.9-1.4,2.4l-170,98.2c-0.8,0.4-1.4,0.1-1.4-0.8
			L135,145.8c0.1-1,0.6-1.9,1.4-2.4L306.4,45.2z"/>
		<path class="st21" d="M200,130.7L200,130.7c0,0.4-0.2,0.8-0.6,1l-19.1,11c-0.6,0.3-1.3,0.1-1.6-0.4c-0.1-0.2-0.2-0.4-0.2-0.6l0,0
			c0-0.4,0.2-0.8,0.6-1l19.1-11c0.6-0.3,1.3-0.1,1.6,0.4C199.9,130.3,200,130.5,200,130.7z"/>
		<path class="st7" d="M176.1,135.3L176.1,135.3c0,0.4-0.2,0.9-0.6,1.1l-30.7,17.7c-0.6,0.3-1.3,0.1-1.6-0.4
			c-0.1-0.2-0.2-0.4-0.2-0.6l0,0c0-0.4,0.2-0.9,0.6-1.1l30.7-17.7c0.6-0.3,1.3-0.1,1.6,0.5C176,134.9,176.1,135.1,176.1,135.3z"/>
		<g class="st22">
			<path class="st7" d="M211.5,115.1L211.5,115.1c0,0.4-0.2,0.8-0.6,1l-30.7,17.8c-0.6,0.3-1.3,0.1-1.6-0.4
				c-0.1-0.2-0.2-0.4-0.2-0.6l0,0c0-0.4,0.2-0.8,0.6-1l30.7-17.7c0.6-0.3,1.3-0.2,1.6,0.4C211.4,114.7,211.5,114.9,211.5,115.1z"/>
		</g>
		<path class="st7" d="M176.1,144.2L176.1,144.2c0,0.4-0.2,0.8-0.6,1l-30.7,17.7c-0.6,0.3-1.3,0.1-1.6-0.4c-0.1-0.2-0.2-0.4-0.2-0.6
			l0,0c0-0.4,0.2-0.8,0.6-1l30.7-17.7c0.6-0.3,1.3-0.1,1.6,0.4C176,143.8,176.1,144,176.1,144.2z"/>
		<g class="st22">
			<path class="st7" d="M176.8,152.3L176.8,152.3c0,0.4-0.2,0.9-0.6,1.1l-30.7,17.7c-0.6,0.3-1.3,0.1-1.6-0.4
				c-0.1-0.2-0.2-0.4-0.2-0.6l0,0c0-0.4,0.2-0.8,0.6-1l30.7-17.8c0.6-0.3,1.3-0.1,1.6,0.4C176.7,151.9,176.8,152.1,176.8,152.3z"/>
		</g>
		<path class="st7" d="M212.2,132.1L212.2,132.1c0,0.4-0.2,0.9-0.6,1.1l-30.7,17.7c-0.6,0.3-1.3,0.1-1.6-0.4
			c-0.1-0.2-0.2-0.4-0.2-0.6l0,0c0-0.4,0.2-0.9,0.6-1.1l30.7-17.7c0.6-0.3,1.3-0.1,1.6,0.5C212.1,131.7,212.2,131.9,212.2,132.1z"/>
		<path class="st7" d="M176.8,161.1L176.8,161.1c0,0.4-0.2,0.8-0.6,1l-30.7,17.7c-0.6,0.3-1.3,0.1-1.6-0.5c-0.1-0.2-0.2-0.4-0.2-0.6
			l0,0c0-0.4,0.2-0.9,0.6-1.1l30.7-17.7c0.6-0.3,1.3-0.1,1.6,0.4C176.7,160.7,176.8,160.9,176.8,161.1z"/>
		<path class="st7" d="M200.7,147.7L200.7,147.7c0,0.4-0.2,0.9-0.6,1.1l-19.1,11c-0.6,0.3-1.3,0.1-1.6-0.4c-0.1-0.2-0.2-0.4-0.2-0.6
			l0,0c0-0.4,0.2-0.8,0.6-1l19.1-11c0.6-0.3,1.3-0.1,1.6,0.4C200.6,147.3,200.7,147.5,200.7,147.7z"/>
		<polygon class="st7" points="237.3,131.4 144.3,184.6 144.3,265.3 237.3,212.5 		"/>
		<g class="st23">
			
				<linearGradient id="SVGID_00000032606792978097338130000010005075462096752259_" gradientUnits="userSpaceOnUse" x1="158.7591" y1="153.8436" x2="153.6696" y2="201.9163" gradientTransform="matrix(1 0 0 -1 0 401)">
				<stop  offset="0" style="stop-color:#EC7BAD"/>
				<stop  offset="1" style="stop-color:#FBC1B4"/>
			</linearGradient>
			<polygon style="fill:url(#SVGID_00000032606792978097338130000010005075462096752259_);" points="159.8,192.6 159.9,243.3 
				152,247.9 151.9,197.2 			"/>
		</g>
		<g class="st23">
			
				<linearGradient id="SVGID_00000113349850259124295700000016106449240613484188_" gradientUnits="userSpaceOnUse" x1="161.9577" y1="176.4797" x2="169.968" y2="176.4797" gradientTransform="matrix(1 0 0 -1 0 401)">
				<stop  offset="0" style="stop-color:#53326C"/>
				<stop  offset="1" style="stop-color:#BA6AB5"/>
			</linearGradient>
			<polygon style="fill:url(#SVGID_00000113349850259124295700000016106449240613484188_);" points="169.9,207.1 170,237.4 162,242 
				162,211.6 			"/>
		</g>
		<g class="st23">
			
				<linearGradient id="SVGID_00000018202275988529060510000007004666026926926476_" gradientUnits="userSpaceOnUse" x1="173.6506" y1="231.9359" x2="178.2824" y2="177.1608" gradientTransform="matrix(1 0 0 -1 0 401)">
				<stop  offset="0" style="stop-color:#EC7BAD"/>
				<stop  offset="1" style="stop-color:#FBC1B4"/>
			</linearGradient>
			<polygon style="fill:url(#SVGID_00000018202275988529060510000007004666026926926476_);" points="180.3,167 180.4,231.3 
				172.5,235.9 172.3,171.5 			"/>
		</g>
		<polygon class="st1" points="219,154.7 219,156.7 203.7,165.5 203.7,163.5 		"/>
		<polygon class="st1" points="236.2,144.2 236.2,146.2 220.9,155 220.9,153 		"/>
		<polygon class="st1" points="219,161.1 219,163.1 203.7,172 203.7,169.9 		"/>
		<polygon class="st1" points="230.9,154.6 230.9,156.6 220.9,162.4 220.9,160.4 		"/>
		
			<linearGradient id="SVGID_00000133492692632095944380000003629954511912083644_" gradientUnits="userSpaceOnUse" x1="192.3423" y1="233.1239" x2="198.8814" y2="233.1239" gradientTransform="matrix(1 0 0 -1 0 401)">
			<stop  offset="0" style="stop-color:#EC7BAD"/>
			<stop  offset="1" style="stop-color:#FBC1B4"/>
		</linearGradient>
		<polygon style="fill:url(#SVGID_00000133492692632095944380000003629954511912083644_);" points="198.9,162.3 198.9,169.7 
			192.4,173.5 192.3,166 		"/>
		<polygon class="st1" points="219,174.2 219,176.2 203.7,185 203.7,183 		"/>
		<polygon class="st1" points="236.2,163.7 236.2,165.7 220.9,174.5 220.9,172.5 		"/>
		<polygon class="st1" points="219,180.6 219,182.6 203.7,191.4 203.7,189.4 		"/>
		<polygon class="st1" points="230.9,174.1 230.9,176.1 220.9,181.8 220.9,179.8 		"/>
		
			<linearGradient id="SVGID_00000016047518758938768270000003232777452940743862_" gradientUnits="userSpaceOnUse" x1="192.3423" y1="214.1553" x2="198.8814" y2="214.1553" gradientTransform="matrix(1 0 0 -1 0 401)">
			<stop  offset="0" style="stop-color:#53326C"/>
			<stop  offset="1" style="stop-color:#BA6AB5"/>
		</linearGradient>
		<polygon style="fill:url(#SVGID_00000016047518758938768270000003232777452940743862_);" points="198.9,181.2 198.9,188.7 
			192.4,192.5 192.3,185 		"/>
		<polygon class="st1" points="219,195.6 219,197.6 203.7,206.4 203.7,204.4 		"/>
		<polygon class="st1" points="236.2,185.1 236.2,187.1 220.9,195.9 220.9,193.9 		"/>
		<polygon class="st1" points="219,202 219,204 203.7,212.9 203.7,210.9 		"/>
		<polygon class="st1" points="230.9,195.5 230.9,197.6 220.9,203.3 220.9,201.3 		"/>
		
			<linearGradient id="SVGID_00000123404028832994076740000016170669436746383494_" gradientUnits="userSpaceOnUse" x1="192.3423" y1="190.386" x2="198.8814" y2="190.386" gradientTransform="matrix(1 0 0 -1 0 401)">
			<stop  offset="0" style="stop-color:#EC7BAD"/>
			<stop  offset="1" style="stop-color:#FBC1B4"/>
		</linearGradient>
		<polygon style="fill:url(#SVGID_00000123404028832994076740000016170669436746383494_);" points="198.9,205 198.9,212.5 
			192.4,216.2 192.3,208.8 		"/>
		<path class="st21" d="M272.6,75.3L272.6,75.3c0,0.4-0.2,0.7-0.5,0.9l-25.9,14.9c-0.5,0.3-1.1,0.1-1.4-0.4
			c-0.1-0.2-0.1-0.3-0.1-0.5l0,0c0-0.4,0.2-0.7,0.5-0.9l25.9-15c0.5-0.3,1.1-0.1,1.4,0.4C272.5,75,272.6,75.2,272.6,75.3z"/>
		<path class="st21" d="M302.4,58.3L302.4,58.3c0,0.4-0.2,0.7-0.5,0.9l-25.9,15c-0.5,0.3-1.1,0.1-1.4-0.4c-0.1-0.2-0.1-0.3-0.1-0.5
			l0,0c0-0.4,0.2-0.7,0.5-0.9l25.9-14.9c0.5-0.3,1.1-0.1,1.4,0.4C302.4,58,302.4,58.1,302.4,58.3z"/>
		<path class="st21" d="M272.6,82.8L272.6,82.8c0,0.4-0.2,0.7-0.5,0.9l-25.9,15c-0.5,0.3-1.1,0.1-1.4-0.4c-0.1-0.2-0.1-0.3-0.1-0.5
			l0,0c0-0.4,0.2-0.7,0.5-0.9L271.1,82c0.5-0.3,1.1-0.1,1.4,0.4C272.5,82.5,272.6,82.6,272.6,82.8z"/>
		<path class="st21" d="M292.8,71.4L292.8,71.4c0,0.4-0.2,0.7-0.5,0.9l-16.1,9.3c-0.5,0.3-1.1,0.1-1.4-0.4c-0.1-0.2-0.1-0.3-0.1-0.5
			l0,0c0-0.4,0.2-0.7,0.5-0.9l16.2-9.3c0.5-0.2,1.1,0,1.3,0.5C292.7,71.1,292.8,71.3,292.8,71.4z"/>
		<polygon class="st7" points="306.1,69.6 243.8,105.9 243.8,203.4 306.1,167.4 		"/>
		<polygon class="st1" points="288.9,92.8 288.9,94.7 273.6,103.6 273.6,101.6 		"/>
		<polygon class="st1" points="306.1,82.2 306.1,84.3 290.8,93.1 290.8,91.1 		"/>
		<polygon class="st1" points="288.9,99.2 288.9,101.2 273.6,110 273.6,108 		"/>
		<polygon class="st1" points="300.8,92.7 300.8,94.7 290.8,100.4 290.8,98.4 		"/>
		<polygon class="st1" points="288.9,131.1 288.9,133.1 273.6,142 273.6,140 		"/>
		<polygon class="st1" points="306.1,120.6 306.1,122.6 290.8,131.5 290.8,129.5 		"/>
		<polygon class="st1" points="288.9,137.6 288.9,139.6 273.6,148.4 273.6,146.4 		"/>
		<polygon class="st1" points="300.8,131.1 300.8,133.1 290.8,138.8 290.8,136.8 		"/>
		<polygon class="st1" points="288.9,163.6 288.9,165.6 273.6,174.4 273.6,172.4 		"/>
		<polygon class="st1" points="306.1,153.1 306.1,155.1 290.8,163.9 290.8,161.9 		"/>
		<polygon class="st1" points="288.9,170 288.9,172 273.6,180.8 273.6,178.8 		"/>
		<polygon class="st1" points="300.8,163.5 300.8,165.5 290.8,171.2 290.8,169.2 		"/>
		<g class="st23">
			
				<linearGradient id="SVGID_00000102535500895891598070000010168130601896769193_" gradientUnits="userSpaceOnUse" x1="257.9505" y1="295.7652" x2="268.4565" y2="295.7652" gradientTransform="matrix(1 0 0 -1 0 401)">
				<stop  offset="0" style="stop-color:#53326C"/>
				<stop  offset="1" style="stop-color:#BA6AB5"/>
			</linearGradient>
			<path style="fill:url(#SVGID_00000102535500895891598070000010168130601896769193_);" d="M258,99.6c5.8-3.3,10.5-0.7,10.5,6
				c0,0.2,0,0.5,0,0.7l-10.5,6L258,99.6z"/>
			
				<linearGradient id="SVGID_00000127012475888621615590000005702126427829623199_" gradientUnits="userSpaceOnUse" x1="247.5098" y1="288.6783" x2="268.4456" y2="288.6783" gradientTransform="matrix(1 0 0 -1 0 401)">
				<stop  offset="0" style="stop-color:#EC7BAD"/>
				<stop  offset="1" style="stop-color:#FBC1B4"/>
			</linearGradient>
			<path style="fill:url(#SVGID_00000127012475888621615590000005702126427829623199_);" d="M258,99.6v12.8l10.5-6
				c-0.3,6.5-4.8,14.2-10.4,17.3c-5.8,3.3-10.5,0.7-10.5-6C247.5,111,252.2,102.9,258,99.6z"/>
		</g>
		<g class="st23">
			
				<linearGradient id="SVGID_00000152250802812606608170000010153848090650584492_" gradientUnits="userSpaceOnUse" x1="252.9045" y1="255.7306" x2="268.4565" y2="255.7306" gradientTransform="matrix(1 0 0 -1 0 401)">
				<stop  offset="0" style="stop-color:#53326C"/>
				<stop  offset="1" style="stop-color:#BA6AB5"/>
			</linearGradient>
			<path style="fill:url(#SVGID_00000152250802812606608170000010153848090650584492_);" d="M258,133.2c5.8-3.3,10.5-0.7,10.5,6
				c0,0.2,0,0.5,0,0.7c-0.3,6.5-4.8,14.2-10.4,17.4c-1.5,1-3.3,1.5-5.1,1.4l5.1-12.9L258,133.2z"/>
			
				<linearGradient id="SVGID_00000041976437366211241010000010261630955869860737_" gradientUnits="userSpaceOnUse" x1="247.5098" y1="255.0133" x2="257.9832" y2="255.0133" gradientTransform="matrix(1 0 0 -1 0 401)">
				<stop  offset="0" style="stop-color:#EC7BAD"/>
				<stop  offset="1" style="stop-color:#FBC1B4"/>
			</linearGradient>
			<path style="fill:url(#SVGID_00000041976437366211241010000010261630955869860737_);" d="M258,133.2v12.6l-5.1,12.9
				c-3.2-0.2-5.4-2.9-5.4-7.4C247.5,144.7,252.2,136.6,258,133.2z"/>
		</g>
		<g class="st23">
			
				<linearGradient id="SVGID_00000006683529439839640140000002683946512564986047_" gradientUnits="userSpaceOnUse" x1="257.9832" y1="225.4352" x2="268.4565" y2="225.4352" gradientTransform="matrix(1 0 0 -1 0 401)">
				<stop  offset="0" style="stop-color:#EC7BAD"/>
				<stop  offset="1" style="stop-color:#FBC1B4"/>
			</linearGradient>
			<path style="fill:url(#SVGID_00000006683529439839640140000002683946512564986047_);" d="M263.4,166.8c3,0.4,5,3,5,7.4
				c0,0.3,0,0.5,0,0.7c-0.3,3.4-1.3,6.6-3,9.5l-7.4-3.5l0,0v-0.1L263.4,166.8z"/>
			
				<linearGradient id="SVGID_00000019636269289226862140000015029254083647083190_" gradientUnits="userSpaceOnUse" x1="247.5098" y1="220.8092" x2="265.4268" y2="220.8092" gradientTransform="matrix(1 0 0 -1 0 401)">
				<stop  offset="0" style="stop-color:#53326C"/>
				<stop  offset="1" style="stop-color:#BA6AB5"/>
			</linearGradient>
			<path style="fill:url(#SVGID_00000019636269289226862140000015029254083647083190_);" d="M258,168.1c1.6-1,3.5-1.5,5.4-1.4
				l-5.4,14v0.1l7.4,3.5c-1.8,3.2-4.3,5.9-7.4,7.8c-5.8,3.3-10.5,0.7-10.5-6c0.1-3.2,0.9-6.3,2.4-9.2
				C251.7,173.4,254.5,170.3,258,168.1z"/>
		</g>
		<polygon class="st36" points="191.4,193.2 191.6,271.8 321.6,196.8 321.4,117.5 		"/>
		
			<linearGradient id="SVGID_00000171705271746017654110000011265521533124449940_" gradientUnits="userSpaceOnUse" x1="201.1699" y1="218.5801" x2="241.9299" y2="218.5801" gradientTransform="matrix(1 0 0 -1 0 401)">
			<stop  offset="0" style="stop-color:#53326C"/>
			<stop  offset="1" style="stop-color:#BA6AB5"/>
		</linearGradient>
		<path style="fill:url(#SVGID_00000171705271746017654110000011265521533124449940_);" d="M241.9,171.2L241.9,171.2
			c0,0.4-0.2,0.7-0.5,0.9l-38.8,22.4c-0.5,0.3-1.1,0.1-1.4-0.4c-0.1-0.2-0.1-0.3-0.1-0.5l0,0c0-0.4,0.2-0.7,0.5-0.9l38.8-22.4
			c0.5-0.3,1.1-0.1,1.4,0.4C241.9,170.9,241.9,171.1,241.9,171.2z"/>
		
			<linearGradient id="SVGID_00000178889723757877915010000011994474649454724535_" gradientUnits="userSpaceOnUse" x1="200.9412" y1="210.5036" x2="241.712" y2="210.5036" gradientTransform="matrix(1 0 0 -1 0 401)">
			<stop  offset="0" style="stop-color:#53326C"/>
			<stop  offset="1" style="stop-color:#BA6AB5"/>
		</linearGradient>
		<path style="fill:url(#SVGID_00000178889723757877915010000011994474649454724535_);" d="M241.7,179.3L241.7,179.3
			c0,0.4-0.2,0.7-0.5,0.9l-38.8,22.4c-0.5,0.3-1.1,0.1-1.4-0.4c-0.1-0.2-0.1-0.3-0.1-0.5l0,0c0-0.4,0.2-0.7,0.5-0.9l38.8-22.4
			c0.5-0.3,1.1-0.1,1.4,0.4C241.7,179,241.7,179.2,241.7,179.3z"/>
		<path class="st39" d="M321.5,126.2L321.5,126.2c0,0.2-0.1,0.4-0.3,0.6l-25.4,14.7c-0.3,0.2-0.7,0.1-0.9-0.3
			c-0.1-0.1-0.1-0.2-0.1-0.3l0,0c0-0.2,0.1-0.4,0.3-0.6l25.4-14.7c0.3-0.2,0.7-0.1,0.9,0.2C321.5,125.9,321.5,126.1,321.5,126.2z"/>
		<path class="st39" d="M321.4,131.5L321.4,131.5c0,0.2-0.1,0.5-0.3,0.6l-25.4,14.7c-0.3,0.2-0.7,0.1-0.9-0.3
			c-0.1-0.1-0.1-0.2-0.1-0.3l0,0c0-0.2,0.1-0.5,0.3-0.6l25.4-14.7c0.3-0.2,0.7-0.1,0.9,0.2C321.3,131.3,321.4,131.4,321.4,131.5z"/>
		<path class="st39" d="M321.4,145.7L321.4,145.7c0,0.2-0.1,0.5-0.3,0.6L295.7,161c-0.3,0.2-0.7,0.1-0.9-0.3
			c-0.1-0.1-0.1-0.2-0.1-0.3l0,0c0-0.2,0.1-0.5,0.3-0.6l25.4-14.7c0.3-0.2,0.7-0.1,0.9,0.3C321.4,145.5,321.4,145.6,321.4,145.7z"/>
		<path class="st39" d="M321.3,151.1L321.3,151.1c0,0.2-0.1,0.5-0.3,0.6l-25.4,14.7c-0.3,0.2-0.7,0.1-0.9-0.2
			c-0.1-0.1-0.1-0.2-0.1-0.3l0,0c0-0.2,0.1-0.5,0.3-0.6l25.4-14.7c0.3-0.2,0.7-0.1,0.9,0.3C321.3,150.8,321.3,150.9,321.3,151.1z"/>
		
			<linearGradient id="SVGID_00000166652926809633592440000016063353428812223921_" gradientUnits="userSpaceOnUse" x1="283.093" y1="253.2968" x2="291.1578" y2="253.2968" gradientTransform="matrix(1 0 0 -1 0 401)">
			<stop  offset="0" style="stop-color:#53326C"/>
			<stop  offset="1" style="stop-color:#BA6AB5"/>
		</linearGradient>
		<polygon style="fill:url(#SVGID_00000166652926809633592440000016063353428812223921_);" points="291.1,140.8 291.2,150 
			283.1,154.6 283.1,145.4 		"/>
		
			<linearGradient id="SVGID_00000180324593357112685700000011199683109582870174_" gradientUnits="userSpaceOnUse" x1="283.093" y1="234.9985" x2="291.1578" y2="234.9985" gradientTransform="matrix(1 0 0 -1 0 401)">
			<stop  offset="0" style="stop-color:#EC7BAD"/>
			<stop  offset="1" style="stop-color:#FBC1B4"/>
		</linearGradient>
		<polygon style="fill:url(#SVGID_00000180324593357112685700000011199683109582870174_);" points="291.1,159.1 291.2,168.3 
			283.1,172.9 283.1,163.7 		"/>
		
			<linearGradient id="SVGID_00000035516038468365161730000004678968755112612484_" gradientUnits="userSpaceOnUse" x1="193.7047" y1="180.4522" x2="304.6064" y2="180.4522" gradientTransform="matrix(1 0 0 -1 0 401)">
			<stop  offset="0" style="stop-color:#EC7BAD"/>
			<stop  offset="1" style="stop-color:#FBC1B4"/>
		</linearGradient>
		<path style="fill:url(#SVGID_00000035516038468365161730000004678968755112612484_);" d="M248.1,193.2c3.8-2.2,7.6-2,9.2,1.9
			l2.5,5.8c1.6,3.8,5.4,4.1,9.2,1.9c3.7-2.3,6.5-5.7,8.1-9.7c1.7-4,4.5-7.4,8.2-9.7c3-1.8,6.1-1.9,8.1,0.1l11.2,11.6l-110.9,64
			l10.2-18.2c1.7-3.1,4.1-5.7,7.1-7.6c2.4-1.4,4.8-1.8,6.7-0.8l1.3,0.6c2,0.9,4.4,0.5,6.7-0.8c3.9-2.2,7.6-7,9.2-12.5l4-14
			C240.4,200.5,243.6,196.1,248.1,193.2z"/>
		<g class="st43">
			
				<linearGradient id="SVGID_00000052104362563546471720000015107676362039962265_" gradientUnits="userSpaceOnUse" x1="207.2949" y1="185.3018" x2="318.1857" y2="185.3018" gradientTransform="matrix(1 0 0 -1 0 401)">
				<stop  offset="0" style="stop-color:#53326C"/>
				<stop  offset="1" style="stop-color:#BA6AB5"/>
			</linearGradient>
			<path style="fill:url(#SVGID_00000052104362563546471720000015107676362039962265_);" d="M263.6,184.3c3.8-2.2,7.6-2,9.2,1.9
				l4,9.4c1.6,3.7,5.4,4.1,9.2,1.9c2.8-1.7,5.1-4.1,6.7-6.9l1.3-2.2c1.6-2.8,3.9-5.2,6.7-6.9c2.6-1.5,5.2-1.8,7.1-0.6l10.3,6.4
				l-110.9,64l11.1-24.5c1.7-3.9,4.5-7.2,8-9.4c3.1-1.8,6.2-1.9,8.2,0.3c2,2.2,5.1,2,8.2,0.3c4.5-2.9,7.8-7.4,9.2-12.5l2.4-8.6
				C255.8,191.6,259.1,187.2,263.6,184.3z"/>
		</g>
		<g>
			
				<linearGradient id="SVGID_00000017492767721557382020000011590070754002491299_" gradientUnits="userSpaceOnUse" x1="227.5658" y1="177.0301" x2="228.0236" y2="177.0301" gradientTransform="matrix(1 0 0 -1 0 401)">
				<stop  offset="0" style="stop-color:#53326C"/>
				<stop  offset="1" style="stop-color:#BA6AB5"/>
			</linearGradient>
			<polygon style="fill:url(#SVGID_00000017492767721557382020000011590070754002491299_);" points="227.9,208.4 228,239.3 
				227.7,239.6 227.6,208.6 			"/>
			
				<linearGradient id="SVGID_00000118359345364090414540000012658570072927220872_" gradientUnits="userSpaceOnUse" x1="225.1137" y1="192.7619" x2="230.5193" y2="192.7619" gradientTransform="matrix(1 0 0 -1 0 401)">
				<stop  offset="0" style="stop-color:#53326C"/>
				<stop  offset="1" style="stop-color:#BA6AB5"/>
			</linearGradient>
			<polygon style="fill:url(#SVGID_00000118359345364090414540000012658570072927220872_);" points="230.5,206.5 230.5,206.9 
				227.9,208.4 227.6,208.6 225.1,210 225.1,209.6 			"/>
		</g>
		
			<linearGradient id="SVGID_00000103969685615800783190000015271744143858854825_" gradientUnits="userSpaceOnUse" x1="262.7457" y1="217.8662" x2="306.3719" y2="217.8662" gradientTransform="matrix(1 0 0 -1 0 401)">
			<stop  offset="0" style="stop-color:#53326C"/>
			<stop  offset="1" style="stop-color:#BA6AB5"/>
		</linearGradient>
		<polygon style="fill:url(#SVGID_00000103969685615800783190000015271744143858854825_);" points="306.4,171.1 306.4,170.7 
			301,173.8 301,174.2 303.6,172.7 303.7,195.6 304.1,195.4 304,172.5 		"/>
		<path class="st48" d="M315.8,114.3l-118.3,68.3c-3.8,2.2-6.1,6.2-6.1,10.6l0,0l130-75.7l0,0c0-2.1-1.7-3.7-3.8-3.7
			C317,113.8,316.4,114,315.8,114.3z"/>
		<polygon class="st49" points="120.3,127.2 120.6,206.4 203.6,158.5 203.3,79.2 		"/>
		
			<linearGradient id="SVGID_00000014608303496826684550000001086157150033920420_" gradientUnits="userSpaceOnUse" x1="186.8714" y1="264.9689" x2="194.9253" y2="264.9689" gradientTransform="matrix(1 0 0 -1 0 401)">
			<stop  offset="0" style="stop-color:#53326C"/>
			<stop  offset="1" style="stop-color:#BA6AB5"/>
		</linearGradient>
		<polygon style="fill:url(#SVGID_00000014608303496826684550000001086157150033920420_);" points="194.9,129.1 194.9,138.3 
			186.9,143 186.9,133.7 		"/>
		
			<linearGradient id="SVGID_00000091719921878720803550000002270187544117293206_" gradientUnits="userSpaceOnUse" x1="186.8714" y1="246.6815" x2="194.9253" y2="246.6815" gradientTransform="matrix(1 0 0 -1 0 401)">
			<stop  offset="0" style="stop-color:#EC7BAD"/>
			<stop  offset="1" style="stop-color:#FBC1B4"/>
		</linearGradient>
		<polygon style="fill:url(#SVGID_00000091719921878720803550000002270187544117293206_);" points="194.9,147.4 194.9,156.6 
			186.9,161.2 186.9,152 		"/>
		
			<linearGradient id="SVGID_00000006695153214250284380000003441598181725168023_" gradientUnits="userSpaceOnUse" x1="129.5977" y1="289.3451" x2="192.6393" y2="289.3451" gradientTransform="matrix(1 0 0 -1 0 401)">
			<stop  offset="0" style="stop-color:#EC7BAD"/>
			<stop  offset="1" style="stop-color:#FBC1B4"/>
		</linearGradient>
		<path style="fill:url(#SVGID_00000006695153214250284380000003441598181725168023_);" d="M192.6,94.1L192.6,94.1
			c0,0.4-0.2,0.7-0.5,0.9l-61,35.3c-0.5,0.3-1.1,0.1-1.4-0.4c-0.1-0.2-0.1-0.3-0.1-0.5l0,0c0-0.3,0.1-0.7,0.4-0.9l61-35.3
			c0.4-0.3,1.1-0.2,1.4,0.2C192.6,93.6,192.7,93.8,192.6,94.1z"/>
		<path class="st39" d="M193,101L193,101c0,0.4-0.2,0.7-0.5,0.9l-61.1,35.3c-0.5,0.2-1.1,0-1.3-0.5c-0.1-0.1-0.1-0.3-0.1-0.4l0,0
			c0-0.4,0.2-0.7,0.5-0.9l61-35.3c0.5-0.3,1.1-0.1,1.4,0.4C193,100.7,193,100.9,193,101z"/>
		<path class="st39" d="M194.1,110.5L194.1,110.5c0,0.4-0.2,0.7-0.5,0.9l-61,35.3c-0.5,0.3-1.1,0.1-1.4-0.4
			c-0.1-0.2-0.1-0.3-0.1-0.5l0,0c0-0.4,0.2-0.7,0.5-0.9l61-35.3c0.5-0.3,1.1-0.1,1.4,0.4C194.1,110.1,194.1,110.3,194.1,110.5z"/>
		<path class="st39" d="M194.8,117.4L194.8,117.4c0,0.4-0.2,0.7-0.5,0.9l-61,35.3c-0.5,0.3-1.1,0.1-1.4-0.4
			c-0.1-0.2-0.1-0.3-0.1-0.5l0,0c0-0.4,0.2-0.7,0.5-0.9l61-35.3c0.5-0.3,1.1-0.1,1.4,0.4C194.7,117.1,194.8,117.3,194.8,117.4z"/>
		
			<linearGradient id="SVGID_00000083090233567751225780000016057240825773640108_" gradientUnits="userSpaceOnUse" x1="134.4721" y1="247.6678" x2="175.232" y2="247.6678" gradientTransform="matrix(1 0 0 -1 0 401)">
			<stop  offset="0" style="stop-color:#EC7BAD"/>
			<stop  offset="1" style="stop-color:#FBC1B4"/>
		</linearGradient>
		<path style="fill:url(#SVGID_00000083090233567751225780000016057240825773640108_);" d="M175.2,142.1L175.2,142.1
			c0,0.4-0.2,0.7-0.5,0.9L136,165.4c-0.5,0.3-1.1,0.1-1.4-0.4c-0.1-0.2-0.1-0.3-0.1-0.5l0,0c0-0.4,0.2-0.7,0.5-0.9l38.8-22.4
			c0.5-0.3,1.1-0.1,1.4,0.4C175.2,141.8,175.2,142,175.2,142.1z"/>
		<path class="st39" d="M175.2,149.2L175.2,149.2c0,0.4-0.2,0.7-0.5,0.9L136,172.4c-0.5,0.3-1.1,0.1-1.4-0.4
			c-0.1-0.2-0.1-0.3-0.1-0.5l0,0c0-0.4,0.2-0.7,0.5-0.9l38.7-22.4c0.5-0.3,1.1-0.1,1.4,0.4C175.2,148.8,175.2,149,175.2,149.2z"/>
		
			<linearGradient id="SVGID_00000087410016247397018520000008567047996238684588_" gradientUnits="userSpaceOnUse" x1="134.4721" y1="229.424" x2="175.232" y2="229.424" gradientTransform="matrix(1 0 0 -1 0 401)">
			<stop  offset="0" style="stop-color:#EC7BAD"/>
			<stop  offset="1" style="stop-color:#FBC1B4"/>
		</linearGradient>
		<path style="fill:url(#SVGID_00000087410016247397018520000008567047996238684588_);" d="M175.2,160.4L175.2,160.4
			c0,0.4-0.2,0.7-0.5,0.9L136,183.6c-0.5,0.3-1.1,0.1-1.4-0.4c-0.1-0.2-0.1-0.3-0.1-0.5l0,0c0-0.4,0.2-0.7,0.5-0.9l38.8-22.4
			c0.5-0.3,1.1-0.1,1.4,0.4C175.2,160,175.2,160.2,175.2,160.4z"/>
		<path class="st39" d="M175.2,167.4L175.2,167.4c0,0.4-0.2,0.7-0.5,0.9L136,190.6c-0.5,0.3-1.1,0.1-1.4-0.4
			c-0.1-0.2-0.1-0.3-0.1-0.5l0,0c0-0.4,0.2-0.7,0.5-0.9l38.7-22.4c0.5-0.3,1.1-0.1,1.4,0.4C175.2,167,175.2,167.2,175.2,167.4z"/>
		<path class="st48" d="M197.8,76l-75.6,43.6c-1.2,0.7-1.9,1.9-1.9,3.3v4.4l83-48l0,0c0-2.1-1.7-3.7-3.7-3.7
			C199,75.5,198.3,75.7,197.8,76z"/>
		
			<linearGradient id="SVGID_00000181772456452489594480000002949759418315178408_" gradientUnits="userSpaceOnUse" x1="173.5513" y1="77.832" x2="192.9286" y2="41.8565" gradientTransform="matrix(1 0 0 -1 0 401)">
			<stop  offset="0" style="stop-color:#4A335E"/>
			<stop  offset="1" style="stop-color:#FBC1B4;stop-opacity:0"/>
		</linearGradient>
		<polygon style="fill:url(#SVGID_00000181772456452489594480000002949759418315178408_);" points="208.8,326.7 238.3,343.5 
			166,385.2 142.4,365.1 		"/>
		
			<linearGradient id="SVGID_00000130616573192519421060000009328073199742393783_" gradientUnits="userSpaceOnUse" x1="148.3184" y1="102.2401" x2="174.9322" y2="75.8006" gradientTransform="matrix(1 0 0 -1 0 401)">
			<stop  offset="0" style="stop-color:#53326C"/>
			<stop  offset="1" style="stop-color:#BA6AB5"/>
		</linearGradient>
		<path style="fill:url(#SVGID_00000130616573192519421060000009328073199742393783_);" d="M203.8,284c0-4.3-3-6-6.7-3.8L161,301
			v-0.7c0-2.3-1.6-3.3-3.7-2.1l-14.3,8.3c-2.1,1.4-3.5,3.7-3.6,6.3v0.7l0.1,46c0,0.2,0,0.3,0,0.5h-0.1c0.1,2,1.1,3.9,2.8,5
			c1.2,0.9,2.5,1.6,3.9,2l-1.2-5.3l54.1-31.2c2.8-1.8,4.6-4.9,4.7-8.2L203.8,284z"/>
		<polygon class="st1" points="204.4,327.6 204.4,223.2 146.4,256.5 146.4,348.4 		"/>
		
			<linearGradient id="SVGID_00000060009206641399914510000005797501140124275588_" gradientUnits="userSpaceOnUse" x1="151.746" y1="151.1851" x2="198.1403" y2="151.1851" gradientTransform="matrix(1 0 0 -1 0 401)">
			<stop  offset="0" style="stop-color:#53326C"/>
			<stop  offset="1" style="stop-color:#BA6AB5"/>
		</linearGradient>
		<path style="fill:url(#SVGID_00000060009206641399914510000005797501140124275588_);" d="M198.1,236.8L198.1,236.8
			c0,0.3-0.1,0.5-0.4,0.6l-44.9,25.9c-0.4,0.2-0.8,0.1-1-0.3c-0.1-0.1-0.1-0.2-0.1-0.3l0,0c0-0.3,0.1-0.5,0.4-0.6l44.9-25.9
			c0.4-0.2,0.8,0,1,0.4C198.1,236.6,198.1,236.7,198.1,236.8z"/>
		<path class="st58" d="M198.4,242L198.4,242c0,0.3-0.1,0.5-0.4,0.6l-44.9,25.9c-0.4,0.2-0.8,0.1-1-0.3c-0.1-0.1-0.1-0.2-0.1-0.3
			l0,0c0-0.3,0.1-0.5,0.4-0.6l44.9-25.9c0.4-0.2,0.8-0.1,1,0.3C198.4,241.7,198.4,241.8,198.4,242z"/>
		<path class="st58" d="M199.3,248.9L199.3,248.9c0,0.3-0.1,0.5-0.4,0.6L154,275.5c-0.4,0.2-0.8,0.1-1-0.3c-0.1-0.1-0.1-0.2-0.1-0.3
			l0,0c0-0.3,0.1-0.5,0.4-0.6l44.9-25.9c0.4-0.2,0.8-0.1,1,0.3C199.2,248.7,199.2,248.8,199.3,248.9z"/>
		<path class="st58" d="M199.8,254L199.8,254c0,0.3-0.1,0.5-0.4,0.6l-44.9,25.9c-0.4,0.2-0.8,0.1-1-0.3c-0.1-0.1-0.1-0.2-0.1-0.4
			l0,0c0-0.3,0.1-0.5,0.4-0.6l44.9-25.9c0.4-0.2,0.8-0.1,1,0.3C199.7,253.8,199.8,253.9,199.8,254z"/>
		
			<linearGradient id="SVGID_00000157304369631538505810000003580414999708446109_" gradientUnits="userSpaceOnUse" x1="155.3751" y1="120.5766" x2="185.3456" y2="120.5766" gradientTransform="matrix(1 0 0 -1 0 401)">
			<stop  offset="0" style="stop-color:#53326C"/>
			<stop  offset="1" style="stop-color:#BA6AB5"/>
		</linearGradient>
		<path style="fill:url(#SVGID_00000157304369631538505810000003580414999708446109_);" d="M185.3,272.2L185.3,272.2
			c0,0.3-0.1,0.5-0.4,0.6l-28.5,16.5c-0.4,0.2-0.8,0.1-1-0.3c-0.1-0.1-0.1-0.2-0.1-0.3l0,0c0-0.3,0.1-0.5,0.4-0.6l28.5-16.5
			c0.4-0.2,0.8-0.1,1,0.3C185.3,272,185.3,272.1,185.3,272.2z"/>
		<path class="st58" d="M185.3,277.3L185.3,277.3c0,0.3-0.1,0.5-0.4,0.6l-28.5,16.5c-0.4,0.2-0.8,0.1-1-0.3
			c-0.1-0.1-0.1-0.2-0.1-0.3l0,0c0-0.3,0.1-0.5,0.4-0.6l28.5-16.5c0.3-0.2,0.8-0.1,1,0.3C185.3,277,185.3,277.2,185.3,277.3z"/>
		
			<linearGradient id="SVGID_00000005232258927354995790000004116209826884163488_" gradientUnits="userSpaceOnUse" x1="155.3751" y1="107.1553" x2="185.3456" y2="107.1553" gradientTransform="matrix(1 0 0 -1 0 401)">
			<stop  offset="0" style="stop-color:#53326C"/>
			<stop  offset="1" style="stop-color:#BA6AB5"/>
		</linearGradient>
		<path style="fill:url(#SVGID_00000005232258927354995790000004116209826884163488_);" d="M185.3,285.6L185.3,285.6
			c0,0.3-0.1,0.5-0.4,0.6l-28.5,16.5c-0.4,0.2-0.8,0.1-1-0.3c-0.1-0.1-0.1-0.2-0.1-0.3l0,0c0-0.3,0.1-0.5,0.4-0.6l28.5-16.5
			c0.4-0.2,0.8-0.1,1,0.3C185.3,285.4,185.3,285.5,185.3,285.6z"/>
		<path class="st1" d="M185.3,290.7L185.3,290.7c0,0.3-0.1,0.5-0.4,0.6l-28.5,16.5c-0.4,0.2-0.8,0.1-1-0.3c-0.1-0.1-0.1-0.2-0.1-0.3
			l0,0c0-0.3,0.1-0.5,0.4-0.6l28.5-16.5c0.4-0.2,0.8-0.1,1,0.3C185.3,290.5,185.3,290.6,185.3,290.7z"/>
		
			<linearGradient id="SVGID_00000036247159462424848290000000485656183966593408_" gradientUnits="userSpaceOnUse" x1="144.3351" y1="79.0975" x2="144.3569" y2="79.0975" gradientTransform="matrix(1 0 0 -1 0 401)">
			<stop  offset="0" style="stop-color:#EC7BAD"/>
			<stop  offset="1" style="stop-color:#FBC1B4"/>
		</linearGradient>
		<polygon style="fill:url(#SVGID_00000036247159462424848290000000485656183966593408_);" points="144.4,326 144.4,326 
			144.3,317.8 		"/>
		
			<linearGradient id="SVGID_00000059273862189788130390000001879189754555959462_" gradientUnits="userSpaceOnUse" x1="144.3896" y1="75.5592" x2="208.8534" y2="75.5592" gradientTransform="matrix(1 0 0 -1 0 401)">
			<stop  offset="0" style="stop-color:#EC7BAD"/>
			<stop  offset="1" style="stop-color:#FBC1B4"/>
		</linearGradient>
		<path style="fill:url(#SVGID_00000059273862189788130390000001879189754555959462_);" d="M208.7,288.4c0-4.3-3-6-6.7-3.8l-36,20.8
			v-0.7c0-2.3-1.6-3.3-3.7-2.1l-14.3,8.3c-2.1,1.4-3.5,3.7-3.6,6.3v0.7v8.2l21.6-12.5L144.4,326l0.1,37.9c0,3,2.2,4.2,4.8,2.7
			l54.8-31.6c2.8-1.8,4.6-4.9,4.7-8.2L208.7,288.4z"/>
		
			<linearGradient id="SVGID_00000019673411107611173510000016317379829136712100_" gradientUnits="userSpaceOnUse" x1="116.2576" y1="312.0868" x2="170.0443" y2="312.0868" gradientTransform="matrix(1 0 0 -1 0 401)">
			<stop  offset="0" style="stop-color:#53326C"/>
			<stop  offset="1" style="stop-color:#BA6AB5"/>
		</linearGradient>
		<path style="fill:url(#SVGID_00000019673411107611173510000016317379829136712100_);" d="M166.9,58.8l3.2,1.3l-17.8,35.1
			c-0.4,0.7-0.9,1.4-1.6,1.8c-0.5,0.4-1.2,0.4-1.7,0l-13.2-12.4L120,116.9c-0.4,0.8-0.9,1.4-1.6,1.9c-0.4,0.3-0.9,0.3-1.3,0.2
			c-0.9-0.3-1.1-1.7-0.4-3.2l17.4-35.7c0.4-0.8,0.9-1.4,1.6-1.9c0.5-0.4,1.2-0.4,1.7,0l13.3,12.4L166.9,58.8z"/>
		
			<linearGradient id="SVGID_00000095327494225066539910000014702195833309502367_" gradientUnits="userSpaceOnUse" x1="162.6007" y1="348.4223" x2="177.2045" y2="348.4223" gradientTransform="matrix(1 0 0 -1 0 401)">
			<stop  offset="0" style="stop-color:#53326C"/>
			<stop  offset="1" style="stop-color:#BA6AB5"/>
		</linearGradient>
		<path style="fill:url(#SVGID_00000095327494225066539910000014702195833309502367_);" d="M175.9,43.2c0.7-0.4,1.3-0.1,1.3,0.8
			l-0.3,15.8c-0.1,0.9-0.5,1.7-1.3,2.2c-0.2,0.2-0.6,0.2-0.8,0.1l-4.7-2l-3.2-1.3l-3.8-1.6c-0.8-0.3-0.5-1.9,0.5-2.8l12-10.9
			C175.7,43.3,175.8,43.2,175.9,43.2z"/>
		
			<linearGradient id="SVGID_00000080898776236253412010000017444332879883495318_" gradientUnits="userSpaceOnUse" x1="66.4091" y1="179.4991" x2="99.7581" y2="179.4991" gradientTransform="matrix(1 0 0 -1 0 401)">
			<stop  offset="0" style="stop-color:#EC7BAD"/>
			<stop  offset="1" style="stop-color:#FBC1B4"/>
		</linearGradient>
		<path style="fill:url(#SVGID_00000080898776236253412010000017444332879883495318_);" d="M91.6,203.4c2.1-1.2,4.1-1.5,5.7-0.6
			c3.2,1.8,3.2,7.7,0,13.1l-2.9,5l-11.3,19.8l-11.5-6.5l-2.9-1.7c-3.2-1.8-3.2-7.6,0-13.1c1.3-2.5,3.3-4.6,5.6-6.1
			c2.1-1.2,4.1-1.5,5.7-0.6l2.9,1.7l2.9-5C87.3,207,89.2,204.9,91.6,203.4z"/>
		<path class="st66" d="M358.7,73.4c0.9,0.6,1.5,1.6,1.6,2.7c0.1,1.7-0.1,3.4-0.5,5c-0.1,0.5-0.3,1-0.5,1.4c0,0,0,0.1-0.1,0.1
			l0.3,0.2l3.7,2l1.8,1.1c1.2,0.8,2,2.1,2,3.5c0,0.8-0.4,1.3-1,1.4h-0.1c0.7,1.4,0.6,2.9-0.4,3.3c0.6,0.7,0.9,1.7,0.8,2.6
			c-0.1,0.8-0.5,1.2-1.2,1.2c0.1,0.1,0.1,0.2,0.2,0.2c0.5,0.6,0.8,1.2,0.9,1.9c0,0.1,0.4,2-0.9,2c0,0-0.1,0-0.1,0
			c-0.3,0-0.7-0.1-1-0.3l-5.3-3.1l-3.8-2.2l-4.4-2.5c-0.2,0.4-0.6,0.6-1.1,0.3l-4.5-2.6c-0.7-0.5-1.1-1.2-1.2-2.1V74.6
			c0-0.8,0.5-1.1,1.2-0.7l4.5,2.6c0.6,0.4,1,1,1.2,1.7l0.9,0.5l0.1-0.1l0.5-0.3l0.7-0.5h0.1h0.1l0.8-0.6l1.1-0.8
			c0.4-0.3,0.8-0.6,1.2-0.8c0.5-0.4,0.8-0.9,0.9-1.5C357.4,73.1,358.1,73,358.7,73.4z"/>
		
			<linearGradient id="SVGID_00000056422989728918818170000000836495337878267540_" gradientUnits="userSpaceOnUse" x1="222.5308" y1="368.9969" x2="261.7649" y2="368.9969" gradientTransform="matrix(1 0 0 -1 0 401)">
			<stop  offset="0" style="stop-color:#EC7BAD"/>
			<stop  offset="1" style="stop-color:#FBC1B4"/>
		</linearGradient>
		<path style="fill:url(#SVGID_00000056422989728918818170000000836495337878267540_);" d="M258,7.2c2-1.2,3.7-0.2,3.7,2.1l0.1,22.7
			c-0.1,2.6-1.5,5-3.7,6.4l-31.7,18.3c-2.1,1.2-3.7,0.2-3.7-2.2l-0.1-22.7c0.1-2.6,1.5-5,3.7-6.4L258,7.2z"/>
		<polygon class="st1" points="239.4,29.5 251.3,28.6 239.5,41.4 		"/>
		<g class="st68">
			
				<linearGradient id="SVGID_00000170958947198910323070000017789948463926121614_" gradientUnits="userSpaceOnUse" x1="265.7536" y1="374.295" x2="284.1937" y2="374.295" gradientTransform="matrix(1 0 0 -1 0 401)">
				<stop  offset="0" style="stop-color:#53326C"/>
				<stop  offset="1" style="stop-color:#BA6AB5"/>
			</linearGradient>
			<path style="fill:url(#SVGID_00000170958947198910323070000017789948463926121614_);" d="M284.2,21.6L284.2,21.6
				c0,0.2-0.1,0.3-0.2,0.4l-17.5,10.1c-0.2,0.1-0.5,0.1-0.6-0.2c0-0.1-0.1-0.2-0.1-0.2l0,0c0-0.2,0.1-0.3,0.2-0.4l17.5-10.1
				c0.2-0.1,0.5-0.1,0.6,0.2C284.2,21.5,284.2,21.6,284.2,21.6z"/>
			
				<linearGradient id="SVGID_00000163795187622720359790000012986795832019144064_" gradientUnits="userSpaceOnUse" x1="266.4947" y1="368.0284" x2="284.9348" y2="368.0284" gradientTransform="matrix(1 0 0 -1 0 401)">
				<stop  offset="0" style="stop-color:#53326C"/>
				<stop  offset="1" style="stop-color:#BA6AB5"/>
			</linearGradient>
			<path style="fill:url(#SVGID_00000163795187622720359790000012986795832019144064_);" d="M284.9,27.9L284.9,27.9
				c0,0.2-0.1,0.3-0.2,0.4l-17.5,10.1c-0.2,0.1-0.5,0.1-0.6-0.2c0-0.1-0.1-0.2-0.1-0.2l0,0c0-0.2,0.1-0.3,0.2-0.4l17.5-10.1
				c0.2-0.1,0.5-0.1,0.6,0.2C284.9,27.8,284.9,27.8,284.9,27.9z"/>
			
				<linearGradient id="SVGID_00000131349041865107725720000014445252955786361001_" gradientUnits="userSpaceOnUse" x1="270.5053" y1="373.5811" x2="288.9454" y2="373.5811" gradientTransform="matrix(1 0 0 -1 0 401)">
				<stop  offset="0" style="stop-color:#53326C"/>
				<stop  offset="1" style="stop-color:#BA6AB5"/>
			</linearGradient>
			<path style="fill:url(#SVGID_00000131349041865107725720000014445252955786361001_);" d="M288.9,22.4L288.9,22.4
				c0,0.2-0.1,0.3-0.2,0.4l-17.5,10.1c-0.2,0.1-0.5,0.1-0.6-0.2c0-0.1-0.1-0.2-0.1-0.2l0,0c0-0.2,0.1-0.3,0.2-0.4L288.3,22
				c0.2-0.1,0.5-0.1,0.6,0.2C288.9,22.2,288.9,22.3,288.9,22.4z"/>
		</g>
		
			<linearGradient id="SVGID_00000033334148771270254700000001821299008029684105_" gradientUnits="userSpaceOnUse" x1="394.6595" y1="262.1299" x2="421.0335" y2="262.1299" gradientTransform="matrix(1 0 0 -1 0 401)">
			<stop  offset="0" style="stop-color:#EC7BAD"/>
			<stop  offset="1" style="stop-color:#FBC1B4"/>
		</linearGradient>
		<path style="fill:url(#SVGID_00000033334148771270254700000001821299008029684105_);" d="M418.5,134.5l-21.3-12.3
			c-1.4-0.8-2.5-0.2-2.5,1.4v15.3c0.1,1.8,1,3.4,2.5,4.4l7,4.1l0,0l2.6,6l2.4-3.1l9.3,5.4c1.4,0.8,2.5,0.2,2.5-1.4v-15.3
			C421,137.1,420,135.5,418.5,134.5z"/>
		<path class="st1" d="M396.8,128.1L396.8,128.1c0,0.2,0.1,0.3,0.3,0.4l19,11c0.2,0.1,0.5,0.1,0.7-0.2c0-0.1,0.1-0.2,0.1-0.3l0,0
			c0-0.2-0.1-0.3-0.2-0.4l-19.1-11c-0.2-0.1-0.5-0.1-0.7,0.2C396.9,127.9,396.8,128,396.8,128.1z"/>
		<path class="st1" d="M396.9,132.1L396.9,132.1c0,0.2,0.1,0.3,0.3,0.4l19.1,11c0.2,0.1,0.5,0,0.7-0.2c0-0.1,0.1-0.2,0.1-0.2l0,0
			c0-0.2-0.1-0.3-0.2-0.4l-19.1-11c-0.2-0.1-0.5-0.1-0.7,0.2C397,131.9,396.9,132,396.9,132.1z"/>
		<path class="st1" d="M396.8,136.1L396.8,136.1c0,0.2,0.1,0.3,0.3,0.4l19,11c0.2,0.1,0.5,0.1,0.7-0.2c0-0.1,0.1-0.2,0.1-0.3l0,0
			c0-0.2-0.1-0.3-0.2-0.4l-19.1-11c-0.2-0.1-0.5,0-0.7,0.2C396.8,135.9,396.8,136,396.8,136.1z"/>
		<path class="st1" d="M396.9,140.1L396.9,140.1c0,0.2,0.1,0.3,0.3,0.4l19,11c0.2,0.1,0.5,0.1,0.7-0.2c0-0.1,0.1-0.2,0.1-0.3l0,0
			c0-0.2-0.1-0.3-0.2-0.4l-19.1-11c-0.2-0.1-0.5-0.1-0.7,0.2C396.9,139.9,396.9,140,396.9,140.1z"/>
		<g class="st68">
			
				<linearGradient id="SVGID_00000007394726181403016380000010309622905045207729_" gradientUnits="userSpaceOnUse" x1="428.2373" y1="260.5663" x2="446.6783" y2="260.5663" gradientTransform="matrix(1 0 0 -1 0 401)">
				<stop  offset="0" style="stop-color:#53326C"/>
				<stop  offset="1" style="stop-color:#BA6AB5"/>
			</linearGradient>
			<path style="fill:url(#SVGID_00000007394726181403016380000010309622905045207729_);" d="M446.7,135.4L446.7,135.4
				c0,0.2-0.1,0.3-0.2,0.4l-17.5,10.1c-0.2,0.1-0.5,0.1-0.6-0.2c0-0.1-0.1-0.1-0.1-0.2l0,0c0-0.2,0.1-0.3,0.2-0.4L446,135
				c0.2-0.1,0.5-0.1,0.6,0.2C446.7,135.2,446.7,135.3,446.7,135.4z"/>
			
				<linearGradient id="SVGID_00000160160196889266984190000010739152334924581529_" gradientUnits="userSpaceOnUse" x1="428.9783" y1="254.2877" x2="447.4184" y2="254.2877" gradientTransform="matrix(1 0 0 -1 0 401)">
				<stop  offset="0" style="stop-color:#53326C"/>
				<stop  offset="1" style="stop-color:#BA6AB5"/>
			</linearGradient>
			<path style="fill:url(#SVGID_00000160160196889266984190000010739152334924581529_);" d="M447.4,141.7L447.4,141.7
				c0,0.2-0.1,0.3-0.2,0.4l-17.5,10.1c-0.2,0.1-0.5,0.1-0.6-0.2c0-0.1-0.1-0.2-0.1-0.2l0,0c0-0.2,0.1-0.3,0.2-0.4l17.5-10.1
				c0.2-0.1,0.5-0.1,0.6,0.2C447.4,141.5,447.4,141.6,447.4,141.7z"/>
			
				<linearGradient id="SVGID_00000158003135915680698820000013286770399606789049_" gradientUnits="userSpaceOnUse" x1="432.989" y1="259.8622" x2="451.429" y2="259.8622" gradientTransform="matrix(1 0 0 -1 0 401)">
				<stop  offset="0" style="stop-color:#53326C"/>
				<stop  offset="1" style="stop-color:#BA6AB5"/>
			</linearGradient>
			<path style="fill:url(#SVGID_00000158003135915680698820000013286770399606789049_);" d="M451.4,136.1L451.4,136.1
				c0,0.2-0.1,0.3-0.2,0.4l-17.5,10.1c-0.2,0.1-0.5,0.1-0.6-0.2c0-0.1-0.1-0.2-0.1-0.2l0,0c0-0.2,0.1-0.3,0.2-0.4l17.5-10.1
				c0.2-0.1,0.5-0.1,0.6,0.2C451.4,135.9,451.4,136,451.4,136.1z"/>
		</g>
		<path class="st66" d="M78.7,137.2l21.3-12.3c1.4-0.8,2.5-0.2,2.5,1.4v15.3c-0.1,1.8-1,3.4-2.5,4.4l-7,4.1l0,0l-2.6,6l-2.4-3.1
			l-9.3,5.4c-1.4,0.8-2.5,0.2-2.5-1.4v-15.3C76.2,139.8,77.2,138.1,78.7,137.2z"/>
		<path class="st1" d="M100.4,130.8L100.4,130.8c0,0.2-0.1,0.3-0.2,0.4l-19.1,11c-0.2,0.1-0.5,0.1-0.7-0.2c0-0.1-0.1-0.2-0.1-0.3
			l0,0c0-0.2,0.1-0.3,0.3-0.4l19-11c0.2-0.1,0.5-0.1,0.7,0.2C100.3,130.6,100.4,130.7,100.4,130.8z"/>
		<path class="st1" d="M100.3,134.8L100.3,134.8c0,0.2-0.1,0.3-0.2,0.4l-19,11c-0.2,0.1-0.5,0.1-0.7-0.2c0-0.1-0.1-0.2-0.1-0.3l0,0
			c0-0.2,0.1-0.3,0.3-0.4l19-11c0.2-0.1,0.5-0.1,0.7,0.2C100.2,134.6,100.3,134.7,100.3,134.8z"/>
		<path class="st1" d="M100.4,138.8L100.4,138.8c0,0.2-0.1,0.3-0.2,0.4l-19.1,11c-0.2,0.1-0.5,0-0.7-0.2c0-0.1-0.1-0.2-0.1-0.2l0,0
			c0-0.2,0.1-0.3,0.3-0.4l19.1-11c0.2-0.1,0.5,0,0.7,0.2C100.4,138.6,100.4,138.7,100.4,138.8z"/>
		<path class="st1" d="M100.3,142.8L100.3,142.8c0,0.2-0.1,0.3-0.2,0.4l-19.1,11c-0.2,0.1-0.5,0-0.7-0.2c0-0.1-0.1-0.1-0.1-0.2l0,0
			c0-0.2,0.1-0.3,0.3-0.4l19-11c0.2-0.2,0.5-0.1,0.7,0.1C100.3,142.6,100.3,142.7,100.3,142.8z"/>
		<g class="st68">
			
				<linearGradient id="SVGID_00000047773970073891776200000011995982716044778382_" gradientUnits="userSpaceOnUse" x1="-514.3021" y1="258.1349" x2="-495.862" y2="258.1349" gradientTransform="matrix(-1 0 0 -1 -442.55 401)">
				<stop  offset="0" style="stop-color:#53326C"/>
				<stop  offset="1" style="stop-color:#BA6AB5"/>
			</linearGradient>
			<path style="fill:url(#SVGID_00000047773970073891776200000011995982716044778382_);" d="M53.3,137.8L53.3,137.8
				c0,0.2,0.1,0.3,0.2,0.4l17.5,10.1c0.2,0.1,0.5,0.1,0.6-0.2c0-0.1,0.1-0.2,0.1-0.2l0,0c0-0.2-0.1-0.3-0.2-0.4L54,137.4
				c-0.2-0.1-0.5-0.1-0.6,0.2C53.3,137.6,53.3,137.7,53.3,137.8z"/>
			
				<linearGradient id="SVGID_00000109022044821845234940000014474470411512106658_" gradientUnits="userSpaceOnUse" x1="-513.561" y1="251.8475" x2="-495.1209" y2="251.8475" gradientTransform="matrix(-1 0 0 -1 -442.55 401)">
				<stop  offset="0" style="stop-color:#53326C"/>
				<stop  offset="1" style="stop-color:#BA6AB5"/>
			</linearGradient>
			<path style="fill:url(#SVGID_00000109022044821845234940000014474470411512106658_);" d="M52.6,144L52.6,144
				c0,0.2,0.1,0.3,0.2,0.4l17.5,10.2c0.2,0.1,0.5,0.1,0.6-0.2c0-0.1,0.1-0.2,0.1-0.2l0,0c0-0.2-0.1-0.3-0.2-0.4l-17.5-10.1
				c-0.2-0.1-0.5-0.1-0.6,0.2C52.6,143.9,52.6,144,52.6,144z"/>
			
				<linearGradient id="SVGID_00000085965475962959708580000016446793910604130198_" gradientUnits="userSpaceOnUse" x1="-509.5504" y1="257.4545" x2="-491.121" y2="257.4545" gradientTransform="matrix(-1 0 0 -1 -442.55 401)">
				<stop  offset="0" style="stop-color:#53326C"/>
				<stop  offset="1" style="stop-color:#BA6AB5"/>
			</linearGradient>
			<path style="fill:url(#SVGID_00000085965475962959708580000016446793910604130198_);" d="M48.6,138.5L48.6,138.5
				c0,0.2,0.1,0.3,0.2,0.4L66.3,149c0.2,0.1,0.5,0.1,0.6-0.2c0-0.1,0.1-0.2,0.1-0.2l0,0c0-0.2-0.1-0.3-0.2-0.4l-17.5-10.1
				c-0.2-0.1-0.5-0.1-0.6,0.2C48.6,138.3,48.6,138.4,48.6,138.5z"/>
		</g>
		
			<linearGradient id="SVGID_00000155114549315762070120000015843779886768132273_" gradientUnits="userSpaceOnUse" x1="359.7194" y1="205.1262" x2="372.3398" y2="192.0917" gradientTransform="matrix(1 0 0 -1 0 401)">
			<stop  offset="0" style="stop-color:#4A335E"/>
			<stop  offset="1" style="stop-color:#FBC1B4;stop-opacity:0"/>
		</linearGradient>
		<polygon style="fill:url(#SVGID_00000155114549315762070120000015843779886768132273_);" points="372.4,200.3 381.4,205.1 
			368.2,212.4 358.9,208.3 		"/>
		<g>
			<polygon class="st7" points="372.4,133.5 372.2,200.9 358.7,208.7 358.9,141.3 			"/>
			<polygon class="st66" points="358.9,141.3 358.7,208.7 345.2,200.9 345.4,133.5 			"/>
			<polygon class="st7" points="372.4,133.5 358.9,141.3 345.4,133.5 358.8,125.7 			"/>
		</g>
		
			<linearGradient id="SVGID_00000033371108209288112530000010116193209242476990_" gradientUnits="userSpaceOnUse" x1="396.6103" y1="194.5002" x2="409.2306" y2="181.4657" gradientTransform="matrix(1 0 0 -1 0 401)">
			<stop  offset="0" style="stop-color:#4A335E"/>
			<stop  offset="1" style="stop-color:#FBC1B4;stop-opacity:0"/>
		</linearGradient>
		<polygon style="fill:url(#SVGID_00000033371108209288112530000010116193209242476990_);" points="409.3,211 418.3,215.7 
			405.1,223.1 395.8,218.9 		"/>
		<g>
			
				<linearGradient id="SVGID_00000013164494591766086780000010726619912774238885_" gradientUnits="userSpaceOnUse" x1="395.8256" y1="203.3115" x2="409.3505" y2="203.3115" gradientTransform="matrix(1 0 0 -1 0 401)">
				<stop  offset="0" style="stop-color:#53326C"/>
				<stop  offset="1" style="stop-color:#BA6AB5"/>
			</linearGradient>
			<polygon style="fill:url(#SVGID_00000013164494591766086780000010726619912774238885_);" points="409.4,176.6 409.3,211 
				395.8,218.8 395.9,184.4 			"/>
			
				<linearGradient id="SVGID_00000025405444263901192100000007237562915260311734_" gradientUnits="userSpaceOnUse" x1="382.3225" y1="203.306" x2="395.9237" y2="203.306" gradientTransform="matrix(1 0 0 -1 0 401)">
				<stop  offset="0" style="stop-color:#53326C"/>
				<stop  offset="1" style="stop-color:#BA6AB5"/>
			</linearGradient>
			<polygon style="fill:url(#SVGID_00000025405444263901192100000007237562915260311734_);" points="395.9,184.4 395.8,218.8 
				382.3,211 382.4,176.6 			"/>
			
				<linearGradient id="SVGID_00000172405749781768850320000013560170389465020602_" gradientUnits="userSpaceOnUse" x1="382.4206" y1="224.3889" x2="409.3505" y2="224.3889" gradientTransform="matrix(1 0 0 -1 0 401)">
				<stop  offset="0" style="stop-color:#53326C"/>
				<stop  offset="1" style="stop-color:#BA6AB5"/>
			</linearGradient>
			<polygon style="fill:url(#SVGID_00000172405749781768850320000013560170389465020602_);" points="409.4,176.6 395.9,184.4 
				382.4,176.6 395.8,168.8 			"/>
		</g>
		
			<linearGradient id="SVGID_00000064345991189361440210000008218132491415501978_" gradientUnits="userSpaceOnUse" x1="320.8422" y1="194.6283" x2="333.4625" y2="181.5939" gradientTransform="matrix(1 0 0 -1 0 401)">
			<stop  offset="0" style="stop-color:#4A335E"/>
			<stop  offset="1" style="stop-color:#FBC1B4;stop-opacity:0"/>
		</linearGradient>
		<polygon style="fill:url(#SVGID_00000064345991189361440210000008218132491415501978_);" points="333.5,210.8 342.6,215.6 
			329.3,222.9 320.1,218.8 		"/>
		<g>
			
				<linearGradient id="SVGID_00000126298394371955136120000011472648562471719084_" gradientUnits="userSpaceOnUse" x1="320.0602" y1="232.0941" x2="333.7486" y2="232.0941" gradientTransform="matrix(1 0 0 -1 0 401)">
				<stop  offset="0" style="stop-color:#EC7BAD"/>
				<stop  offset="1" style="stop-color:#FBC1B4"/>
			</linearGradient>
			<polygon style="fill:url(#SVGID_00000126298394371955136120000011472648562471719084_);" points="333.7,118.4 333.5,211.6 
				320.1,219.4 320.3,126.2 			"/>
			
				<linearGradient id="SVGID_00000092416980972720518500000008533466488760409786_" gradientUnits="userSpaceOnUse" x1="306.5463" y1="232.0995" x2="320.3327" y2="232.0995" gradientTransform="matrix(1 0 0 -1 0 401)">
				<stop  offset="0" style="stop-color:#EC7BAD"/>
				<stop  offset="1" style="stop-color:#FBC1B4"/>
			</linearGradient>
			<polygon style="fill:url(#SVGID_00000092416980972720518500000008533466488760409786_);" points="320.3,126.2 320.1,219.4 
				306.5,211.6 306.8,118.4 			"/>
			
				<linearGradient id="SVGID_00000000923306985693738640000004079715090449522619_" gradientUnits="userSpaceOnUse" x1="306.8187" y1="282.6188" x2="333.7486" y2="282.6188" gradientTransform="matrix(1 0 0 -1 0 401)">
				<stop  offset="0" style="stop-color:#EC7BAD"/>
				<stop  offset="1" style="stop-color:#FBC1B4"/>
			</linearGradient>
			<polygon style="fill:url(#SVGID_00000000923306985693738640000004079715090449522619_);" points="333.7,118.4 320.3,126.2 
				306.8,118.4 320.2,110.6 			"/>
		</g>
		
			<linearGradient id="SVGID_00000052806903928172577370000009098354586631637906_" gradientUnits="userSpaceOnUse" x1="361.2177" y1="153.1018" x2="407.7101" y2="99.1331" gradientTransform="matrix(1 0 0 -1 0 401)">
			<stop  offset="0" style="stop-color:#4A335E"/>
			<stop  offset="1" style="stop-color:#FBC1B4;stop-opacity:0"/>
		</linearGradient>
		<path style="fill:url(#SVGID_00000052806903928172577370000009098354586631637906_);" d="M411,250.7l29.4,15.7
			c-3,6.9-7.1,13.3-12.2,18.9c-19.4,21.2-46.6,22.9-54.2,23.1l-45.6-25.3L411,250.7z"/>
		<g>
			
				<linearGradient id="SVGID_00000106827159301189505980000005619639855006168965_" gradientUnits="userSpaceOnUse" x1="320.3432" y1="123.6173" x2="416.4559" y2="123.6173" gradientTransform="matrix(1 0 0 -1 0 401)">
				<stop  offset="0" style="stop-color:#53326C"/>
				<stop  offset="1" style="stop-color:#BA6AB5"/>
			</linearGradient>
			<path style="fill:url(#SVGID_00000106827159301189505980000005619639855006168965_);" d="M416.3,260.5c0,0.3,0,0.5-0.1,0.7
				c-0.1,0.2-0.1,0.4-0.1,0.6c0,0.2-0.1,0.5-0.1,0.7s-0.1,0.4-0.1,0.6c0,0.2-0.1,0.5-0.2,0.7c-0.1,0.2-0.1,0.4-0.2,0.6
				s-0.1,0.5-0.2,0.7l-0.2,0.6c-0.1,0.3-0.2,0.5-0.3,0.7s-0.2,0.4-0.3,0.6c-0.1,0.2-0.2,0.5-0.4,0.7c-0.1,0.2-0.2,0.4-0.3,0.6
				c-0.1,0.2-0.3,0.6-0.5,0.9c-0.2,0.3-0.2,0.3-0.3,0.5s-0.4,0.6-0.7,0.9c-0.1,0.1-0.2,0.3-0.3,0.4c-0.4,0.5-0.8,1-1.2,1.5l-0.3,0.4
				c-0.3,0.4-0.7,0.7-1.1,1.1l-0.5,0.5l-0.7,0.6l-0.7,0.5l-0.8,0.6l-0.7,0.5l-0.8,0.6l-0.8,0.5l-0.9,0.5l-1.1,0.7
				c-0.7,0.4-1.5,0.8-2.2,1.2l-0.7,0.3c-0.6,0.3-1.2,0.6-1.8,0.8l-0.6,0.3c-0.8,0.3-1.6,0.7-2.4,1l-0.4,0.2l-2.1,0.7l-0.9,0.3
				l-1.2,0.3l-1,0.3l-1.2,0.3l-1,0.3l-1.2,0.3l-1,0.2l-1.3,0.2l-1,0.2c-0.9,0.2-1.8,0.3-2.7,0.4h-0.4c-0.8,0.1-1.6,0.2-2.4,0.3
				l-0.9,0.1l-1.5,0.1l-1,0.1l-1.6,0.1h-0.9c-0.5,0-0.9,0-1.4,0h-3.4H365h-1c-0.5,0-1-0.1-1.5-0.1c-0.3,0-0.6,0-0.9-0.1
				c-0.6,0-1.2-0.1-1.8-0.2h-0.5c-0.8-0.1-1.5-0.2-2.3-0.3l-0.4-0.1l-1.9-0.3l-0.8-0.2l-1.5-0.3l-0.8-0.2c-0.5-0.1-1.1-0.2-1.6-0.4
				l-0.9-0.2l-1.5-0.4l-0.8-0.2c-0.8-0.2-1.5-0.4-2.3-0.7l-0.4-0.1c-0.9-0.3-1.7-0.6-2.5-0.9l-0.5-0.2c-1.1-0.4-2.2-0.9-3.2-1.4
				l-0.3-0.2c-1.1-0.5-2.2-1.1-3.2-1.7c-7.7-4.4-12.3-10-13.7-15.8c-0.3-1.3-0.5-2.7-0.5-4l0,0v8.3c0,7.2,4.7,14.3,14.2,19.8
				c1,0.6,2.1,1.1,3.1,1.7l0.3,0.2c1.1,0.5,2.1,0.9,3.2,1.4l0.3,0.1l0.2,0.1c0.8,0.3,1.7,0.6,2.5,0.9l0.4,0.1
				c0.8,0.3,1.5,0.5,2.3,0.7l0.4,0.1l0.4,0.1c0.5,0.1,1,0.3,1.5,0.4l0.9,0.2l1.6,0.4c0.2,0,0.4,0.1,0.6,0.1h0.2
				c0.5,0.1,1,0.2,1.5,0.3l0.8,0.2c0.7,0.1,1.3,0.2,2,0.3l0.4,0.1l0,0c0.8,0.1,1.5,0.2,2.3,0.3l0.5,0.1l1.8,0.2l0,0h0.8l1.5,0.1h1
				l1.4,0.1h0.9h1.5h1h1.4h0.3h0.7l1.6-0.1l1-0.1l1.5-0.1h0.5h0.4l2.4-0.3l0.4-0.1c0.9-0.1,1.8-0.3,2.7-0.4h0.3l0.7-0.1l1.3-0.3
				l1-0.2l1.2-0.3l1-0.3l1.2-0.3l1-0.3l1.2-0.4l0.5-0.2l0.4-0.1c0.7-0.2,1.4-0.5,2.1-0.7l0.4-0.2c0.8-0.3,1.6-0.6,2.4-1l0.6-0.3
				c0.6-0.3,1.2-0.5,1.8-0.8l0.7-0.3c0.8-0.4,1.5-0.8,2.2-1.2l0.6-0.3l0.5-0.3l0.9-0.6l0.8-0.5l0.8-0.6l0.7-0.5l0.7-0.6l0.7-0.6
				l0.7-0.6l0.3-0.3l0.2-0.2c0.4-0.4,0.7-0.7,1.1-1.1c0.1-0.1,0.2-0.3,0.3-0.4c0.4-0.5,0.9-1,1.2-1.4v-0.1l0.3-0.3
				c0.2-0.3,0.5-0.6,0.7-0.9c0.2-0.3,0.2-0.3,0.3-0.5c0.1-0.2,0.4-0.6,0.5-0.9l0.2-0.2c0.1-0.1,0.1-0.2,0.2-0.3
				c0.1-0.1,0.3-0.5,0.4-0.7c0.1-0.3,0.2-0.4,0.3-0.6c0.1-0.2,0.2-0.5,0.3-0.7l0.1-0.3l0.1-0.3c0.1-0.2,0.2-0.5,0.2-0.7
				c0.1-0.2,0.1-0.4,0.2-0.6c0.1-0.2,0.1-0.5,0.2-0.7c0.1-0.2,0.1-0.3,0.1-0.4c0-0.1,0-0.2,0-0.3c0-0.2,0.1-0.5,0.1-0.7
				c0-0.2,0.1-0.4,0.1-0.6s0-0.5,0-0.7s0-0.3,0-0.4s0-0.3,0-0.4v-8.2C416.4,259.9,416.4,260.2,416.3,260.5z"/>
			
				<linearGradient id="SVGID_00000123422355686317535960000012034808675549338279_" gradientUnits="userSpaceOnUse" x1="320.3063" y1="141.5065" x2="416.386" y2="141.5065" gradientTransform="matrix(1 0 0 -1 -2.440216e-02 400.9994)">
				<stop  offset="0" style="stop-color:#EC7BAD"/>
				<stop  offset="1" style="stop-color:#FBC1B4"/>
			</linearGradient>
			<path style="fill:url(#SVGID_00000123422355686317535960000012034808675549338279_);" d="M320.3,259.4
				c0-15.4,21.6-27.8,48.1-27.7s48,12.6,48,28c0,15.4-21.6,27.8-48.1,27.7C341.7,287.2,320.2,274.7,320.3,259.4z"/>
		</g>
		
			<ellipse transform="matrix(2.792587e-03 -1 1 2.792587e-03 107.8779 626.9904)" class="st1" cx="368.3" cy="259.4" rx="24.7" ry="42.6"/>
		
			<linearGradient id="SVGID_00000075150445436319873250000013565465405821389188_" gradientUnits="userSpaceOnUse" x1="332.1967" y1="141.6037" x2="404.4744" y2="141.6037" gradientTransform="matrix(1 0 0 -1 -2.468490e-02 401.0092)">
			<stop  offset="0" style="stop-color:#EC7BAD"/>
			<stop  offset="1" style="stop-color:#FBC1B4"/>
		</linearGradient>
		<path style="fill:url(#SVGID_00000075150445436319873250000013565465405821389188_);" d="M332.2,259.3c0-11.6,16.2-20.9,36.2-20.8
			c20,0.1,36.1,9.5,36.1,21s-16.2,20.9-36.2,20.8C348.3,280.3,332.1,270.9,332.2,259.3z"/>
		<path class="st1" d="M385.5,249.5c9.5,5.5,9.6,14.4,0.1,19.9c-9.5,5.5-24.8,5.5-34.4,0s-9.6-14.4-0.1-19.9
			C360.5,244,375.9,244,385.5,249.5z"/>
		
			<linearGradient id="SVGID_00000005252326408972429620000006467248252785210779_" gradientUnits="userSpaceOnUse" x1="358.8257" y1="141.5777" x2="377.8215" y2="141.5777" gradientTransform="matrix(1 0 0 -1 0 401)">
			<stop  offset="0" style="stop-color:#EC7BAD"/>
			<stop  offset="1" style="stop-color:#FBC1B4"/>
		</linearGradient>
		<path style="fill:url(#SVGID_00000005252326408972429620000006467248252785210779_);" d="M375,255.5c3.7,2.2,3.7,5.6,0,7.8
			c-4.2,2.1-9.2,2.1-13.4,0c-3.7-2.2-3.7-5.6,0-7.8C365.8,253.4,370.8,253.4,375,255.5z"/>
		
			<linearGradient id="SVGID_00000088828811959390876310000005272378567396039599_" gradientUnits="userSpaceOnUse" x1="368.1329" y1="216.8527" x2="379.8377" y2="216.8527" gradientTransform="matrix(1 0 0 -1 0 401)">
			<stop  offset="0" style="stop-color:#EC7BAD"/>
			<stop  offset="1" style="stop-color:#FBC1B4"/>
		</linearGradient>
		<polygon style="fill:url(#SVGID_00000088828811959390876310000005272378567396039599_);" points="368.1,181.4 379.8,169.7 
			379.8,186.5 368.1,198.6 		"/>
		
			<linearGradient id="SVGID_00000012473517297525907750000016256274043451848087_" gradientUnits="userSpaceOnUse" x1="355.5126" y1="216.8527" x2="367.2065" y2="216.8527" gradientTransform="matrix(1 0 0 -1 0 401)">
			<stop  offset="0" style="stop-color:#EC7BAD"/>
			<stop  offset="1" style="stop-color:#FBC1B4"/>
		</linearGradient>
		<polygon style="fill:url(#SVGID_00000012473517297525907750000016256274043451848087_);" points="367.2,181.4 355.5,169.7 
			355.5,186.5 367.2,198.6 		"/>
		
			<linearGradient id="SVGID_00000097476434971316549990000004550969504085644167_" gradientUnits="userSpaceOnUse" x1="368.1329" y1="192.157" x2="379.8377" y2="192.157" gradientTransform="matrix(1 0 0 -1 0 401)">
			<stop  offset="0" style="stop-color:#EC7BAD"/>
			<stop  offset="1" style="stop-color:#FBC1B4"/>
		</linearGradient>
		<polygon style="fill:url(#SVGID_00000097476434971316549990000004550969504085644167_);" points="368.1,206.1 379.8,194.4 
			379.8,211.2 368.1,223.3 		"/>
		
			<linearGradient id="SVGID_00000098222014551757450020000017309393672577600175_" gradientUnits="userSpaceOnUse" x1="355.5126" y1="192.157" x2="367.2065" y2="192.157" gradientTransform="matrix(1 0 0 -1 0 401)">
			<stop  offset="0" style="stop-color:#EC7BAD"/>
			<stop  offset="1" style="stop-color:#FBC1B4"/>
		</linearGradient>
		<polygon style="fill:url(#SVGID_00000098222014551757450020000017309393672577600175_);" points="367.2,206.1 355.5,194.4 
			355.5,211.2 367.2,223.3 		"/>
		
			<linearGradient id="SVGID_00000163769483401280230280000016362057925578718362_" gradientUnits="userSpaceOnUse" x1="366.2148" y1="189.7426" x2="370.4324" y2="189.7426" gradientTransform="matrix(1 0 0 -1 0 401)">
			<stop  offset="0" style="stop-color:#53326C"/>
			<stop  offset="1" style="stop-color:#BA6AB5"/>
		</linearGradient>
		<path style="fill:url(#SVGID_00000163769483401280230280000016362057925578718362_);" d="M368.3,256.8c-1.2,0-2.1-0.9-2.1-2.1V168
			c-0.1-1.2,0.8-2.2,2-2.3c1.2-0.1,2.2,0.8,2.3,2c0,0.1,0,0.2,0,0.3v86.8C370.4,255.9,369.5,256.8,368.3,256.8
			C368.3,256.8,368.3,256.8,368.3,256.8z"/>
		
			<linearGradient id="SVGID_00000037681605995358023640000005381889793491640245_" gradientUnits="userSpaceOnUse" x1="283.5327" y1="135.0064" x2="292.2841" y2="123.6394" gradientTransform="matrix(1 0 0 -1 0 401)">
			<stop  offset="0" style="stop-color:#4A335E"/>
			<stop  offset="1" style="stop-color:#FBC1B4;stop-opacity:0"/>
		</linearGradient>
		<path style="fill:url(#SVGID_00000037681605995358023640000005381889793491640245_);" d="M292.8,269.7l8.9,4.7l-13,7.2l-7.6-3.4
			c-1.1-5.1,0.4-10.3,4.2-11.2C288.2,266.5,291,267.5,292.8,269.7z"/>
		
			<linearGradient id="SVGID_00000137823461848581281640000004498200250728154532_" gradientUnits="userSpaceOnUse" x1="285.0765" y1="132.4593" x2="296.2909" y2="132.4593" gradientTransform="matrix(1 0 0 -1 0 401)">
			<stop  offset="0" style="stop-color:#53326C"/>
			<stop  offset="1" style="stop-color:#BA6AB5"/>
		</linearGradient>
		<path style="fill:url(#SVGID_00000137823461848581281640000004498200250728154532_);" d="M294.6,268.8c-0.4-0.4-0.9-0.7-1.4-1
			l-1.7-1.1c-0.2-0.7-0.6-1.2-1.2-1.6c-0.6-0.2-0.2,0.2,0,0.8c-1.2-0.8-2.5-1.6-3.5-2.1c-1.8-0.9-1.9,2.5-1.4,3.1
			c0.2,0.2,6,5,6.8,5.5c1.3,0.9,2.6,1.3,3.3,0.7c0.2-0.2,0.4-0.4,0.6-0.7C296.8,270.9,295.7,269.7,294.6,268.8z"/>
		<polygon class="st100" points="297.8,221.5 294,225.1 295.1,228.7 298.6,222.6 		"/>
		
			<linearGradient id="SVGID_00000132056628582819168440000013427328645184222908_" gradientUnits="userSpaceOnUse" x1="296.6177" y1="185.8196" x2="303.5517" y2="185.8196" gradientTransform="matrix(1 0 0 -1 0 401)">
			<stop  offset="0" style="stop-color:#53326C"/>
			<stop  offset="1" style="stop-color:#BA6AB5"/>
		</linearGradient>
		<path style="fill:url(#SVGID_00000132056628582819168440000013427328645184222908_);" d="M300.1,205.4c-1.2,1.2-2.6,1.7-3.4,3.5
			c0.5,1.3,1.5,3.7,2,5c0,0-2.4,7.9-2,8.2l1.4,2.8c2.3-1.2,6.3-7.1,5.3-12.3C302.8,210.1,301.7,207.6,300.1,205.4z"/>
		<path class="st102" d="M258,196.6c-0.1-0.7-0.7-2.2-1.1-3.3c-0.4-1.4-1.1-2.5-1.5-2.4c-0.4,0.1-0.3,1.4,0.2,2.8
			c-1.9-1.3-4-2-4.7-1.1c-0.7,0.9,0,3,1.9,4.4c1,0.6,2.1,1,3.3,1.4c1.2,0.4,0.5,2.8,2.2,0C258.9,197.2,258.4,197.2,258,196.6z"/>
		<path class="st103" d="M292.5,196.9h0.4H292.5z"/>
		<path class="st100" d="M281.3,272.4l-0.4,2.9c0,0,0.9,2.2,3.8,0.8l0.3-5.5L281.3,272.4z"/>
		<path class="st100" d="M295,266.9l0.6,3.2c0,0-2.3,2.4-3.9-1.6l-0.3-4.8L295,266.9z"/>
		
			<linearGradient id="SVGID_00000170258625246724685320000001546188607001879191_" gradientUnits="userSpaceOnUse" x1="279.5946" y1="152.002" x2="296.0838" y2="152.002" gradientTransform="matrix(1 0 0 -1 0 401)">
			<stop  offset="0" style="stop-color:#EC7BAD"/>
			<stop  offset="1" style="stop-color:#FBC1B4"/>
		</linearGradient>
		<path style="fill:url(#SVGID_00000170258625246724685320000001546188607001879191_);" d="M279.6,229.9c0,0,0.7,29.8,1.6,43.1
			c0,0-0.5,0.6,3.7,0.6c0,0,2.7-29.2,2.9-33.7c0,0,0.5-7.4,2-3.3c0.6,1.6,1.5,27.1,1.7,29.9c0,0,1.1,2.6,3.6,1.8
			c0,0,0.9-16.1,0.9-30.3c0-5,0-9.8-0.3-13.6L279.6,229.9z"/>
		<path class="st1" d="M298.1,225.9c-0.5,0-1-0.3-1.1-0.8c-0.2-0.7-0.6-1.3-1.2-1.7c-0.5-0.3-0.6-1-0.3-1.5c0,0,0,0,0,0
			c0.3-0.5,1-0.6,1.5-0.3c1,0.7,1.8,1.8,2.1,3c0.1,0.6-0.2,1.2-0.8,1.3C298.3,225.8,298.2,225.9,298.1,225.9z"/>
		
			<linearGradient id="SVGID_00000006678875978605973200000010388465081866640512_" gradientUnits="userSpaceOnUse" x1="257.7107" y1="186.2384" x2="300.0944" y2="186.2384" gradientTransform="matrix(1 0 0 -1 0 401)">
			<stop  offset="0" style="stop-color:#53326C"/>
			<stop  offset="1" style="stop-color:#BA6AB5"/>
		</linearGradient>
		<path style="fill:url(#SVGID_00000006678875978605973200000010388465081866640512_);" d="M291,198c-3.4,0-0.4,1.4-7.2,2l-16.3,1.7
			c-2.7-1.1-5.3-2.4-7.7-3.9c-1.2,1.2-2,0.8-2.1,2.5c2,1.9,5.8,6.5,7.5,7.8c0,0,0,1.5,14.4-0.6c0,0,0,0.2,0,0.6
			c-0.5,7.7-0.5,15.4,0.1,23.1c0,0,10.2,3.4,16-4.2c0,0,0.3-7,0-19.3c0.5,0.7,1,1.5,1.3,2.4c0.8-1.6,1.8-3.1,3-4.5
			C296.9,200.7,292.5,196.9,291,198z"/>
		<path class="st102" d="M294,188.5c0.2-3.6-2.5-6.6-6.1-6.8c-3.6-0.2-6.6,2.5-6.8,6.1c0,0.3,0,0.5,0,0.8c0,3.8-0.1,7.8,3.5,7.8
			c0.4,0,0.9-0.1,1.3-0.2l-0.3,2.6c0,0,2.2,2.9,5.4-0.8v-4.5C292.1,192.1,294,190.2,294,188.5z"/>
		
			<linearGradient id="SVGID_00000045606360096342153160000016068467093924806029_" gradientUnits="userSpaceOnUse" x1="270.7969" y1="124.5897" x2="285.4071" y2="124.5897" gradientTransform="matrix(1 0 0 -1 0 401)">
			<stop  offset="0" style="stop-color:#53326C"/>
			<stop  offset="1" style="stop-color:#BA6AB5"/>
		</linearGradient>
		<path style="fill:url(#SVGID_00000045606360096342153160000016068467093924806029_);" d="M281.7,274.8h-0.3
			c-0.1-0.6-0.3-1.1-0.7-1.5c-0.8-0.6,0.3,0.9-0.7,1.8c-1.8,0.3-9.1,1.5-9.2,2.5c-0.2,1.1,1,1.9,1.9,2.1h8.9c0.8,0.1,1.6,0.1,2.5,0
			c1.1-0.3,1.3-1,1.3-2C285.4,276.2,285.9,274.8,281.7,274.8z"/>
		
			<linearGradient id="SVGID_00000033342548585778605530000010247662611026073240_" gradientUnits="userSpaceOnUse" x1="279.3307" y1="212.5296" x2="294.4216" y2="212.5296" gradientTransform="matrix(1 0 0 -1 0 401)">
			<stop  offset="0" style="stop-color:#53326C"/>
			<stop  offset="1" style="stop-color:#BA6AB5"/>
		</linearGradient>
		<path style="fill:url(#SVGID_00000033342548585778605530000010247662611026073240_);" d="M290.9,181.5c-2.3-0.8-4.7-0.3-7,0.4
			c-3.9,1.2-4-3.3-4.6,0c-0.3,1.9,1.7,4.1,3.1,4.8c1,0.5,2.4,0.8,3,1.8c0,1.8,0.1,3.5,0.3,5.2c1.1-3.3,0.4-3.9,0.4-4.1
			c0.7-0.7,1.4-0.7,1.8,0.7c0.3,1.4,0.1,3.1,0.5,4.6c0.1,0.4,0.3,1.3,0.8,1.5c0.9,0.2,2.1-1.4,2.5-2c1.2-1.6,2.1-3.5,2.5-5.4
			c0.1-0.7,0.2-1.5,0.2-2.3C294.4,184.4,293,182.4,290.9,181.5z"/>
		<path class="st1" d="M286.6,201c-0.7,0-1.4-0.1-2.1-0.4c-0.5-0.3-0.7-1-0.4-1.5c0.3-0.5,0.9-0.6,1.4-0.4c0.1,0.1,2.2,1.4,4.9-1
			c0.5-0.4,0.8-0.6,1.2-0.2s0,1-0.4,1.4C289.3,200.5,288,201,286.6,201z"/>
		<path class="st1" d="M257.5,201c-0.1,0-0.2,0-0.2,0c-0.6-0.1-1-0.7-0.8-1.3c0.3-1.2,1.1-2.2,2.2-2.8c0.5-0.3,1.2-0.1,1.5,0.4
			c0,0,0,0,0,0c0.3,0.5,0.1,1.2-0.4,1.5c-0.5,0.3-0.9,0.8-1.1,1.3C258.5,200.7,258,201,257.5,201z"/>
	</g>
</g>
</svg>
